<?xml version="1.0" encoding="UTF-8" standalone="no"?>
<!-- Created with Inkscape (http://www.inkscape.org/) -->

<svg
   xmlns:dc="http://purl.org/dc/elements/1.1/"
   xmlns:cc="http://creativecommons.org/ns#"
   xmlns:rdf="http://www.w3.org/1999/02/22-rdf-syntax-ns#"
   xmlns:svg="http://www.w3.org/2000/svg"
   xmlns="http://www.w3.org/2000/svg"
   xmlns:sodipodi="http://sodipodi.sourceforge.net/DTD/sodipodi-0.dtd"
   xmlns:inkscape="http://www.inkscape.org/namespaces/inkscape"
   width="196.35234"
   height="126.74909"
   id="svg2"
   version="1.0"
   inkscape:version="0.92.3 (2405546, 2018-03-11)"
   sodipodi:docname="logo-náboj.svg"
   inkscape:export-filename="C:\Users\Olin\Documents\Náboj web\naboj_clean.png"
   inkscape:export-xdpi="198.57001"
   inkscape:export-ydpi="198.57001"
   sodipodi:version="0.32"
   inkscape:output_extension="org.inkscape.output.svg.inkscape">
  <sodipodi:namedview
     id="base"
     pagecolor="#ffffff"
     bordercolor="#666666"
     borderopacity="1.0"
     inkscape:pageopacity="0.0"
     inkscape:pageshadow="2"
     inkscape:zoom="3.4618283"
     inkscape:cx="71.533446"
     inkscape:cy="46.128843"
     inkscape:document-units="px"
     inkscape:current-layer="layer1"
     showgrid="true"
     inkscape:window-width="1920"
     inkscape:window-height="1001"
     inkscape:window-x="-9"
     inkscape:window-y="-9"
     inkscape:window-maximized="1"
     inkscape:snap-grids="false"
     inkscape:object-paths="true"
     inkscape:snap-intersection-paths="true"
     inkscape:object-nodes="true"
     inkscape:snap-smooth-nodes="true"
     inkscape:snap-midpoints="true"
     inkscape:snap-nodes="false"
     fit-margin-top="20"
     fit-margin-left="20"
     fit-margin-right="20"
     fit-margin-bottom="20">
    <inkscape:grid
       originy="-135.35605"
       originx="-69.337855"
       snapvisiblegridlinesonly="true"
       enabled="true"
       visible="true"
       empspacing="5"
       type="xygrid"
       id="grid2998"
       spacingx="1.0666667"
       spacingy="1.0666667" />
  </sodipodi:namedview>
  <defs
     id="defs4">
    <inkscape:perspective
       sodipodi:type="inkscape:persp3d"
       inkscape:vp_x="0 : 561.25983 : 1"
       inkscape:vp_y="0 : 1066.6667 : 0"
       inkscape:vp_z="793.70078 : 561.25983 : 1"
       inkscape:persp3d-origin="396.85039 : 374.17322 : 1"
       id="perspective20" />
    <marker
       style="overflow:visible"
       id="TriangleInS"
       refX="0"
       refY="0"
       orient="auto"
       inkscape:stockid="TriangleInS">
      <path
         inkscape:connector-curvature="0"
         style="fill-rule:evenodd;stroke:#000000;stroke-width:0.21333334pt"
         d="M -1.2309333,0 0.6144,-1.0666667 v 2.1333334 z"
         id="path4135" />
    </marker>
    <marker
       style="overflow:visible"
       id="Arrow2Mstart"
       refX="0"
       refY="0"
       orient="auto"
       inkscape:stockid="Arrow2Mstart">
      <path
         inkscape:connector-curvature="0"
         d="M 5.5798962,2.5815905 -1.4126653,0.01024849 5.5798966,-2.561093 c -1.117119,1.518119 -1.1106821,3.5951692 -4e-7,5.1426835 z"
         style="fill-rule:evenodd;stroke-width:0.40000001;stroke-linejoin:round"
         id="path4020" />
    </marker>
    <marker
       style="overflow:visible"
       id="TriangleInL"
       refX="0"
       refY="0"
       orient="auto"
       inkscape:stockid="TriangleInL">
      <path
         inkscape:connector-curvature="0"
         style="fill-rule:evenodd;stroke:#000000;stroke-width:0.85333335pt"
         d="M -4.9237333,0 2.4576,-4.2666667 v 8.5333334 z"
         id="path4129" />
    </marker>
    <marker
       style="overflow:visible"
       id="TriangleInM"
       refX="0"
       refY="0"
       orient="auto"
       inkscape:stockid="TriangleInM">
      <path
         inkscape:connector-curvature="0"
         style="fill-rule:evenodd;stroke:#000000;stroke-width:0.42666668pt"
         d="M -2.4618667,0 1.2288,-2.1333333 v 4.2666666 z"
         id="path4132" />
    </marker>
    <marker
       style="overflow:visible"
       id="DiamondSend"
       refX="0"
       refY="0"
       orient="auto"
       inkscape:stockid="DiamondSend">
      <path
         inkscape:connector-curvature="0"
         style="fill-rule:evenodd;stroke:#000000;stroke-width:0.21333334pt"
         d="M -1.28,-1.5084964 -2.7884991,0 -1.28,1.5084926 0.22848986,0 Z"
         id="path4099" />
    </marker>
    <marker
       style="overflow:visible"
       id="Tail"
       refX="0"
       refY="0"
       orient="auto"
       inkscape:stockid="Tail">
      <g
         transform="scale(-1.2)"
         id="g4032">
        <path
           inkscape:connector-curvature="0"
           style="fill:none;fill-rule:evenodd;stroke:#000000;stroke-width:0.85333335;stroke-linecap:round"
           d="M -4.0585252,-4.2224242 0.57975567,0"
           id="path4034" />
        <path
           inkscape:connector-curvature="0"
           style="fill:none;fill-rule:evenodd;stroke:#000000;stroke-width:0.85333335;stroke-linecap:round"
           d="M -1.3724621,-4.2224242 3.265819,0"
           id="path4036" />
        <path
           inkscape:connector-curvature="0"
           style="fill:none;fill-rule:evenodd;stroke:#000000;stroke-width:0.85333335;stroke-linecap:round"
           d="M 1.3923821,-4.2224242 6.030663,0"
           id="path4038" />
        <path
           inkscape:connector-curvature="0"
           style="fill:none;fill-rule:evenodd;stroke:#000000;stroke-width:0.85333335;stroke-linecap:round"
           d="M -4.0585252,4.4560894 0.57975567,0.23439174"
           id="path4040" />
        <path
           inkscape:connector-curvature="0"
           style="fill:none;fill-rule:evenodd;stroke:#000000;stroke-width:0.85333335;stroke-linecap:round"
           d="M -1.3724621,4.4560894 3.265819,0.23439174"
           id="path4042" />
        <path
           inkscape:connector-curvature="0"
           style="fill:none;fill-rule:evenodd;stroke:#000000;stroke-width:0.85333335;stroke-linecap:round"
           d="M 1.3923821,4.4560894 6.030663,0.23439174"
           id="path4044" />
      </g>
    </marker>
    <marker
       style="overflow:visible"
       id="Arrow1Mend"
       refX="0"
       refY="0"
       orient="auto"
       inkscape:stockid="Arrow1Mend">
      <path
         inkscape:connector-curvature="0"
         style="fill-rule:evenodd;stroke:#000000;stroke-width:0.42666668pt"
         d="M -4.2666667,0 -6.4,2.1333333 1.0666667,0 -6.4,-2.1333333 Z"
         id="path4005" />
    </marker>
    <marker
       style="overflow:visible"
       id="Arrow1Mstart"
       refX="0"
       refY="0"
       orient="auto"
       inkscape:stockid="Arrow1Mstart">
      <path
         inkscape:connector-curvature="0"
         style="fill-rule:evenodd;stroke:#000000;stroke-width:0.42666668pt"
         d="M 4.2666667,0 6.4,-2.1333333 -1.0666667,0 6.4,2.1333333 Z"
         id="path4002" />
    </marker>
    <marker
       style="overflow:visible"
       id="Arrow2Lend"
       refX="0"
       refY="0"
       orient="auto"
       inkscape:stockid="Arrow2Lend">
      <path
         inkscape:connector-curvature="0"
         d="M -11.403143,-4.732916 1.416553,-0.01878889 -11.403144,4.6953372 c 2.0480517,-2.7832182 2.0362508,-6.5911436 10e-7,-9.4282532 z"
         style="fill-rule:evenodd;stroke-width:0.73333335;stroke-linejoin:round"
         id="path4017" />
    </marker>
    <marker
       style="overflow:visible"
       id="Arrow1Sstart"
       refX="0"
       refY="0"
       orient="auto"
       inkscape:stockid="Arrow1Sstart">
      <path
         inkscape:connector-curvature="0"
         style="fill-rule:evenodd;stroke:#000000;stroke-width:0.21333334pt"
         d="M 1.28,0 2.3466667,-1.0666667 -1.3866667,0 2.3466667,1.0666667 Z"
         id="path4008" />
    </marker>
    <marker
       style="overflow:visible"
       id="Arrow1Lstart"
       refX="0"
       refY="0"
       orient="auto"
       inkscape:stockid="Arrow1Lstart">
      <path
         inkscape:connector-curvature="0"
         style="fill-rule:evenodd;stroke:#000000;stroke-width:0.85333335pt"
         d="M 10.666667,0 14.933333,-4.2666667 0,0 14.933333,4.2666667 Z"
         id="path3996" />
    </marker>
    <inkscape:perspective
       id="perspective20-9"
       inkscape:persp3d-origin="396.85039 : 374.17322 : 1"
       inkscape:vp_z="793.70078 : 561.25983 : 1"
       inkscape:vp_y="0 : 1066.6667 : 0"
       inkscape:vp_x="0 : 561.25983 : 1"
       sodipodi:type="inkscape:persp3d" />
    <marker
       style="overflow:visible"
       id="Arrow1Mend-7"
       refX="0"
       refY="0"
       orient="auto"
       inkscape:stockid="Arrow1Mend">
      <path
         style="fill-rule:evenodd;stroke:#000000;stroke-width:0.42666668pt"
         d="M -4.2666667,0 -6.4,2.1333333 1.0666667,0 -6.4,-2.1333333 Z"
         id="path4005-0"
         inkscape:connector-curvature="0" />
    </marker>
    <marker
       style="overflow:visible"
       id="Arrow1Mend-1"
       refX="0"
       refY="0"
       orient="auto"
       inkscape:stockid="Arrow1Mend">
      <path
         style="fill-rule:evenodd;stroke:#000000;stroke-width:0.42666668pt"
         d="M -4.2666667,0 -6.4,2.1333333 1.0666667,0 -6.4,-2.1333333 Z"
         id="path4005-9"
         inkscape:connector-curvature="0" />
    </marker>
    <marker
       style="overflow:visible"
       id="Arrow1Mend-3"
       refX="0"
       refY="0"
       orient="auto"
       inkscape:stockid="Arrow1Mend">
      <path
         style="fill-rule:evenodd;stroke:#000000;stroke-width:0.42666668pt"
         d="M -4.2666667,0 -6.4,2.1333333 1.0666667,0 -6.4,-2.1333333 Z"
         id="path4005-5"
         inkscape:connector-curvature="0" />
    </marker>
  </defs>
  <metadata
     id="metadata7">
    <rdf:RDF>
      <cc:Work
         rdf:about="">
        <dc:format>image/svg+xml</dc:format>
        <dc:type
           rdf:resource="http://purl.org/dc/dcmitype/StillImage" />
        <dc:title />
      </cc:Work>
    </rdf:RDF>
  </metadata>
  <g
     inkscape:groupmode="layer"
     id="layer2"
     inkscape:label="Layer"
     style="display:inline"
     transform="translate(-153.81251,-28.483866)" />
  <g
     inkscape:label="Layer 1"
     inkscape:groupmode="layer"
     id="layer1"
     style="display:inline"
     transform="translate(-153.81251,-28.483866)">
    <path
       style="display:inline;overflow:visible;visibility:visible;opacity:0.97000002;fill:#000000;fill-opacity:1;fill-rule:nonzero;stroke:none;stroke-width:1.06666672;marker:none;enable-background:accumulate"
       d=""
       id="path3838"
       inkscape:connector-curvature="0" />
    <flowRoot
       style="font-style:normal;font-variant:normal;font-weight:normal;font-stretch:normal;font-size:12.80000019px;line-height:0.01%;font-family:Batang;-inkscape-font-specification:Batang;letter-spacing:0px;word-spacing:0px;fill:#000000;fill-opacity:1;stroke:none;stroke-width:1.06666672"
       id="flowRoot4237"
       xml:space="preserve"><flowRegion
         id="flowRegion4239"
         style="stroke-width:1.06666672"><rect
           style="font-style:normal;font-variant:normal;font-weight:normal;font-stretch:normal;font-family:Batang;-inkscape-font-specification:Batang;stroke-width:1.13777781"
           y="146.05566"
           x="-27.841433"
           height="51.733334"
           width="101.86667"
           id="rect4241" /></flowRegion><flowPara
         id="flowPara4243"
         style="stroke-width:1.06666672"> </flowPara></flowRoot>    <text
       id="text4245"
       y="158.85567"
       x="11.625235"
       style="font-style:normal;font-variant:normal;font-weight:normal;font-stretch:normal;font-size:12.80000019px;line-height:0%;font-family:BatangChe;-inkscape-font-specification:BatangChe;letter-spacing:0px;word-spacing:0px;fill:#000000;fill-opacity:1;stroke:none;stroke-width:1.06666672"
       xml:space="preserve"><tspan
         y="158.85567"
         x="11.625235"
         id="tspan4247"
         sodipodi:role="line"
         style="stroke-width:1.06666672"> </tspan></text>
    <flowRoot
       style="font-style:normal;font-variant:normal;font-weight:normal;font-stretch:normal;font-size:12.80000019px;line-height:0.01%;font-family:'Viner Hand ITC';-inkscape-font-specification:'Viner Hand ITC';letter-spacing:0px;word-spacing:0px;fill:#000000;fill-opacity:1;stroke:none;stroke-width:1.06666672px;stroke-linecap:butt;stroke-linejoin:miter;stroke-opacity:1"
       id="flowRoot3045"
       xml:space="preserve"><flowRegion
         id="flowRegion3047"
         style="stroke-width:1.06666672px"><rect
           y="50.323174"
           x="-65.619514"
           height="21.496046"
           width="29.415642"
           id="rect3049"
           style="stroke-width:1.13777781px" /></flowRegion><flowPara
         id="flowPara3051"
         style="stroke-width:1.06666672px"> </flowPara></flowRoot>    <flowRoot
       style="font-style:normal;font-variant:normal;font-weight:normal;font-stretch:normal;font-size:12.80000019px;line-height:0.01%;font-family:'Viner Hand ITC';-inkscape-font-specification:'Viner Hand ITC';letter-spacing:0px;word-spacing:0px;fill:#000000;fill-opacity:1;stroke:none;stroke-width:1.06666672px;stroke-linecap:butt;stroke-linejoin:miter;stroke-opacity:1"
       id="flowRoot3053"
       xml:space="preserve"><flowRegion
         id="flowRegion3055"
         style="stroke-width:1.06666672px"><rect
           y="59.751263"
           x="-55.060047"
           height="19.987551"
           width="32.055508"
           id="rect3057"
           style="stroke-width:1.13777781px" /></flowRegion><flowPara
         id="flowPara3059"
         style="stroke-width:1.06666672px"> </flowPara></flowRoot>    <g
       id="g4397"
       transform="matrix(0.69926716,0,0,0.69926716,57.654538,-32.84864)">
      <path
         sodipodi:nodetypes="cccssccsscccccssssccccccscccccscsccc"
         inkscape:connector-curvature="0"
         id="6-1"
         d="m 301.65506,195.26868 c -0.31909,0.006 -0.60552,0.0224 -0.84547,0.0384 -0.72683,0.0896 -1.60267,0.18592 -1.79663,0.98959 -0.11232,0.48007 -0.0673,1.27852 -0.0673,2.33466 v 3.49718 c 0,1.10948 -0.003,2.2699 0.0576,2.82464 0.14564,0.71751 0.30171,0.74039 1.09255,0.79442 0.30528,-0.0325 0.48417,-0.001 0.66701,-0.0405 0.3439,-0.0737 0.55546,-0.29892 0.61946,-0.97918 0.0499,-0.53044 0.003,-0.68035 0.003,-1.20623 -0.0204,-0.19203 -0.0192,-0.40583 -0.0192,-0.67254 -0.0107,-0.25603 -0.0107,-0.4805 0,-0.67254 0.0107,-0.18135 0.045,-0.29895 0.0961,-0.38429 0.0511,-0.0853 0.1236,-0.13133 0.47077,-0.16334 0.16848,-0.0213 0.40316,-0.0331 0.65332,-0.0384 0.25017,-0.005 0.60845,6.1e-4 0.82627,-0.0288 1.18344,-0.16025 1.23474,-0.17442 1.98877,-0.65389 0.55404,-0.35229 0.7612,-0.76812 0.97037,-1.27725 0.11886,-0.2893 0.23778,-0.65251 0.27863,-1.04723 0.0511,-0.40539 0.007,-0.84254 -0.1249,-1.2586 -0.12253,-0.41606 -0.3464,-0.78485 -0.66293,-1.10488 -0.32674,-0.32005 -0.72643,-0.59044 -1.27782,-0.73978 v -0.0384 c -0.55138,-0.14935 -1.2272,-0.16228 -1.92152,-0.17294 -0.34206,0 -0.68972,-0.006 -1.00881,0 z m 0.26901,1.92154 c 0.10978,-0.002 0.24669,0 0.43235,0 0.49344,0 0.87782,0.0208 1.03762,0.0673 0.52704,0.15323 0.88031,0.61697 0.8839,1.15291 0.004,0.62503 -0.31343,1.0793 -0.83586,1.19134 -0.15329,0.0328 -0.62819,0.0577 -1.05684,0.0577 -0.66296,0 -0.79735,-0.0152 -0.89352,-0.0961 -0.0952,-0.0802 -0.12336,-0.18151 -0.15371,-0.6437 -0.0489,-0.74348 0.0162,-1.44647 0.14411,-1.60448 0.0707,-0.0874 0.11261,-0.11782 0.44195,-0.1249 z"
         style="display:inline;fill:#000000;fill-opacity:1;fill-rule:evenodd;stroke:none;stroke-width:1.06666672" />
      <path
         inkscape:export-ydpi="299.8598"
         inkscape:export-xdpi="299.8598"
         inkscape:export-filename="C:\Users\Olin\Documents\Náboj logo\green.png"
         sodipodi:nodetypes="ccsccszzszccsscc"
         d="m 346.28613,195.2543 c 0.47545,0.0536 0.62484,0.19919 0.74078,0.32768 0.10432,0.12849 0.17763,0.26768 0.18966,0.85872 0.0143,0.70463 0.004,1.69397 0.0157,2.67905 -0.0704,1.58732 0.0384,3.0199 0.019,4.57846 -0.0287,0.36716 0.0447,1.11697 -0.14415,1.58053 -0.10282,0.25252 -0.48697,0.43154 -0.62403,0.44142 -0.13706,0.01 -0.84502,0.0261 -1.04962,0.0274 -0.20461,0.001 -0.56757,-0.21703 -0.68488,-0.51781 -0.10464,-0.26837 -0.12514,-0.34329 -0.10908,-0.97825 0.016,-0.63496 -0.0376,-1.96203 -0.007,-2.62655 0.0348,-0.72811 0.0235,-1.64235 0.0107,-2.48173 -0.001,-1.09176 -0.0754,-3.15256 0.0902,-3.38445 0.16564,-0.23189 0.28444,-0.44679 0.71742,-0.49392 0.38361,-0.0417 0.50644,-0.0234 0.8355,-0.0107 z"
         style="display:inline;fill:#000000;fill-opacity:1;fill-rule:evenodd;stroke:none;stroke-width:1.06666672"
         id="10-7"
         inkscape:connector-curvature="0" />
      <path
         sodipodi:nodetypes="ccccscccscscscccsccsccscsccc"
         inkscape:connector-curvature="0"
         id="8-1"
         d="m 354.6267,195.2815 c -0.73518,0.0213 -1.49803,0.16141 -2.16173,0.47078 -0.65348,0.30938 -1.21406,0.7904 -1.6429,1.44115 -0.42885,0.66142 -0.73315,1.48445 -0.84547,2.40191 -0.12253,0.91746 -0.0607,1.91779 0.15371,2.72856 0.21444,0.81079 0.58595,1.43511 1.07607,1.97918 0.47989,0.54408 1.09144,1.00363 1.96956,1.24899 0.87812,0.2347 2.02218,0.25928 2.92072,0.0673 0.90876,-0.19202 1.58212,-0.5608 2.12329,-1.10487 0.54117,-0.54408 1.12252,-1.21921 1.09857,-2.07787 -0.006,-0.4923 -0.97523,-0.62665 -1.63216,-0.43829 -0.32505,0.0932 -0.61679,0.73504 -0.76344,0.89247 -0.2859,0.29869 -0.78831,0.45056 -1.26821,0.55723 -0.4799,0.10668 -1.23086,-0.0438 -1.70056,-0.18252 -0.45947,-0.13869 -0.78174,-0.40159 -1.04723,-0.71097 -0.25526,-0.29871 -0.44493,-0.64615 -0.55723,-1.10487 -0.11232,-0.45874 -0.14774,-1.02516 -0.0865,-1.53723 0.0612,-0.51208 0.21732,-0.98236 0.44195,-1.34507 0.22464,-0.37338 0.52653,-0.63635 0.8839,-0.80704 0.34716,-0.1707 0.7457,-0.25834 1.13371,-0.26901 0.388,-0.0107 0.7475,0.031 1.10488,0.20176 0.34715,0.16002 0.68567,0.43259 0.95115,0.81664 0.26549,0.37339 0.0658,0.003 0.28988,0.49357 0.19371,0.42434 2.25862,0.246 2.1329,-0.63547 -0.25946,-0.66977 -0.27954,-0.65597 -0.68379,-1.27042 -0.46051,-0.69997 -1.13294,-1.16165 -1.79663,-1.46036 -0.6637,-0.28804 -1.3695,-0.3875 -2.09446,-0.35548 z"
         style="display:inline;fill:#000000;fill-opacity:1;fill-rule:evenodd;stroke:none;stroke-width:1.06666672" />
      <path
         sodipodi:nodetypes="ccccccccccccccscccccccccsccccccccccc"
         inkscape:connector-curvature="0"
         id="10-7-8"
         d="m 316.92758,195.24633 c -0.40266,0.0469 -0.50888,0.25895 -0.66293,0.48999 -0.15404,0.23103 -0.0201,2.09429 -0.0186,3.18206 2.4e-4,0.45049 -0.17685,0.65728 -0.59783,0.6187 -1.15642,0.0225 -1.85744,0.0239 -2.76415,0.0305 -0.26973,-0.0158 -0.39644,-0.0278 -0.77832,-0.0163 -0.4488,-0.004 -0.51983,-0.26616 -0.50332,-0.75562 -0.006,-0.84851 -0.0234,-1.7183 -0.0349,-2.32742 -0.0112,-0.58886 -0.0854,-0.77509 -0.18253,-0.90311 -0.10784,-0.12802 -0.2496,-0.27331 -0.69176,-0.32666 -0.30604,-0.0128 -0.58449,-0.005 -0.94127,0.0368 -0.40265,0.0469 -0.50888,0.25895 -0.66292,0.48999 -0.15404,0.23103 -0.0784,2.33255 -0.0769,3.42032 0.0121,0.8363 0.0227,1.75334 -0.01,2.47877 -0.0285,0.66208 0.056,1.75973 0.01,2.61328 -0.0195,0.35915 -0.0493,0.65494 0.048,0.92234 0.10909,0.29968 0.35736,0.54886 0.54764,0.54762 0.19027,-0.001 1.15007,-0.0174 1.27753,-0.0272 0.12747,-0.01 0.48084,-0.19035 0.57645,-0.44195 0.17563,-0.46185 0.10785,-1.20983 0.13451,-1.57565 0.007,-0.67685 -0.01,-0.71543 -0.0232,-1.36774 -0.0202,-0.58411 0.28515,-0.62168 0.50955,-0.62533 1.45201,-0.0408 2.27979,-0.004 3.57339,-0.009 0.30774,-9.3e-4 0.55999,0.21573 0.53958,0.67699 -0.0161,0.66937 -0.0318,1.05399 10e-4,1.86104 0.0189,0.45523 -0.0109,0.69336 0.0865,0.96076 0.10909,0.29968 0.41501,0.52965 0.60528,0.52842 0.19029,-10e-4 1.06525,0.01 1.19272,0 0.12747,-0.01 0.4424,-0.20958 0.53803,-0.46117 0.17562,-0.46186 0.0886,-1.24827 0.11529,-1.61408 0.018,-1.55284 -0.0751,-2.98212 -0.01,-4.56363 -0.0108,-0.98147 -0.006,-1.96888 -0.0192,-2.67092 -0.0112,-0.58887 -0.0758,-0.72706 -0.17294,-0.85508 -0.10784,-0.12802 -0.24959,-0.27332 -0.69175,-0.32666 -0.26722,-0.0185 -0.691,-0.004 -0.914,0.01 z"
         style="display:inline;fill:#000000;fill-opacity:1;fill-rule:evenodd;stroke:none;stroke-width:1.06666672" />
      <path
         sodipodi:nodetypes="czzszzcczccczcszzszzccczzzsccsc"
         inkscape:connector-curvature="0"
         id="3-8-1-2-1"
         d="m 322.36652,195.21494 c 0.33696,0.0133 0.29198,0.003 0.41769,0.0705 0.12572,0.0669 0.22235,0.071 0.41403,0.31074 0.19168,0.23972 0.17865,0.26995 0.58075,0.74308 0.38856,0.45721 0.52131,0.6193 0.79025,0.94132 0.26894,0.32201 0.46942,0.53305 0.70896,0.87497 0.23954,0.34192 0.26467,0.36607 0.5626,0.67704 0.46478,-0.57254 0.68666,-0.88089 0.94315,-1.18913 0.40645,-0.48225 0.68738,-0.82533 1.12553,-1.33797 0.43816,-0.51264 0.38473,-0.46984 0.53192,-0.68378 0.19286,-0.25951 0.43587,-0.47213 0.98926,-0.41313 0.34321,-0.0133 0.59809,0.0239 0.99197,0.064 0.66613,0.0808 0.30612,0.84947 0.0493,1.17048 -0.25688,0.321 -0.46608,0.6094 -0.99797,1.22403 -0.45986,0.63513 -0.57383,0.72457 -1.06057,1.33331 -0.49717,0.62174 -0.67803,0.89516 -0.98967,1.31817 -0.31164,0.423 -0.33595,1.61898 -0.36152,2.08476 -0.0256,0.46578 0.003,0.89115 0.0189,1.52629 0.0116,0.46212 0.0368,1.25936 -0.11007,1.54599 -0.14683,0.28662 -0.40833,0.2609 -0.60193,0.25969 -0.19359,-0.001 -1.05851,0.0194 -1.1882,0.01 -0.12969,-0.01 -0.39594,-0.0549 -0.5706,-0.44196 -0.07,-0.81683 -0.0268,-1.12697 -0.0539,-1.49412 -0.006,-0.57629 -0.0107,-0.94789 9.2e-4,-1.63986 0.0111,-0.69196 0.061,-1.38328 -0.28689,-1.81532 -0.34787,-0.43202 -0.51793,-0.60083 -0.89023,-1.09856 -0.3723,-0.49774 -0.96248,-1.27994 -1.48385,-1.9059 -0.63588,-0.76344 -0.61396,-0.74644 -0.9146,-1.16224 -0.26522,-0.38942 -0.17649,-0.82339 0.2823,-0.9432 0.28009,-0.0268 0.76556,-0.0421 1.10252,-0.0288 z"
         style="display:inline;fill:#000000;fill-opacity:1;fill-rule:evenodd;stroke:none;stroke-width:1.06666672" />
      <path
         sodipodi:nodetypes="cczzzszzzsccccscczzzszzzcsccscsccc"
         inkscape:connector-curvature="0"
         id="8-1-4"
         d="m 337.11603,195.20267 c -0.73517,0.0188 -1.49801,0.1402 -2.16172,0.41313 -0.65348,0.27293 -1.13718,0.49726 -1.56603,1.07605 -0.42886,0.57881 -0.81023,0.98726 -0.73019,1.96957 0.08,0.9823 0.52346,1.65148 1.27561,2.0246 0.75213,0.37313 1.70815,0.70338 2.91111,0.74994 1.26606,0.049 2.11418,0.32402 2.51487,0.66448 0.40069,0.34046 0.20185,0.75433 -0.0776,1.06065 -0.27938,0.30632 -0.64641,0.38032 -1.03432,0.50426 -0.38792,0.12394 -0.8975,0.11714 -1.2855,0.12655 -0.38801,0.01 -0.74749,-0.0224 -1.10487,-0.17293 -0.34717,-0.14118 -0.68569,-0.38178 -0.95116,-0.72058 -0.26548,-0.3294 -0.005,-0.0129 -0.29784,-0.43234 -0.19371,-0.37435 -2.25863,-0.22039 -2.1329,0.55724 0.25946,0.59086 0.28751,0.58203 0.69176,1.12409 0.46051,0.61751 1.13292,1.02391 1.79663,1.28743 0.66369,0.2541 1.3695,0.33569 2.09446,0.30744 0.73518,-0.0188 2.1014,-0.11252 2.78263,-0.48339 0.68125,-0.37088 1.01821,-0.75929 1.33177,-1.14593 0.31357,-0.38665 0.44577,-0.93966 0.47475,-1.73898 0.029,-0.79932 -0.53531,-1.47905 -1.22689,-1.93041 -0.81672,-0.53301 -2.21258,-0.91817 -3.16925,-0.91191 -0.95668,0.006 -1.66579,-0.29333 -2.00175,-0.55372 -0.33595,-0.26041 -0.18864,-0.80553 -0.0359,-1.02773 0.15267,-0.22221 0.43044,-0.43851 0.78783,-0.58909 0.34715,-0.15057 0.82255,-0.22116 1.21056,-0.23058 0.388,-0.01 0.74749,0.0992 1.10487,0.2498 0.34716,0.14116 0.68568,0.32741 0.95116,0.66622 0.26548,0.3294 0.0347,0.0265 0.32665,0.43235 0.24618,0.34213 2.22021,0.22037 2.09448,-0.55725 -0.25946,-0.59087 -0.2779,-0.58204 -0.68215,-1.12409 -0.46051,-0.61751 -1.13293,-1.02391 -1.79662,-1.28743 -0.6637,-0.2541 -1.36951,-0.33568 -2.09447,-0.30744 z"
         style="display:inline;fill:#000000;fill-opacity:1;fill-rule:evenodd;stroke:none;stroke-width:1.06666672" />
      <path
         sodipodi:nodetypes="cczzzszzzsccccscczzzszzzcsccscsccc"
         inkscape:connector-curvature="0"
         id="8-1-4-1"
         d="m 366.80592,195.20268 c -0.73518,0.0188 -1.49803,0.1402 -2.16172,0.41313 -0.65349,0.27293 -1.13719,0.49726 -1.56605,1.07605 -0.42885,0.5788 -0.81022,0.98727 -0.73018,1.96957 0.08,0.9823 0.52346,1.65147 1.2756,2.0246 0.75215,0.37312 1.70816,0.70338 2.91112,0.74994 1.26606,0.049 2.11417,0.32402 2.51488,0.66448 0.40068,0.34045 0.20183,0.75433 -0.0776,1.06065 -0.27938,0.30631 -0.64641,0.38032 -1.03432,0.50425 -0.38792,0.12395 -0.8975,0.11715 -1.2855,0.12655 -0.38801,0.01 -0.7475,-0.0223 -1.10487,-0.17293 -0.34717,-0.14117 -0.68569,-0.38176 -0.95116,-0.72057 -0.26548,-0.3294 -0.005,-0.0129 -0.29783,-0.43235 -0.19372,-0.37435 -2.25863,-0.22038 -2.1329,0.55725 0.25945,0.59087 0.2875,0.58202 0.69174,1.12409 0.46052,0.61751 1.13294,1.02391 1.79663,1.28743 0.66369,0.2541 1.36951,0.33568 2.09447,0.30744 0.73518,-0.0188 2.10139,-0.11252 2.78264,-0.4834 0.68124,-0.37087 1.0182,-0.75928 1.33177,-1.14592 0.31356,-0.38665 0.44576,-0.93967 0.47475,-1.73899 0.029,-0.79932 -0.53531,-1.47904 -1.2269,-1.9304 -0.81672,-0.53302 -2.21258,-0.91817 -3.16925,-0.91191 -0.95668,0.006 -1.66579,-0.29333 -2.00175,-0.55373 -0.33595,-0.2604 -0.18864,-0.80552 -0.036,-1.02773 0.15268,-0.22221 0.43046,-0.4385 0.78783,-0.58908 0.34716,-0.15058 0.82256,-0.22117 1.21056,-0.23058 0.38801,-0.01 0.7475,0.0992 1.10488,0.2498 0.34717,0.14116 0.68568,0.32741 0.95117,0.66622 0.26547,0.3294 0.0347,0.0265 0.32665,0.43234 0.24617,0.34214 2.22019,0.22038 2.09447,-0.55724 -0.25946,-0.59088 -0.2779,-0.58203 -0.68215,-1.12409 -0.46051,-0.61752 -1.13293,-1.02391 -1.79663,-1.28743 -0.66369,-0.2541 -1.3695,-0.33569 -2.09446,-0.30744 z"
         style="display:inline;fill:#000000;fill-opacity:1;fill-rule:evenodd;stroke:none;stroke-width:1.06666672" />
    </g>
    <g
       id="g4271"
       transform="translate(153.81251,28.483866)">
      <g
         transform="translate(-249.31742,-130.22681)"
         style="display:inline"
         inkscape:label="Layer"
         id="layer2-4" />
      <g
         transform="translate(-249.31742,-130.22681)"
         style="display:inline"
         id="layer1-2"
         inkscape:label="Layer 1">
        <path
           inkscape:connector-curvature="0"
           id="path3838-6"
           d=""
           style="display:inline;overflow:visible;visibility:visible;opacity:0.97000002;fill:#000000;fill-opacity:1;fill-rule:nonzero;stroke:none;stroke-width:1.06666672;marker:none;enable-background:accumulate" />
        <path
           inkscape:export-ydpi="299.8598"
           inkscape:export-xdpi="299.8598"
           inkscape:export-filename="C:\Users\Olin\Documents\Náboj logo\green.png"
           inkscape:connector-curvature="0"
           id="2-5-4-2"
           d="m 294.29078,184.59465 c -2.1433,0.0326 -4.36153,0.1954 -6.70246,0.48984 -2.34091,0.29446 -4.80642,0.70282 -7.05614,1.32443 -2.24972,0.60527 -4.29844,1.41155 -5.71211,2.37671 -1.42887,0.96514 -2.2069,2.06618 -2.61732,3.21128 -0.42562,1.1451 -0.49108,2.32018 -0.14147,3.46528 0.33441,1.1451 1.05998,2.2607 2.35205,3.19314 1.29206,0.9488 3.16455,1.72801 5.32305,2.26785 2.1585,0.53983 4.60356,0.85598 7.12688,1.05229 2.53852,0.1963 5.15982,0.28851 7.51594,0.27215 2.35612,-0.0163 4.45791,-0.14842 5.76516,-0.34473 1.30727,-0.17995 1.81536,-0.44018 2.21057,-0.81643 0.39524,-0.35988 0.68167,-0.85091 0.84887,-1.83241 0.18241,-0.96518 0.27025,-2.41387 0.30064,-3.91885 0.0304,-1.505 0.0278,-3.05453 -0.0177,-4.445 -0.0456,-1.40684 -0.11823,-2.63455 -0.30064,-3.50157 -0.18242,-0.867 -0.48375,-1.36367 -0.95496,-1.72356 -0.45604,-0.37625 -1.08761,-0.62013 -2.44048,-0.81643 -1.33767,-0.17995 -3.37179,-0.27037 -5.4999,-0.25399 h -10e-6 z m -0.33601,1.8687 c 1.69158,8.7e-4 3.53808,0.0466 5.53528,0.14514 -19.17456,0.18938 -22.71597,4.92601 -25.35968,5.4247 0.79242,-1.39778 3.47249,-5.5792 19.8244,-5.56984 z"
           style="display:inline;fill:#000000;fill-opacity:1;fill-rule:evenodd;stroke:none;stroke-width:1.06666672" />
        <path
           inkscape:export-ydpi="299.8598"
           inkscape:export-xdpi="299.8598"
           inkscape:export-filename="C:\Users\Olin\Documents\Náboj logo\green.png"
           sodipodi:nodetypes="csccc"
           inkscape:connector-curvature="0"
           id="path3872-5-5"
           d="m 280.05247,185.73431 c 10.87711,-5.23536 31.54766,-9.6784 39.52187,-11.52392 12.68472,-2.93571 51.70626,-10.01236 104.76209,-12.73304 -48.51114,4.20781 -85.58604,9.48122 -110.70538,15.33069 -12.25535,2.82387 -28.01376,6.27355 -33.57858,8.92627 z"
           style="font-style:normal;font-variant:normal;font-weight:normal;font-stretch:normal;font-size:medium;line-height:normal;font-family:Sans;-inkscape-font-specification:Sans;text-indent:0;text-align:start;text-decoration:none;text-decoration-line:none;letter-spacing:normal;word-spacing:normal;text-transform:none;writing-mode:lr-tb;direction:ltr;text-anchor:start;display:inline;overflow:visible;visibility:visible;fill:#000000;fill-opacity:1;stroke:none;stroke-width:2.13333344;marker:none;enable-background:accumulate" />
        <path
           inkscape:export-ydpi="299.8598"
           inkscape:export-xdpi="299.8598"
           inkscape:export-filename="C:\Users\Olin\Documents\Náboj logo\green.png"
           sodipodi:nodetypes="ccc"
           inkscape:connector-curvature="0"
           id="path3872-1-6-2"
           d="m 274.66965,188.02028 c 9.32079,-11.49329 56.09981,-29.28013 74.2267,-33.91906 -17.44809,6.31242 -59.70687,21.33673 -74.2267,33.91906 z"
           style="font-style:normal;font-variant:normal;font-weight:normal;font-stretch:normal;font-size:medium;line-height:normal;font-family:Sans;-inkscape-font-specification:Sans;text-indent:0;text-align:start;text-decoration:none;text-decoration-line:none;letter-spacing:normal;word-spacing:normal;text-transform:none;writing-mode:lr-tb;direction:ltr;text-anchor:start;display:inline;overflow:visible;visibility:visible;fill:#000000;fill-opacity:1;stroke:none;stroke-width:2.13333344;marker:none;enable-background:accumulate" />
        <path
           inkscape:export-ydpi="299.8598"
           inkscape:export-xdpi="299.8598"
           inkscape:export-filename="C:\Users\Olin\Documents\Náboj logo\green.png"
           sodipodi:nodetypes="csccc"
           inkscape:connector-curvature="0"
           id="path3872-5-5-0"
           d="m 279.80219,201.84673 c 10.87712,5.23536 31.54766,9.6784 39.52186,11.52392 12.68474,2.93572 51.70628,10.01238 104.7621,12.73304 -48.51113,-4.20781 -85.58603,-9.4812 -110.70538,-15.33068 -12.25534,-2.82388 -28.01375,-6.27355 -33.57858,-8.92628 z"
           style="font-style:normal;font-variant:normal;font-weight:normal;font-stretch:normal;font-size:medium;line-height:normal;font-family:Sans;-inkscape-font-specification:Sans;text-indent:0;text-align:start;text-decoration:none;text-decoration-line:none;letter-spacing:normal;word-spacing:normal;text-transform:none;writing-mode:lr-tb;direction:ltr;text-anchor:start;display:inline;overflow:visible;visibility:visible;fill:#000000;fill-opacity:1;stroke:none;stroke-width:2.13333344;marker:none;enable-background:accumulate" />
        <path
           inkscape:export-ydpi="299.8598"
           inkscape:export-xdpi="299.8598"
           inkscape:export-filename="C:\Users\Olin\Documents\Náboj logo\green.png"
           sodipodi:nodetypes="zczcz"
           inkscape:connector-curvature="0"
           id="path3872-1-7"
           d="m 270.65077,193.9298 c -0.0259,11.36492 21.78465,32.22453 34.37942,41.71276 -10.41302,-9.85635 -33.96873,-31.47434 -33.99755,-41.69499 -0.0288,-10.22065 22.78348,-33.62681 33.73681,-42.38743 -14.15086,9.47447 -34.09278,31.00473 -34.11868,42.36966 z"
           style="font-style:normal;font-variant:normal;font-weight:normal;font-stretch:normal;font-size:medium;line-height:normal;font-family:Sans;-inkscape-font-specification:Sans;text-indent:0;text-align:start;text-decoration:none;text-decoration-line:none;letter-spacing:normal;word-spacing:normal;text-transform:none;writing-mode:lr-tb;direction:ltr;text-anchor:start;display:inline;overflow:visible;visibility:visible;fill:#000000;fill-opacity:1;stroke:none;stroke-width:2.13333344;marker:none;enable-background:accumulate" />
        <path
           inkscape:export-ydpi="299.8598"
           inkscape:export-xdpi="299.8598"
           inkscape:export-filename="C:\Users\Olin\Documents\Náboj logo\green.png"
           sodipodi:nodetypes="ccc"
           inkscape:connector-curvature="0"
           id="path3872-1-6-2-1"
           d="m 274.85315,199.84026 c 9.3208,11.49329 56.09981,29.28012 74.22671,33.91907 -17.44811,-6.31245 -59.70687,-21.33676 -74.22671,-33.91907 z"
           style="font-style:normal;font-variant:normal;font-weight:normal;font-stretch:normal;font-size:medium;line-height:normal;font-family:Sans;-inkscape-font-specification:Sans;text-indent:0;text-align:start;text-decoration:none;text-decoration-line:none;letter-spacing:normal;word-spacing:normal;text-transform:none;writing-mode:lr-tb;direction:ltr;text-anchor:start;display:inline;overflow:visible;visibility:visible;fill:#000000;fill-opacity:1;stroke:none;stroke-width:2.13333344;marker:none;enable-background:accumulate" />
        <path
           inkscape:connector-curvature="0"
           id="2-0"
           d="m 326.49359,185.11339 c -0.22404,0 -0.41938,0.01 -0.6,0.0333 -0.36125,0.0645 -0.56106,0.15478 -0.7,0.3 -0.15283,0.16134 -0.24443,0.37818 -0.3,1.23333 -0.0556,0.85514 -0.0751,2.36507 -0.0333,3.83333 0.0278,1.46827 0.11387,2.87607 0.0999,3.66667 -0.0338,0.65934 0.005,1.29148 -0.66667,0.9 -0.26399,-0.20975 -0.68038,-0.66861 -1.16667,-1.23333 -0.50019,-0.56471 -1.07471,-1.26632 -1.86666,-2.26667 -0.79197,-1.00035 -1.83582,-2.28245 -2.6,-3.26667 -0.77806,-0.96808 -1.30262,-1.63209 -1.73334,-2.1 -0.41681,-0.45178 -0.72206,-0.70424 -1.16666,-0.83333 -0.45851,-0.14524 -0.97764,-0.18277 -1.36667,-0.16667 -0.40293,0.0161 -0.60547,0.0698 -0.8,0.16667 -0.20841,0.0969 -0.40829,0.22447 -0.53333,0.96667 -0.11115,0.75833 -0.1527,2.10796 -0.16667,3.86666 -0.0139,1.74255 -0.0139,3.90479 0,5.56667 0.0139,1.67802 0.0445,2.85781 0.0999,3.6 0.0556,0.72607 0.14716,0.99025 0.3,1.2 0.15283,0.20975 0.46092,0.35269 0.93333,0.43333 0.47239,0.0645 0.95538,0.0645 1.4,0 0.43071,-0.0484 0.56106,-0.15478 0.7,-0.3 0.13894,-0.14521 0.21109,-0.31809 0.26667,-0.86666 0.0366,-1.78583 -0.004,-4.14725 -0.0333,-5.93334 -0.0585,-1.93856 -0.0357,-2.59794 1.23333,-1.16666 1.26907,1.43126 2.7728,3.3449 4.26667,5 0.95868,1.01649 1.48872,1.59556 1.93333,1.96666 0.44461,0.35497 0.79427,0.80533 1.26667,0.96667 0.47239,0.14519 1.09427,0.21611 1.56666,0.2 0.45852,-0.0161 0.78325,-0.12357 1.03334,-0.33333 0.25009,-0.22589 0.42218,-0.56861 0.53333,-1.13334 0.11116,-0.58084 0.1528,-1.38121 0.16667,-2.83333 0.0139,-1.45215 0.0139,-3.5445 0,-5.4 0,-1.8555 -0.0306,-3.51365 -0.1,-4.43333 -0.0694,-0.93581 -0.19158,-1.13866 -0.4,-1.3 -0.20841,-0.14521 -0.49706,-0.25158 -0.9,-0.3 -0.20146,-0.0242 -0.44262,-0.0333 -0.66667,-0.0333 z"
           style="display:inline;fill:#000000;fill-opacity:1;fill-rule:evenodd;stroke:none;stroke-width:1.06666672" />
        <path
           inkscape:export-ydpi="299.8598"
           inkscape:export-xdpi="299.8598"
           inkscape:export-filename="C:\Users\Olin\Documents\Náboj logo\green.png"
           inkscape:connector-curvature="0"
           id="3-2"
           d="m 344.16106,185.19458 c -0.1996,-0.002 -0.39455,0.0129 -0.56656,0.0291 -0.34293,0.0483 -0.57948,0.12767 -0.79318,0.30515 -0.21369,0.17749 -0.40629,0.42838 -0.87816,1.23513 -0.47185,0.80673 -1.21035,2.13217 -2.01126,3.6327 -0.80089,1.50054 -1.66671,3.14614 -2.45034,4.67895 -0.76748,1.54894 -1.45443,2.97941 -1.75632,3.85067 -0.31693,0.87128 -0.26193,1.16587 -0.18413,1.42403 0.0917,0.24202 0.21436,0.45376 0.77901,0.56669 0.57861,0.0969 1.44056,0.0904 2.02543,0.0581 0.75779,0.0112 0.91776,-0.33274 1.24642,-0.95905 0.25081,-0.51631 0.6402,-1.3759 0.87815,-1.85995 0.23687,-0.50017 0.30535,-0.63293 0.48157,-0.69747 0.17515,-0.0806 0.65936,-0.0871 1.24642,-0.0871 0.58596,-0.0161 1.47375,0 2.18124,0 0.70748,0 1.33462,-0.002 1.74214,0.0145 0.40753,0.0161 0.90229,0.0324 1.09063,0.14531 0.18832,0.11293 0.29758,0.31836 0.52405,0.77013 0.22539,0.43564 0.56417,1.10106 0.77901,1.61292 0.20718,0.49361 0.44486,0.71051 0.65154,0.87186 0.22174,0.16135 0.3181,0.22928 0.89232,0.26156 0.5742,0.0323 1.39234,0.006 1.86962,-0.0581 0.4773,-0.0645 0.55917,-0.18577 0.63738,-0.36327 0.0794,-0.16134 0.15351,-0.38319 -0.11331,-1.20606 -0.28078,-0.80674 -0.92604,-2.23399 -1.6855,-3.87974 -0.75945,-1.64575 -1.62248,-3.54658 -2.39368,-5.14392 -0.7723,-1.61349 -1.46796,-2.91637 -1.91212,-3.69084 -0.44416,-0.77447 -0.64137,-1.00112 -0.87816,-1.16247 -0.22174,-0.16135 -0.4711,-0.25673 -0.83566,-0.30515 -0.17477,-0.0242 -0.36697,-0.0416 -0.56655,-0.0436 z m 0.0424,4.91143 c 0.0446,-0.003 0.0764,0.0266 0.14164,0.0871 0.33394,0.31004 1.48769,2.88402 1.57219,3.51647 0.0732,0.54756 0.0117,0.56147 -1.57219,0.55217 -0.73509,-0.004 -1.47882,-0.0332 -1.64301,-0.0726 -0.4414,-0.10613 -0.52293,-0.20476 -0.48156,-0.58124 0.0642,-0.58397 1.36097,-3.04379 1.78464,-3.38569 0.0913,-0.0737 0.15368,-0.1125 0.19829,-0.11625 z"
           style="display:inline;fill:#000000;fill-opacity:1;fill-rule:evenodd;stroke:none;stroke-width:1.06666672" />
        <path
           inkscape:export-ydpi="299.8598"
           inkscape:export-xdpi="299.8598"
           inkscape:export-filename="C:\Users\Olin\Documents\Náboj logo\green.png"
           sodipodi:nodetypes="cccccccsccscccccc"
           d="m 344.19354,182.00042 c 0.0301,0.12907 0.12042,0.22588 0.39138,0.27428 0.25589,0.0645 0.67736,0.0645 1.08379,0.0484 0.40644,0 0.79781,-0.0162 1.08381,-0.0162 0.28601,-0.0161 0.49674,-0.0323 0.69244,-0.0645 0.19568,-0.0323 0.40643,-0.0806 0.72253,-0.29042 0.31612,-0.19362 0.7376,-0.56473 1.26445,-0.9681 0.51179,-0.4195 0.84036,-0.8874 1.14143,-1.19397 0.30105,-0.30656 0.30105,-0.45177 0.19568,-0.58084 -0.0904,-0.12908 -0.30106,-0.25817 -0.61718,-0.30656 -0.31609,-0.0645 -0.49414,-0.0645 -0.99089,-0.0645 -0.48168,0 -1.02359,0 -1.39991,0.0161 -0.36127,0.0323 -0.5419,0.0645 -0.70749,0.16134 -0.15053,0.0806 -0.28601,0.20976 -0.73759,0.6454 -0.45158,0.45177 -1.23434,1.2101 -1.65581,1.66188 -0.42148,0.43563 -0.48169,0.56471 -0.46664,0.67766 v -2e-5 z"
           style="display:inline;fill:#000000;fill-opacity:1;fill-rule:evenodd;stroke:none;stroke-width:1.06666672"
           id="5-7"
           inkscape:connector-curvature="0" />
        <path
           inkscape:export-ydpi="299.8598"
           inkscape:export-xdpi="299.8598"
           inkscape:export-filename="C:\Users\Olin\Documents\Náboj logo\green.png"
           inkscape:connector-curvature="0"
           id="6-9"
           d="m 363.83461,184.93751 c -0.4704,0.01 -0.89267,0.0339 -1.24642,0.0581 -1.0715,0.13548 -2.36268,0.28118 -2.64863,1.49668 -0.16559,0.72605 -0.0992,1.93365 -0.0992,3.531 0,1.59733 0,3.61121 0,5.28922 0,1.67802 -0.005,3.0262 0.085,3.86521 0.21469,1.08517 0.84539,1.69104 2.01126,1.77277 0.69244,0.0645 1.76929,0.0857 2.98857,0.10176 1.20423,0.0161 2.5457,0.029 3.56929,-0.11625 1.02359,-0.14521 1.74114,-0.47338 2.23788,-0.97357 0.49674,-0.50017 0.7834,-1.18229 0.94899,-1.85995 0.16556,-0.69379 0.21778,-1.37439 0.12746,-2.01979 -0.0752,-0.6454 -0.29204,-1.27419 -0.62321,-1.75823 -0.34622,-0.50019 -0.83205,-0.86233 -1.1331,-1.10435 -0.31611,-0.24202 -0.4674,-0.36657 -0.46741,-0.47952 0,-0.11294 0.14247,-0.21325 0.36826,-0.40686 0.2258,-0.19362 0.48152,-0.49915 0.72235,-0.88638 0.24085,-0.40337 0.46386,-0.89969 0.52407,-1.49668 0.0752,-0.61312 0.0115,-1.27428 -0.18413,-1.90354 -0.18064,-0.62926 -0.51068,-1.18701 -0.9773,-1.67105 -0.4817,-0.48405 -1.07093,-0.89299 -1.8838,-1.11887 v -0.0581 c -0.81285,-0.22586 -1.80916,-0.24541 -2.83277,-0.26155 -0.50426,0 -1.0168,-0.01 -1.4872,0 z m 0.3966,2.90618 c 0.16182,-0.003 0.36367,0 0.63737,0 0.72744,0 1.29411,0.0315 1.52969,0.10176 0.77698,0.23177 1.29777,0.93313 1.30307,1.7437 0.005,0.94532 -0.46207,1.63238 -1.23225,1.80184 -0.22599,0.0497 -0.92609,0.0871 -1.55802,0.0871 -0.97735,0 -1.17548,-0.0229 -1.31724,-0.1453 -0.14049,-0.12127 -0.18187,-0.27455 -0.22662,-0.97357 -0.072,-1.12444 0.0239,-2.18769 0.21245,-2.42665 0.10432,-0.13217 0.16601,-0.17819 0.65155,-0.18891 z m 0.97729,6.65514 c 0.3688,-0.007 0.75282,-0.002 1.07646,0.0145 0.63221,0.0323 1.02679,0.12445 1.38805,0.3342 0.36127,0.19362 0.67009,0.50076 0.83567,0.87186 0.16558,0.38723 0.1647,0.71551 0.0141,1.11887 -0.13547,0.41951 -0.40357,0.77675 -0.76484,1.00264 -0.36127,0.22588 -0.79833,0.331 -1.43055,0.36327 -0.64726,0.0323 -1.47203,0.0178 -1.96878,-0.0145 -0.48167,-0.0484 -0.61698,-0.10496 -0.72234,-0.21796 -0.10539,-0.0968 -0.1682,-0.26174 -0.1983,-0.55217 -0.0301,-0.29042 -0.0283,-0.61379 -0.0283,-1.01716 -0.015,-0.38723 -0.015,-0.72673 0,-1.01715 0.015,-0.2743 0.0663,-0.45216 0.14163,-0.58124 0.0752,-0.12908 0.18222,-0.19863 0.69402,-0.24703 0.24838,-0.0323 0.59435,-0.05 0.96315,-0.0581 z"
           style="display:inline;fill:#000000;fill-opacity:1;fill-rule:evenodd;stroke:none;stroke-width:1.06666672" />
        <path
           inkscape:export-ydpi="299.8598"
           inkscape:export-xdpi="299.8598"
           inkscape:export-filename="C:\Users\Olin\Documents\Náboj logo\green.png"
           d="m 389.08918,185.76356 c 0.97844,0.45178 1.91173,1.19398 2.64931,2.21047 0.7376,1.01649 1.29454,2.29113 1.5354,3.71099 0.22579,1.41987 0.13546,2.98493 -0.21075,4.29184 -0.36127,1.30693 -0.96337,2.33956 -1.76119,3.16243 -0.79779,0.82286 -1.79128,1.436 -3.131,1.72642 -1.32465,0.29042 -3.01056,0.25815 -4.30512,-0.0969 -1.29453,-0.3711 -2.19771,-1.06488 -2.9052,-1.88776 -0.72253,-0.82287 -1.26444,-1.77483 -1.58054,-3.00107 -0.31611,-1.22624 -0.40643,-2.74291 -0.2258,-4.13051 0.16558,-1.38758 0.60212,-2.62996 1.23434,-3.63031 0.63221,-0.98422 1.46013,-1.71029 2.42351,-2.1782 0.97843,-0.4679 2.10739,-0.67766 3.19121,-0.70993 1.06876,-0.0484 2.1074,0.0969 3.08583,0.53245 v 0 z m -1.3096,3.11402 c 0.5118,0.24201 1.00856,0.66151 1.39992,1.24238 0.39138,0.56471 0.67737,1.27463 0.79781,2.08137 0.13547,0.79062 0.0752,1.67802 -0.10538,2.40409 -0.18064,0.7422 -0.5118,1.32305 -0.93328,1.79095 -0.42148,0.45178 -0.93327,0.79061 -1.64077,0.95196 -0.70748,0.16134 -1.5956,0.16134 -2.28803,-0.0484 -0.67738,-0.20975 -1.14403,-0.59699 -1.5354,-1.06489 -0.37632,-0.45178 -0.66232,-0.98422 -0.8279,-1.67802 -0.16559,-0.69379 -0.21074,-1.54894 -0.12043,-2.3234 0.0904,-0.77448 0.31611,-1.48441 0.64728,-2.03298 0.33115,-0.56473 0.76769,-0.9681 1.29455,-1.22624 0.51179,-0.25817 1.09886,-0.38724 1.67087,-0.40337 0.57201,-0.0161 1.11391,0.0484 1.64075,0.30655 v 3e-5 z"
           style="display:inline;fill:#000000;fill-opacity:1;fill-rule:evenodd;stroke:none;stroke-width:1.06666672"
           id="8-0"
           inkscape:connector-curvature="0" />
        <path
           inkscape:export-ydpi="299.8598"
           inkscape:export-xdpi="299.8598"
           inkscape:export-filename="C:\Users\Olin\Documents\Náboj logo\green.png"
           sodipodi:nodetypes="ccsscccsscccsscccccsczzcscssccscc"
           d="m 411.51227,185.01681 c 0.61716,0.0806 0.78275,0.24202 0.93328,0.43564 0.13547,0.19362 0.25589,0.43564 0.33115,1.32305 0.0753,0.88741 0.0904,2.43635 0.10539,3.92075 0.015,1.48439 0.015,2.90425 -0.0451,4.06595 -0.0451,1.1617 -0.16558,2.08139 -0.49675,2.9204 -0.34621,0.85514 -0.91823,1.61347 -1.53539,2.14593 -0.60211,0.53243 -1.2494,0.82287 -1.98697,1.00036 -0.73759,0.17747 -1.56551,0.25815 -2.42351,0.22588 -0.87308,-0.0323 -1.7612,-0.16135 -2.61921,-0.56472 -0.84296,-0.40337 -1.64076,-1.08104 -2.1074,-1.8071 -0.45159,-0.74219 -0.58707,-1.51666 -0.60212,-2.00071 -0.0301,-0.48404 0.0752,-0.66151 0.18064,-0.80673 0.12042,-0.16134 0.25589,-0.29043 0.66233,-0.35497 0.40642,-0.0645 1.06875,-0.0645 1.50528,-0.0161 0.42149,0.0645 0.60212,0.16134 0.75265,0.29042 0.13547,0.1452 0.24084,0.30656 0.39137,0.53244 0.42623,0.73785 1.05312,0.99468 1.83646,1.1617 1.0206,0.0359 1.9303,-0.18747 2.53954,-1.02318 0.28601,-0.53244 0.52832,-0.89745 0.57348,-1.9946 0.0451,-1.09717 0.0304,-2.70731 -0.0148,-3.79778 0.0244,-1.353 -0.1231,-1.83806 -1.00076,-1.98911 -0.87766,-0.15106 -1.41673,-0.082 -2.5792,-0.0465 -1.16247,0.0354 -2.60415,0.011 -3.41701,-0.0535 -0.8279,-0.0484 -1.0537,-0.13084 -1.21927,-0.32446 -0.15053,-0.17748 -0.22579,-0.4195 -0.27096,-0.82287 -0.0301,-0.40337 -0.0301,-0.96809 0.015,-1.35532 0.0451,-0.38723 0.13548,-0.61312 0.27096,-0.75833 0.13548,-0.14522 0.30105,-0.24203 0.96338,-0.29043 0.66233,-0.0645 1.79129,-0.0806 2.95037,-0.0968 1.15907,0 2.33319,0.0161 3.46216,0.0161 1.12896,0 2.21277,-0.0161 2.84498,0.0645 l -1e-5,2e-5 z"
           style="display:inline;fill:#000000;fill-opacity:1;fill-rule:evenodd;stroke:none;stroke-width:1.06666672"
           id="10-9"
           inkscape:connector-curvature="0" />
        <text
           id="text7992"
           y="121.88924"
           x="300.83398"
           style="font-style:normal;font-weight:normal;font-size:12.80000019px;line-height:0%;font-family:sans-serif;letter-spacing:0px;word-spacing:0px;fill:#000000;fill-opacity:1;stroke:none;stroke-width:1.06666672"
           xml:space="preserve"><tspan
             y="121.88924"
             x="300.83398"
             id="tspan7994"
             sodipodi:role="line"
             style="font-family:sans-serif;stroke-width:1.06666672"> </tspan></text>
        <flowRoot
           style="font-style:normal;font-weight:normal;font-size:12.80000019px;line-height:0.01%;font-family:sans-serif;letter-spacing:0px;word-spacing:0px;fill:#000000;fill-opacity:1;stroke:none;stroke-width:1.06666672px;stroke-linecap:butt;stroke-linejoin:miter;stroke-opacity:1"
           id="flowRoot7996"
           xml:space="preserve"><flowRegion
             id="flowRegion7998"
             style="font-family:sans-serif;stroke-width:1.06666672px"><rect
               y="4.1353769"
               x="173.61702"
               height="78.297874"
               width="59.007092"
               id="rect8000"
               style="font-family:sans-serif;stroke-width:1.13777781px" /></flowRegion><flowPara
             id="flowPara8002"
             style="font-family:sans-serif;stroke-width:1.06666672px"> </flowPara></flowRoot>      </g>
      <g
         transform="translate(-164.84276,-32.520223)"
         style="display:inline"
         inkscape:label="text"
         id="layer4-7" />
    </g>
  </g>
  <g
     transform="translate(-69.337855,69.222721)"
     inkscape:groupmode="layer"
     id="layer4"
     inkscape:label="text"
     style="display:inline" />
</svg>
