<?xml version="1.0" encoding="UTF-8"?>
<!DOCTYPE svg PUBLIC "-//W3C//DTD SVG 1.1//EN" "http://www.w3.org/Graphics/SVG/1.1/DTD/svg11.dtd">
<!-- Creator: CorelDRAW X8 -->
<svg xmlns="http://www.w3.org/2000/svg" xml:space="preserve" width="96mm" height="79mm" version="1.1" style="shape-rendering:geometricPrecision; text-rendering:geometricPrecision; image-rendering:optimizeQuality; fill-rule:evenodd; clip-rule:evenodd"
viewBox="0 0 9600 7900"
 xmlns:xlink="http://www.w3.org/1999/xlink">
 <defs>
  <style type="text/css">
   <![CDATA[
    .fil3 {fill:none}
    .fil1 {fill:#2B2A29}
    .fil2 {fill:#2B2A29;fill-rule:nonzero}
    .fil0 {fill:black;fill-rule:nonzero}
   ]]>
  </style>
 </defs>
 <g id="Layer_x0020_1">
  <metadata id="CorelCorpID_0Corel-Layer"/>
  <polygon class="fil0" points="2358,1854 2457,1813 2276,1371 2416,1314 2382,1230 2003,1385 2037,1468 2177,1411 "/>
  <path id="1" class="fil0" d="M2584 1293l86 -24 86 -151 -118 33 -54 142zm161 322l-3 1 -180 -265 -109 31 270 347c1,46 -13,82 -57,94 -17,5 -35,6 -53,3l22 77c22,2 48,-1 74,-9 80,-22 110,-84 115,-150l35 -477 -106 30 -8 318z"/>
  <path id="2" class="fil0" d="M3392 1067l-107 8 15 206 -2 0c-16,-25 -57,-65 -133,-59 -100,7 -176,97 -166,237 10,134 105,213 204,206 68,-5 103,-44 121,-85l3 1 7 61 100 -8 -42 -567zm-190 236c43,-3 107,22 115,130 8,108 -52,142 -94,145 -43,3 -108,-22 -116,-129 -8,-109 53,-142 95,-146z"/>
  <path id="3" class="fil0" d="M3755 1193c-116,-2 -206,83 -209,217 -2,135 89,222 211,224 72,2 122,-16 152,-34l2 -83c-31,23 -81,41 -136,40 -76,-1 -126,-50 -127,-117l300 5c8,-168 -74,-250 -193,-252zm1 72c70,1 95,62 96,109l-202 -3c5,-59 43,-107 106,-106z"/>
  <path id="4" class="fil0" d="M4053 1632l107 10 22 -248c6,-59 46,-89 97,-84 49,4 74,39 70,90l-23 257 106 9 26 -283c9,-100 -57,-153 -130,-159 -69,-6 -114,24 -137,59l-3 0 5 -58 -102 -9 -38 416z"/>
  <polygon id="5" class="fil0" points="4834,1744 4974,1780 5212,1409 5105,1382 4928,1673 4926,1672 4910,1332 4803,1305 "/>
  <path id="6" class="fil0" d="M5444 1419l112 33 123 -91 -84 -24 -81 56 -3 -1 -37 -90 -85 -25 55 142zm42 52c-110,-32 -220,25 -258,155 -38,129 26,237 144,272 68,20 121,16 155,7l24 -80c-36,14 -89,18 -142,3 -72,-21 -108,-82 -91,-146l288 84c52,-161 -5,-261 -120,-295zm-17 70c67,20 75,86 63,131l-194 -57c21,-56 70,-91 131,-74z"/>
  <path id="7" class="fil0" d="M6237 1593l-99 -40 -77 192 -2 -1c-3,-29 -23,-84 -93,-112 -93,-37 -202,10 -254,141 -49,124 1,237 93,274 64,25 112,5 146,-23l2 2 -20 57 93 37 211 -527zm-274 129c40,15 86,66 46,166 -40,101 -108,105 -148,89 -39,-16 -87,-66 -47,-166 41,-101 110,-105 149,-89z"/>
  <path id="8" class="fil0" d="M6352 2129l-3 -1 26 -319 -103 -44 -9 439c-28,36 -62,55 -103,38 -16,-7 -31,-18 -43,-32l-32 74c17,15 39,29 63,40 77,32 139,4 184,-45l327 -349 -101 -43 -206 242z"/>
  <path class="fil1" d="M3284 3493l16 26c-10,7 -21,14 -31,20l-17 -26c10,-7 21,-13 32,-20zm48 7l-16 -26c154,-91 328,-173 479,-203 0,0 0,1 0,2 0,9 -1,18 -1,28 -36,7 -72,18 -106,29 -120,43 -242,103 -356,170zm637 420c-27,0 -254,-82 -315,-100 -363,-99 -613,-244 -579,-350 23,-73 176,-111 394,-111 -20,10 -39,20 -59,30 -13,1 -26,1 -39,2 -80,5 -165,14 -237,53 -43,30 -40,54 -11,94 64,71 157,114 241,152 96,41 196,74 297,102 120,32 199,41 308,41 20,0 37,13 42,31 0,0 0,0 1,0l0 1c0,4 1,8 1,12 0,4 -1,8 -1,11 0,17 -27,32 -43,32zm-151 -855l29 0c-1,-18 -2,-35 -4,-52l-29 0c2,17 3,35 4,52zm-54 723c-10,-2 -20,-4 -30,-6 2,-4 4,-9 6,-14 60,-162 79,-338 84,-510 0,-50 0,-101 -3,-152l29 0c2,37 4,76 4,114 0,226 -35,430 -90,568zm42 -896c25,2 50,-12 53,-45 0,-47 -118,-247 -143,-288 -36,-59 -79,-94 -125,-94 -144,0 -262,339 -262,755 0,40 1,78 3,116 10,-1 19,-2 29,-2 -7,-212 3,-435 73,-638 23,-64 83,-220 176,-199 35,12 60,42 80,74 8,12 15,25 22,36 49,107 50,145 50,242 0,24 20,43 44,43zm-262 1037c-8,5 -17,12 -25,18 23,18 47,28 72,28 49,0 95,-38 134,-106 -10,-2 -20,-4 -31,-6 -14,23 -32,45 -54,65l-11 7 -10 5c-29,11 -54,4 -75,-11zm-132 -156c13,4 25,9 38,13 9,23 19,44 31,65 2,4 4,8 6,11 -8,6 -16,12 -24,18 -18,-30 -35,-66 -51,-107zm1 -94c-12,-5 -23,-10 -34,-14 -11,-44 -21,-91 -28,-142 9,-5 18,-10 27,-15 8,57 19,115 35,171zm427 -696l-29 0c-1,-12 -3,-24 -4,-36l29 0c1,12 3,24 4,36zm2167 1046c-275,-32 -530,-199 -739,-577 -202,-366 -348,-563 -449,-574 -83,-10 -180,306 -353,993l-60 0c88,-663 200,-1104 348,-1550 13,-41 35,-68 57,-68 35,0 56,28 73,68 166,368 319,751 487,1131 90,204 385,555 635,557l1 20zm-1624 8l13 -96 54 0 -24 97 -43 -1zm-1004 -531l-2 0c0,0 0,1 1,1l1 -1zm-284 188c15,-16 15,-46 0,-61 -17,-17 -46,-16 -62,0 -59,56 -144,154 -212,225 -160,165 -228,309 -156,366 104,82 462,-43 811,-282 -1,0 -1,0 -1,0 25,-18 119,-85 140,-103 -11,-2 -23,-5 -34,-9 -17,13 -107,77 -125,90 1,0 1,0 1,0 -40,27 -81,53 -122,78 -134,81 -278,153 -429,198 -62,16 -144,37 -206,14l-9 -4 -8 -5c-49,-45 19,-147 45,-188 35,-49 74,-94 116,-137 75,-78 207,-137 251,-182zm787 -433c43,-1 78,7 100,25 70,55 8,192 -142,351 4,-18 8,-37 12,-55 50,-58 97,-120 122,-191 14,-47 11,-78 -37,-96 -19,-3 -37,-5 -55,-5 0,-9 0,-19 0,-29zm-217 502c11,3 23,5 34,8 5,-3 16,-15 20,-19 7,-19 8,-29 14,-48 -22,20 -45,39 -68,59zm-438 -234l17 26c-11,7 -22,14 -33,21 0,0 0,0 -1,0l-15 -25c10,-7 21,-14 32,-22zm1831 688c91,0 166,-75 166,-167 0,-91 -75,-166 -166,-166 -92,0 -167,75 -167,166 0,92 75,167 167,167zm-1460 -555c46,0 83,-37 83,-83 0,-45 -37,-82 -83,-82 -45,0 -82,37 -82,82 0,46 37,83 82,83zm40 385c86,516 140,1155 300,1161 110,4 163,-206 228,-358l76 0c-94,285 -191,793 -324,818 -50,10 -92,-82 -147,-288 -46,-175 -103,-682 -133,-1333zm452 752l0 -742 650 0 0 301 -321 0 0 60 145 0 0 294 -164 -1 0 88 -310 0zm29 -713l592 0 0 243 -321 0 0 118 145 0 0 236 -164 -1 0 88 -252 0 0 -684zm1114 90l-29 29 -1 285c-22,131 -117,223 -240,264 -15,5 -32,9 -48,12 -77,11 -155,0 -226,-32l-28 -14c-8,-4 -19,-11 -27,-17l109 -250c54,15 127,35 165,-23 8,-15 12,-29 14,-46l1 -179 -30 -28 0 205c-3,44 -33,60 -63,58 -38,-4 -71,-11 -103,-24l-129 298c74,54 155,82 249,86 199,3 364,-143 386,-307l0 -317zm79 623l0 -742 649 0 0 301 -320 0 0 60 145 0 0 294 -164 -1 0 88 -310 0zm29 -713l591 0 0 243 -320 0 0 118 145 0 0 236 -164 -1 0 88 -252 0 0 -684zm865 131c91,0 166,-75 166,-167 0,-91 -75,-166 -166,-166 -92,0 -166,75 -166,166 0,92 74,167 166,167zm-142 -11l0 564 282 0 0 -564 29 -29 0 622 -340 0 0 -622 29 29zm-1860 -291l0 -29c-15,-1 -31,-3 -47,-4l0 29c16,2 32,3 47,4zm351 -273c3,-10 5,-20 8,-30 125,69 193,140 175,198 -28,87 -235,124 -513,107l0 -30c82,5 164,5 246,0 70,-8 145,-16 207,-51 25,-17 40,-33 30,-64 -25,-52 -82,-89 -130,-118 -7,-4 -15,-8 -23,-12zm-544 -188c5,-9 9,-19 13,-28 151,33 288,76 402,122 -2,10 -4,20 -5,30 -105,-44 -215,-77 -324,-105 -29,-7 -57,-13 -86,-19zm-89 -19c4,-6 7,-12 10,-18 1,-3 3,-6 4,-9 -20,-4 -41,-8 -61,-11 0,10 -1,20 -2,29 16,3 33,6 49,9zm-257 -65c-21,7 -41,15 -60,24 60,4 120,10 181,19 1,-10 1,-20 2,-29 -42,-6 -83,-11 -123,-14zm465 539l0 -30c-17,-1 -33,-3 -50,-5l0 29c17,2 34,4 50,6z"/>
  <g>
   <path class="fil2" d="M1427 2068l-253 -214 27 106 -68 -50 -41 246 -86 -284 -71 47 35 -90 -211 79 216 -178 -177 -74 167 16 -75 -135 125 85 -58 -353 155 291 49 -84 22 87 171 -74 -72 152 290 85 -301 45 99 46 -109 4 166 247zm-1209 -1975l28 65 0 0 -45 23 -37 27 -29 31 -22 33 -15 37 -9 41 -4 45 3 48 8 51 14 54 19 56 23 58 29 60 32 61 37 61 39 62 43 62 46 62 47 62 50 60 51 59 52 58 53 55 54 54 53 51 53 48 52 45 51 41 49 38 47 33 44 29 41 24 -33 62 -45 -26 -47 -31 -49 -35 -51 -39 -53 -42 -53 -46 -54 -50 -55 -52 -54 -54 -54 -57 -54 -59 -52 -60 -51 -62 -49 -63 -46 -64 -44 -64 -41 -64 -38 -64 -34 -63 -30 -63 -25 -62 -21 -61 -15 -60 -9 -58 -3 -56 4 -54 12 -52 20 -48 29 -45 37 -40 47 -34 54 -28 0 0zm2147 3613l-70 8 0 0 -14 -98 -19 -110 -24 -119 -29 -127 -33 -136 -39 -142 -42 -148 -47 -153 -50 -156 -54 -160 -58 -161 -61 -161 -65 -162 -67 -160 -70 -158 -72 -155 -75 -151 -76 -146 -79 -140 -80 -132 -82 -124 -83 -115 -84 -105 -84 -94 -85 -82 -85 -68 -84 -54 -84 -40 -82 -24 -81 -9 -81 8 -80 26 -28 -65 94 -30 95 -9 95 9 93 28 93 44 91 59 90 73 89 85 88 97 86 108 85 118 83 126 82 135 80 141 77 148 76 152 73 156 70 160 68 161 64 163 62 163 58 162 55 160 51 158 47 154 42 149 39 143 34 137 29 130 25 120 19 112 14 101 0 0zm-688 4140l0 -70 0 0 126 -7 114 -21 103 -34 92 -45 82 -57 73 -68 64 -79 56 -90 48 -99 41 -109 34 -117 26 -126 21 -133 14 -139 8 -146 4 -152 -2 -156 -5 -160 -10 -164 -13 -167 -16 -169 -18 -171 -21 -171 -22 -172 -23 -171 -24 -171 -25 -169 -24 -167 -23 -163 -23 -161 -20 -156 -19 -152 70 -8 19 151 20 156 23 160 23 163 24 167 24 169 25 171 23 172 22 172 21 172 18 172 17 170 13 168 9 165 6 162 1 159 -3 153 -9 149 -14 143 -21 137 -28 130 -35 122 -43 115 -51 105 -61 97 -70 86 -80 75 -90 63 -102 50 -112 36 -123 23 -134 7 0 0zm2303 -5992l-4 71 0 0 -396 -6 -371 29 -346 62 -323 92 -298 121 -276 147 -253 170 -230 191 -209 211 -187 227 -166 242 -145 255 -125 264 -104 272 -85 278 -65 280 -47 282 -27 280 -9 276 9 270 26 261 44 250 61 237 77 221 92 204 108 183 123 160 138 136 151 109 164 80 178 50 192 17 0 70 -204 -18 -191 -53 -176 -86 -160 -115 -145 -143 -128 -168 -112 -190 -96 -209 -79 -228 -62 -242 -45 -256 -27 -266 -9 -274 10 -281 27 -284 47 -286 67 -286 86 -282 106 -277 127 -269 148 -259 170 -247 191 -233 213 -215 236 -196 259 -174 282 -150 306 -123 329 -95 353 -63 378 -30 402 6 0 0zm5192 4603l-41 -58 0 0 135 -111 104 -121 75 -130 47 -139 21 -147 -4 -155 -29 -162 -52 -169 -76 -173 -97 -178 -117 -181 -137 -183 -156 -185 -172 -184 -189 -184 -203 -181 -217 -179 -229 -175 -241 -171 -251 -165 -259 -158 -268 -151 -274 -142 -279 -133 -284 -123 -286 -112 -289 -99 -289 -87 -288 -72 -287 -58 -284 -41 -280 -25 4 -71 284 26 288 42 290 58 292 73 292 88 291 100 289 113 286 124 282 134 276 143 269 152 262 160 253 166 242 172 232 177 219 180 205 184 191 185 175 187 158 188 140 186 120 186 100 183 78 180 55 176 30 172 5 166 -23 159 -52 152 -81 142 -113 130 -143 119 0 0zm-1981 -5037l64 29 -49 126 -43 148 -38 167 -32 185 -25 200 -19 214 -13 226 -6 235 1 242 8 249 14 252 22 253 29 254 36 251 44 247 51 241 59 233 67 223 74 211 82 196 90 181 98 163 106 143 113 122 121 97 128 73 136 47 145 18 154 -11 164 -44 174 -77 185 -115 41 58 -192 119 -184 82 -176 46 -168 13 -158 -21 -150 -50 -139 -79 -129 -105 -119 -128 -111 -149 -101 -168 -92 -185 -84 -201 -75 -215 -68 -225 -59 -236 -52 -244 -44 -249 -37 -253 -29 -256 -22 -255 -15 -254 -7 -250 -1 -245 6 -237 12 -228 20 -216 26 -203 32 -189 38 -171 45 -153 52 -132zm134 -212l-10 537 -9 -11 -10 -11 -10 -10 -10 -10 -10 -10 -10 -10 -10 -9 -11 -8 -11 -9 -11 -7 -11 -8 -11 -7 -12 -7 -11 -6 -12 -6 -12 -6 -12 -5 -13 -5 -12 -4 -13 -5 -13 -3 -13 -4 -13 -3 -13 -2 -14 -2 -13 -2 -14 -2 -14 -1 -14 -1 -15 0 -14 0 -15 0 0 0 396 -363z"/>
  </g>
  <path class="fil3" d="M2731 6717c897,338 4133,-18 4815,-775"/>
  <path class="fil2" d="M3144 6815l107 7 17 -247c4,-60 44,-90 95,-87 49,4 75,37 72,89l-18 257 107 7 19 -283c7,-101 -59,-152 -133,-157 -68,-5 -113,26 -136,62l-2 0 4 -58 -103 -7 -29 417z"/>
  <path id="1" class="fil2" d="M3802 6411c-65,1 -116,19 -140,31l1 83c28,-20 75,-38 129,-38 65,-1 99,25 99,68l1 23c-31,-1 -59,0 -93,2 -116,7 -181,62 -180,144 1,82 65,134 141,134 67,-1 107,-29 131,-67l3 0c0,17 2,36 5,52l101 -1c-3,-28 -5,-52 -5,-84l-3 -200c-1,-102 -76,-148 -190,-147zm90 230l1 44c0,51 -42,97 -100,98 -41,0 -73,-23 -74,-63 0,-47 40,-72 101,-77 25,-2 56,-2 72,-2z"/>
  <path id="2" class="fil2" d="M4363 6839c106,-6 168,-79 162,-190l-23 -399 -106 6 22 395c3,59 -32,96 -86,99 -34,2 -57,-9 -74,-17l5 93c24,9 62,15 100,13z"/>
  <path id="3" class="fil2" d="M4785 6360c-65,6 -114,28 -137,42l7 82c27,-23 73,-43 126,-48 65,-6 100,17 104,60l2 23c-31,2 -58,4 -92,10 -115,16 -176,75 -168,156 7,82 75,130 151,123 66,-6 105,-37 126,-77l2 0c2,18 5,36 9,51l101 -9c-5,-27 -9,-51 -12,-82l-18 -199c-9,-102 -88,-142 -201,-132zm108 221l4 44c4,51 -34,101 -92,106 -40,4 -75,-17 -79,-57 -4,-47 35,-75 95,-85 24,-4 56,-6 72,-8z"/>
  <path id="4" class="fil2" d="M5445 6128l-106 17 32 204 -2 0c-18,-23 -62,-60 -138,-48 -99,15 -167,111 -146,250 21,132 122,204 220,188 68,-10 99,-51 114,-94l3 1 12 60 99 -16 -88 -562zm-170 251c42,-6 108,13 125,120 16,107 -40,146 -82,152 -43,7 -109,-13 -126,-119 -16,-107 41,-146 83,-153z"/>
  <path id="5" class="fil2" d="M5758 6214c-113,22 -184,124 -157,256 26,132 133,199 253,175 70,-14 116,-42 142,-66l-17 -82c-25,29 -70,58 -124,68 -74,15 -133,-22 -149,-87l294 -58c-28,-167 -124,-230 -242,-206zm17 70c69,-14 106,41 117,86l-199 40c-7,-59 20,-114 82,-126z"/>
  <path id="6" class="fil2" d="M6038 6162l103 406 104 -27 -60 -239c-14,-54 16,-96 62,-108 21,-6 36,-5 50,-1l-24 -94c-12,-1 -24,-1 -40,3 -47,12 -74,54 -79,88l-2 0 -14 -53 -100 25z"/>
  <path id="7" class="fil2" d="M6636 6439c63,-19 94,-47 112,-67l-26 -84c-13,23 -42,51 -93,67 -64,20 -141,-3 -169,-94 -30,-96 28,-154 87,-173 49,-15 89,-7 109,4l-25 -81c-20,-5 -62,-10 -123,9 -116,36 -191,145 -150,276 41,131 162,179 278,143z"/>
  <path id="8" class="fil2" d="M6842 5890c-106,47 -153,162 -99,285 54,123 173,165 285,116 65,-29 104,-66 124,-95l-33 -76c-19,33 -57,71 -107,93 -69,30 -135,7 -164,-53l275 -120c-63,-157 -171,-197 -281,-150zm31 65c65,-28 113,18 133,60l-185 81c-20,-56 -5,-115 52,-141z"/>
 </g>
</svg>
