<?xml version="1.0" encoding="UTF-8"?>
<svg id="Layer_1" data-name="Layer 1" xmlns="http://www.w3.org/2000/svg" viewBox="0 0 293.35 80.67">
  <defs>
    <style>
      .cls-1 {
        fill: #cb9237;
      }
    </style>
  </defs>
  <g>
    <path class="cls-1" d="M40.2,26.77c4.25,0,6.2-3.15,8.6-6.66,2.26-3.31,5.59-8.86,9.01-14.72.34-.57.1-1.31-.49-1.6-5.94-2.88-10.22-3.8-17.12-3.8s-11.18.93-17.12,3.8c-.6.29-.83,1.02-.49,1.6,3.47,5.92,6.89,11.61,9.12,14.86,2.37,3.44,4.31,6.51,8.49,6.51Z"/>
    <path class="cls-1" d="M18.75,7.62c-.33-.58-1.08-.74-1.63-.37-5.46,3.7-8.4,6.95-11.85,12.92C1.82,26.14.48,30.32,0,36.9c-.05.66.47,1.23,1.14,1.22,6.86-.04,13.5-.16,17.43-.47,4.17-.33,7.8-.47,9.89-4.09,2.12-3.68.37-6.95-1.46-10.78-1.74-3.61-4.88-9.27-8.24-15.16Z"/>
    <path class="cls-1" d="M28.46,47.12c-2.12-3.68-5.83-3.8-10.07-4.12-4-.3-10.47-.41-17.25-.45-.66,0-1.18.56-1.14,1.22.48,6.58,1.82,10.75,5.27,16.73,3.45,5.97,6.39,9.22,11.85,12.92.55.37,1.3.21,1.63-.37,3.4-5.96,6.61-11.77,8.31-15.33,1.8-3.77,3.49-6.99,1.4-10.61Z"/>
    <path class="cls-1" d="M40.2,53.9c-4.25,0-6.2,3.15-8.6,6.66-2.26,3.31-5.59,8.86-9.01,14.72-.34.57-.1,1.31.49,1.6,5.94,2.88,10.22,3.8,17.12,3.8s11.18-.93,17.12-3.8c.6-.29.83-1.02.49-1.6-3.47-5.92-6.89-11.61-9.12-14.86-2.37-3.44-4.31-6.51-8.49-6.51"/>
    <path class="cls-1" d="M51.95,47.12c-2.12,3.68-.37,6.95,1.46,10.78,1.74,3.61,4.88,9.27,8.24,15.16.33.58,1.08.74,1.63.37,5.46-3.7,8.4-6.95,11.85-12.92,3.45-5.97,4.79-10.15,5.27-16.73.05-.66-.47-1.23-1.14-1.22-6.86.04-13.5.16-17.43.47-4.17.33-7.8.47-9.89,4.09Z"/>
    <path class="cls-1" d="M51.95,33.55c2.12,3.68,5.83,3.8,10.07,4.12,4,.3,10.47.41,17.25.45.66,0,1.18-.56,1.14-1.22-.48-6.58-1.82-10.75-5.27-16.73-3.45-5.97-6.39-9.22-11.85-12.92-.55-.37-1.3-.21-1.63.37-3.4,5.96-6.61,11.77-8.31,15.33-1.8,3.77-3.49,6.99-1.4,10.61Z"/>
  </g>
  <g>
    <path class="cls-1" d="M125.91,11.04h8.17v40h-7.94l-19.66-26.4v26.4h-8.17V11.04h7.94l19.66,26.46V11.04Z"/>
    <path class="cls-1" d="M169.8,39.04h-22.74c1.03,3.49,4,5.94,8.06,5.94,3.2,0,5.89-1.54,7.31-4.11l6.34,2.86c-2.57,4.63-7.49,7.89-13.89,7.89-8.97,0-15.77-6.63-15.77-15.31s6.69-15.31,15.49-15.31c9.89,0,16.8,8.23,15.2,18.06ZM147.17,33.15h14.91c-1.03-3.31-3.83-5.54-7.49-5.54s-6.34,2.23-7.43,5.54Z"/>
    <path class="cls-1" d="M174.54,21.55h7.71v17.03c0,3.6,2.51,6,6.11,6s6.11-2.4,6.11-6v-17.03h7.71v17.03c0,7.77-5.83,13.03-13.83,13.03s-13.83-5.26-13.83-13.03v-17.03Z"/>
    <path class="cls-1" d="M215.86,25.38c2.51-3.43,6.69-5.31,11.03-3.94v7.31c-6.23-2.17-11.03.69-11.03,5.77v16.51h-7.71v-29.49h7.71v3.83Z"/>
    <path class="cls-1" d="M243.52,20.98c8.97,0,15.77,6.63,15.77,15.31s-6.8,15.31-15.77,15.31-15.77-6.63-15.77-15.31,6.8-15.31,15.77-15.31ZM243.52,44.58c4.46,0,7.77-3.54,7.77-8.29s-3.31-8.23-7.77-8.23-7.77,3.54-7.77,8.23,3.37,8.29,7.77,8.29Z"/>
    <path class="cls-1" d="M293.12,33.15v17.89h-7.71v-16.51c0-3.83-2.74-6.51-6.69-6.51s-6.69,2.69-6.69,6.51v16.51h-7.71v-29.49h7.71v3.83c2.06-2.69,5.31-4.4,9.2-4.4,7.09,0,11.89,5.14,11.89,12.17Z"/>
  </g>
  <g>
    <path class="cls-1" d="M105.2,64.88h1.52v9.69h-1.5l-5.39-7.16v7.16h-1.54v-9.69h1.5l5.4,7.16v-7.16Z"/>
    <path class="cls-1" d="M116.06,74.57l-.97-2.34h-4.67l-.97,2.34h-1.56l4.07-9.69h1.67l4.06,9.69h-1.63ZM110.99,70.86h3.53l-1.76-4.29-1.77,4.29Z"/>
    <path class="cls-1" d="M118.86,74.57v-9.69h3.63c2.84,0,4.93,2.1,4.93,4.84s-2.09,4.85-4.93,4.85h-3.63ZM120.4,73.2h1.98c2.02,0,3.46-1.48,3.46-3.48s-1.44-3.47-3.46-3.47h-1.98v6.95Z"/>
    <path class="cls-1" d="M135.69,74.57l-.97-2.34h-4.67l-.97,2.34h-1.56l4.07-9.69h1.67l4.06,9.69h-1.63ZM130.62,70.86h3.53l-1.76-4.29-1.77,4.29Z"/>
    <path class="cls-1" d="M142.49,64.74c2.19,0,3.81,1.33,4.47,2.81l-1.41.55c-.53-1.12-1.65-1.95-3.06-1.95-1.97,0-3.49,1.55-3.49,3.57s1.52,3.57,3.49,3.57c1.41,0,2.53-.83,3.06-1.95l1.41.55c-.66,1.48-2.28,2.81-4.47,2.81-2.87,0-5.07-2.17-5.07-4.98s2.2-4.98,5.07-4.98Z"/>
    <path class="cls-1" d="M148.54,74.57v-9.69h6.2v1.37h-4.67v2.8h4.53v1.36h-4.53v2.8h4.67v1.37h-6.2Z"/>
    <path class="cls-1" d="M167.68,64.88h1.52v9.69h-1.49l-5.39-7.16v7.16h-1.54v-9.69h1.5l5.4,7.16v-7.16Z"/>
    <path class="cls-1" d="M178.53,74.57l-.97-2.34h-4.67l-.97,2.34h-1.56l4.07-9.69h1.67l4.06,9.69h-1.63ZM173.47,70.86h3.53l-1.76-4.29-1.77,4.29Z"/>
    <path class="cls-1" d="M185.71,74.57v-9.69h3.88c1.99,0,3.34,1.31,3.34,3.07s-1.34,3.03-3.34,3.03h-2.34v3.59h-1.54ZM187.25,69.61h2.34c1.05,0,1.76-.72,1.76-1.67s-.71-1.69-1.76-1.69h-2.34v3.36Z"/>
    <path class="cls-1" d="M198.82,64.74c2.85,0,5.05,2.17,5.05,4.98s-2.2,4.98-5.05,4.98-5.07-2.17-5.07-4.98,2.2-4.98,5.07-4.98ZM198.82,73.3c1.97,0,3.47-1.55,3.47-3.57s-1.51-3.57-3.47-3.57-3.49,1.55-3.49,3.57,1.52,3.57,3.49,3.57Z"/>
    <path class="cls-1" d="M205.46,74.57v-9.69h3.63c2.84,0,4.93,2.1,4.93,4.84s-2.09,4.85-4.93,4.85h-3.63ZM206.99,73.2h1.98c2.02,0,3.46-1.48,3.46-3.48s-1.44-3.47-3.46-3.47h-1.98v6.95Z"/>
    <path class="cls-1" d="M215.59,74.57v-9.69h3.88c1.99,0,3.34,1.31,3.34,3.07s-1.34,3.03-3.34,3.03h-2.34v3.59h-1.54ZM217.13,69.61h2.34c1.05,0,1.76-.72,1.76-1.67s-.71-1.69-1.76-1.69h-2.34v3.36Z"/>
    <path class="cls-1" d="M228.71,64.74c2.85,0,5.05,2.17,5.05,4.98s-2.2,4.98-5.05,4.98-5.07-2.17-5.07-4.98,2.2-4.98,5.07-4.98ZM228.71,73.3c1.97,0,3.47-1.55,3.47-3.57s-1.51-3.57-3.47-3.57-3.49,1.55-3.49,3.57,1.52,3.57,3.49,3.57Z"/>
    <path class="cls-1" d="M242.82,74.57h-1.84l-2.56-3.79h-1.54v3.79h-1.54v-9.69h4.02c1.92,0,3.21,1.27,3.21,2.95,0,1.43-.93,2.55-2.38,2.87l2.63,3.88ZM236.88,66.25v3.16h2.48c.97,0,1.63-.69,1.63-1.58s-.66-1.58-1.63-1.58h-2.48Z"/>
    <path class="cls-1" d="M243.96,64.88h1.54v5.99c0,1.41,1.02,2.42,2.53,2.42s2.55-1.01,2.55-2.42v-5.99h1.52v5.99c0,2.24-1.69,3.83-4.07,3.83s-4.07-1.59-4.07-3.83v-5.99Z"/>
    <path class="cls-1" d="M265.34,64.88h1.55l-3.85,9.69h-1.67l-3.86-9.69h1.63l3.1,8.03,3.1-8.03Z"/>
    <path class="cls-1" d="M274.25,66.25h-4.67v2.8h4.53v1.36h-4.53v2.8h4.67v1.37h-6.2v-9.69h6.2v1.37ZM271.82,64.23h-1.52l-2.05-2.12h1.65l1.16,1.18,1.16-1.18h1.65l-2.05,2.12Z"/>
    <path class="cls-1" d="M275.92,74.57v-9.69h3.63c2.84,0,4.93,2.1,4.93,4.84s-2.09,4.85-4.93,4.85h-3.63ZM277.45,73.2h1.98c2.02,0,3.46-1.48,3.46-3.48s-1.44-3.47-3.46-3.47h-1.98v6.95Z"/>
    <polygon class="cls-1" points="288.15 74.58 289.67 74.58 289.67 71.22 293.35 64.88 291.63 64.88 288.95 69.71 286.26 64.88 284.46 64.88 288.15 71.22 288.15 74.58"/>
  </g>
</svg>