<?xml version="1.0" encoding="utf-8"?>
<!-- Generator: Adobe Illustrator 25.4.1, SVG Export Plug-In . SVG Version: 6.00 Build 0)  -->
<svg version="1.1" id="Layer_1" xmlns="http://www.w3.org/2000/svg" xmlns:xlink="http://www.w3.org/1999/xlink" x="0px" y="0px"
	 viewBox="0 0 750 750" style="enable-background:new 0 0 750 750;" xml:space="preserve">
<style type="text/css">
	.st0{fill:#00AE6B;}
</style>
<g>
	<polygon class="st0" points="544.9,460.2 559.3,494.8 586.4,447.3 394.9,296 	"/>
	<polygon class="st0" points="528.4,491.7 542,497.9 535.8,482.6 	"/>
	<path class="st0" d="M0,0v750h750V0H0z M422.4,554.7H286.6v-21.4h38.1v-60.3h-199V178.4h457.6v188.7c-8.8-5-17.7-10-26.8-15.1
		V205.2H152.4v241h251.3l9.1,26.8h-28.6v60.3h38.1V554.7z M602.5,453.8l-40.1,72.3l-45.4-20.6l-51.8,66L359.5,261
		c0,0,340.9,192.8,342.8,194L602.5,453.8z"/>
</g>
</svg>
