<svg id="Layer_1" data-name="Layer 1" xmlns="http://www.w3.org/2000/svg" viewBox="0 0 1766.94 250"><polygon fill="white" points="181.63 153.41 186.45 164.93 195.48 149.09 131.65 98.65 181.63 153.41"/><polygon fill="white" points="176.13 163.91 180.67 165.95 178.62 160.87 176.13 163.91"/><path fill="white" d="M0,0V250H250V0ZM140.81,184.89H95.52v-7.14h12.71V157.64H41.9V59.48H194.43v62.88l-8.92-5V68.4H50.82v80.32h83.76l3,8.92h-9.53v20.11h12.72Zm60-33.61-13.36,24.08-15.13-6.85-17.26,22L119.84,87s113.62,64.26,114.27,64.65Z"/><path fill="white" d="M420.39,71.11H371.55V101h48.84v28.82H371.55V189H335.91V42.29h84.48Z"/><path fill="white" d="M462.18,87.17l17.61,53.46,20.46-53.46h35.2L479.79,234.35H443.93l18.25-47.3L426.77,87.17Z"/><path fill="white" d="M626.31,87.17l-37.85,74.14h35.87V189H537l37.84-74.14H540.06V87.17Z"/><path fill="white" d="M659.08,39.65a16.94,16.94,0,0,1,12.65,5.06,17.8,17.8,0,0,1,4.95,13,17,17,0,0,1-5.06,12.54A17.82,17.82,0,0,1,641,57.47a17.33,17.33,0,0,1,5.06-12.76A17.6,17.6,0,0,1,659.08,39.65ZM642.14,87.17h33.44V189H642.14Z"/><path fill="white" d="M756.55,189l-22.67-40.7V189H700.44V42.29h33.44v81.18l22.67-36.3h37.84l-29.7,48.4L794.39,189Z"/><path fill="white" d="M841,42.29V189H807.59V42.29Z"/><path fill="white" d="M944.21,98.17v-11h33.44V189H944.21V177.59Q930.79,193,909.67,193q-21.57,0-35.86-15-14.09-15-14.08-38.5,0-24.19,15-40.26,14.73-16,37.84-16.06Q930.56,83.21,944.21,98.17Zm-24.42,12.76a22.3,22.3,0,0,0-17.6,7.81q-6.83,7.82-6.82,20.13a29.71,29.71,0,0,0,7,19.8,21.67,21.67,0,0,0,17.16,7.92,22.73,22.73,0,0,0,17.6-8.14,28.51,28.51,0,0,0,7.48-20q0-12.09-6.93-19.8T919.79,110.93Z"/><path fill="white" d="M1002.73,189V87.17h33.44V98.61q5.05-8.35,10.89-11.88t15.07-3.52q16,0,26.18,9.9a29.78,29.78,0,0,1,7.15,12.65q2.08,7.38,2.09,20.79V189h-33.44V126.77q0-7.47-3.74-11.66a14.21,14.21,0,0,0-20.35.22q-3.86,4.41-3.85,11.88V189Z"/><path fill="white" d="M1138.91,39.65a17,17,0,0,1,12.65,5.06,17.8,17.8,0,0,1,5,13,17,17,0,0,1-5.06,12.54,17.82,17.82,0,0,1-30.58-12.76,17.29,17.29,0,0,1,5.06-12.76A17.58,17.58,0,0,1,1138.91,39.65ZM1122,87.17h33.44V189H1122Z"/><path fill="white" d="M1250,39.72a67.55,67.55,0,0,1,35.88,10.1q35.44,21.48,35.45,67.35,0,21.48-9.57,38.45A71.34,71.34,0,0,1,1210.59,180q-33.19-21.27-33.19-63.49,0-34.69,22.34-56.4Q1220.8,39.72,1250,39.72Zm-.43,17.08q-25.46,0-41,20.41Q1196.31,93,1196.3,115.88q0,25.13,14.72,41.78,14.94,17.09,38.14,17.08a51.47,51.47,0,0,0,25-6.44q14.38-8,21-21.16a65.55,65.55,0,0,0,7.2-30.29q0-28.57-16.65-44.91Q1270.1,56.79,1249.59,56.8Z"/><path fill="white" d="M1347.77,189V87.63h16.76v14.28a44.15,44.15,0,0,1,11.28-11.28,34.42,34.42,0,0,1,18.8-5.37q14.39,0,23.31,8.49a24.67,24.67,0,0,1,7.63,13,72.67,72.67,0,0,1,1.18,14V189h-16.87V124.36q0-12.45-3.65-17.4-4.95-6.76-15.9-6.77a25.25,25.25,0,0,0-19.23,8.6q-6.55,7-6.55,18.37V189Z"/><path fill="white" d="M1476.57,42.4V189h-16.86V42.4Z"/><path fill="white" d="M1518.79,48.31a10,10,0,0,1,7.84,3.54,10.76,10.76,0,0,1,2.8,7.42,10.39,10.39,0,0,1-3.66,7.94,11,11,0,0,1-15-.85,11,11,0,0,1,.86-15.47A10,10,0,0,1,1518.79,48.31Zm-8.59,39.32H1527V189H1510.2Z"/><path fill="white" d="M1560.58,189V87.63h16.76v14.28a44.15,44.15,0,0,1,11.28-11.28,34.41,34.41,0,0,1,18.79-5.37q14.4,0,23.32,8.49a24.67,24.67,0,0,1,7.63,13,72.74,72.74,0,0,1,1.17,14V189h-16.86V124.36q0-12.45-3.65-17.4-4.95-6.76-15.9-6.77a25.25,25.25,0,0,0-19.23,8.6q-6.56,7-6.55,18.37V189Z"/><path fill="white" d="M1766.62,143.7h-84.55q1.29,11.18,6.67,18.69,10.2,13.76,27.28,13.75,11.06,0,21.27-7.3a29.67,29.67,0,0,0,9.13-10.21l14.72,5.48a45,45,0,0,1-13,16.11A50.8,50.8,0,0,1,1716,191.5q-24.6,0-39.64-17.72-12-14-12-35.13,0-23.62,14.5-38.56,14.28-14.84,36.63-14.83,26,0,40.82,19.55a51.93,51.93,0,0,1,10.64,32.34Q1766.94,139.19,1766.62,143.7Zm-84.22-12.25h66.71q-1-10.74-5.91-17.4a32.68,32.68,0,0,0-11.17-9.77,35.59,35.59,0,0,0-16.65-4.09,31.84,31.84,0,0,0-20.74,7.2Q1685,115.13,1682.4,131.45Z"/></svg>
