<?xml version="1.0" encoding="UTF-8" standalone="no"?>
<!-- Created with Inkscape (http://www.inkscape.org/) -->

<svg
   version="1.1"
   id="svg1"
   width="359.72134"
   height="90.708664"
   viewBox="0 0 359.72134 90.708664"
   sodipodi:docname="CSG-Aerospace.svg"
   inkscape:version="1.4.3 (0d15f75042, 2025-12-25)"
   xmlns:inkscape="http://www.inkscape.org/namespaces/inkscape"
   xmlns:sodipodi="http://sodipodi.sourceforge.net/DTD/sodipodi-0.dtd"
   xmlns="http://www.w3.org/2000/svg"
   xmlns:svg="http://www.w3.org/2000/svg">
  <defs
     id="defs1" />
  <sodipodi:namedview
     id="namedview1"
     pagecolor="#505050"
     bordercolor="#eeeeee"
     borderopacity="1"
     inkscape:showpageshadow="0"
     inkscape:pageopacity="0"
     inkscape:pagecheckerboard="0"
     inkscape:deskcolor="#d1d1d1"
     inkscape:zoom="3.4848493"
     inkscape:cx="179.9217"
     inkscape:cy="45.052163"
     inkscape:window-width="2560"
     inkscape:window-height="1440"
     inkscape:window-x="1920"
     inkscape:window-y="0"
     inkscape:window-maximized="1"
     inkscape:current-layer="layer-MC0">
    <inkscape:page
       x="0"
       y="0"
       inkscape:label="1"
       id="page1"
       width="359.72134"
       height="90.708664"
       margin="15.118267 15.438666 15.118134 15.118134"
       bleed="0" />
  </sodipodi:namedview>
  <g
     id="layer-MC0"
     inkscape:groupmode="layer"
     inkscape:label="Vrstva 8">
    <path
       id="path1"
       d="M 0,0 C 0,-8.86 -3.598,-16.878 -9.411,-22.677 H 0.528 C 5.015,-16.248 7.654,-8.434 7.654,0 7.654,8.434 5.015,16.248 0.528,22.677 H -9.411 C -3.598,16.878 0,8.86 0,0"
       style="fill:#f22037;fill-opacity:1;fill-rule:nonzero;stroke:none"
       transform="matrix(1.3333333,0,0,-1.3333333,193.88787,45.354267)" />
    <path
       id="path2"
       d="m 0,0 h -21.081 v -7.117 h 13.902 c -1.191,-6.491 -6.491,-11.021 -13.413,-11.021 -8.822,0 -15.118,6.738 -15.118,15.55 0,8.761 6.296,15.436 14.615,15.436 5.022,0 9.993,-2.67 11.872,-6.675 h 8.443 c -1.983,7.487 -10.702,13.854 -20.315,13.854 -12.602,0 -22.236,-9.767 -22.236,-22.615 0,-12.91 9.572,-22.739 22.236,-22.739 12.149,0 21.413,8.761 21.413,21.167 C 0.318,-2.835 0.195,-1.068 0,0 m -69.929,7.621 c 0,3.276 2.958,5.412 7.436,5.412 4.786,0 7.867,-2.896 8,-6.86 h 7.56 c 0,7.425 -5.167,13.854 -15.314,13.854 -8.627,0 -14.923,-5.227 -14.923,-12.468 0,-16.186 24.31,-9.829 24.31,-19.719 0,-3.718 -3.522,-6.234 -8.503,-6.234 -5.29,0 -9.069,3.214 -9.069,7.939 h -7.303 c 0,-8.628 6.923,-14.872 16.372,-14.872 9.068,0 15.806,5.546 15.806,13.167 0,17.069 -24.372,10.578 -24.372,19.781 m -19.039,-18.076 c -1.777,-4.632 -6.511,-7.683 -11.985,-7.683 -8.258,0 -14.554,6.738 -14.554,15.55 0,8.761 6.296,15.436 14.554,15.436 5.186,0 9.664,-2.66 11.657,-6.675 h 8.432 c -2.198,8.144 -10.62,13.854 -20.089,13.854 -12.602,0 -22.174,-9.767 -22.174,-22.615 0,-12.91 9.572,-22.739 22.174,-22.739 9.91,0 18.035,6.008 20.294,14.872 z"
       style="fill:#20262e;fill-opacity:1;fill-rule:nonzero;stroke:none"
       transform="matrix(1.3333333,0,0,-1.3333333,179.28773,41.821333)" />
    <path
       id="path3"
       d="M 0,0 H 4.461 L 2.22,6.101 Z M -4.321,-5.421 0.92,8.582 H 3.66 L 8.882,-5.421 H 6.421 L 5.101,-1.96 H -0.641 L -1.94,-5.421 Z"
       style="fill:#20262e;fill-opacity:1;fill-rule:nonzero;stroke:none"
       transform="matrix(1.3333333,0,0,-1.3333333,220.41387,26.560133)" />
    <path
       id="path4"
       d="M 0,0 C -0.18,1.521 -1.24,2.381 -2.74,2.381 -4.12,2.381 -5.301,1.46 -5.461,0 Z m -7.802,-1.14 c 0,3.161 2.021,5.261 5.042,5.261 2.96,0 4.941,-1.88 5.001,-4.881 0,-0.26 -0.02,-0.54 -0.06,-0.82 h -7.722 v -0.14 c 0.061,-1.74 1.16,-2.881 2.86,-2.881 1.321,0 2.282,0.66 2.581,1.801 h 2.161 c -0.36,-2.021 -2.081,-3.561 -4.622,-3.561 -3.22,0 -5.241,2.08 -5.241,5.221"
       style="fill:#20262e;fill-opacity:1;fill-rule:nonzero;stroke:none"
       transform="matrix(1.3333333,0,0,-1.3333333,243.13387,25.467067)" />
    <path
       id="path5"
       d="m 0,0 v -2.021 h -0.961 c -1.92,0 -2.54,-1.5 -2.54,-3.08 v -5.141 h -2.16 V 0 h 1.92 l 0.24,-1.541 C -2.98,-0.68 -2.161,0 -0.48,0 Z"
       style="fill:#20262e;fill-opacity:1;fill-rule:nonzero;stroke:none"
       transform="matrix(1.3333333,0,0,-1.3333333,255.96067,20.1324)" />
    <path
       id="path6"
       d="m 0,0 c 0,1.98 -1.2,3.401 -3.021,3.401 -1.82,0 -3,-1.421 -3,-3.401 0,-1.98 1.18,-3.401 3,-3.401 C -1.2,-3.401 0,-1.98 0,0 m -8.242,0 c 0,3.121 2.1,5.241 5.221,5.241 C 0.1,5.241 2.2,3.121 2.2,0 c 0,-3.141 -2.1,-5.241 -5.221,-5.241 -3.121,0 -5.221,2.1 -5.221,5.241"
       style="fill:#20262e;fill-opacity:1;fill-rule:nonzero;stroke:none"
       transform="matrix(1.3333333,0,0,-1.3333333,267.56093,26.960533)" />
    <path
       id="path7"
       d="m 0,0 c 0.08,-1.061 1.001,-1.82 2.561,-1.82 1.34,0 2.22,0.52 2.22,1.34 0,1.1 -0.94,1.18 -2.52,1.38 -2.341,0.28 -4.181,0.78 -4.181,2.901 0,1.94 1.74,3.2 4.201,3.18 2.521,0 4.301,-1.16 4.441,-3.26 h -2.12 c -0.121,0.94 -1,1.6 -2.281,1.6 C 1.041,5.321 0.2,4.801 0.2,3.98 0.2,3.021 1.181,2.9 2.661,2.74 c 2.34,-0.28 4.24,-0.76 4.24,-3.04 0,-1.961 -1.86,-3.201 -4.34,-3.201 -2.741,0 -4.622,1.28 -4.681,3.501 z"
       style="fill:#20262e;fill-opacity:1;fill-rule:nonzero;stroke:none"
       transform="matrix(1.3333333,0,0,-1.3333333,274.9464,29.280933)" />
    <path
       id="path8"
       d="m 0,0 c 0,2.021 -1.2,3.401 -3,3.401 -1.801,0 -2.98,-1.38 -2.98,-3.361 0,-2.04 1.179,-3.461 2.98,-3.461 1.8,0 3,1.421 3,3.421 m 2.201,0 c 0,-3.161 -2.041,-5.241 -4.842,-5.241 -1.58,0 -2.68,0.64 -3.32,1.56 v -5.441 h -2.16 V 5.121 h 1.88 l 0.261,-1.52 c 0.679,0.9 1.74,1.64 3.339,1.64 2.801,0 4.842,-1.96 4.842,-5.241"
       style="fill:#20262e;fill-opacity:1;fill-rule:nonzero;stroke:none"
       transform="matrix(1.3333333,0,0,-1.3333333,297.18733,26.960533)" />
    <path
       id="path9"
       d="m 0,0 v 0.36 h -2.681 c -1.34,0 -2.081,-0.5 -2.081,-1.54 0,-0.86 0.721,-1.46 1.901,-1.46 1.8,0 2.84,1.06 2.861,2.64 M 2.14,2.441 V -4.201 H 0.26 L 0.079,-2.74 c -0.699,-0.921 -1.68,-1.581 -3.3,-1.581 -2.241,0 -3.741,1.1 -3.741,3.001 0,2.1 1.521,3.28 4.401,3.28 H 0 v 0.621 c 0,1.14 -0.82,1.84 -2.241,1.84 -1.28,0 -2.141,-0.6 -2.3,-1.5 h -2.121 c 0.221,2 1.94,3.241 4.521,3.241 2.721,0 4.281,-1.301 4.281,-3.721"
       style="fill:#20262e;fill-opacity:1;fill-rule:nonzero;stroke:none"
       transform="matrix(1.3333333,0,0,-1.3333333,311.1612,28.187733)" />
    <path
       id="path10"
       d="m 0,0 c 0,3.161 2.041,5.261 5.142,5.261 2.64,0 4.281,-1.46 4.701,-3.781 H 7.582 C 7.302,2.681 6.441,3.421 5.102,3.421 3.361,3.421 2.221,2.021 2.221,0 c 0,-2 1.14,-3.381 2.881,-3.381 1.32,0 2.2,0.76 2.46,1.941 H 9.843 C 9.442,-3.761 7.702,-5.221 5.081,-5.221 1.98,-5.221 0,-3.201 0,0"
       style="fill:#20262e;fill-opacity:1;fill-rule:nonzero;stroke:none"
       transform="matrix(1.3333333,0,0,-1.3333333,316.09227,26.9872)" />
    <path
       id="path11"
       d="M 0,0 C -0.18,1.521 -1.24,2.381 -2.74,2.381 -4.12,2.381 -5.301,1.46 -5.461,0 Z m -7.802,-1.14 c 0,3.161 2.021,5.261 5.042,5.261 2.96,0 4.941,-1.88 5.001,-4.881 0,-0.26 -0.02,-0.54 -0.06,-0.82 h -7.722 v -0.14 c 0.061,-1.74 1.16,-2.881 2.86,-2.881 1.321,0 2.282,0.66 2.581,1.801 h 2.161 c -0.36,-2.021 -2.081,-3.561 -4.622,-3.561 -3.22,0 -5.241,2.08 -5.241,5.221"
       style="fill:#20262e;fill-opacity:1;fill-rule:nonzero;stroke:none"
       transform="matrix(1.3333333,0,0,-1.3333333,341.294,25.467067)" />
  </g>
</svg>
