<?xml version="1.0" encoding="UTF-8"?>
<svg id="Layer_1" data-name="Layer 1" xmlns="http://www.w3.org/2000/svg" viewBox="0 0 2180 250">
  <defs>
    <style>
      .cls-1 {
        fill: #fff;
      }
    </style>
  </defs>
  <g>
    <path class="cls-1" d="M371.54,198.18h-35.64V51.44h50.38c34.76,0,54.56,17.6,54.56,48.18s-20.46,50.82-52.36,50.82h-16.94v47.74Zm9.9-77c14.74,0,23.32-7.48,23.32-20.24,0-12.1-8.36-20.24-20.9-20.24h-12.32v40.48h9.9Z"/>
    <path class="cls-1" d="M489.68,105.78c7.92-9.24,16.06-13.42,26.4-13.42,8.8,0,18.48,3.74,24.86,9.46,7.04,6.38,9.68,14.3,9.68,29.7v66.66h-33.44v-61.16c0-10.12-5.28-16.94-13.42-16.94-8.8,0-14.08,6.16-14.08,16.94v61.16h-33.44V51.44h33.44v54.34Z"/>
    <path class="cls-1" d="M632.9,96.32h35.2l-55.66,147.18h-35.86l18.26-47.3-35.42-99.88h35.42l17.6,53.46,20.46-53.46Z"/>
    <path class="cls-1" d="M721.78,126.46v-1.98c0-4.62-4.18-8.14-9.68-8.14-4.62,0-7.92,2.86-7.92,6.82,0,4.18,3.08,6.6,11.66,9.02,28.6,8.14,38.94,17.6,38.94,35.42,0,20.68-16.5,34.54-41.36,34.54s-40.48-12.98-41.14-34.32h31.68c1.32,7.48,3.74,10.34,9.46,10.34,4.4,0,7.7-3.08,7.7-7.26,0-4.62-3.3-7.04-16.94-11.44-22.22-7.04-31.9-17.38-31.9-33.44,0-20.24,16.5-33.66,41.14-33.66s39.16,12.76,39.38,34.1h-31.02Z"/>
    <path class="cls-1" d="M807.35,66.84c0,10.12-7.7,17.6-17.82,17.6s-17.82-7.48-17.82-17.82,7.48-17.82,18.04-17.82,17.6,7.48,17.6,18.04Zm-1.1,131.34h-33.44V96.32h33.44v101.86Z"/>
    <path class="cls-1" d="M920.88,186.96c-12.1,10.56-24.42,15.18-39.82,15.18s-30.14-5.94-40.7-16.06c-10.12-9.46-15.4-22.88-15.4-38.28,0-32.34,23.32-55.44,55.66-55.44,15.62,0,28.16,5.28,42.46,17.6l-22.22,20.02c-5.72-5.72-11.44-8.14-18.7-8.14-13.2,0-23.54,10.78-23.54,24.86s10.78,25.96,25.3,25.96c5.94,0,10.12-1.76,16.94-7.26l20.02,21.56Z"/>
    <path class="cls-1" d="M979.17,126.46v-1.98c0-4.62-4.18-8.14-9.68-8.14-4.62,0-7.92,2.86-7.92,6.82,0,4.18,3.08,6.6,11.66,9.02,28.6,8.14,38.94,17.6,38.94,35.42,0,20.68-16.5,34.54-41.36,34.54s-40.48-12.98-41.14-34.32h31.68c1.32,7.48,3.74,10.34,9.46,10.34,4.4,0,7.7-3.08,7.7-7.26,0-4.62-3.3-7.04-16.94-11.44-22.22-7.04-31.9-17.38-31.9-33.44,0-20.24,16.5-33.66,41.14-33.66s39.16,12.76,39.38,34.1h-31.02Z"/>
    <path class="cls-1" d="M1081.69,51.44c18.48,0,29.48,1.98,37.4,7.04,10.12,6.16,16.28,18.7,16.28,32.78,0,10.12-3.3,18.92-9.9,25.52-4.18,4.4-7.48,6.16-15.4,8.58,9.02,1.98,12.98,3.96,17.6,8.36,6.6,6.16,9.9,14.74,9.9,25.52,0,13.64-5.5,25.74-14.96,32.12-7.26,4.84-16.06,6.82-31.02,6.82h-60.06V51.44h50.16Zm-14.52,60.72h8.8c15.84,0,23.1-5.28,23.1-17.16s-7.04-16.94-23.54-16.94h-8.36v34.1Zm0,60.5h12.98c15.18,0,21.34-4.84,21.34-16.94,0-7.26-2.64-12.1-7.92-14.96-3.96-2.2-7.48-2.64-18.26-2.64h-8.14v34.54Z"/>
    <path class="cls-1" d="M1191.68,96.32v13.86c2.64-7.48,4.62-10.56,8.8-13.42,3.96-2.86,9.46-4.4,14.74-4.4h3.3v34.32c-2.42-.22-4.84-.44-6.16-.44-7.48,0-13.86,3.08-17.38,8.14-2.64,3.52-3.3,7.26-3.3,15.84v47.96h-33.44V96.32h33.44Z"/>
    <path class="cls-1" d="M1311.58,96.32h33.44v101.86h-33.44v-11.44c-9.24,10.56-20.02,15.4-34.54,15.4-29.04,0-49.94-22.22-49.94-53.46s22.22-56.32,52.8-56.32c12.98,0,21.78,4.18,31.68,14.96v-11Zm-48.84,51.7c0,15.62,10.56,27.72,24.2,27.72s25.08-12.76,25.08-28.16c0-16.28-10.34-27.5-24.86-27.5s-24.42,11.66-24.42,27.94Z"/>
    <path class="cls-1" d="M1523,96.32l-32.12,101.86h-35.42l-15.4-55.22-15.18,55.22h-36.3l-31.9-101.86h33.88l17.82,55.66,14.96-55.66h32.12l15.84,55.66,17.82-55.66h33.88Z"/>
    <path class="cls-1" d="M1534.88,198.18V51.44h33.44V198.18h-33.44Z"/>
    <path class="cls-1" d="M1717.04,74.1c11.88,13.86,17.16,30.14,17.16,52.14s-8.8,43.34-24.86,56.98c-13.2,11.44-29.92,17.6-46.86,17.6-21.78,0-43.12-10.34-56.76-27.5-10.12-12.76-15.4-29.26-15.4-47.74,0-43.78,31.02-76.78,72.6-76.78,20.46,0,40.04,9.24,54.12,25.3Zm-107.8,50.82c0,34.1,22.44,58.96,52.8,58.96,14.74,0,29.26-6.38,39.16-17.6,8.58-9.46,14.08-25.3,14.08-40.26,0-19.58-5.28-33.88-16.72-44.88-9.68-9.46-23.1-15.18-36.08-15.18-30.58,0-53.24,25.08-53.24,58.96Z"/>
    <path class="cls-1" d="M1777.31,96.76v14.3c8.8-11.88,17.6-16.72,30.14-16.72,9.24,0,17.6,3.08,23.54,8.36,6.38,6.16,8.58,13.2,8.58,27.06v68.42h-16.72v-64.68c0-9.02-1.1-13.86-3.74-17.38-3.08-4.18-9.02-6.82-15.84-6.82-7.48,0-14.3,2.86-19.36,8.58-4.84,5.28-6.6,10.12-6.6,18.48v61.82h-16.72V96.76h16.72Z"/>
    <path class="cls-1" d="M1872.57,198.18V51.44h16.72V198.18h-16.72Z"/>
    <path class="cls-1" d="M1942.09,68.38c0,5.94-4.84,10.56-10.78,10.56s-10.56-4.62-10.56-10.78,4.62-10.78,10.78-10.78,10.56,4.84,10.56,11Zm-2.42,129.8h-16.72V96.76h16.72v101.42Z"/>
    <path class="cls-1" d="M1990.04,96.76v14.3c8.8-11.88,17.6-16.72,30.14-16.72,9.24,0,17.6,3.08,23.54,8.36,6.38,6.16,8.58,13.2,8.58,27.06v68.42h-16.72v-64.68c0-9.02-1.1-13.86-3.74-17.38-3.08-4.18-9.02-6.82-15.84-6.82-7.48,0-14.3,2.86-19.36,8.58-4.84,5.28-6.6,10.12-6.6,18.48v61.82h-16.72V96.76h16.72Z"/>
    <path class="cls-1" d="M2094.98,152.86c.88,8.58,2.42,12.98,6.6,18.48,6.6,9.02,16.28,13.86,27.28,13.86,12.54,0,24.42-6.82,30.36-17.38l14.74,5.5c-8.36,16.94-25.74,27.28-45.1,27.28-30.14,0-51.7-22-51.7-52.8s21.34-53.46,51.04-53.46,51.48,22.22,51.48,51.92c0,1.32,0,4.18-.22,6.6h-84.48Zm66.88-12.32c-.66-7.92-2.2-12.32-5.72-17.38-6.38-8.58-16.72-13.86-27.94-13.86s-21.34,5.28-27.28,14.08c-3.08,4.84-4.4,9.02-5.72,17.16h66.66Z"/>
  </g>
  <g>
    <polygon class="cls-1" points="81.77 166.64 86.38 164.56 83.85 161.47 81.77 166.64"/>
    <polygon class="cls-1" points="66.71 149.5 75.9 165.6 80.79 153.88 131.6 98.21 66.71 149.5"/>
    <path class="cls-1" d="M0,0V250H250V0H0ZM90.21,169.23l-15.38,6.97-13.58-24.49-30.6,.34v-1.79c18.71-10.6,112.97-63.91,112.97-63.91l-35.86,105.25-17.55-22.38Zm132.65-11.05h-67.44v20.45h12.92v7.25h-46.04v-7.25h12.92v-20.45h-9.69l3.09-9.07h85.16V67.45H76.85v49.74c-3.06,1.73-6.1,3.45-9.07,5.13V58.38H222.86v99.8Z"/>
  </g>
</svg>