<?xml version="1.0" encoding="UTF-8"?>
<!DOCTYPE svg PUBLIC "-//W3C//DTD SVG 1.1//EN" "http://www.w3.org/Graphics/SVG/1.1/DTD/svg11.dtd">
<!-- Creator: CorelDRAW SE -->
<svg xmlns="http://www.w3.org/2000/svg" xml:space="preserve" width="100mm" height="90mm" version="1.1" style="shape-rendering:geometricPrecision; text-rendering:geometricPrecision; image-rendering:optimizeQuality; fill-rule:evenodd; clip-rule:evenodd"
viewBox="0 0 10000 9000"
 xmlns:xlink="http://www.w3.org/1999/xlink">
 <defs>
  <style type="text/css">
   <![CDATA[
    .fil0 {fill:#FEFEFE}
    .fil1 {fill:#2B2A29}
   ]]>
  </style>
 </defs>
 <g id="Vrstva_x0020_1">
  <metadata id="CorelCorpID_0Corel-Layer"/>
  <rect class="fil0" width="10000" height="9000"/>
 </g>
 <g id="Layer_x0020_1">
  <metadata id="CorelCorpID_1Corel-Layer"/>
  <path class="fil1" d="M8652 5891c7,10 -6,20 -8,28 1,4 6,4 4,11 -22,59 -32,119 -52,171 39,5 99,11 141,2 -9,-3 -4,-18 -7,-21 -3,-7 -9,-39 -8,-50 -13,-13 -17,-44 -16,-63 -9,-20 -24,-49 -17,-72 -12,-9 -13,-29 -22,-41 -5,20 -16,24 -10,35 -3,0 -4,-3 -5,0zm280 277c0,3 -2,2 -2,0 4,23 19,51 21,78 1,3 4,2 7,3 6,18 5,39 13,58 9,23 29,43 20,67 -9,5 -24,3 -22,18 -24,0 -52,3 -83,0 -30,-3 -60,1 -75,-20 -11,-34 -15,-73 -31,-102 -11,4 -24,9 -37,9 -59,-1 -141,0 -197,0 -20,35 -20,89 -43,119 -30,4 -55,6 -87,7 -34,1 -72,1 -89,-18 0,-9 8,-16 11,-24 2,-5 0,-13 2,-19 2,-4 9,-7 11,-11 11,-21 13,-41 19,-71 7,-30 22,-52 31,-81 4,-13 4,-30 8,-43 4,-9 15,-16 16,-22 0,0 -7,-11 -7,-11 -1,-8 17,-49 22,-65 2,-6 9,-10 11,-15 4,-12 3,-28 8,-41 5,-12 10,-19 13,-30 10,-29 27,-67 28,-100 16,-13 10,-28 13,-46 5,-22 24,-52 33,-80 3,-9 1,-18 4,-26 3,-5 9,-8 11,-13 7,-18 8,-40 13,-61 10,-6 16,-17 22,-28 23,-9 55,-9 74,0 25,-8 82,-3 99,18 19,96 32,173 65,247 1,52 28,73 33,117 17,26 25,59 30,89 1,5 4,-3 7,2 6,30 14,55 19,89 2,3 6,4 9,6z"/>
  <path class="fil1" d="M6064 5620l8 0 0 -7c-4,1 -9,1 -8,7zm-293 112c-14,68 -3,128 -9,211 52,-41 78,-108 126,-152 26,-49 67,-83 96,-130 34,-16 35,-67 73,-74 19,-3 39,7 57,7 26,0 48,-5 73,-9l0 7c5,-13 19,-1 26,-9 3,7 13,18 22,11 12,25 -6,42 -15,60 -17,-2 -17,18 -24,26 -1,2 -6,-1 -6,0 -2,3 -1,7 -3,9 -6,8 -20,15 -26,24 -6,9 -6,23 -23,28 -6,0 -3,-1 -3,-4 -5,3 -6,14 -2,13 -10,12 -8,16 -26,24 2,6 -2,8 -2,13 -14,16 -37,32 -37,45 -4,4 -6,-2 -11,2 -15,14 -10,36 -34,42 -12,8 -9,30 -20,39 0,22 12,51 7,67 9,5 11,27 8,37 1,2 4,2 7,2 1,4 -2,6 -2,9 18,11 12,42 32,47 0,21 19,22 20,41 11,-3 12,17 28,16 0,6 7,9 2,15 3,-3 8,-3 11,0 -1,3 -3,-1 -7,0 6,9 16,-5 20,11 47,5 106,6 102,71 -17,46 8,95 0,145 -8,4 -11,11 -18,16 -43,-3 -87,-4 -108,-29 -66,-21 -110,-65 -163,-99 -26,-46 -68,-80 -69,-135 -7,-12 -12,-25 -17,-39 -29,34 -59,86 -81,98 -5,7 -5,21 -13,26 -1,7 6,6 7,11 -6,38 3,85 -2,121 -3,20 -18,27 -20,46 -41,13 -99,24 -156,6 -11,-40 -2,-87 -2,-132 0,-54 -2,-102 0,-148 1,-37 -4,-78 -4,-119 -1,-65 0,-144 4,-201 1,-17 0,-41 2,-66 2,-22 -6,-44 -4,-58 0,-2 4,-4 4,-7 0,-9 -6,-17 -6,-26 -4,-29 22,-62 41,-49 39,-5 107,-7 145,8 -3,11 -1,23 -6,35 5,0 7,17 4,6 4,25 -10,40 0,61 1,10 -10,16 -7,22 0,6 8,4 9,8z"/>
  <path class="fil1" d="M4173 6023c-14,-25 -19,-57 -28,-91 -11,-23 -26,-38 -31,-72 -22,34 -24,85 -47,124 2,0 5,1 4,4 -18,41 -32,78 -39,122 12,7 31,-12 43,2 45,-10 76,7 115,-7 1,-31 -24,-58 -17,-82zm169 82c19,7 14,44 30,61 0,3 -5,2 -8,2 11,3 12,10 17,22l-6 0c1,6 3,12 13,11 4,14 5,18 10,28 -8,-5 -2,4 -6,7 2,3 7,3 11,4 -12,5 8,17 -2,19 1,7 4,-2 8,0 3,32 24,45 28,78 -7,4 -1,-7 -6,-6 -6,11 7,11 13,15 0,18 11,29 2,48 -3,0 -6,-1 -6,2 -25,-9 -76,-6 -98,-2 -8,1 -14,7 -28,4 -54,-11 -24,-119 -78,-136 -2,-2 -3,-5 -2,-9 -32,-5 -65,15 -89,-2 -10,6 -31,0 -46,6 0,-3 1,-6 -2,-6 -11,12 -45,5 -69,6l0 -6c-7,10 -20,5 -26,6 -5,1 -2,5 -5,7 -1,1 -2,-4 -2,-5 -16,10 -18,28 -19,50 -10,21 -17,38 -26,65 -8,5 -16,8 -22,13 -18,-6 -33,3 -41,7 -32,-9 -85,6 -117,-15 3,-8 -3,-19 8,-22 1,-5 1,-10 -2,-13 11,-10 9,-27 15,-41 2,-4 9,-7 11,-11 2,-4 -1,-9 0,-13 5,-15 15,-31 20,-46 10,-34 25,-65 32,-93 3,-4 5,-9 13,-9 -9,-12 4,-8 -2,-23l6 0c3,-42 38,-70 37,-122l7 0c-3,-50 33,-75 35,-123 2,-7 5,-14 13,-16 -12,-21 9,-40 6,-58 6,5 8,-7 2,-9 15,-17 19,-46 33,-65 -4,-10 3,-10 2,-22 29,-23 11,-85 52,-104 35,1 46,13 80,3 8,0 10,6 15,8 17,-7 30,-4 46,-4 3,8 12,21 6,30 21,24 22,76 33,104 4,9 19,19 6,26 3,7 17,23 9,26 0,3 4,2 7,3 -3,2 -2,8 -7,8 7,5 8,25 7,35 8,13 20,32 15,52 2,0 1,-3 2,-4 19,12 7,56 26,69 -6,16 -4,34 11,39 -3,18 12,24 6,37 2,0 2,-1 3,-2 -4,32 30,55 19,86z"/>
  <path class="fil1" d="M2258 5834c-17,17 -26,52 -30,74 -22,24 -16,66 -41,89 -1,29 -10,60 -26,80 5,4 8,4 4,11 21,-1 37,5 56,4 17,0 33,-8 50,-8 22,0 43,9 69,0 -34,-89 -48,-167 -82,-250zm-217 146c3,-36 22,-66 26,-98 8,4 13,-40 20,-50 2,-3 -1,6 2,-6 3,-14 15,-30 22,-46 3,-9 -1,-19 10,-21 4,-17 4,-39 18,-50 2,-6 -3,-6 -2,-11 9,-9 16,-39 17,-54 11,-5 9,-31 20,-29 -6,-10 3,-16 6,-23 28,-5 83,-4 119,-5 22,0 36,17 35,41 19,11 2,38 19,46 5,44 30,78 35,104 7,2 -3,6 0,11 6,2 17,28 13,37 6,-6 4,5 9,6 0,2 -3,2 -4,2 22,51 30,105 43,172 15,17 25,38 26,60 2,3 6,5 9,7 3,33 26,57 30,95 12,26 15,51 22,78 16,24 24,55 34,83 6,4 11,8 16,13 -16,11 1,28 -11,41 -42,-3 -104,8 -146,4 -17,-19 -13,-53 -34,-65 3,-27 -17,-49 -24,-73 -39,12 -82,12 -132,4 -2,1 -4,4 -5,6 -43,-17 -81,-3 -130,5 -29,31 -30,126 -93,106 -32,14 -65,8 -102,0 -3,-36 10,-74 33,-91 -3,-15 7,-32 15,-43 0,-40 22,-60 21,-100 17,-28 30,-68 39,-109 13,1 6,-41 24,-47z"/>
  <path class="fil1" d="M1527 5743c-3,16 -34,41 -41,46 -4,4 2,5 0,13 -12,20 -40,44 -52,65 -7,13 3,51 -2,71 7,15 15,38 15,53 13,18 22,40 37,56 4,41 40,67 61,97 7,-1 7,4 15,3 1,7 6,9 6,17 28,5 40,27 65,28 1,12 1,19 3,31 2,18 -13,32 0,39 -9,20 6,37 6,52 0,5 -6,10 -6,15 0,2 9,23 0,21 16,19 -16,37 -44,31 -7,-2 -12,-10 -22,-15 -13,-7 -41,-15 -43,-26 -45,-24 -79,-60 -110,-98 -2,-2 -5,-2 -9,-2 -18,-35 -39,-66 -65,-91 0,-36 -35,-55 -37,-96 -20,28 -31,65 -59,85 0,5 4,5 3,11 -27,29 -46,60 -68,91 -6,62 8,98 -6,143 -52,0 -111,25 -163,2 -2,-41 5,-76 -2,-108 -1,-10 7,-9 7,-18 -12,13 4,-24 -7,-23 11,-7 1,-26 2,-35 1,-4 7,-6 7,-9 0,-16 -9,-42 -7,-63 1,-10 -3,-40 5,-54 -3,-7 -1,6 -7,2 3,-22 -6,-29 7,-50 -4,-4 -7,-9 -9,-15 7,-30 3,-58 4,-84 1,-16 5,-28 2,-42 -3,-18 4,-32 5,-49 0,-17 -5,-35 -5,-52 1,-11 3,-21 3,-31 -1,-7 -5,-16 -5,-24 0,-3 5,-5 5,-8 -1,-10 -5,-21 -5,-31 1,-11 11,-27 -2,-41 4,-22 12,-40 22,-56 58,-1 116,-17 154,15 -2,52 -10,86 -2,139 -2,3 0,11 -7,10 4,8 10,24 2,31 9,51 -4,103 2,171 34,-32 46,-85 87,-110 5,-20 20,-21 22,-44 6,-1 3,-11 13,-8 0,-10 11,-26 24,-31l0 -11c16,-7 17,-29 32,-37 -1,-6 2,-7 2,-13 35,-30 52,-78 85,-110 77,-8 141,-7 199,-4 1,3 -1,8 3,8 -8,15 -24,21 -26,41 -9,-13 -10,10 -16,18 -7,10 -28,22 -37,32 -11,14 -13,36 -28,39 1,5 -7,17 -13,13z"/>
  <path class="fil1" d="M8052 5928c-4,8 -10,14 -13,21 8,25 -14,31 -13,59 -25,28 -21,62 -31,100 -9,32 -26,68 -37,104 -4,13 1,26 -13,34 -8,49 -26,89 -37,135 -10,-1 -13,-4 -17,4 -50,-11 -86,20 -137,-2 -10,-37 -27,-72 -39,-102 -5,-51 -32,-91 -43,-130 -14,-21 -14,-48 -13,-65 -26,-44 -33,-110 -58,-165 -1,-4 -6,-4 -9,-6 2,-23 -15,-49 -9,-61 -6,-2 -7,-8 -13,-11 -18,-64 -18,-136 -58,-180 4,-21 -23,-47 -7,-67 22,-7 51,0 80,0 17,0 33,-8 48,-7 13,2 24,10 35,11 -5,30 17,56 13,85 7,13 18,31 15,47 3,4 7,7 11,9 -2,10 0,21 4,31 1,1 7,1 7,2 1,8 -4,4 2,15 7,14 4,38 19,45 -3,2 0,11 -4,11 1,5 4,8 9,9 1,7 -4,7 -5,11 10,11 18,21 13,37 17,46 43,80 46,132 10,-4 8,37 17,48 13,-15 21,-33 24,-57 29,-63 47,-146 63,-214 29,-59 43,-140 67,-206 16,-23 73,-9 109,-13 16,-3 40,-5 65,4 4,3 3,11 8,13 -8,36 -24,63 -32,100 -9,6 -8,22 -18,28 -9,62 -33,123 -54,180 -3,8 6,4 5,11z"/>
  <path class="fil1" d="M7048 5785c-19,-14 -35,-31 -59,-39 0,4 -9,0 -13,2 -40,-21 -87,-30 -132,-24 -5,2 -4,9 -11,8 -37,3 -60,18 -91,27 -26,32 -47,68 -78,95 -8,17 -18,35 -20,63 -7,4 -9,12 -15,17 4,16 -4,19 4,31 -9,56 24,92 31,145 25,7 36,33 52,47 5,5 15,6 19,11 3,4 2,9 5,11 7,5 18,6 26,11 10,8 14,19 26,24l19 0c51,31 125,5 180,-11 37,-32 93,-54 102,-106 19,-11 20,-41 22,-59 2,-22 10,-46 11,-67 0,-22 -11,-50 -5,-69 -5,-16 -21,-28 -17,-46 -21,-22 -26,-61 -61,-69 2,-1 4,0 5,-2zm212 333c-7,57 -37,82 -54,126 -37,20 -39,72 -93,78 -9,10 -21,16 -26,28 -19,7 -38,22 -57,29 -6,2 -16,-4 -17,6 -3,-1 -6,-3 -9,-4 -10,12 -38,16 -56,13 -7,-1 -6,7 -11,9 -13,-12 -42,8 -50,-7 -11,12 -39,14 -52,2 -36,13 -70,-22 -104,-28 -6,-1 -12,3 -20,-2 -17,-11 -40,-32 -54,-41 -33,-9 -49,-35 -76,-50 -7,-13 -12,-27 -28,-31 -9,-25 -29,-41 -39,-67 -15,-10 -13,-38 -30,-45 2,-17 -13,-39 -7,-46 -21,-36 -15,-61 -15,-102 0,-42 -3,-98 22,-147 3,-3 3,-1 6,0 4,-27 26,-73 46,-102 7,-11 19,-18 26,-28 4,-7 4,-16 9,-22 0,-1 9,-12 13,-15 19,-22 47,-37 78,-54 17,-10 24,-19 45,-22 23,-20 55,-19 87,-30 6,0 14,-2 17,2 10,-12 27,-8 41,-11 3,0 2,4 3,6 29,-4 54,-13 75,3 19,-5 34,8 57,6 1,2 2,4 2,7 30,4 53,20 82,19 26,23 54,33 81,56 3,5 -1,3 0,9 37,21 61,55 93,83 -4,21 18,35 15,54 0,4 7,1 9,4 6,35 31,86 21,130 9,10 14,41 3,52 3,8 2,21 -3,26 9,17 -2,29 -2,46 -13,20 -1,47 -28,60z"/>
  <path class="fil1" d="M4741 6298c-1,7 2,10 9,9 1,-7 -6,-6 -9,-9zm544 -127c-3,-1 0,-7 -4,-7 -5,1 -3,13 4,9 -6,7 -1,25 -8,26 0,4 8,1 6,8 -12,20 -18,67 -37,78 -1,10 5,-1 5,5 -16,29 -49,50 -63,73 -34,14 -77,42 -117,46 -8,1 -22,0 -26,-6 -5,7 -21,2 -24,10 -20,-2 -45,-2 -57,-2 -6,1 -28,-2 -34,-8 -18,-3 -39,-4 -48,-16 -32,5 -61,-20 -80,-41 -5,3 -4,5 -11,2 -10,-12 -47,-14 -48,-34 -25,2 -47,-17 -54,-39 3,-12 20,-10 15,-29 17,-19 29,-43 46,-62l0 -16c10,-10 23,-14 39,-13 12,12 29,9 43,20 6,4 7,13 13,17 1,1 4,-3 7,-2 3,1 4,7 8,9 5,2 13,0 15,2 1,0 1,6 3,6 3,2 7,-1 10,0 15,6 30,18 46,24 20,7 44,9 65,15 13,-11 38,2 48,-10 7,-3 5,3 8,4 34,-15 68,-45 59,-85 -6,-25 -23,-52 -41,-69 -16,-1 -24,-9 -35,-15 -40,-5 -72,-19 -104,-33 -27,-2 -42,-16 -67,-19 -30,-17 -66,-27 -93,-46l0 -6c-35,-21 -56,-61 -66,-100 1,-17 0,-21 3,-35 -8,-7 -6,-25 -9,-37 15,-34 18,-93 52,-115 -3,-15 21,-21 26,-36 46,-21 88,-71 147,-57 5,-1 -2,-3 3,-6 30,4 74,-7 115,4 5,8 9,4 15,11 52,11 100,44 147,71 4,13 15,18 22,26 -16,50 -45,98 -70,122 -10,6 -29,1 -30,-11 -53,-10 -78,-51 -132,-59 -17,-2 -41,1 -63,3 -10,9 -15,24 -26,32 3,17 3,33 0,50 40,47 109,70 169,91 5,19 32,15 43,26l18 0c5,7 14,11 26,11 20,25 52,49 71,67 4,2 1,4 0,7 15,11 30,32 33,47 2,1 4,0 4,-2 10,33 23,61 13,94z"/>
  <path class="fil1" d="M4123 5490c-2,-15 4,-21 11,-26 1,-7 -4,-7 -2,-13 19,-41 38,-82 58,-122 27,-7 52,1 96,0 2,2 0,8 6,7 -6,24 -16,59 -37,76 4,8 0,19 -11,19 8,3 3,19 -4,13 -11,23 -15,54 -43,54 -14,1 -33,-3 -48,-4 -20,-1 -14,-1 -26,-4z"/>
  <path class="fil1" d="M3126 5997c31,-7 66,-25 95,-43 34,-23 57,-50 71,-87 0,-12 0,-20 5,-30 -8,-17 -3,-39 -11,-55 -7,-12 -37,-33 -54,-37 -11,-2 -28,3 -41,0 -18,-3 -29,0 -46,0 -12,1 -23,-6 -35,-6 -22,-1 -47,13 -63,17 -6,26 4,49 5,72 0,31 -13,62 -11,91 1,25 12,43 4,65 10,6 5,18 11,24 30,9 50,-7 70,-11zm19 184c-15,16 -58,23 -95,22 -2,4 -6,8 -11,9 -8,36 3,72 0,106 -2,0 -2,-2 -5,-2 0,4 3,4 3,8 9,-3 4,11 -3,20 22,20 -25,54 -54,37 -13,15 -38,-3 -56,6 -24,-13 -52,4 -74,-13 6,-22 -8,-46 4,-67 1,-25 -9,-59 -6,-91 2,-26 3,-66 0,-95 -1,-10 5,-19 4,-26 0,-17 -5,-29 -4,-44 1,-13 9,-27 9,-41 -1,-19 -5,-62 -5,-87 7,-37 -15,-80 5,-102 -14,-56 9,-122 -5,-184 2,-5 2,-12 7,-13 -1,-3 -4,2 -5,-2 -4,-26 36,-35 61,-35 40,1 83,2 96,7 5,-8 22,-7 30,-2 45,-7 94,6 139,-3 37,-7 70,13 104,20 12,2 23,0 32,2 0,0 -2,4 -2,4 17,3 32,10 48,13 5,13 19,16 30,22 35,51 90,94 76,167 1,2 4,2 4,4 -1,29 4,41 0,68 -1,1 -4,2 -8,2 0,12 4,25 2,34 -1,6 -7,5 -9,9 -8,16 -8,40 -19,52 -2,3 -14,8 -9,20 -34,36 -66,70 -111,91 -3,39 35,47 40,71 18,11 37,21 52,35 25,-1 62,13 88,24 7,12 12,31 0,41 10,3 4,22 5,39 0,25 10,50 -5,72 -36,3 -61,-2 -93,-9 -12,-3 -26,-3 -37,-7 -13,-4 -21,-16 -32,-23 -18,-12 -38,-13 -54,-26 -8,-6 -17,-19 -31,-22 -11,-23 -30,-38 -50,-52 -3,-21 -31,-35 -39,-59 -6,0 -15,8 -17,0z"/>
  <path class="fil1" d="M5517 7637c8,-10 6,-23 0,-37 5,-27 11,-72 0,-97 9,-17 -1,-47 9,-59 -7,-24 -9,-53 -5,-82 -15,-58 -4,-105 -4,-176 -44,-58 55,-83 91,-58 18,-11 48,-8 63,6 1,8 -4,10 -7,13 2,2 5,4 7,7 1,5 -5,4 -7,6 1,3 4,2 7,2 -7,8 -2,21 -2,31 0,3 -5,7 -5,6 1,19 12,42 0,54 2,7 4,3 9,3 -7,46 7,102 2,156 0,6 -6,14 -6,21 -1,19 3,41 0,63 -2,9 6,14 6,22 2,21 -2,42 -2,61 0,3 -4,4 -4,4 0,18 5,36 6,54 1,16 -4,33 -4,50 0,13 3,28 4,43 2,26 -5,55 5,72 0,9 -2,14 -5,19 15,38 5,75 -24,87 -37,-4 -74,-7 -110,2 -50,-18 -64,-71 -98,-112 -12,-15 -23,-19 -28,-37 -22,-18 -30,-51 -56,-65 -1,-16 -12,-21 -20,-29 0,-8 3,-6 0,-13 -6,-2 -18,-13 -22,-26 -38,-18 -46,-44 -62,-80 -28,-18 -39,-53 -61,-76 -19,69 2,142 -9,200 13,63 -1,140 11,221 -4,4 -17,17 -20,9 -13,12 -42,2 -71,4 -28,2 -57,12 -69,-15 1,-56 -5,-117 -3,-169 2,-42 -6,-83 3,-120 -12,-8 4,-69 4,-99 -1,-114 -7,-250 0,-360 43,-27 98,-19 147,-5 5,16 26,25 20,44 12,4 16,15 17,30 21,16 24,44 46,50 7,31 29,52 45,72 1,7 -8,4 -8,10 2,6 4,-5 10,-2 13,11 13,34 29,41 5,41 53,51 54,94 7,5 1,10 11,6 7,21 31,37 32,57 34,23 53,68 74,97z"/>
  <path class="fil1" d="M8045 7583c-31,-67 -41,-141 -71,-210 -8,4 -16,15 -11,26 -17,14 -8,37 -24,49 -2,0 -2,-1 -4,-2 -4,9 9,1 8,7 -29,55 -39,111 -67,162 61,-1 129,9 182,-2 -8,-5 -14,-15 -13,-30zm59 193c-84,-18 -171,-5 -271,-4 -30,40 -33,101 -59,136 -27,-3 -45,10 -67,0 -26,16 -71,-1 -93,-11 -4,-33 28,-59 24,-86 10,3 3,-12 13,-9 1,-29 25,-45 21,-72 6,0 5,-7 11,-6 8,-39 22,-63 35,-106l9 0c0,-5 -7,-3 -7,-7 41,-103 73,-202 109,-308l6 0c-7,-7 0,-16 7,-24 4,-29 19,-63 30,-93 5,-33 12,-60 30,-69 20,-10 49,6 76,4 21,-1 43,-5 63,-6 2,11 10,11 11,28 1,3 5,2 9,2 24,72 47,141 67,219 1,7 7,4 8,6 21,91 51,169 72,248 0,2 4,1 6,2 2,31 18,43 20,69 19,27 18,63 33,93 9,20 33,57 41,83 5,18 4,36 -11,50 -34,8 -79,-3 -109,6 -67,-8 -55,-85 -84,-130l0 -15z"/>
  <path class="fil1" d="M7057 7739c10,-1 23,-9 34,-11 38,-7 53,-21 87,-43 33,-22 59,-44 78,-74 22,-53 49,-138 13,-195 -2,-34 -23,-58 -41,-82 -15,-2 -20,-21 -35,-16 -18,-7 -34,-26 -56,-30 -6,-1 -14,3 -20,2 -6,-1 -11,-7 -17,-8 -28,-7 -63,9 -85,-3 2,11 -6,5 -11,9 -3,4 -1,11 -6,22 7,10 4,34 -2,54 -1,4 3,4 4,6 -13,22 4,61 -9,81 10,40 7,85 5,123 8,5 0,18 0,26 -1,44 11,87 4,132 21,-4 38,9 57,7zm351 -403c1,5 2,11 8,11 -1,-6 -2,-11 -8,-11zm-20 -89c1,4 -2,4 -2,8 12,10 42,31 39,55 26,19 23,61 41,99 -4,3 -1,14 -4,18 16,48 -1,104 -4,145 1,6 -5,4 -7,7 4,28 -11,62 -30,84 2,24 -19,43 -26,65 -31,28 -57,61 -98,78 -23,24 -52,42 -89,52 -1,5 -8,5 -8,11 -48,14 -106,35 -169,39 -5,-1 -7,-5 -11,-6 -28,2 -71,1 -111,0 -24,-1 -60,10 -69,-20 -7,-55 -8,-130 -7,-193 1,-26 1,-73 -4,-106 3,-80 5,-169 -2,-252 8,-20 0,-58 2,-82 0,-6 6,-10 6,-15 1,-4 -4,-6 -4,-11 0,-4 5,-7 4,-9 -2,-24 -13,-52 7,-76 22,-26 45,-32 89,-26 15,2 27,3 41,3 43,-1 95,6 134,8 9,1 17,-3 24,-2 9,2 13,8 22,11 11,4 28,1 39,4 11,3 33,10 48,15 24,-2 34,11 43,24 23,1 30,18 52,20 14,21 31,39 54,52z"/>
  <path class="fil1" d="M6204 7633c27,4 55,-8 82,-7 22,1 47,16 59,2 -29,-89 -65,-171 -92,-262 -11,12 -1,37 -19,50 2,8 5,6 2,15 -13,11 -18,26 -17,46 -19,31 -29,65 -33,106 -12,9 -10,33 -19,45 13,-1 25,3 37,5zm-120 266c-43,3 -105,3 -151,5 -5,-3 -8,-7 -11,-11 8,-36 27,-72 37,-113 38,-49 34,-115 65,-167 -6,-7 0,-27 8,-32 13,-50 30,-100 46,-150 4,-13 12,-26 17,-43 4,-11 4,-23 9,-33 2,-5 9,-6 11,-11 4,-12 -3,-28 11,-36 0,-6 -4,-7 -3,-13 6,-2 5,-11 9,-14 5,-58 24,-94 43,-145 31,-22 60,-9 81,-21 23,1 52,19 67,8 24,16 20,51 28,78 6,20 16,38 13,59 10,8 13,23 22,32 -5,14 12,26 4,29 17,8 13,35 26,47 -5,26 3,44 20,61 11,42 22,70 36,102 -6,21 15,35 11,54 11,13 21,30 15,48 26,57 53,119 68,175 9,29 32,52 34,81 -11,3 -8,7 -13,17 -20,12 -46,-5 -69,-4 -24,0 -45,17 -65,4 -33,-36 -40,-84 -61,-130 -41,9 -99,-6 -147,0 -33,4 -109,-9 -126,19 -2,4 1,9 0,11 -6,29 -27,58 -35,93z"/>
  <path class="fil1" d="M6238 7008c-1,-13 9,-25 15,-24 7,-29 35,-54 39,-93 16,-23 32,-64 72,-43 19,-10 46,0 56,4 -4,7 -4,13 -2,22 -5,1 -6,6 -13,6 8,15 -9,18 -8,33 -2,0 -2,-1 -3,-2 -1,15 -17,28 -23,45 -4,11 -2,18 -9,33 -3,5 -13,12 -15,17 -2,3 -2,14 -9,17 -1,1 -2,-4 -4,-4 -16,1 -82,14 -96,-11z"/>
  <path class="fil1" d="M4445 7754c44,-2 86,-47 119,-80 9,-31 34,-53 39,-87 8,-48 2,-95 0,-147 -14,-40 -43,-64 -54,-100 -16,-14 -36,-25 -45,-45 -50,-12 -80,-31 -135,-26 -25,-11 -67,9 -106,11 -27,14 -65,37 -93,67 3,22 -32,25 -31,52 -11,6 -14,20 -24,28 -2,18 -6,37 -4,58 2,25 -1,51 -2,76 -1,43 24,68 43,102 14,8 27,29 28,41 11,-1 19,11 22,24 67,31 161,70 243,26zm26 -644c0,4 3,5 2,9 36,8 75,14 93,39 45,10 75,34 102,61 -4,14 9,26 24,28 0,9 10,7 5,15 2,-1 2,-5 6,-4 0,14 11,22 4,28 12,9 28,7 26,33 6,0 13,14 7,19 12,3 22,26 17,37 6,2 4,12 9,15 -6,26 6,43 6,67 2,3 2,9 9,7 -9,38 13,102 -13,141 1,2 5,2 4,6 -16,14 -2,43 -26,52 5,16 -10,34 -15,57 -19,14 -27,39 -39,60 -9,8 -18,15 -24,26 -4,2 -7,7 -11,3l0 10c-29,18 -55,50 -93,52 -3,1 -2,6 -2,9 -71,28 -159,72 -245,41 -24,13 -46,-6 -69,-13 -25,-7 -57,-7 -68,-26 -22,2 -29,-12 -41,-21 -38,-4 -58,-43 -89,-61 1,-5 -4,-5 -2,-11 -9,-5 -17,-23 -34,-30 -10,-22 -35,-41 -31,-70 -14,-17 -18,-44 -26,-67 6,-32 -25,-82 -4,-117 -4,-46 17,-91 24,-128 3,-2 4,-6 8,-6 -5,-31 23,-39 22,-63 20,-12 24,-55 52,-65 30,-34 66,-62 111,-89 33,-20 87,-40 134,-46 36,-4 73,-14 102,-8 15,2 44,8 65,10z"/>
  <path class="fil1" d="M3677 7119c7,3 9,10 16,13 6,41 -5,78 -7,113 -1,9 6,22 -2,28 6,17 1,37 0,61 -1,26 5,56 6,86 1,13 -2,28 0,41 1,6 -2,19 -2,26 1,19 3,46 2,61 0,6 -5,7 -6,13 -8,32 17,64 2,100 -1,5 4,3 4,6 -2,73 -11,120 -2,204 -2,2 -2,5 -6,5 7,14 0,22 -7,32 -46,5 -78,4 -130,2 -20,-43 -10,-112 -9,-167 2,-41 -4,-83 -4,-115 0,-41 -1,-104 7,-158 -10,-12 -3,-32 -9,-50 -14,1 -11,18 -26,18 -16,32 -59,55 -76,93 -7,-1 -6,7 -11,2l0 13c-18,8 -30,32 -45,48 -5,4 -12,6 -16,11 -8,11 -15,23 -39,19 -20,-12 -37,-27 -47,-50 -41,-39 -87,-91 -126,-139 -10,71 -8,152 -11,226 -1,17 5,35 4,52 -1,56 3,104 7,163 -30,45 -101,28 -167,21 0,-22 1,-60 2,-91 3,-56 -11,-116 0,-162 -6,-39 -7,-72 2,-104 -12,-34 4,-66 -4,-96 9,-23 8,-55 4,-87 -1,-14 2,-30 2,-45 1,-14 -6,-27 -6,-39 0,-21 11,-42 9,-65 -3,-30 -13,-64 10,-80 12,-9 44,-11 70,-9 19,1 39,0 52,2 3,0 5,6 9,7 5,0 13,-1 21,4 7,17 37,39 39,61 4,0 6,-4 7,0 1,6 1,12 0,21 65,44 79,120 136,172 28,-30 56,-69 76,-94 6,-7 9,-3 11,-8 5,-11 15,-16 20,-22 2,-4 1,-13 4,-17 7,-11 21,-19 28,-31 3,-5 3,-12 7,-17 18,-25 43,-47 60,-76 50,-7 100,0 135,2 5,1 3,-4 6,-4z"/>
  <path class="fil1" d="M2489 7132c22,-21 40,-18 76,-17 6,-2 4,4 6,6 29,-9 58,-11 91,-4 1,25 -2,39 -2,69 0,6 -3,8 -8,9 2,7 4,0 8,4 -14,14 7,38 -6,52 4,17 12,29 4,44 11,61 -7,114 4,177 -2,6 -5,11 -6,18 8,14 2,34 2,52 0,17 9,37 -2,45 3,51 5,113 -4,154 7,55 22,116 -7,156 -47,2 -108,14 -149,5 0,-9 -8,-29 2,-37 -5,-69 -12,-143 2,-213 -2,-3 -4,-6 -7,-8 7,-20 3,-72 9,-91 -12,-38 -13,-89 -11,-126 1,-15 7,-39 7,-44 -1,-11 -7,-62 -7,-78 0,-21 2,-43 5,-65 -7,-6 -4,-15 -9,-19 6,-29 -5,-67 2,-89z"/>
  <path class="fil1" d="M1704 7117c51,6 114,-5 165,6 5,6 -2,15 -5,20 3,36 -3,67 -2,108 3,78 6,191 -6,293 0,27 11,53 11,76 0,7 -7,12 -7,19 0,11 8,22 9,33 2,20 0,40 -2,61 67,-1 128,17 184,10 7,0 13,-6 19,-6 14,0 27,10 39,11 22,2 53,-11 89,-5 27,33 2,63 18,98 -7,19 -7,33 -7,52 -1,11 -11,13 -15,22 -23,10 -49,5 -71,-3 -29,9 -42,-2 -79,3 -4,1 -4,-3 -4,-7 -64,19 -133,-10 -195,0 -20,3 -46,5 -69,0 -17,-3 -38,10 -52,7 -10,-3 -14,-16 -24,-20 -5,-34 1,-70 0,-104 -2,-50 6,-95 -5,-130 11,-52 3,-102 5,-156 2,-63 -16,-144 -9,-206 1,-9 6,-16 6,-24 1,-11 -6,-23 -6,-35 0,-13 5,-21 2,-37 -2,-11 3,-23 2,-34 -1,-21 -6,-37 9,-52z"/>
  <path class="fil1" d="M4344 2182c11,-1 17,3 24,6 7,33 -49,21 -24,-6z"/>
  <path class="fil1" d="M4391 2108c-2,5 -4,9 -2,14 -8,1 -9,6 -14,6 -27,-1 -8,-37 16,-20z"/>
  <path class="fil1" d="M4375 2186c7,-19 40,-4 22,15 -13,1 -17,-8 -22,-15z"/>
  <path class="fil1" d="M4375 2079c5,-3 10,-4 13,-9 10,3 16,10 20,20 -1,-7 5,-13 11,-19 4,7 12,0 18,6 6,18 -14,24 -26,14 -5,4 -13,4 -14,11 -10,-5 -24,-6 -22,-23z"/>
  <path class="fil1" d="M4424 2162c-9,0 -13,5 -18,4 -32,-8 28,-46 18,-4z"/>
  <path class="fil1" d="M4426 2117c1,8 -1,12 -4,16 -39,8 -20,-36 4,-16z"/>
  <path class="fil1" d="M4413 2046c2,-14 16,-15 26,-16 -1,4 1,5 5,5 6,26 -19,23 -31,11z"/>
  <path class="fil1" d="M4471 1999c2,8 -2,12 -1,20 -37,0 -27,-39 1,-20z"/>
  <path class="fil1" d="M4446 2062c9,-5 28,-11 27,11 -7,7 -16,8 -25,2 1,-6 -3,-7 -2,-13z"/>
  <path class="fil1" d="M4457 3103c11,-7 24,-10 31,4 -4,11 -21,16 -29,9 1,-7 -3,-7 -2,-13z"/>
  <path class="fil1" d="M4491 3057c-1,7 3,8 2,15 -9,5 -30,8 -25,-11 6,-7 15,-7 23,-4z"/>
  <path class="fil1" d="M4473 3025c10,4 11,-4 24,-2 -2,5 3,4 3,7 -2,18 -40,13 -27,-5z"/>
  <path class="fil1" d="M4500 2039c-18,18 -36,-13 -14,-15 8,0 14,4 14,15z"/>
  <path class="fil1" d="M4486 1988c8,0 16,2 22,5 1,6 -3,6 -2,11 -14,11 -38,-5 -20,-16z"/>
  <path class="fil1" d="M4511 2997c-1,6 4,7 2,13 -3,0 -5,2 -5,4 -12,-1 -21,-4 -22,-15 9,-4 15,-6 25,-2z"/>
  <path class="fil1" d="M4517 3176c4,9 -2,17 -7,22 -37,3 -15,-31 7,-22z"/>
  <path class="fil1" d="M4522 3112c0,7 8,6 6,15 -17,24 -52,-14 -6,-15z"/>
  <path class="fil1" d="M4506 3050c16,-6 20,2 33,4 -6,12 -41,20 -33,-4z"/>
  <path class="fil1" d="M4506 1960c9,-8 23,-8 29,4 0,19 -33,19 -29,-4z"/>
  <path class="fil1" d="M4511 3248c6,-7 18,-11 28,-5l0 15c-9,5 -17,5 -26,0 -1,-3 2,-10 -2,-10z"/>
  <path class="fil1" d="M4546 3292c-2,12 -9,19 -26,17 -16,-14 16,-31 26,-17z"/>
  <path class="fil1" d="M4515 3014c8,-9 20,-4 27,2 -1,9 -10,11 -22,11 -2,-4 0,-12 -5,-13z"/>
  <path class="fil1" d="M4548 3090l0 8c-8,6 -17,1 -26,3 -15,-18 19,-24 26,-11z"/>
  <path class="fil1" d="M4551 3154c5,6 1,17 -3,20 -30,5 -21,-33 3,-20z"/>
  <path class="fil1" d="M4537 3205c45,-2 -18,37 0,0z"/>
  <path class="fil1" d="M4571 1931c9,32 -49,16 -27,-1 7,-6 18,-5 27,1z"/>
  <path class="fil1" d="M4575 3067c0,2 -1,6 2,7 -10,23 -50,-13 -18,-13 6,0 7,5 16,6z"/>
  <path class="fil1" d="M4570 3325c5,5 8,11 5,20 -29,13 -35,-22 -5,-20z"/>
  <path class="fil1" d="M4555 3281c7,-6 14,-2 20,-9 7,3 16,8 11,18 -14,-1 -17,6 -27,0 0,-4 -1,-7 -4,-9z"/>
  <path class="fil1" d="M4577 3367c6,4 13,6 11,18 -8,8 -21,8 -29,0 0,-12 15,-13 18,-18z"/>
  <path class="fil1" d="M4566 3127c0,-5 3,-6 2,-11 9,0 15,-5 22,-2 2,2 1,8 1,13 -9,2 -17,4 -25,0z"/>
  <path class="fil1" d="M4584 3434c7,-6 16,-8 29,-7l0 14c-5,6 -15,7 -27,6 1,-7 -3,-7 -2,-13z"/>
  <path class="fil1" d="M4584 3350c6,-6 18,0 22,-5 3,4 7,8 5,16 -9,7 -31,10 -27,-11z"/>
  <path class="fil1" d="M4584 3254c0,-6 7,-7 7,-13 11,2 13,0 20,4 3,8 -5,7 -3,14 -5,-1 -20,2 -24,-5z"/>
  <path class="fil1" d="M4584 3005c1,-17 25,-10 31,-2 -2,14 -24,8 -31,2z"/>
  <path class="fil1" d="M4622 3314c1,21 -27,19 -27,5 0,-10 19,-13 27,-5z"/>
  <path class="fil1" d="M4637 1859c0,4 -3,5 -4,9 -7,-1 -15,-1 -20,2 -17,-14 18,-27 24,-11z"/>
  <path class="fil1" d="M4650 3370c-20,26 -54,-23 -8,-16 4,5 6,10 8,16z"/>
  <path class="fil1" d="M4621 3279c7,1 14,1 20,-1 17,24 -35,23 -20,1z"/>
  <path class="fil1" d="M4646 3456c0,4 -3,5 -2,11 -37,17 -21,-31 2,-11z"/>
  <path class="fil1" d="M4628 3025c6,2 12,5 18,7 2,9 -6,8 -5,15 -15,-1 -32,-14 -13,-22z"/>
  <path class="fil1" d="M4641 3319c6,2 12,3 16,-3 21,6 5,33 -16,23 -6,-7 -2,-11 0,-20z"/>
  <path class="fil1" d="M4639 3552c9,-8 31,-16 27,9 -12,8 -30,7 -27,-9z"/>
  <path class="fil1" d="M4644 2961c6,-6 10,-12 15,-13 22,-3 23,31 0,28 -8,-1 -7,-10 -15,-15z"/>
  <path class="fil1" d="M4651 3501c5,-3 8,-6 17,-5 3,2 4,7 7,9 2,17 -29,17 -24,-4z"/>
  <path class="fil1" d="M4653 3037c-1,-5 5,-3 4,-9 14,0 13,-4 24,2 2,20 -20,14 -28,7z"/>
  <path class="fil1" d="M4682 3352c2,4 3,9 4,13 -8,5 -23,8 -29,0 1,-11 12,-14 25,-13z"/>
  <path class="fil1" d="M4659 3121c2,-10 18,-13 27,-7 -1,13 8,16 15,22 -1,3 -6,1 -4,7 -23,4 -32,-6 -38,-22z"/>
  <path class="fil1" d="M4661 3603c0,-6 3,-10 7,-12 7,1 12,4 18,7 0,5 1,10 -2,13 -9,-3 -14,-3 -23,-8z"/>
  <path class="fil1" d="M4664 3281c9,-3 21,-5 26,4 2,7 -4,7 -4,13 -11,-2 -24,-2 -22,-17z"/>
  <path class="fil1" d="M4664 3074c2,-2 2,-4 2,-7 9,-2 16,-2 24,1 2,6 0,9 -2,13 -12,2 -17,-3 -24,-7z"/>
  <path class="fil1" d="M4710 3321c-1,18 -28,18 -33,4 4,-10 26,-13 33,-4z"/>
  <path class="fil1" d="M4688 3645c3,1 6,0 5,-4 8,2 14,5 22,6 3,21 -14,15 -25,11 1,-6 -4,-7 -2,-13z"/>
  <path class="fil1" d="M4690 3034l0 -9c9,-6 26,-4 34,2 -3,6 -12,8 -16,14 -8,-1 -10,-7 -18,-7z"/>
  <path class="fil1" d="M4702 2870c-3,-8 2,-17 11,-18 11,-2 20,10 18,16 -2,13 -23,17 -29,2z"/>
  <path class="fil1" d="M4706 3681c13,-6 20,6 31,4 -2,14 -11,19 -27,15 -3,-7 -8,-9 -4,-19z"/>
  <path class="fil1" d="M4704 3150c1,-9 8,-13 15,-16 6,4 12,9 18,13 0,6 -3,9 -6,12 -10,-2 -18,-5 -27,-9z"/>
  <path class="fil1" d="M4708 3085c-1,-17 9,-14 20,-11 4,7 -4,5 -4,13 -1,-2 -9,-5 -7,1 -4,0 -3,-5 -9,-3z"/>
  <path class="fil1" d="M4742 3278c-1,6 -4,11 -7,16 -38,4 -12,-33 7,-16z"/>
  <path class="fil1" d="M4724 3721c9,-10 32,-10 33,4 1,15 -33,20 -33,-4z"/>
  <path class="fil1" d="M4757 3057c-3,28 -42,-2 -20,-9 7,-2 16,5 20,9z"/>
  <path class="fil1" d="M4733 2852c10,-11 31,-6 29,7 10,-7 20,-5 33,-2 0,11 -10,11 -11,20 -10,-1 -17,-5 -22,-12 -10,4 -18,3 -27,-2 -2,-2 -2,-7 -2,-11z"/>
  <path class="fil1" d="M4757 1718c6,4 -3,11 9,10 0,5 -4,8 -5,12 -7,0 -14,0 -19,2 -12,-10 -4,-26 15,-24z"/>
  <path class="fil1" d="M4739 3023c3,-3 -2,-6 0,-13 4,-3 11,-4 16,-7 3,5 8,6 11,11 -3,16 -16,14 -27,9z"/>
  <path class="fil1" d="M4768 3754c-2,9 4,9 3,17 -30,22 -43,-28 -3,-17z"/>
  <path class="fil1" d="M4773 3088c2,6 -3,6 -2,11 -8,5 -14,2 -23,4 -13,-16 17,-19 25,-15z"/>
  <path class="fil1" d="M4770 3782c8,-5 20,-2 25,3 2,11 -3,15 -7,20 -18,3 -27,-10 -18,-23z"/>
  <path class="fil1" d="M4773 2885c59,-3 -5,44 0,0z"/>
  <path class="fil1" d="M4773 1728c9,-11 32,-10 29,11 -2,1 -4,2 -5,5 -12,-2 -27,0 -24,-16z"/>
  <path class="fil1" d="M4777 3045c-1,-8 6,-8 7,-13 8,2 15,5 17,13 -2,0 -2,2 -2,3 -9,1 -13,-5 -20,0 0,-2 -1,-3 -2,-3z"/>
  <path class="fil1" d="M4784 3387c-2,-19 21,-17 31,-18 1,8 -4,10 -3,18 -9,3 -24,1 -28,0z"/>
  <path class="fil1" d="M4786 3414c18,-16 44,6 18,20 -9,-4 -21,-4 -18,-20z"/>
  <path class="fil1" d="M4786 3079c3,1 3,-1 4,-3 6,3 8,-1 16,0 0,4 3,5 2,11 -6,1 -9,5 -18,3 -1,-4 -5,-5 -4,-11z"/>
  <path class="fil1" d="M4788 2948c10,-4 21,-3 29,2 2,23 -32,23 -29,-2z"/>
  <path class="fil1" d="M4788 1702c4,-11 27,-12 31,0 -1,16 -31,18 -31,0z"/>
  <path class="fil1" d="M4802 2881c7,-6 13,-11 24,-7 3,7 8,15 2,22 -11,0 -21,-4 -26,-15z"/>
  <path class="fil1" d="M4806 2983c10,-3 28,-3 26,16 -13,10 -32,-1 -26,-16z"/>
  <path class="fil1" d="M4841 1729c-1,8 3,11 0,17 -32,15 -33,-33 0,-17z"/>
  <path class="fil1" d="M4841 3390c9,12 -3,21 -11,26 -22,-6 -10,-28 11,-26z"/>
  <path class="fil1" d="M4817 3028c-1,-8 3,-10 5,-14 2,6 14,2 19,5l0 9c-7,4 -15,5 -24,0z"/>
  <path class="fil1" d="M4842 3067c-2,18 -36,2 -18,-10 9,1 16,0 18,10z"/>
  <path class="fil1" d="M4852 2401c2,10 -6,10 -8,16 -33,-6 -19,-36 8,-16z"/>
  <path class="fil1" d="M4844 3352c-1,6 3,6 2,11 -6,-2 -6,3 -7,6 -21,-1 -14,-25 5,-17z"/>
  <path class="fil1" d="M4824 3327c-3,-13 5,-15 6,-24 2,6 11,4 16,2 0,5 3,7 4,13 -6,5 -16,13 -26,9z"/>
  <path class="fil1" d="M4824 1715c4,-14 10,-23 20,-22 30,4 -4,53 -20,22z"/>
  <path class="fil1" d="M4833 4828c11,-2 19,-6 29,-8 2,6 6,8 4,17 -9,1 -15,6 -27,5 -3,-4 -6,-8 -6,-14z"/>
  <path class="fil1" d="M4853 2956c3,6 11,8 11,18 -9,6 -19,1 -29,2 -4,-13 3,-22 18,-20z"/>
  <path class="fil1" d="M4835 2443c7,-2 13,-3 22,-2 2,5 4,9 4,16 -14,8 -30,0 -26,-14z"/>
  <path class="fil1" d="M4852 3385c5,-14 36,-8 23,9 -8,1 -15,-1 -22,-2 1,-4 4,-6 -1,-7z"/>
  <path class="fil1" d="M4859 1722c7,-9 23,-12 31,-2 -1,17 -29,20 -31,2z"/>
  <path class="fil1" d="M4861 3349c3,-13 9,-12 20,-15 -2,8 11,2 9,11 -9,3 -22,10 -29,4z"/>
  <path class="fil1" d="M4872 2397c15,-5 30,-1 29,16 -4,2 -10,0 -9,6 -11,-3 -27,-8 -20,-22z"/>
  <path class="fil1" d="M4875 4808c16,-8 39,1 27,20 -13,8 -39,-3 -27,-20z"/>
  <path class="fil1" d="M4899 4729c-61,0 8,-52 7,-12 0,7 -6,3 -7,12z"/>
  <path class="fil1" d="M4902 2452c-18,-2 -32,-26 -9,-26 11,0 24,15 9,26z"/>
  <path class="fil1" d="M4921 1746c-1,23 -22,14 -31,9 2,-13 22,-18 31,-9z"/>
  <path class="fil1" d="M4899 4742c8,-10 31,-10 33,6 -7,9 -15,10 -28,10 -3,-4 -6,-7 -5,-16z"/>
  <path class="fil1" d="M4928 1777c-1,7 -2,13 -7,16 -29,1 -23,-27 7,-16z"/>
  <path class="fil1" d="M4904 4837c7,-16 33,-14 33,0 0,9 -29,14 -33,0z"/>
  <path class="fil1" d="M4906 2761c6,-13 28,-13 35,0 -6,0 -8,6 -11,13 -12,2 -18,-2 -24,-13z"/>
  <path class="fil1" d="M4941 4793l0 11c-14,22 -51,-9 -18,-16 5,-2 10,4 18,5z"/>
  <path class="fil1" d="M4944 4698c0,6 -3,10 -5,13 -48,6 -18,-40 5,-13z"/>
  <path class="fil1" d="M4943 4660c0,8 -5,11 -8,17 -43,3 -10,-43 8,-17z"/>
  <path class="fil1" d="M4917 2448c3,-8 12,-10 24,-9 19,26 -16,25 -24,9z"/>
  <path class="fil1" d="M4961 4766c5,2 10,-12 22,-9 1,1 0,6 5,5 1,8 -3,10 0,16 -9,12 -24,-4 -29,-5 -4,0 -10,7 -17,5 -6,-1 -6,-6 -14,-7 -1,-21 35,-22 33,-5z"/>
  <path class="fil1" d="M4961 1759l0 9c-9,6 -15,5 -28,7 -13,-15 14,-25 28,-16z"/>
  <path class="fil1" d="M4963 4717c1,4 4,8 3,16 -11,14 -36,4 -29,-9 5,-9 15,-5 26,-7z"/>
  <path class="fil1" d="M4941 4644c12,-8 35,-12 31,9 -5,6 -12,4 -15,9 -6,-6 -17,-6 -16,-18z"/>
  <path class="fil1" d="M4943 4344c11,-5 26,-21 36,-6 -1,8 -10,4 -2,11 1,6 -5,4 -4,9 -17,2 -35,6 -30,-14z"/>
  <path class="fil1" d="M4972 2415c-5,4 -12,4 -20,4 -26,-18 22,-33 20,-4z"/>
  <path class="fil1" d="M4944 4597c1,-15 15,-16 22,-24 18,0 17,24 4,29 -7,-6 -15,4 -26,-5z"/>
  <path class="fil1" d="M4946 4835c11,-11 46,-6 31,13 -9,1 -34,10 -31,-13z"/>
  <path class="fil1" d="M4983 4802c-6,11 -16,16 -24,15 -31,-7 15,-44 24,-15z"/>
  <path class="fil1" d="M4950 4691c3,-20 22,-16 34,-7 0,9 -9,9 -11,16 -7,-4 -15,1 -23,-9z"/>
  <path class="fil1" d="M4983 2770c-17,23 -54,-22 -11,-18 4,5 9,10 11,18z"/>
  <path class="fil1" d="M4953 2366c6,-7 14,-1 20,-5 9,6 13,20 0,25 -10,-3 -19,-7 -20,-20z"/>
  <path class="fil1" d="M4988 4615c-3,7 4,5 4,11 -4,11 -32,16 -35,1 -2,-10 16,-20 31,-12z"/>
  <path class="fil1" d="M4964 4444c8,-16 27,-17 39,-9 -1,6 -2,5 0,10 -6,1 -8,6 -10,11 -10,-1 -23,1 -29,-12z"/>
  <path class="fil1" d="M4986 4385c7,5 15,7 18,15 -2,10 -24,20 -38,9 -5,-14 12,-17 20,-24z"/>
  <path class="fil1" d="M4977 1749c6,1 12,2 16,4 9,31 -42,21 -16,-4z"/>
  <path class="fil1" d="M4972 4735c0,-16 16,-21 31,-17 6,11 -4,16 -8,22 -7,-6 -19,1 -23,-5z"/>
  <path class="fil1" d="M4977 4316c9,-3 22,-5 31,0 -1,9 4,12 -2,17 -7,-2 -14,-4 -18,2 -6,-6 -15,-6 -11,-19z"/>
  <path class="fil1" d="M4979 2779c9,-2 32,-8 31,13 -8,2 -16,2 -22,5 -2,-7 -16,-4 -9,-18z"/>
  <path class="fil1" d="M5023 4358c-2,3 -6,4 -6,9 10,-3 17,-5 20,6 -5,2 -6,8 -11,11 -6,1 -7,-4 -13,-4 0,-6 7,-8 2,-13 -3,11 -17,12 -32,11 -12,-22 24,-34 40,-20z"/>
  <path class="fil1" d="M5012 4669c-8,5 -31,4 -29,-11 1,-17 45,-14 29,11z"/>
  <path class="fil1" d="M5013 4580c-2,2 -3,11 2,11 -5,6 -14,7 -20,13 -26,-7 -4,-29 18,-24z"/>
  <path class="fil1" d="M5012 1782c2,11 -3,19 -11,20 -25,4 -20,-32 11,-20z"/>
  <path class="fil1" d="M4988 2386c9,1 12,-3 22,-2 -2,8 5,7 9,9 -4,26 -41,15 -31,-7z"/>
  <path class="fil1" d="M4986 4809c3,-15 22,-18 33,-11l0 13c-11,6 -25,6 -33,-2z"/>
  <path class="fil1" d="M5023 4691c3,6 0,10 0,16 -14,7 -36,4 -24,-14 8,-3 15,-5 24,-2z"/>
  <path class="fil1" d="M5028 4256c-10,3 -22,2 -31,-1 -10,-30 43,-29 31,1z"/>
  <path class="fil1" d="M5024 4003c-13,4 -29,1 -27,-12 3,-15 40,-13 27,12z"/>
  <path class="fil1" d="M5026 4615c3,5 7,9 6,20 -20,25 -51,-20 -6,-20z"/>
  <path class="fil1" d="M5032 4409c6,22 -10,26 -22,22 -22,-7 2,-36 22,-22z"/>
  <path class="fil1" d="M5037 4447c14,31 -41,43 -31,2 5,0 14,3 11,-5 16,-3 10,7 20,3z"/>
  <path class="fil1" d="M5006 3723c9,-8 28,-8 31,6 -1,14 -32,15 -31,-6z"/>
  <path class="fil1" d="M5008 4296c4,-13 29,-18 38,-5 -1,22 -30,16 -38,5z"/>
  <path class="fil1" d="M5008 2353c11,-3 16,-2 29,-1 3,11 0,21 -11,23 -7,-4 -9,-7 -16,-7 0,-6 -3,-8 -2,-15z"/>
  <path class="fil1" d="M5041 1742c1,32 -49,5 -22,-7 7,6 17,-1 22,7z"/>
  <path class="fil1" d="M5017 2757c15,-5 29,-1 27,11 -2,15 -36,11 -27,-11z"/>
  <path class="fil1" d="M5044 1799c5,1 4,8 4,14 -9,6 -25,11 -33,0 4,-14 21,-13 29,-14z"/>
  <path class="fil1" d="M5017 4345c3,-16 19,-23 33,-14l0 13c-7,5 -25,7 -33,1z"/>
  <path class="fil1" d="M5017 1780c4,-11 22,-14 33,-12 1,11 -8,8 -4,18 -11,7 -22,4 -29,-6z"/>
  <path class="fil1" d="M5041 3676c5,5 12,9 12,18 -26,18 -44,-16 -12,-18z"/>
  <path class="fil1" d="M5061 4373c2,5 6,9 5,18 -7,8 -18,7 -31,4 -9,-13 6,-27 26,-22z"/>
  <path class="fil1" d="M5033 4236c4,-6 9,-11 15,-16 7,2 14,4 20,7 7,-7 23,-20 35,-7 -1,6 1,13 -2,16 -3,5 -16,-1 -18,4 -6,-2 -8,-7 -11,-11 -6,0 -4,8 -4,13 -11,6 -29,4 -35,-6z"/>
  <path class="fil1" d="M5039 2725c7,-6 14,-9 24,-4 3,7 -2,12 1,18 -11,4 -27,1 -25,-14z"/>
  <path class="fil1" d="M5066 2383c2,6 5,11 6,18 -23,20 -48,-31 -6,-18z"/>
  <path class="fil1" d="M5068 4300c1,12 -10,12 -22,11 -10,-11 17,-26 22,-11z"/>
  <path class="fil1" d="M5073 3714c0,6 4,8 2,15 -4,3 -10,3 -11,9 -32,-3 -14,-34 9,-24z"/>
  <path class="fil1" d="M5046 1735c13,-8 30,-3 47,-4 1,11 0,20 -7,24 -12,-13 -45,6 -40,-20z"/>
  <path class="fil1" d="M5053 2346c13,-2 35,-2 39,11 -6,10 -14,7 -22,13 -7,-7 -22,-10 -17,-24z"/>
  <path class="fil1" d="M5053 1806c10,-5 21,-7 30,0 -1,7 -6,11 -10,16 -8,-3 -21,-2 -20,-16z"/>
  <path class="fil1" d="M5057 3689c4,-6 -3,-15 4,-20 13,0 29,3 23,16 -7,5 -18,5 -27,4z"/>
  <path class="fil1" d="M5061 2981c6,-2 12,-4 22,-4 22,27 -37,32 -22,4z"/>
  <path class="fil1" d="M5064 3338c16,-3 28,0 29,16 -4,1 -6,5 -9,7 -10,-4 -29,-10 -20,-23z"/>
  <path class="fil1" d="M5061 2759c3,-10 15,-12 27,-9 2,5 2,13 0,18 -15,3 -18,-6 -27,-9z"/>
  <path class="fil1" d="M5092 1768c0,8 2,8 0,16 -37,12 -32,-26 0,-16z"/>
  <path class="fil1" d="M5070 3037c8,1 13,0 20,-1 18,26 -36,27 -20,1z"/>
  <path class="fil1" d="M5066 1704c7,-7 16,-5 27,-2 2,5 3,10 2,17 -10,9 -31,4 -29,-15z"/>
  <path class="fil1" d="M5072 4309c10,-7 22,-12 32,-2 1,9 -4,12 -7,18 -12,1 -28,3 -25,-16z"/>
  <path class="fil1" d="M5079 1833c2,-11 19,-19 29,-11 8,18 -21,24 -29,11z"/>
  <path class="fil1" d="M5108 3740c-2,15 -35,3 -25,-9 6,-8 24,-8 25,9z"/>
  <path class="fil1" d="M5090 3687c11,-1 17,2 22,7 2,8 -4,9 -6,13 -17,1 -26,-9 -16,-20z"/>
  <path class="fil1" d="M5090 2366c18,-2 23,3 29,15 -4,3 -11,4 -13,9 -13,-1 -28,-14 -16,-24z"/>
  <path class="fil1" d="M5086 3110c7,-1 10,-5 18,-3 2,4 4,9 4,16 -9,4 -24,1 -22,-13z"/>
  <path class="fil1" d="M5093 2683c11,-8 23,-1 31,3 -3,15 -33,19 -31,-3z"/>
  <path class="fil1" d="M5126 1797c-2,13 -12,14 -23,14 -19,-14 8,-25 23,-14z"/>
  <path class="fil1" d="M5095 1759c8,-7 24,-14 31,-2 6,-2 2,-13 8,-15 8,3 16,7 21,13 0,12 -22,15 -25,4 -4,16 -39,19 -35,0z"/>
  <path class="fil1" d="M5099 1722c5,0 6,-3 9,-5 7,1 9,6 18,5 3,6 0,5 0,13 -13,2 -30,8 -27,-13z"/>
  <path class="fil1" d="M5101 3358c5,-9 18,-9 23,0 2,16 -25,16 -23,0z"/>
  <path class="fil1" d="M5126 3003c10,12 -4,20 -16,22 -17,-11 2,-26 16,-22z"/>
  <path class="fil1" d="M5110 3063c6,-3 14,-4 22,-6 -2,7 4,6 3,11 -4,13 -28,16 -25,-5z"/>
  <path class="fil1" d="M5112 2737c0,-14 18,-11 27,-7 6,18 -18,14 -27,7z"/>
  <path class="fil1" d="M5117 3681c3,-9 19,-11 26,-3 -7,5 -19,13 -26,3z"/>
  <path class="fil1" d="M5117 3147c12,-10 22,2 24,12 -11,6 -27,1 -24,-12z"/>
  <path class="fil1" d="M5124 1835c3,-10 11,-15 24,-15 -1,9 4,12 0,19 -11,3 -14,1 -24,-4z"/>
  <path class="fil1" d="M5157 2697c1,9 -4,12 -5,18 -5,2 -10,-5 -13,0 -14,-13 -1,-29 18,-18z"/>
  <path class="fil1" d="M5163 2666c2,11 -8,10 -8,19 -32,-7 -13,-38 8,-19z"/>
  <path class="fil1" d="M5135 1797c7,-6 11,-14 26,-11 5,5 3,13 0,20 -11,-3 -11,2 -20,0 -3,-2 -3,-7 -6,-9z"/>
  <path class="fil1" d="M5137 3119c0,-4 3,-5 2,-11 6,1 12,0 15,-3 3,5 5,7 3,14 -6,5 -13,4 -20,0z"/>
  <path class="fil1" d="M5152 3332l16 0c3,7 11,11 6,20 -19,3 -35,-7 -22,-20z"/>
  <path class="fil1" d="M5175 2333c5,8 -3,9 -1,19 -34,4 -29,-34 1,-19z"/>
  <path class="fil1" d="M5155 2648c4,-13 28,-11 28,4 -5,1 -8,4 -9,9 -8,-3 -16,-5 -19,-13z"/>
  <path class="fil1" d="M5184 1757c0,8 -3,13 -7,18 -32,7 -17,-39 7,-18z"/>
  <path class="fil1" d="M5190 2752c-29,17 -38,-27 -11,-22 9,2 11,12 11,22z"/>
  <path class="fil1" d="M5168 2710c7,-1 9,-7 16,-7 3,7 17,4 13,18 -8,7 -33,8 -29,-11z"/>
  <path class="fil1" d="M5170 1833l0 -9c8,-5 18,-3 29,-2 1,25 -22,17 -29,11z"/>
  <path class="fil1" d="M5195 2301c19,14 0,33 -18,20 -3,-12 3,-19 18,-20z"/>
  <path class="fil1" d="M5195 3330c8,2 16,12 9,22 -21,8 -30,-16 -9,-22z"/>
  <path class="fil1" d="M5188 3305c11,1 18,-2 26,0 0,6 -4,7 0,11 11,-22 44,0 27,14 -10,-3 -18,-7 -26,-12 -3,2 -6,5 -9,9 -11,-3 -27,-10 -18,-22z"/>
  <path class="fil1" d="M5184 1786c10,-3 23,-9 30,0l0 11c-9,7 -33,8 -30,-11z"/>
  <path class="fil1" d="M5188 3665c3,3 4,2 4,-4 8,1 11,-3 20,-1 11,9 -2,26 -18,20 -2,-5 -6,-8 -6,-15z"/>
  <path class="fil1" d="M5203 1744c6,1 8,7 11,11 -12,14 -29,-5 -11,-11z"/>
  <path class="fil1" d="M5210 2723c7,6 23,3 20,20 -16,16 -46,-10 -20,-20z"/>
  <path class="fil1" d="M5204 3696c8,-6 20,-6 28,0l0 16c-17,3 -30,0 -28,-16z"/>
  <path class="fil1" d="M5214 1704c8,-2 16,10 21,16 -3,7 -6,12 -12,13 -18,2 -17,-19 -9,-29z"/>
  <path class="fil1" d="M5237 1833c4,8 -4,14 -7,20 -32,2 -16,-30 7,-20z"/>
  <path class="fil1" d="M5230 2277c3,3 3,13 0,16 -20,2 -23,-20 0,-16z"/>
  <path class="fil1" d="M5215 1806c5,-6 20,-8 26,-2 9,21 -28,23 -26,2z"/>
  <path class="fil1" d="M5244 1766l0 11c-7,5 -12,1 -19,5 -19,-13 7,-27 19,-16z"/>
  <path class="fil1" d="M5219 3350c2,-3 5,-4 4,-11 13,0 26,0 31,8 6,-7 25,-3 31,2 1,5 -2,8 -2,12 -15,5 -21,-4 -29,-11 -6,17 -26,9 -35,0z"/>
  <path class="fil1" d="M5232 2965c15,-2 19,0 27,7 13,-8 23,-5 35,4 -1,10 -20,18 -26,7 -11,8 -50,7 -36,-18z"/>
  <path class="fil1" d="M5234 3285c7,-10 34,-10 34,7 -10,15 -28,6 -34,-7z"/>
  <path class="fil1" d="M5235 3003l19 0c0,5 2,8 10,9 3,15 -20,12 -23,11 -2,-8 -11,-11 -6,-20z"/>
  <path class="fil1" d="M5246 1726c9,5 21,7 26,-2 7,1 10,6 18,5 2,19 -29,21 -31,4 -3,3 -7,5 -11,7 -10,-1 -15,-13 -2,-14z"/>
  <path class="fil1" d="M5239 2594c7,-6 16,-6 26,-2 3,16 -10,19 -17,20 -6,-3 -9,-9 -9,-18z"/>
  <path class="fil1" d="M5257 2297c11,4 19,9 15,24 -21,8 -35,-17 -15,-24z"/>
  <path class="fil1" d="M5288 3316c1,7 -6,7 -7,12 -11,1 -20,0 -26,-5 -7,-18 27,-21 33,-7z"/>
  <path class="fil1" d="M5288 1769l0 10c-29,22 -40,-29 0,-10z"/>
  <path class="fil1" d="M5261 2712c4,-13 17,-11 29,-9 -2,2 -7,8 2,7 -3,8 -11,12 -24,11 -1,-4 -5,-6 -7,-9z"/>
  <path class="fil1" d="M5261 2268c5,-1 16,-1 22,2l0 11c-8,6 -26,3 -22,-13z"/>
  <path class="fil1" d="M5265 2566c7,-4 10,2 18,2 -1,6 3,6 0,9 8,3 17,5 20,13 -5,14 -29,13 -31,-2 0,-5 8,-2 5,-9 -2,-3 -9,-1 -12,-4l0 -9z"/>
  <path class="fil1" d="M5299 3032c-14,5 -29,-2 -20,-16 15,-6 32,3 20,16z"/>
  <path class="fil1" d="M5286 3338c1,-7 8,-7 9,-13 14,0 16,1 26,3 -1,9 -5,14 -11,17 -11,1 -13,-8 -24,-7z"/>
  <path class="fil1" d="M5299 3554c7,-12 14,2 22,-2 2,3 2,8 5,9 -4,9 -16,5 -23,2 -1,-3 -1,-7 -4,-9z"/>
  <path class="fil1" d="M5301 2999c0,-15 22,-15 27,-5 -3,10 -19,9 -27,5z"/>
  <path class="fil1" d="M5301 2956c1,-2 2,-5 2,-8 12,-7 32,4 22,17 -11,4 -16,-5 -24,-9z"/>
  <path class="fil1" d="M5308 2606c10,0 15,-4 26,-3 2,3 4,7 5,12 -8,11 -38,9 -31,-9z"/>
  <path class="fil1" d="M5308 3512c7,-2 13,-5 20,-7 5,6 10,10 7,20 -13,1 -27,4 -27,-13z"/>
  <path class="fil1" d="M5308 2712c-2,-13 7,-14 11,-20 5,3 10,6 15,9 1,16 -13,12 -26,11z"/>
  <path class="fil1" d="M5343 2570c2,12 -6,12 -6,22 -6,-5 -19,-4 -25,-9 4,-14 24,-23 31,-13z"/>
  <path class="fil1" d="M5315 3460c9,-6 21,-4 30,0 2,7 0,9 -2,16 -16,6 -28,-6 -28,-16z"/>
  <path class="fil1" d="M5317 2272c1,-16 15,-9 26,-8 0,6 -3,8 -2,15 -10,0 -17,-2 -24,-7z"/>
  <path class="fil1" d="M5326 2683l0 -9c12,-8 22,-3 29,3 -4,10 -18,10 -29,6z"/>
  <path class="fil1" d="M5366 3432c-3,4 -6,8 -11,11 -37,-6 -7,-36 11,-11z"/>
  <path class="fil1" d="M5366 2710c-55,1 9,-42 8,-9 -1,7 -6,-2 -8,9z"/>
  <path class="fil1" d="M5343 2619c1,-16 29,-19 36,-5 -3,20 -24,9 -36,5z"/>
  <path class="fil1" d="M5368 3498c-1,6 3,7 2,14 -26,16 -32,-24 -2,-14z"/>
  <path class="fil1" d="M5355 3460c8,-9 20,-8 31,-6 -1,7 3,8 2,15 -3,2 -6,4 -9,7 -7,-6 -21,-6 -24,-16z"/>
  <path class="fil1" d="M5355 3007c-1,-10 8,-9 11,-13 4,1 6,4 11,3 1,16 -14,13 -22,10z"/>
  <path class="fil1" d="M5355 2566c6,-3 17,-2 20,-7 27,18 -16,35 -20,7z"/>
  <path class="fil1" d="M5375 2597c11,-4 20,-5 26,4 0,5 -6,4 -6,9 -8,-4 -17,2 -20,-13z"/>
  <path class="fil1" d="M5377 2690c5,-13 20,-8 29,-13 0,6 4,7 2,13 -5,8 -25,7 -31,0z"/>
  <path class="fil1" d="M5379 3090c4,-4 14,0 15,-7 9,-1 11,7 18,9 -6,10 -16,10 -22,16 -7,-2 -12,-7 -11,-18z"/>
  <path class="fil1" d="M5412 3418l0 -9c11,-12 22,-4 25,10 -2,2 -4,3 -5,6 -10,0 -16,-2 -20,-7z"/>
  <path class="fil1" d="M5412 3065c10,-3 18,-6 31,-2 2,6 0,6 0,13 -12,3 -16,6 -29,3 0,-6 -4,-7 -2,-14z"/>
  <path class="fil1" d="M5439 2546c-3,8 -5,14 -11,15 -28,5 -10,-36 11,-15z"/>
  <path class="fil1" d="M5414 2581c7,-8 16,-1 22,3 -3,12 -23,12 -22,-3z"/>
  <path class="fil1" d="M5446 3769c1,8 -3,11 -5,16 -41,8 -15,-38 5,-16z"/>
  <path class="fil1" d="M5423 2719c-2,-5 3,-5 2,-11 10,1 12,-1 20,4 2,5 0,8 -2,13 -7,-2 -12,-6 -20,-6z"/>
  <path class="fil1" d="M5425 3729c3,-10 18,-10 25,-11 3,8 6,6 6,16 -10,8 -26,5 -31,-5z"/>
  <path class="fil1" d="M5436 3438c10,-3 20,-6 27,2 2,8 -3,9 -4,14 -5,2 -16,0 -22,-4 1,-5 -3,-6 -1,-12z"/>
  <path class="fil1" d="M5437 2586c4,-10 23,-15 31,-5 2,6 -2,7 -2,13 -12,5 -17,-7 -29,-8z"/>
  <path class="fil1" d="M5448 3034c6,0 13,5 15,-2 5,1 3,8 7,9 -2,8 -8,12 -13,18 -19,4 -15,-17 -9,-25z"/>
  <path class="fil1" d="M5446 3489c7,-3 21,-3 26,1 1,19 -33,14 -26,-1z"/>
  <path class="fil1" d="M5445 3389c0,-6 5,-9 7,-13 11,1 19,-3 24,11 -8,16 -18,8 -31,2z"/>
  <path class="fil1" d="M5450 3663c10,-6 28,-9 29,8 0,5 -5,4 -5,9 -17,0 -29,1 -24,-17z"/>
  <path class="fil1" d="M5448 2548c0,-5 2,-12 6,-18 8,1 17,1 25,9 -5,14 -18,20 -31,9z"/>
  <path class="fil1" d="M5456 3587c-1,-12 11,-18 21,-13 2,11 0,10 -3,18 -9,1 -12,-4 -18,-5z"/>
  <path class="fil1" d="M5461 3523c6,1 14,-2 24,2 11,24 -36,22 -24,-2z"/>
  <path class="fil1" d="M5465 3412c11,-2 15,3 21,6 -2,7 -13,6 -21,9 -4,-5 -4,-10 0,-15z"/>
  <path class="fil1" d="M5468 3334c0,-6 4,-7 6,-11 10,-1 14,-2 20,4 2,8 -3,9 -4,14 -8,-1 -12,-7 -22,-7z"/>
  <path class="fil1" d="M5496 3439c-2,8 5,8 5,15 -4,1 -5,6 -9,7 -25,0 -24,-25 4,-22z"/>
  <path class="fil1" d="M5483 3372c-11,-14 23,-19 23,-5 1,9 -18,12 -23,5z"/>
  <path class="fil1" d="M5481 2570c6,-6 -1,-4 2,-13 8,-4 12,-3 20,-5 7,5 5,15 2,23 -12,3 -16,-3 -24,-5z"/>
  <path class="fil1" d="M5483 3487l0 -8c13,-6 38,-2 23,15 -13,2 -17,-7 -23,-7z"/>
  <path class="fil1" d="M5488 3552c18,0 24,10 13,20 -10,-1 -22,-9 -13,-20z"/>
  <path class="fil1" d="M5501 2543c0,-8 6,-10 7,-17 12,-1 11,-1 20,0 6,8 -3,21 -3,22 -8,5 -16,-1 -24,-5z"/>
  <path class="fil1" d="M5503 3525c1,-6 5,-4 2,-11 7,0 11,-3 20,-2 -1,5 0,7 5,6 -1,8 0,6 -2,12 -10,7 -17,0 -25,-5z"/>
  <path class="fil1" d="M5506 3605c-2,-8 9,-4 6,-13 7,2 16,3 16,11 -4,-5 -5,4 2,2 -1,2 -2,3 0,4 -3,8 -10,-1 -11,5 -8,1 -6,-8 -13,-9z"/>
  <path class="fil1" d="M5506 3343c8,-11 36,-8 26,11 -15,3 -18,-6 -26,-11z"/>
  <path class="fil1" d="M5514 2572c12,1 23,3 23,16 -7,0 -11,4 -16,6 -7,-6 -19,-13 -7,-22z"/>
  <path class="fil1" d="M5519 3396c4,-11 15,-9 24,-4 2,8 -5,7 -4,15 -6,-2 -8,-6 -14,-2 -1,-5 -4,-6 -6,-9z"/>
  <path class="fil1" d="M5525 3569c4,-10 13,-7 23,-4 2,9 2,11 -5,15 -9,-1 -12,-8 -18,-11z"/>
  <path class="fil1" d="M5527 3485c0,-11 7,-14 19,-13 0,5 -1,11 4,11 -5,9 -16,7 -23,2z"/>
  <path class="fil1" d="M5530 3294c2,-8 25,-19 26,-2 -7,3 -14,4 -22,6 0,-4 -2,-4 -4,-4z"/>
  <path class="fil1" d="M5534 2610c6,-9 14,-10 23,-4l0 11c-5,-1 -3,4 -7,4 -6,-3 -11,-3 -16,-11z"/>
  <path class="fil1" d="M5539 3381c2,-5 2,-5 0,-11 14,-15 43,0 24,17 -12,-2 -14,-3 -24,-6z"/>
  <path class="fil1" d="M5576 2574l0 14c-9,7 -20,0 -26,-5 4,-12 15,-18 26,-9z"/>
  <path class="fil1" d="M5556 3554c5,-15 35,-8 16,7 -7,-1 -10,-6 -16,-7z"/>
  <path class="fil1" d="M5559 3410c11,-4 14,-3 26,-1 -1,3 0,5 3,5 0,7 -4,10 -9,13 -10,-6 -21,0 -20,-17z"/>
  <path class="fil1" d="M5568 2544c4,4 12,2 15,-1 5,3 10,7 11,14 -8,16 -38,5 -26,-13z"/>
  <path class="fil1" d="M5568 3470c-2,-12 10,-10 13,-18 4,7 14,7 13,18 -7,8 -18,5 -26,0z"/>
  <path class="fil1" d="M5572 3338c2,-7 0,-5 2,-11 8,-1 11,-4 23,-2 2,5 6,9 4,18 -13,5 -19,1 -29,-5z"/>
  <path class="fil1" d="M5610 3376c1,11 -11,10 -13,20 -3,-7 -12,-7 -16,-13 2,-15 19,-13 29,-7z"/>
  <path class="fil1" d="M5585 3565c9,1 14,-4 22,0 4,15 -11,16 -20,11 -2,-7 -1,-5 -2,-11z"/>
  <path class="fil1" d="M5585 3507c4,-10 19,-9 25,-4 1,7 -1,10 -3,13 -11,0 -20,-1 -22,-9z"/>
  <path class="fil1" d="M5627 2666c-2,5 -2,8 0,13 -9,14 -37,3 -31,-13 9,-4 23,-7 31,0z"/>
  <path class="fil1" d="M5607 3419l20 0c3,8 5,6 3,17 -14,12 -39,1 -23,-17z"/>
  <path class="fil1" d="M5617 3534c5,-5 20,-9 26,-2 2,9 -2,13 -6,17 -11,0 -22,-1 -20,-15z"/>
  <path class="fil1" d="M5647 3483c-6,4 -9,9 -15,9 -31,-1 3,-39 15,-9z"/>
  <path class="fil1" d="M5625 2690c1,-3 4,-5 5,-9 9,-1 12,3 17,-2 6,6 11,11 9,22 -15,9 -25,1 -31,-11z"/>
  <path class="fil1" d="M5632 3374c3,-8 12,-10 24,-9 1,4 4,6 3,13 -8,6 -21,5 -27,-4z"/>
  <path class="fil1" d="M5672 2846c10,-4 22,-7 27,4 1,19 -34,12 -27,-4z"/>
  <path class="fil1" d="M5694 2814c-5,1 3,6 -2,9 -7,-2 -13,-5 -11,-17 7,-4 13,-4 24,-5 -2,5 2,5 2,9 9,1 12,-3 21,-2 6,5 8,14 2,20 -17,-1 -30,-2 -36,-14z"/>
  <path class="fil1" d="M5739 2859c-8,-3 -22,-1 -23,-11 6,-18 39,-3 23,11z"/>
  <path class="fil1" d="M5756 2881c19,-37 44,-88 96,-75 7,39 -24,75 -56,59 -9,11 -22,31 -40,16z"/>
  <path class="fil1" d="M6012 2179c-1,-7 -8,-8 -11,-13 -5,7 3,13 11,13zm-373 564c0,2 -3,1 -3,3 1,1 3,0 3,2 -3,0 -6,0 -5,4 4,1 10,-7 5,-9zm-145 -248c-4,5 -19,5 -22,2 -3,13 26,4 22,-2zm3 341c1,-4 -2,-5 -1,-8 -12,1 -24,-3 -30,-13 0,9 -3,15 -9,17 12,0 23,6 40,4zm-318 127c5,-3 8,-8 18,-6 3,-3 4,-9 7,-12 -10,2 -9,4 -21,3 0,-5 -5,-6 -9,-7 -5,7 4,14 5,22zm-7 -24c5,2 3,-4 3,-7l-5 0c0,3 0,6 2,7zm-15 -1270c7,0 8,-6 6,-11 -5,1 -9,8 -6,11zm-14 0c1,-9 -8,-7 -8,-14 -4,0 -8,1 -11,3 10,1 11,10 19,11zm-62 530c0,-7 0,-13 -4,-17 1,8 -6,-2 -5,8 4,1 3,9 9,9zm-171 578c-5,1 -4,7 -6,11 4,2 6,6 13,6 -1,-10 9,-9 11,-15 7,5 14,-2 18,6 -5,20 25,20 35,32 22,0 45,-1 63,0 8,1 13,-5 20,-5 9,-1 18,6 26,3 3,0 4,-4 7,-5 0,0 3,4 6,4 6,-1 11,-9 16,-4 -1,0 -2,0 -2,2 8,0 0,-5 2,-9 13,-1 14,-13 27,-13 4,-7 -4,-9 -2,-20 10,-6 24,-7 31,2 23,-14 44,-22 71,-26 3,-7 -8,0 -7,-5 3,-6 8,-10 13,-15 -11,5 -24,0 -26,-11 7,-16 36,-4 26,10 8,4 23,2 20,18 4,4 5,-5 13,-2 0,-18 16,-20 23,-24 -4,8 5,8 7,13 1,4 -5,2 -5,5 5,6 18,4 24,0 -8,-20 26,-18 31,-5 2,-8 13,-5 18,-2 3,-5 -5,-11 -6,-18 12,-2 25,-4 28,5 -2,12 -17,4 -19,13 24,5 54,-6 79,11 -1,-6 2,-7 5,-9 5,3 13,3 15,9 1,-5 6,1 7,2 0,-3 -1,-4 -2,-6 38,11 80,0 113,2 38,-15 79,-11 113,-22 0,-8 -18,-16 -8,-23 -1,-6 -2,-14 -11,-13 7,25 -31,26 -36,6 3,-8 14,-9 20,-13 -2,-9 -11,-10 -18,-15 -5,21 -26,5 -31,-5 3,-3 6,-12 0,-13 4,19 -22,23 -31,13 0,-8 6,-10 6,-18 -9,1 -7,-8 -15,-8 -3,2 -5,5 -9,6 -5,-6 -13,-8 -11,-20 4,-3 9,-5 15,-6 -1,-6 -3,-8 0,-14 -5,0 -8,-3 -8,-8 2,-7 16,-14 18,-5 8,-9 14,-18 19,-29 -4,-8 -20,-3 -20,-15 -1,-5 4,-6 3,-12 -5,-2 -10,-4 -14,-8 5,18 -12,15 -24,13 3,-3 -2,-9 0,-16 -10,2 -12,11 -20,14 -6,-3 -10,-7 -16,-11 -5,-7 4,-6 5,-12 -4,-5 -6,-3 -9,1 -8,-7 -10,-4 -22,-1 16,21 -21,26 -23,7 -7,10 -33,10 -30,-9 -6,-1 -9,1 -10,5 9,10 -6,24 -24,22 -2,-5 -7,-8 -9,-13 -7,5 -15,9 -20,15 34,-3 14,38 -8,18 -1,-4 -2,-8 -1,-14 -6,1 -13,0 -13,7 0,3 6,1 5,5 -8,14 -32,16 -38,-2 -7,2 -10,5 -18,2 3,20 -19,18 -29,11 -22,14 -33,14 -56,20 -1,7 -5,7 -2,13 -16,11 -35,-9 -46,11 6,-1 6,3 11,2 18,26 -33,32 -27,1 -3,2 -11,-2 -11,2 4,3 8,0 9,2 -3,7 -15,4 -15,13 14,1 11,25 -1,25 -9,-4 -16,-10 -20,-18 -4,8 -13,9 -17,16 8,0 15,0 15,8 -2,5 -7,7 -9,13 -11,1 -15,-3 -22,-4 -6,8 -18,12 -24,20 7,0 12,3 15,7 1,26 -23,15 -29,2 1,6 -10,1 -11,5 0,5 7,3 9,6 -7,0 -4,9 -9,11 -25,-4 -58,-6 -75,13 10,1 27,-20 37,-2 -5,1 2,5 0,11 26,-15 36,19 7,20 -3,-5 -6,-9 -6,-17 -11,2 -20,6 -27,-2 -7,12 -31,12 -40,2 -3,8 -8,2 -11,9 -18,1 -29,-4 -44,-11 2,5 3,9 2,15 -8,11 -22,7 -31,-4 4,-2 -2,-9 4,-12 9,-1 12,-2 18,-4 -12,-8 -35,4 -38,-15 -5,-1 -5,3 -9,2 1,7 5,10 4,18 18,-2 15,16 7,22 11,3 27,5 22,18 12,1 16,19 23,10 -3,-3 -9,-3 -9,-10 13,-16 24,-13 35,2zm-108 -11c12,0 16,3 26,0 -5,-12 -25,-13 -16,-29 -9,-8 -21,-4 -24,8 17,0 22,8 14,21zm-18 59c1,-6 -5,-5 -3,-11 -5,-1 -4,3 -9,1 -2,9 6,15 12,10zm-25 152c-1,-6 6,-6 7,-11l-13 0c0,-2 0,-4 -3,-3l0 5c9,1 0,8 9,9zm-24 -151c-2,-11 -6,-8 -2,-20 -5,-4 -7,-1 -16,-1 -1,10 -3,11 -7,20 8,-3 14,-1 25,1zm-38 53c15,5 21,12 38,13 -9,-22 33,-24 29,0 -2,3 -11,0 -11,5 31,20 69,6 100,-1 6,-8 12,-14 15,-24 -10,6 -21,2 -26,-7 1,-8 6,-9 11,-11 5,1 10,2 15,3 5,-9 8,-19 18,-23 -2,-6 -4,-12 -11,-13 1,4 2,7 4,11 -6,4 -12,4 -20,2 -1,12 -14,13 -27,14 4,23 -34,21 -33,2 -20,10 -24,-17 -42,-9 -8,-3 -9,-15 -20,-15 7,16 -8,21 -18,24 -3,-3 -6,-5 -8,-9 -9,1 -10,11 -21,11 -1,12 7,16 7,27zm-15 -51c5,-5 -5,-7 -3,-14l-8 0c4,5 3,15 11,14zm-105 53c-4,0 -1,-6 -6,-5 -1,3 -3,5 -5,9 5,-4 9,2 11,-4zm305 -511c1,8 -2,14 -9,16 -9,1 -10,-6 -18,-7 -20,7 -38,18 -58,24 -20,5 -29,16 -47,23 -10,4 -21,5 -29,9 -14,8 -22,24 -42,22 -55,38 -119,57 -175,93 -42,13 -67,30 -98,53 133,-34 313,-64 436,-104 -4,-16 27,-27 37,-13 1,-2 2,-3 5,-3 5,-2 -5,-4 -2,-10 13,-10 25,1 37,0 29,-1 47,-29 76,-29 -4,-8 -14,-10 -14,-21 5,-6 15,-6 23,-8 3,9 16,12 8,22 5,0 8,-4 14,-4 1,-7 -5,-9 -3,-18 12,-7 24,0 32,6 7,-6 22,-6 22,-20 18,-4 40,-4 53,-17 -8,1 -10,-5 -11,-11 11,2 13,-6 22,-7 5,3 12,4 13,11 8,-3 14,-8 23,-11 1,-6 -3,-6 -2,-13 8,0 13,-4 20,-5 5,1 4,8 8,9 6,-6 16,-8 23,-13 -10,-3 -22,-4 -23,-16 4,-3 6,-9 16,-7 4,6 16,10 11,20 18,-1 32,-6 42,-15 14,5 27,-5 38,-9 -1,-7 -10,-7 -7,-18 7,-6 14,0 20,-2 1,6 3,11 9,13 10,-2 18,-6 29,-8 4,-4 -6,-6 -4,-14 5,-4 12,-6 20,-6 4,3 6,8 8,13 111,-28 207,-55 307,-89l-15 0c-18,-15 -49,4 -78,0 -5,-1 -11,-5 -16,-5 -10,-1 -17,3 -26,3 -30,2 -64,-6 -89,9 -1,-2 -4,-4 -9,-3 -24,4 -69,16 -93,16 -3,10 -27,9 -38,16 -5,1 -5,-4 -11,-3 -67,16 -109,44 -169,56 3,6 11,7 9,17 -8,-2 -7,5 -14,5 -8,-2 -11,-8 -17,-11 -10,5 -20,6 -29,9 -1,7 6,11 2,15 -13,5 -20,-2 -29,-9 -18,9 -48,6 -67,14 -2,7 5,6 3,13 -3,4 -7,8 -13,9 -22,-24 -54,1 -78,5 13,1 23,17 11,26 -9,-3 -19,-4 -20,-15 -2,-8 11,-2 9,-11 -14,0 -21,6 -33,8zm-212 -610c5,-4 19,-1 21,4 2,22 -21,20 -34,13 4,7 12,9 9,23 -5,6 -20,2 -24,4 1,-4 0,-7 -3,-7 -4,7 -15,7 -13,16 42,-1 -5,45 -13,13 -8,3 -11,11 -16,16 6,0 9,2 9,8 2,16 -17,17 -27,12 -4,12 -15,17 -22,26 45,0 -4,45 -13,7 -3,13 -20,7 -24,22 4,2 4,6 6,9 -6,11 -14,15 -29,7 -5,8 -14,12 -18,20 10,2 13,-1 20,4 -1,11 -14,10 -19,18 -4,-5 -14,-4 -14,-13 -6,1 -8,4 -13,6 -1,5 3,5 2,11 -8,8 -26,6 -33,16 7,3 14,6 17,13 -10,20 -35,-5 -40,16 23,7 5,33 -17,22 -2,2 0,7 -5,5 -1,7 7,5 5,13 -3,10 -9,16 -23,15 2,7 7,12 3,22 -11,4 -22,7 -20,20 6,-2 16,0 20,5 -3,13 -8,24 -25,18 1,7 -3,7 -2,13 4,-2 12,-1 16,-4 4,8 9,12 6,22 -7,2 -19,7 -24,0 -3,13 0,21 -4,35 7,1 18,-1 22,7 2,17 -6,24 -20,20 2,9 -5,10 -3,20 20,-12 32,5 49,-2 4,3 -1,15 5,15 4,-16 21,-30 17,-42 -4,7 -9,1 -15,0 7,18 -14,18 -27,18 -4,-4 -2,-14 0,-18 18,-3 23,-19 42,-22 5,1 6,6 14,4 3,-6 7,-12 7,-20 0,-5 -8,-1 -7,-8 1,-10 10,-12 20,-12 4,-15 16,-23 18,-40 -7,0 -9,-6 -14,-8l0 -11c8,1 10,-4 16,-5 6,0 5,8 11,7 23,-41 54,-73 78,-113 -5,0 -6,4 -12,2 -1,-4 -3,-7 -4,-11 7,-7 13,-6 27,-5 8,-17 29,-21 35,-40 -3,-2 -8,-2 -7,-7 3,-19 36,-16 32,-35 -2,4 -8,4 -14,4 -5,-4 -10,-7 -13,-13 1,-10 28,-15 29,-4 21,-9 33,-32 42,-49 -3,-3 -11,-1 -13,-5l0 -6c8,-12 36,-4 40,-20 0,-5 -9,-1 -11,-5 2,-11 12,-16 22,-13 8,-10 20,-16 27,-27 -7,-3 -17,-4 -20,-13 5,-12 18,-10 31,-11 3,8 -1,12 2,17 9,-7 20,1 26,5 14,-2 40,-32 47,-7 28,-2 36,11 56,20 -1,-9 9,-7 9,-15 -12,1 -21,-3 -21,-14 9,-17 39,-1 25,16 11,-2 18,2 18,11 -3,2 -6,5 -9,9 -5,0 -8,-8 -11,0 18,7 30,20 49,25 6,-3 11,-6 18,-7l0 -13c11,-7 30,-6 35,6 -6,6 -14,10 -24,13 6,4 -1,10 0,16 7,-1 7,4 13,4 5,-6 15,-6 22,-9 -1,9 12,3 11,12 -3,2 -7,2 -6,8 19,-3 26,-6 40,-11 1,2 3,3 4,5 0,7 -2,13 -5,17 5,-1 5,4 11,3 -3,-18 25,-18 27,-3 -1,4 -8,6 -4,10 9,-4 29,-14 38,-1 10,-18 42,-2 22,14 7,1 19,5 22,-2 -6,-1 -8,-6 -9,-12 7,-11 32,-9 33,1 0,8 -16,10 -22,15 15,0 32,-1 42,-6 -1,-7 -13,-3 -13,-12 2,-9 20,-16 29,-7 4,6 -1,8 -2,14 19,-1 30,-11 40,-20 -2,-7 -7,-8 -3,-16 5,-3 9,-5 14,-8 4,2 7,5 11,6 -1,-7 10,-1 7,-9 -2,-7 -14,-4 -14,-13 2,-12 17,-9 29,-7 0,-9 4,-13 9,-17 4,-21 1,-46 -9,-61 -14,7 -31,3 -25,-15 -10,-1 -11,7 -21,5 -9,-25 18,-19 31,-10 1,-3 2,-3 4,-4 -1,-20 -30,-9 -24,-31 -3,11 -29,8 -25,-4 -20,13 -29,-5 -42,-14 -1,19 14,22 26,29 -2,0 -7,7 -2,7 3,-10 20,-4 25,0 0,3 1,6 2,7 -6,6 -14,9 -24,11 -2,-4 -7,-6 -7,-12 -6,5 -11,0 -16,1 13,25 -24,28 -28,13 -2,-8 5,-17 20,-14 1,-5 -3,-6 -1,-11 -11,-1 -13,0 -20,-4 0,4 2,7 1,13 -6,5 -15,4 -21,5 -2,-5 -6,-7 -6,-14 -7,1 -7,9 -13,11 12,8 26,3 37,12 2,9 -5,9 -4,17 15,7 39,-5 44,12 -3,15 -30,21 -31,0 -11,13 -37,2 -24,-14 -10,1 -11,-7 -14,-13 -3,4 -5,8 -9,9 -13,1 -20,-4 -20,-16 0,-7 9,-5 10,-11 -11,-2 -20,10 -32,0 -5,9 -10,11 -18,9 17,28 -45,30 -22,2 -9,-1 -21,-1 -22,13 6,1 15,-1 18,7 -4,15 -22,18 -31,7 6,17 -22,30 -29,13 11,-5 0,-11 0,-20 1,-5 7,-7 9,-11 9,2 31,9 27,-2 -7,-2 -29,-3 -38,4 0,8 -4,13 -12,13 -2,7 8,3 7,10 -2,10 -8,14 -20,13 -4,-6 -8,-12 -13,-18 -3,18 -23,12 -33,4 1,-12 16,-9 22,-15 -5,0 3,-3 0,-7 -10,10 -58,4 -44,-17 -13,4 -30,14 -38,-3 -2,-7 6,-6 4,-13 -9,0 -11,-7 -20,-7 -5,13 -20,21 -33,11 -2,7 -13,5 -22,5 -4,-4 -5,-11 -7,-16 -4,6 -16,4 -20,11 15,-4 15,11 9,18 8,6 25,-7 26,13 -5,15 -42,5 -26,-11 -16,2 -18,1 -31,-6 -1,6 -15,10 -11,17 7,-6 14,-6 24,-4 -1,6 1,9 4,11 -6,18 -36,8 -33,-7 -4,7 -12,9 -15,18 4,4 12,4 15,9 -2,4 -1,11 -7,14 -14,1 -14,-1 -24,-3 -2,4 -9,12 -7,14zm-344 539c10,1 26,-11 36,2 0,-14 17,-19 15,-29 -8,12 -25,-4 -35,7 -5,-3 -8,-8 -14,-9 -2,11 -5,22 -2,29zm5 74c3,-8 -1,-11 4,-16 -4,-1 -5,-4 -11,-4 0,9 -2,21 7,20zm17 -38c-3,-10 7,-7 5,-16 -9,-2 -21,-1 -25,-7 -4,8 -7,17 -8,29 8,-3 18,-12 28,-6zm1188 -498c-1,6 1,8 1,13 5,0 15,5 20,10 -1,2 -1,3 -1,6 25,33 43,62 67,96 1,4 3,-2 5,2 3,14 10,22 24,36 0,8 3,18 11,22 3,19 15,44 29,57 0,3 -2,4 -2,7 22,24 32,70 57,86 -1,11 -7,16 -13,21 11,-3 20,-4 31,-5 22,-2 43,-20 63,-20 4,0 8,2 11,2 18,-2 32,-12 50,-17 12,-3 34,1 52,-3 22,-5 25,-13 48,-9 36,5 62,4 100,9 8,8 14,19 29,22 -1,8 8,6 12,9 1,6 5,4 2,10 2,-1 2,-4 6,-3 0,9 13,10 18,18 8,12 5,33 18,44 -3,6 1,19 6,23 -2,32 -1,72 -13,108l-7 0c-8,14 -17,42 -33,54 -51,58 -106,111 -168,159 -42,55 -106,79 -147,136 18,5 38,9 60,18 11,14 29,32 20,49 10,13 6,29 6,44 1,2 3,1 3,4 12,35 -15,72 -22,100 -4,43 -6,82 -18,118 -2,0 -1,-2 -2,-4 -10,24 -14,55 -34,69 2,9 -5,8 -4,15 -30,30 -43,77 -76,104 -4,2 -12,2 -11,9 -6,-2 -5,3 -11,2 -2,2 -2,7 -6,9 11,66 -10,142 -27,214 -9,0 -2,16 -14,13 3,6 4,4 5,9 -4,13 -13,19 -24,11 6,-8 2,-10 2,-24 4,0 4,-5 9,-3 -11,-17 4,-37 8,-57 6,-33 8,-66 16,-100 -1,-28 -6,-65 7,-92 8,-2 11,-8 20,-8 15,-22 42,-32 48,-63 14,-5 12,-26 25,-31l0 -9c25,-19 28,-60 47,-84 -5,-4 6,-20 0,-27 1,-4 3,-4 6,-2 -2,-25 0,-56 13,-84 1,-5 -4,-5 -2,-11 7,-18 18,-32 18,-54 0,-22 -10,-45 -4,-60 0,-3 -3,-2 -5,-2 7,-31 -18,-35 -35,-46 -31,-9 -47,-6 -73,-3 -9,1 -9,12 -21,11 3,4 10,4 16,5 -5,2 2,9 -2,9 -6,10 -16,13 -27,6 -2,-9 1,-12 -4,-15 -3,5 -2,13 -7,16 -10,2 -15,-6 -20,0 -3,-1 0,-3 0,-5 -7,-1 -10,2 -15,4 1,7 4,12 2,21 -14,-4 -28,-16 -40,-5 -41,6 -67,22 -82,58 -5,0 -3,3 -7,0 -7,32 -30,48 -20,80 -2,5 -6,7 -5,15 -21,8 -17,41 -35,53 -12,-49 32,-72 15,-137 -4,2 -8,13 -13,7 0,3 -4,7 -6,13 -11,0 -18,-5 -29,-5 -6,9 -14,16 -20,25 -21,0 -41,29 -65,13l0 -13c19,-4 46,-12 62,-29 -3,-16 -6,-20 -2,-38 3,-5 12,-4 14,-9 2,-7 -6,-5 -9,-8 4,-3 0,-13 4,-16 6,2 16,2 16,-5 3,1 3,6 6,7 6,-9 24,-4 18,-18 -8,0 -14,1 -20,-8 -5,1 -3,8 -4,13 -12,7 -25,1 -31,-9 6,-3 9,-10 15,-13 4,4 10,6 15,9 5,-10 -6,-18 -13,-21 -7,8 -13,9 -26,9 -2,-10 -14,-10 -16,-20 -37,8 -82,6 -131,16 10,11 33,0 53,2 15,12 42,-4 51,14 2,0 0,-3 -2,-3 1,-6 10,5 11,0 1,4 0,10 5,14 -3,4 -23,7 -27,9 -11,-9 -21,0 -36,4 2,6 0,4 0,11 22,23 58,-6 87,-6 5,3 4,11 7,15 -9,14 -41,7 -49,22 -23,2 -49,0 -65,7 -35,-4 -52,6 -79,-9 -4,-1 -4,3 -9,2 0,-8 -9,-7 -11,-13 4,-11 7,-23 20,-24 -3,-5 -10,-8 -7,-20 -10,2 -31,33 -20,50 15,11 67,36 20,49 19,20 57,18 78,29 8,-9 35,-3 48,-6 1,3 3,6 5,8 -7,19 -27,16 -40,12 -13,10 -29,1 -42,4 -5,5 -7,13 -13,16 -12,0 -21,-2 -20,-16 -3,-1 -4,1 -7,2 6,11 7,29 -11,22 -8,6 -20,21 -34,11 10,28 16,54 42,74 -8,4 3,12 -2,18 7,13 34,16 34,29 22,1 61,-4 78,11 7,-13 35,-17 39,2 -11,6 -22,16 -33,6 -24,14 -56,8 -82,5 -15,-13 -39,-18 -56,-29 -15,-14 -23,-33 -40,-44 0,-7 -2,-11 -9,-11 1,-13 -4,-20 -11,-25 3,-10 -6,-22 -15,-26l0 -10c-15,-19 -25,-58 -45,-73 -28,-20 -62,-18 -86,2 -1,14 -19,18 -25,29 -8,14 -2,30 -17,42 -3,21 -7,34 -16,47 3,1 0,9 3,9 -2,4 -5,6 -10,7 -3,15 -6,31 -17,42 -11,52 -53,90 -43,151 0,2 3,2 5,2 1,16 15,18 16,33 -13,6 -23,-6 -32,-9 -1,-5 0,-7 1,-10 -1,-3 -6,-3 -9,-5 -12,4 -11,21 -21,25 -1,31 -31,48 -42,73 5,31 -33,66 -11,97 -4,20 9,28 3,40 -9,3 -17,7 -29,3 -16,-23 -34,-45 -65,-54 -29,7 -56,8 -64,-24 -6,0 -8,4 -11,7 -8,1 -13,-4 -20,-5 -3,-21 32,-28 29,-4 9,-11 28,-7 39,0 5,-6 4,-20 18,-18 19,-31 38,-62 62,-89 29,-35 64,-63 78,-109 12,-6 14,-22 22,-33 -16,-2 -45,23 -59,2 3,10 -21,10 -23,-2 4,-2 6,1 7,-7 20,4 38,-10 69,-15 12,-10 24,-21 38,-29 3,-9 11,-26 22,-33 6,-25 10,-41 22,-60 -10,-27 -2,-62 -7,-96 -9,-3 -10,3 -18,-2 -2,11 11,8 12,16 -3,13 -27,6 -27,22 9,2 18,4 22,11 -3,19 -20,14 -33,7 4,-4 5,-12 9,-16 -7,-3 -20,-1 -22,-11 -8,1 -7,8 -12,9 -19,5 -31,-19 -51,-18 -6,0 -11,3 -20,7 -14,-2 -16,-15 -29,-18 -10,6 -6,8 1,11 0,5 1,12 -1,15 17,-7 26,0 36,12 1,5 -4,4 -4,8 4,6 12,9 19,12l0 11c-14,5 -29,1 -33,-9 -11,5 -14,5 -28,6 0,-5 -7,-2 -5,-9 -3,19 -38,22 -36,5 1,-13 21,-10 32,-5 5,-8 11,-14 22,-15 3,-9 -4,-8 -3,-15 -9,10 -23,2 -30,-5 2,-8 6,-12 13,-15 1,-4 -7,-1 -5,-7 -12,5 -12,7 -28,4 -3,4 -3,9 -7,13 17,-5 29,3 26,18 -9,5 -14,4 -26,3 -1,-6 -8,-9 -3,-16 -6,3 -19,-1 -22,-4 -3,16 -25,12 -33,22 -8,-4 -18,-6 -20,-16 11,-10 33,-21 45,-9 6,-2 1,-8 6,-13 -29,-7 -53,-13 -64,-36 -4,4 -8,0 -11,-2 0,2 8,12 8,20 -1,5 -7,5 -8,11 12,1 17,-6 31,-2 -1,6 2,7 4,9 -3,13 -21,17 -29,9 -4,5 -17,9 -22,2 -10,5 -2,15 2,22 11,1 15,-14 29,-8 6,7 4,18 5,24 2,-7 12,-6 20,-5 1,4 2,8 8,7 1,5 -2,7 -2,11 13,-5 24,2 29,11 5,0 8,-4 9,-8 9,5 13,2 20,8l0 11c-13,12 -20,-6 -29,-8 -4,0 -12,8 -18,8 -8,-1 -8,-9 -17,-8 -1,-5 -1,-3 0,-9 -14,1 -18,-6 -23,-18 -12,5 -26,-4 -29,-14 -6,11 -1,15 5,30 4,12 3,29 7,37 7,13 22,19 24,29l9 0c9,22 33,30 42,53 -1,6 -9,5 -11,11 -28,-23 -51,-42 -76,-64 1,-5 3,-11 -6,-9 -1,-8 -9,-17 -5,-24 -12,-7 -15,-23 -17,-36 -2,-3 -8,-2 -5,-9 -2,5 -5,10 -6,16 -6,0 -22,0 -29,-9 1,-19 20,-10 33,-9 1,-5 -4,-6 -4,-11 -12,2 -33,-4 -47,-11 -3,3 -1,11 -5,13 10,5 23,9 12,22 -6,0 -11,1 -14,3 -4,1 -2,-5 -6,-5 -3,2 -4,7 -7,9 1,8 9,8 13,13 -6,14 -22,7 -29,18 -1,5 6,2 7,5 1,8 -1,13 -4,17 -14,-3 -20,4 -23,12 0,4 5,3 3,8 8,0 17,0 22,-2 1,4 5,3 6,7 -1,14 -15,13 -26,9 -2,18 9,23 9,38 5,3 12,4 17,8 -1,8 -2,15 -10,16 1,9 9,12 17,13 5,-3 6,-10 13,-13 7,1 13,2 18,4 1,10 -3,14 -7,18 -7,1 -7,-3 -13,-2 -7,4 -7,13 -17,13 3,20 9,30 15,45 9,0 15,-4 22,-7 3,1 3,5 9,4 4,14 -7,19 -22,18 -3,1 5,6 2,13 -11,19 -39,28 -55,18 -2,0 -1,3 -2,5 -16,-10 -28,-32 -34,-52 -3,-6 -13,-4 -11,-15 -4,-5 -14,-3 -13,-13 -11,2 -14,-11 -25,-14 4,-32 -5,-63 -35,-73 6,66 52,111 75,156 11,-2 18,5 20,17 38,17 49,61 94,71 3,-14 -34,-44 -16,-55 16,-9 30,17 33,33 13,22 24,43 34,67 6,13 12,28 19,40 13,25 38,43 40,75 4,-3 4,-10 9,-13 7,5 7,0 18,0 14,16 -16,24 -26,13 18,44 28,77 48,116 0,5 0,9 -2,11 14,16 16,41 27,62 1,4 5,-3 7,2 6,12 9,28 22,33 10,32 42,55 57,89 11,4 12,15 27,18 0,5 7,4 5,11 11,0 13,7 15,16 -4,6 -15,4 -18,6 -3,-2 -6,-3 -6,-8 -29,-6 -34,-23 -58,-40 -21,-39 -57,-72 -69,-114 -1,1 -3,2 -5,2 0,-5 0,-10 -6,-8 -1,-9 -3,-17 -9,-22 -3,-16 -10,-33 -16,-49 -17,-44 -39,-90 -53,-136 -26,-41 -48,-85 -69,-129 -6,-2 -3,6 -8,5 -36,-8 -64,-26 -80,-56 -15,1 -13,-14 -18,-24 -6,-5 -14,-7 -16,-16 -43,-7 -34,-65 -67,-80 -5,-17 -12,-30 -22,-40 -1,-6 2,-7 3,-11 -9,-10 -8,-29 -16,-40 -39,10 -61,-3 -87,-17 -30,2 -44,-2 -68,-3 -1,-2 -4,-2 -3,-6 -17,2 -24,-6 -33,-12 -3,1 -9,-3 -9,1 -3,-4 -7,-1 -9,-9 -28,-9 -48,-30 -75,-34 -16,-23 -46,-32 -64,-53 -5,1 -6,-3 -12,-2 -3,-7 -5,-16 -13,-18 2,-10 -4,-23 -9,-31 -3,-30 4,-44 0,-69 5,-8 8,-18 9,-29 2,-2 7,-2 9,-4 16,-61 90,-64 131,-100 22,-4 44,-7 53,-24 17,-4 38,5 45,-10 51,-20 104,-47 153,-57 -6,-7 -6,-17 -2,-27 -3,-2 -7,-5 -11,-7 -3,-31 -10,-70 -5,-108 1,-5 4,-6 5,-11 2,-7 -2,-16 -1,-23 2,-22 7,-42 7,-64 -1,-33 -8,-65 -4,-96 2,-13 9,-34 4,-50 3,-1 3,-5 5,-7 -3,-54 7,-104 15,-160 8,-57 30,-107 42,-156 14,-24 18,-49 25,-80 11,-21 25,-40 33,-68 2,-1 4,-2 7,-2 11,-28 39,-38 48,-69 14,-10 30,-21 45,-34 14,-13 22,-29 42,-33 10,-2 22,0 34,-2 10,-2 19,-7 28,-7 32,-2 72,6 91,-4 13,7 24,-8 43,-7 55,-31 99,-84 168,-100 24,-6 56,-9 83,-15 4,6 7,1 11,2 47,9 94,20 133,37 10,8 22,12 33,16 23,8 41,17 60,33 9,11 24,26 38,27 10,13 40,35 55,44 5,3 10,1 14,7 8,10 20,23 37,27 3,8 10,13 16,13 5,11 14,19 27,22 2,10 8,16 15,16 5,14 12,25 27,29 13,22 30,48 51,55 1,3 5,13 15,11z"/>
  <path class="fil1" d="M4015 4575c-2,-1 -1,-2 0,-2 -29,-23 -53,-49 -86,-67 -8,-38 27,-41 49,-53 5,-5 4,3 9,2 14,-12 35,-15 48,-22 3,-2 6,-9 11,-11 14,-6 32,-1 49,-11 2,0 2,-4 0,-4 6,-1 12,-2 14,-7 30,-1 58,-11 93,-16 4,-6 13,-7 20,-11 4,-3 3,-3 9,-6 2,-1 3,-10 4,0 5,0 6,-6 9,-9 22,2 36,-15 51,-29 6,1 6,-3 13,-2 8,-3 12,-10 20,-16 2,-2 3,2 5,2 13,-6 25,-22 38,-31 16,-11 34,-19 51,-31 17,-12 36,-18 51,-35 9,3 23,-7 31,-14 35,-33 69,-87 100,-120 1,-6 1,-4 0,-9 23,-22 28,-61 47,-86 16,-60 31,-113 60,-156 10,-2 17,-3 24,-4 4,8 10,10 9,18 0,6 -8,5 -13,15 -5,11 -2,25 -12,31 -11,88 18,175 65,234 -4,4 2,8 -2,11 6,14 17,28 19,40 20,24 30,53 47,86 5,10 19,23 20,33 2,21 -19,38 -22,61 -9,-1 -12,3 -20,2 -17,-26 -22,-63 -29,-94 -6,-7 -15,-11 -16,-22 -8,13 8,51 0,62 9,50 10,105 7,156 -3,51 -7,97 -9,146 -1,6 -1,27 -6,23 1,65 -18,117 -18,179 -6,11 -20,15 -24,29 -12,3 -23,4 -34,0 -9,-1 -14,2 -18,5 -28,-7 -50,-17 -79,-16 -24,0 -51,-9 -72,-22 -33,-5 -65,-12 -91,-24 -25,-5 -59,-12 -80,-29 -34,-2 -62,-35 -91,-42 -4,0 -4,-4 -4,-9 -2,1 -1,6 -4,6 -10,-1 -12,-10 -25,-8 -21,-15 -40,-25 -62,-41 -10,0 -18,-3 -20,-11 -29,-1 -46,-38 -76,-31 -3,-2 -5,-5 -11,-4 -13,-15 -34,-22 -46,-38 -2,0 -3,0 -3,2z"/>
  <path class="fil1" d="M5239 3245c1,-4 0,-7 -2,-9 -6,0 -13,9 -9,14 1,-4 7,-4 11,-5zm-9 169c-11,1 -28,8 -35,-2 -16,15 -39,11 -58,15 -16,3 -32,12 -51,14 -14,3 -27,-1 -42,-1 -45,-3 -92,0 -134,-8 2,24 3,49 20,58l0 13c17,3 42,6 63,18 57,-11 102,14 150,-7 44,4 71,-29 105,-45 -4,-21 -6,-48 -18,-55zm140 -162c2,0 2,-3 2,-5 17,15 48,26 53,49 4,-4 7,0 7,5 11,-6 21,-2 27,6 2,13 -16,8 -22,14 -1,10 11,6 8,18 6,0 8,-5 14,-5 3,6 6,19 4,24 -8,0 -14,-1 -18,-4 -7,16 -17,45 -35,38 -2,6 6,2 4,7 -7,3 -16,3 -18,10 -1,5 7,3 7,9 0,6 -2,10 -4,14 -13,0 -23,-3 -25,-14 -24,3 -34,-3 -57,-4 -5,12 -16,26 -12,40 -16,-10 -20,30 -37,24 -4,18 -25,18 -27,38 -8,0 -9,7 -11,13 -19,13 -46,31 -69,40 -3,1 -16,4 -15,0 -2,7 -10,7 -18,5 15,9 -28,2 -31,9 -7,1 -7,-10 -13,-5 -2,0 1,2 0,5 -4,1 -5,-1 -5,-5 -15,6 -46,-2 -56,-13 -7,4 -13,-1 -17,-5 -30,0 -48,-17 -78,-17 -19,-11 -35,-25 -58,-33 -2,-5 -4,-10 -8,-14 1,-6 9,-3 13,-2 -4,-11 -16,-6 -23,-7 -7,-2 -19,-4 -26,-7 -4,-2 -6,-8 -11,-10 -11,-3 -23,3 -31,-9l0 -12c54,-1 71,-51 126,-35 23,-8 53,5 80,13 36,-8 81,3 116,-11 6,0 5,7 11,7 4,0 -1,-5 -4,-4 34,-15 77,-29 119,-30 25,-1 44,-7 65,-11 4,-1 5,-6 9,-4 -2,-5 -8,-7 -5,-16 10,-10 20,5 22,5 8,-1 23,-18 23,-25 2,-19 -34,-42 -52,-33 -8,-2 -10,-9 -17,-11 0,-3 1,-6 4,-7 -6,-10 -20,-12 -24,-24 -1,8 -12,7 -20,9 -5,-3 -9,-8 -14,-11 -6,1 -7,5 -11,7 5,4 14,6 16,13 -2,7 -9,9 -13,15 -5,-2 -13,-3 -14,-9 -8,3 -14,9 -22,12 0,7 3,9 4,15 -13,7 -30,-1 -42,7 -1,6 2,8 5,9 -1,6 -4,9 -7,13 -13,3 -15,-7 -24,-9 1,-2 4,-3 4,-6 -7,-5 -15,2 -18,6 -10,-3 -23,-14 -33,-11 -1,5 -1,14 -9,16 -12,0 -26,-10 -16,-20 -3,-2 -9,0 -10,-5 -10,13 -28,-3 -32,-13 -6,4 -1,8 -6,15 -17,3 -21,-7 -27,-15 3,-5 5,-11 2,-18 -19,-1 -39,-1 -44,-16 9,-2 14,-2 24,-6 20,9 44,12 63,15 17,2 19,-2 28,-4 1,0 6,4 7,4 3,-1 8,-5 11,-6 20,-9 43,-27 69,-11 18,5 25,-7 42,-18 8,-5 19,-6 27,-11 16,-9 22,-23 26,-43 -1,-5 -7,-4 -6,-9 9,-31 -23,-47 -42,-66 7,-22 46,-8 50,7 14,-1 19,10 30,20 12,10 29,18 37,28 14,17 17,46 43,52 6,15 23,18 35,26l0 7z"/>
  <path class="fil1" d="M6065 4216c1,-6 -11,-7 -11,-1 4,4 8,-2 11,1zm-466 -536c0,2 5,2 6,0 -3,-3 -12,-3 -11,3 3,1 3,-2 5,-3zm-83 56c6,2 5,-5 10,-4 2,5 8,6 11,10 1,-10 10,-12 11,-21 -11,4 -9,-6 -14,-9 3,13 -15,11 -18,6 1,8 -5,13 0,18zm-8 38c9,-3 14,-10 17,-20 -8,1 -14,-1 -19,-3 -4,7 -8,19 2,23zm-25 26c8,0 18,-8 5,-13 1,5 -10,9 -5,13zm-13 18c-4,3 -9,5 -11,11 8,1 15,-7 11,-11zm-124 893c1,-7 0,-13 -7,-13 -1,8 1,13 7,13zm-61 -726c-8,0 -15,1 -15,8 6,-1 10,-5 15,-8zm-35 22c4,-11 -11,-10 -15,-9l0 13c6,-1 7,-6 15,-4zm-87 35c-1,-12 -16,-10 -22,-17 2,8 -3,8 -4,13 9,4 14,6 26,4zm-157 -6l0 -7c-7,7 -17,-8 -20,2 11,1 10,3 20,5zm7 453c3,0 4,1 6,2 5,-2 7,-8 9,-13 8,2 23,-5 29,6 1,-6 5,-9 4,-17 -7,-1 -14,-2 -17,-9 5,-4 6,-11 9,-16 3,6 14,2 20,2 -1,-10 5,-12 6,-18 -13,-4 -9,8 -16,10 -13,0 -19,-2 -22,-9 -13,-27 29,-14 43,-21 3,0 2,4 6,3 7,-4 9,-13 14,-20 -14,7 -23,2 -36,-4 12,-9 34,-28 42,-3 3,-9 9,-14 13,-22 -22,3 -53,9 -64,-7 5,-16 25,-22 33,-9 6,-5 23,-6 29,0 4,-2 10,-2 11,-8 -12,3 -26,0 -24,-16 7,-1 9,-8 18,-7 2,7 15,3 17,11 5,0 5,-4 11,-4 3,-16 -15,-12 -17,-24 -12,5 -26,4 -31,-7 -17,3 -24,-4 -33,-9 -8,4 -21,1 -25,-6 -2,-19 21,-17 31,-10 1,3 -2,12 2,12 3,-8 13,-9 22,-12 3,4 9,5 9,12 8,0 10,-5 20,-3 4,7 9,12 16,16 2,-5 10,-3 16,-4 1,-21 -31,-2 -30,-25 -12,4 -26,-1 -28,-13 6,-5 12,-11 20,-14 3,8 17,6 13,22 6,-3 5,0 9,-2 -6,-15 -12,-30 -20,-44 -7,0 -11,3 -20,2 -6,-4 -10,-11 -9,-18 -15,8 -31,9 -47,14 -2,-8 -12,-11 -8,-20 -10,-2 -16,-8 -27,-9 -8,7 -15,14 -20,24 4,0 4,5 7,5 2,-17 28,-20 35,-7 2,10 -4,12 -7,16 -12,1 -19,-3 -26,-7 0,28 -35,3 -38,27 0,5 5,-2 7,-2 21,16 -3,36 -22,28 -3,11 -8,20 -10,33 11,-6 26,-1 27,9 1,15 -23,13 -33,11 -7,21 3,43 0,61 6,-8 36,-13 35,6 4,2 7,-5 9,0 -13,5 -27,19 -44,7 -3,13 4,16 6,29 5,-4 24,-6 27,2 -1,12 -3,23 -18,20 -1,5 -1,13 -2,22 7,3 27,-3 31,9 -4,1 -9,11 -4,15 3,-19 38,-23 36,3zm-111 -520c0,-10 25,-11 24,0 1,8 -5,9 -7,14 9,5 16,-2 20,-7 5,7 17,6 13,22 7,-2 8,1 14,-4 -12,-26 40,-16 20,4 -7,0 -15,0 -20,-2 1,5 6,7 6,13 -2,4 -7,4 -8,9 4,5 12,6 19,9 -11,-13 4,-23 21,-20 0,20 39,11 29,35 12,0 11,-12 20,-13 8,5 19,7 22,16 1,-20 19,-16 31,-9 -1,5 3,5 2,9 8,-1 15,2 16,-9 -4,0 -7,-2 -9,-5 1,-8 0,-16 8,-17 3,7 18,2 21,8 4,-16 39,-5 24,12 9,2 13,-4 9,-11 14,-17 32,6 42,-9 -9,1 -15,-4 -11,-12 -10,-3 -5,8 -9,11 -8,-4 -20,-2 -24,-10 -19,15 -41,-2 -67,0 1,7 8,7 5,17 -8,6 -22,3 -27,-4 0,-4 0,-9 2,-11 -12,-1 -24,-2 -27,-12 -25,-2 -37,-17 -64,-17 -4,-3 -7,-7 -9,-11 -10,10 -23,2 -31,-5l0 13c-4,3 -14,0 -16,5 2,-10 -13,-3 -13,-5 8,-4 -3,-7 0,-17 1,-3 9,1 7,-5 -11,-4 -24,-23 -34,-15 5,1 6,7 11,9 -2,7 -1,11 -8,15 -5,-3 -11,-5 -18,-2 9,7 4,8 16,11zm-21 -17c-1,-12 7,-16 16,-19 -6,-2 -12,-7 -7,-15 -7,3 -5,-1 -11,-2 9,17 -19,29 2,36zm-35 -34c3,0 6,0 6,4 10,-1 14,-6 21,-10 -3,-6 5,-19 -9,-21 -1,5 3,5 2,11 -3,5 -13,15 -22,3 -1,6 4,7 2,13zm-9 -22c3,-12 14,-11 24,-13 -9,0 -6,-12 -17,-11 -1,6 2,7 2,11 -3,3 -9,2 -14,2 -1,6 1,9 5,11zm473 107c-4,-1 2,-2 -2,-5 -3,6 -11,3 -7,13 -8,-1 -18,13 -24,3 -5,2 3,5 -2,8 -8,4 -17,8 -23,14 -27,-3 -49,25 -77,27 -1,1 -4,-3 -3,-3 -1,0 -4,6 -6,7 -3,2 -19,4 -27,4 -16,0 -32,-6 -47,-4 -5,0 -5,-4 -8,-5 -46,2 -124,0 -145,-35 -14,-7 -33,-25 -53,-33 -2,-13 -13,-10 -16,-25 -39,-16 -41,-70 -80,-86 5,-8 15,-6 25,-5 5,0 2,-9 9,-7 -4,-5 -8,-16 0,-20 -2,-8 -8,-12 -11,-20 2,-4 5,-7 6,-11 -7,-1 -10,3 -22,2 1,-5 -4,-4 -4,-8 1,-11 14,-15 24,-12 2,3 -1,8 4,12l11 0c21,21 55,30 72,55 22,4 39,12 53,23 2,-2 9,-2 11,0 0,2 -2,2 -4,2 12,4 30,10 44,17 4,-6 9,0 15,0 33,0 68,-17 103,-8 17,5 31,16 48,17 11,0 23,-8 34,-8 5,0 9,5 15,6 5,0 9,-4 14,-6 22,-4 43,-2 60,-18 4,4 8,2 9,4 3,-1 1,-3 -1,-4 34,-18 73,-23 98,-51 0,-5 -8,-3 -13,-3 -2,-5 -4,-8 -4,-15 5,-2 10,-2 9,-9 18,-1 16,15 28,11 0,-5 -7,-3 -7,-7 -1,-22 28,-15 34,-29 -9,-23 14,-20 20,-33 -2,-3 -9,-2 -13,-4 -1,-4 -2,-8 -1,-14 7,-1 14,-10 20,-2 8,-2 8,-10 9,-15 -6,-4 -15,-4 -22,-7 -6,-15 13,-21 25,-15 6,-1 3,-12 11,-12 0,-9 -7,-11 -16,-9 -2,-9 2,-12 3,-19 11,0 19,1 24,6 2,8 0,6 -2,13 7,3 13,6 17,12 0,5 -9,-1 -6,6 5,4 18,0 18,9 6,-6 18,-7 24,0 7,-4 9,-13 15,-18 -19,-10 -35,6 -48,-11 2,-13 18,-12 28,-13 -1,4 0,7 1,9 12,-2 16,4 19,11 8,-3 7,-14 12,-20 -4,-12 -20,7 -23,-13 3,-11 30,-17 29,2 11,-10 14,-28 29,-34 -2,-6 -2,-6 0,-11 6,-2 5,0 9,-2 -8,-4 1,-12 4,-17 -14,2 -19,-1 -20,-16 11,-5 21,-5 36,0 5,0 6,-3 7,-5 0,-6 -11,8 -11,-2 2,0 4,0 4,2 -1,-13 8,-17 15,-28 9,4 16,3 18,17 12,-5 29,-11 43,2 13,-12 42,13 46,29 6,2 10,7 16,9 0,3 -6,1 -5,5 2,6 6,-2 11,0 0,3 6,19 -2,17 13,5 17,31 27,45 -1,1 -3,2 -5,2 9,3 18,7 16,22 6,-8 9,17 13,25 6,12 21,19 24,33 1,0 1,-2 1,-4 35,31 75,58 117,82 0,2 -2,2 -4,2 10,3 32,5 33,22 4,0 10,3 9,9 4,-1 -2,-3 2,-6 17,10 29,26 49,33 2,3 2,5 0,7 38,13 57,43 89,57 0,2 0,3 -2,3 3,2 16,4 11,11 9,1 14,6 16,13 23,2 36,32 57,44 5,3 18,3 16,13 23,13 39,35 58,41 -4,6 -6,6 -7,13 6,-3 5,-6 7,-9 9,1 8,7 10,11 18,0 15,9 18,18 4,0 4,-5 0,-5 11,-1 24,13 38,16 -8,18 25,14 22,22 0,-1 4,6 5,5 0,8 -6,10 -5,19 -4,3 -3,-1 -7,0 -1,3 1,3 3,3 -2,4 -6,13 -11,9 -1,13 -7,21 -18,24 -14,32 -40,52 -56,82 -14,7 -25,16 -31,31 -43,15 -53,63 -93,82 -21,31 -49,55 -78,78 -2,0 -2,-2 -2,-4 -10,16 -28,31 -44,35 -9,8 -20,21 -36,27 -14,21 -35,34 -58,46 -24,13 -49,36 -73,43 -41,36 -112,55 -166,87 -40,9 -70,27 -109,37 -2,1 -3,3 -3,5 -76,22 -145,49 -215,62 -9,7 -26,6 -33,15 -8,-8 -20,1 -29,3 -11,-6 -19,6 -29,8 -9,1 -20,-3 -31,-2 -15,2 -37,13 -56,14 -11,1 -22,-4 -33,-3 -10,1 -17,7 -26,9 -29,5 -62,-3 -96,3 -11,3 -30,5 -42,-7l0 -9c-3,-5 -11,-5 -18,-5 -1,12 -26,15 -33,5 1,-12 22,-20 29,-9 5,-6 12,-11 20,-13 0,-6 1,-10 2,-14 -2,-5 -8,0 -11,0 -1,-2 -1,-5 -3,-6 0,-10 10,-12 14,-18 -4,-5 1,-13 -2,-16 -4,3 -6,8 -9,12 -9,-2 -20,-3 -23,-10 4,-14 20,-15 32,-8 5,-1 -2,-7 0,-12 -8,0 -17,-1 -23,1 -1,-3 -5,-3 -6,-7 1,-13 16,-21 27,-18 3,6 -5,1 -3,7 12,-6 4,-36 5,-54 -5,-2 -5,3 -11,1 1,-3 -1,-3 -3,-3 -2,-14 7,-17 16,-20 -1,-18 -4,-24 -4,-42 -7,-6 -14,-12 -16,-24 2,-3 7,-4 9,-7 0,-5 -3,-6 -3,-9 -8,1 -19,-2 -26,-6 0,-10 7,-13 13,-18 -3,-11 -17,-12 -22,-22 -15,5 -7,19 4,24 1,15 -24,13 -29,6 -1,-6 1,-10 5,-11 -4,-8 -19,-4 -18,-17 -6,3 -6,12 -7,18 3,4 9,6 16,6 5,11 -5,14 -7,22 -9,-10 -22,-6 -24,7 8,3 19,10 11,24 -9,4 -17,4 -26,0 -5,5 -6,15 -11,21 2,3 5,4 8,6 3,-5 5,-4 7,-13 10,-5 13,-1 24,0 9,19 -17,28 -26,15 -5,5 5,9 0,16 -8,3 -15,3 -23,2 -6,0 -4,7 -4,13 10,-1 12,-2 20,0 6,15 -7,17 -13,25 -4,-3 -13,-1 -16,-5 -7,17 -15,31 -18,47 5,6 13,10 18,16 1,16 -17,15 -26,9 -7,7 -4,13 -5,24 9,0 14,-4 20,2 5,-1 6,-6 5,-13 9,-4 18,-7 29,-3 -1,6 5,5 4,10 -5,12 -21,13 -33,6 -4,3 -3,12 -5,18 -11,5 -23,7 -31,-2 -3,22 -21,58 -42,33 5,-12 3,-25 7,-36 2,-4 10,-7 11,-11 1,-1 -3,-4 -1,-6 1,-3 6,-3 7,-5 3,-7 3,-22 5,-31 3,-10 9,-19 9,-31 13,-23 18,-45 26,-69 7,-24 23,-45 36,-67 10,-17 16,-37 26,-59 5,-12 7,-26 11,-43 -18,-57 -25,-110 -28,-166 10,-16 15,-36 19,-58 18,-30 35,-61 54,-89 -5,-20 34,-61 62,-57 9,2 27,17 16,28 -1,5 6,4 4,11 -1,7 -6,11 -11,14 15,10 35,17 58,9 3,-25 -18,-27 -9,-53 10,-3 30,5 24,17 6,3 8,11 5,20 1,0 3,-3 2,-4 11,18 15,52 33,66 1,17 9,27 20,34 5,25 23,36 31,58 11,5 22,21 32,33 10,11 34,27 42,38 0,1 4,15 4,15 -5,17 -50,10 -56,-6 -40,55 -84,104 -137,144 5,75 2,152 7,229 37,-67 67,-142 115,-198 16,-35 38,-65 60,-94 -2,-8 15,-21 24,-35 4,-6 4,-15 7,-18 2,-2 5,0 5,0 6,-9 8,-23 15,-33 5,-7 14,-12 18,-20 5,-8 5,-18 9,-25 4,-7 13,-10 17,-17 2,-4 1,-10 3,-14 10,-16 27,-35 39,-51 10,-16 16,-45 27,-48 -2,-5 2,-6 2,-11 44,-61 73,-132 118,-196 3,1 4,4 9,4 -3,-2 -3,-6 -6,-8 15,-28 31,-55 44,-82 1,-1 6,-9 6,-9 4,-5 9,-2 7,-12l7 0c-1,-7 2,-9 2,-15 10,-10 21,-39 27,-49 9,-16 11,-37 24,-49l0 -13c4,-3 5,-9 9,-13 4,-26 10,-50 5,-74 -2,-14 -11,-30 -5,-38 -4,-7 -9,-17 -5,-26 2,-6 -6,-1 -4,-7 0,-7 1,-1 5,-2 -7,-4 -4,-17 -9,-24 -5,-1 -3,5 -9,4 7,-4 -1,-5 -7,-5 4,1 5,5 7,9 -1,2 -2,3 -5,3 5,17 -17,21 -18,37 -3,-3 -10,-2 -11,1 1,5 3,-4 9,-1 -9,22 -26,30 -29,54 -3,3 -9,1 -9,6 0,2 3,2 3,0 -8,7 -14,32 -31,36 -11,40 -45,55 -60,91 -7,1 -9,15 -16,11 -6,12 -13,23 -27,27 -1,5 3,4 0,8 -11,-1 -14,7 -19,12 -5,2 -3,-3 -7,-3 -1,5 5,3 4,9 -14,8 -19,25 -35,31 1,1 2,3 2,5 -7,-1 -6,8 -11,4 -6,5 -11,18 -18,16 -4,4 -6,9 -9,13 -30,9 -38,49 -73,47 2,3 2,5 0,7z"/>
  <path class="fil1" d="M4852 2983c4,1 10,-8 21,-6 3,3 3,8 8,8 -3,14 -19,23 -31,12 -3,-7 8,-10 2,-14z"/>
  <path class="fil1" d="M5055 3998c1,4 3,7 4,11 11,-3 24,3 24,18 -9,7 -29,2 -30,-11 -5,9 -14,-1 -25,-2 -3,-13 14,-24 27,-16z"/>
  <path class="fil1" d="M5497 3419c0,-6 8,-4 9,-9 4,3 2,11 6,13 -2,1 -12,3 -15,-4z"/>
  <path class="fil1" d="M5785 2934c12,4 6,26 13,36 6,6 15,9 18,18 4,18 -8,61 -24,75 -5,4 -11,3 -14,7 -2,14 -9,23 -17,31 -16,2 -21,-5 -27,-16 -6,-56 36,-43 51,-77l0 -3c-2,-1 -2,0 -2,2 5,-15 -14,-48 2,-73z"/>
  <path class="fil1" d="M4380 2166c-50,-6 7,-44 9,-16 1,9 -4,9 -9,16z"/>
  <path class="fil1" d="M4970 4285c7,-7 17,-13 29,-16 11,8 4,17 2,26 -13,3 -23,-4 -31,-10z"/>
  <path class="fil1" d="M5030 3328c3,8 11,7 11,15 -3,28 -60,-12 -11,-15z"/>
  <path class="fil1" d="M5110 2721c1,9 -11,5 -9,14 -6,-2 -12,-1 -17,2 -22,-15 18,-35 26,-16z"/>
  <path class="fil1" d="M5110 2332c8,-8 18,-5 29,-2 0,8 2,9 0,16 -14,4 -29,1 -29,-14z"/>
  <path class="fil1" d="M5141 3723c-51,5 2,-38 7,-12 1,4 -8,4 -7,12z"/>
  <path class="fil1" d="M5155 3703c2,-2 2,-6 2,-11 7,-4 20,-6 24,-3 9,10 -5,16 -11,22 -3,-5 -7,-8 -15,-8z"/>
  <path class="fil1" d="M5203 2619c5,-1 2,6 9,4 -6,-4 -7,-13 -2,-19 14,0 16,0 25,4 1,7 0,12 -1,16l-11 0c3,8 10,5 16,2 17,21 43,-27 58,6 6,-2 15,-2 17,5 10,-9 22,5 31,-2 7,8 29,-4 38,9 21,-6 47,11 73,11 1,3 1,7 5,8 4,0 6,-1 5,-4 7,1 12,5 15,9 -5,21 -24,1 -33,13 -21,-10 -41,-3 -53,-15 -30,7 -62,-8 -85,6 -1,5 4,3 5,5 -2,5 -4,10 -7,15 -17,3 -22,-6 -29,-13 3,-2 5,-6 2,-9 -12,5 -9,15 -16,25 -13,0 -18,-7 -24,-14 -4,1 -6,5 -13,4 2,7 2,17 -3,21 -9,2 -9,-6 -19,-3 -1,-5 -3,-10 -5,-13 7,-5 0,-19 -7,-20 -2,-16 -10,-43 9,-51z"/>
  <path class="fil1" d="M5199 2990c6,-5 22,-7 29,0 7,25 -35,24 -29,0z"/>
  <path class="fil1" d="M5486 3005c4,4 7,12 4,18 -10,0 -10,6 -20,2 -7,-16 3,-22 16,-20z"/>
  <path class="fil1" d="M5479 3612c12,1 13,1 20,4 -6,5 -3,8 -5,16 -19,10 -29,-10 -15,-20z"/>
  <path class="fil1" d="M5505 2586c6,15 -5,20 -13,20 -23,0 -12,-29 13,-20z"/>
  <path class="fil1" d="M5510 3643c4,-3 0,-4 0,-9 9,-7 22,-6 31,-2 -1,6 -7,7 -7,13 -10,-1 -19,5 -24,-2z"/>
  <path class="fil1" d="M5523 3438c7,0 13,0 18,-2 2,4 5,7 4,14 -11,11 -32,4 -22,-12z"/>
  <path class="fil1" d="M5536 2552c-1,-7 5,-7 5,-13 12,-2 35,17 4,22 0,-6 -6,-7 -9,-9z"/>
  <path class="fil1" d="M5545 3614c0,-5 7,-2 5,-9 7,1 7,1 15,0 7,8 4,19 -8,20 -3,-4 -8,-7 -12,-11z"/>
  <path class="fil1" d="M5543 3521l0 -11c11,-5 27,-4 27,11 -7,-1 -7,6 -11,8 -11,0 -9,-8 -16,-8z"/>
  <path class="fil1" d="M5579 3610c4,-14 29,-14 28,2 -10,5 -21,8 -28,-2z"/>
  <path class="fil1" d="M6787 3153c-22,87 -22,203 -69,280 -1,47 -8,91 -25,121 -3,6 -12,8 -13,17 -10,49 -33,75 -45,121 -4,14 0,29 -4,41 -1,4 -11,9 -14,14 -10,23 -16,44 -24,69 -11,-1 -9,10 -17,11 -13,21 -13,50 -24,72 -3,5 -14,7 -17,14 -29,49 -63,97 -97,145 -24,33 -39,73 -59,100 -27,38 -82,56 -96,100 -59,32 -94,91 -149,135 -20,16 -44,23 -69,41 -14,11 -21,30 -34,42 -26,22 -62,31 -94,51 -32,21 -57,55 -93,69 -8,4 -19,1 -27,4 -19,6 -41,30 -66,38 -16,5 -38,10 -52,17 -27,15 -69,40 -114,45 -44,40 -128,40 -179,73 -54,-4 -115,14 -159,31 -59,-5 -124,21 -169,3 -20,3 -43,14 -66,14 -20,-1 -40,-15 -62,-17 -47,-6 -107,24 -135,-14 -76,18 -170,-29 -245,-24 -20,-16 -43,-31 -72,-28 -61,-41 -129,-73 -218,-93 -11,-3 -17,-10 -24,-17 -37,-4 -70,-11 -83,-38 -21,-16 -65,-27 -86,-49 -5,-5 -4,-15 -17,-17 -34,-6 -56,0 -83,-28 -9,-8 -11,-20 -14,-38 -47,-8 -57,-55 -104,-55l0 -14c-35,3 -65,-76 -110,-89 -26,-50 -77,-73 -114,-111 -3,-15 -1,-15 -3,-27 -46,-56 -93,-110 -142,-163 -23,-86 -86,-148 -103,-231 -58,-33 -42,-138 -94,-176 -9,-40 -9,-76 -24,-111 -5,-11 -17,-18 -21,-31 -4,-16 5,-34 4,-51 -5,-55 -43,-114 -31,-173 -5,-7 -3,-20 -7,-28 0,-10 4,-16 7,-24 -29,-62 -26,-133 -11,-200 -2,-55 3,-102 4,-159 1,-32 -7,-56 7,-86 14,-33 24,-95 27,-152 15,-43 33,-62 35,-121 18,-16 15,-54 34,-69 -8,-13 -9,-50 11,-41 3,-41 5,-84 48,-104 9,-114 118,-173 145,-269 65,-50 103,-128 156,-190 45,-31 81,-73 113,-117 36,-17 73,-48 97,-56 33,-54 111,-59 121,-100 7,12 5,1 17,0 -1,4 -7,3 -7,7 17,0 25,-10 28,-24 29,-16 54,-22 86,-38 5,-2 52,-24 83,-45 17,-12 29,-23 45,-31 42,-20 116,-44 176,-59 8,-2 9,-12 14,-17 22,4 30,-6 41,-14 129,-24 252,-50 377,-69 2,13 10,-1 17,7 51,-9 116,-25 159,0 22,-3 46,-18 72,-14 12,2 20,14 31,18 48,13 101,-13 138,-4 8,5 11,15 18,21 11,1 19,-1 27,-4 10,0 12,9 21,11 86,6 154,23 217,58 83,10 141,44 197,80 68,25 133,53 180,100 5,0 13,2 13,-3 21,21 52,39 87,55 42,48 100,81 138,134 4,5 16,2 21,7 46,73 142,118 179,211 30,29 63,57 73,97 57,46 72,136 120,182 22,57 74,125 87,201 1,5 6,0 7,-4 3,36 24,68 31,104 2,13 -3,26 0,38 3,15 14,24 17,38 7,37 5,78 17,124 3,10 5,25 17,31 -15,56 35,128 14,180 3,-2 6,-3 7,-7 3,62 -2,125 -7,179 1,4 7,3 11,4 1,8 -10,4 -11,10 15,10 -3,54 11,79zm-1319 -2012c-4,9 -18,0 -24,0 8,-7 18,-8 24,0zm680 328c-7,4 -27,-8 -28,-21 11,5 17,15 28,21zm31 21c-8,9 -18,-8 -24,-11 7,-9 14,11 24,11zm753 1570c-3,-6 -11,-5 -14,-10 19,-37 -17,-75 10,-97 -1,-28 0,-51 -14,-72 -1,-9 14,-3 11,-14 -17,-69 -7,-127 -31,-180 8,-9 5,-61 0,-72 -2,-3 -10,-3 -11,-7 -1,-3 4,-13 4,-17 -1,-6 -9,-11 -11,-17 -1,-6 6,-14 4,-21 -4,-14 -23,-29 -14,-52 0,-9 -14,-5 -14,-14 7,-24 -17,-51 -10,-76 -8,-7 -13,-16 -7,-27 -11,-20 -37,-44 -35,-56 2,0 4,-2 0,-3 0,3 -2,4 -7,3 5,-4 5,-12 -3,-13 -1,4 1,9 -3,10 8,-68 -59,-127 -52,-187 -18,2 -9,-30 -35,-27 12,-24 -45,-46 -31,-83 -34,-24 -52,-65 -69,-107 -22,-17 -41,-47 -41,-76 -40,-18 -52,-81 -97,-83 -6,-14 -21,-28 -14,-45 -26,-18 -33,-15 -41,-51 -33,-15 -53,-42 -83,-59 3,-14 -5,-18 -3,-31 -8,-2 -18,-7 -25,0 18,-14 -11,-16 -17,-28 -15,-2 3,7 -7,7 -19,-23 -38,-47 -72,-55 -6,-28 -29,-45 -52,-45 -9,-23 -44,-29 -62,-55l-17 0 0 -11c-75,-23 -116,-80 -183,-110l0 -10c-34,-2 -55,-16 -87,-21 -56,-10 -91,-45 -134,-66 -32,-15 -72,-2 -90,-34 -38,-6 -65,-10 -90,-7 -24,-42 -75,-20 -110,-28 -11,-2 -19,-11 -31,-14 -28,-7 -63,-11 -83,-17 -36,-10 -121,-9 -159,4 -25,-18 -100,-28 -121,0 -12,-14 -47,-6 -72,-11 -12,10 -24,7 -28,7 -46,-1 -76,15 -117,17 -16,1 -31,-2 -45,0 -28,5 -54,22 -80,25 -16,1 -33,-5 -48,-11 -40,13 -74,38 -117,38 -47,1 -66,24 -101,31 -27,6 -58,16 -89,21 1,0 -9,3 -11,3 -45,19 -77,66 -127,66 -26,22 -54,41 -83,59 -64,2 -98,77 -162,79 -2,15 -24,11 -32,21 -5,32 -48,50 -86,69 -35,35 -59,81 -110,100 -44,53 -96,98 -145,145 -17,54 -57,84 -87,124 -1,36 -35,38 -41,69 -49,25 -47,101 -90,131 -5,59 -45,82 -55,135 -9,5 -16,12 -24,17 -5,18 -8,36 -21,45 4,54 -39,78 -31,125 -40,57 -46,155 -55,217 -32,55 -20,124 -24,190 -2,28 -19,56 -21,83 -1,12 7,26 7,38 -1,45 -19,89 -17,127 23,41 10,83 13,125 3,35 17,70 21,107 4,33 0,68 4,103 2,27 15,44 24,62 25,57 19,130 38,194 18,35 43,74 55,114 3,12 0,24 3,34 5,14 21,23 28,38 6,15 3,33 10,52 33,11 36,52 49,83 7,6 4,0 13,0 23,46 61,77 80,128 8,-1 13,0 14,6 -5,33 22,60 51,70 16,29 35,55 49,86 6,1 9,-5 10,0 62,113 164,185 249,276 72,9 116,74 176,93 0,10 6,15 7,24 56,24 94,65 158,80 4,4 4,12 7,17 21,7 47,9 69,14 24,50 91,36 121,79 79,16 159,68 249,69 55,37 123,24 200,35 10,10 36,4 52,0 37,42 130,3 186,7 45,3 81,18 121,14 34,-4 68,-22 104,-21 9,0 17,8 27,7 53,-5 106,-28 162,-24 50,-31 104,-33 159,-38 86,-9 152,-77 235,-94 23,-25 60,-36 93,-51 37,-17 70,-46 111,-56 24,-29 57,-48 100,-58 2,-10 5,-16 9,-18 3,-2 5,-2 8,-2l33 -31c0,0 -1,-1 -2,-1 35,-76 135,-65 156,-152 61,-29 88,-91 134,-135 15,-13 37,-18 35,-45 25,-31 65,-65 72,-103 9,-7 17,-15 28,-21 2,-15 -7,3 -7,-7 50,-33 47,-99 100,-131 9,-73 65,-106 76,-197 9,-4 13,-14 24,-17 1,-9 2,-19 7,-24 4,-11 -11,-3 -7,-14 14,-12 11,-22 14,-48 12,-26 36,-44 28,-69 2,-5 13,-1 13,-7 0,-7 -5,-23 -7,-28 1,9 12,1 14,0 10,-47 47,-96 28,-152 5,0 7,2 10,4 8,-38 25,-56 7,-93 17,3 8,-20 17,-25 -20,-8 1,-34 4,-27 -11,-27 15,-42 0,-66 4,0 10,1 10,-3 -15,-41 3,-106 11,-149z"/>
 </g>
</svg>
