<?xml version="1.0" encoding="UTF-8" standalone="no"?>
<!-- Generator: Adobe Illustrator 27.1.1, SVG Export Plug-In . SVG Version: 6.00 Build 0)  -->

<svg
   version="1.1"
   id="Vrstva_2_00000048475967631868013000000000716674992123867064_"
   x="0px"
   y="0px"
   viewBox="0 0 1087.4054 242.69381"
   xml:space="preserve"
   width="1087.4054"
   height="242.6938"
   xmlns="http://www.w3.org/2000/svg"
   xmlns:svg="http://www.w3.org/2000/svg"><defs
   id="defs7" />
<style
   type="text/css"
   id="style1">
	.st0{fill:#2A2459;}
</style>
<g
   id="modra"
   transform="matrix(8.5757526,0,0,8.5757526,0.85757526,0)">
	<g
   id="g7">
		<path
   class="st0"
   d="m 63.3,0 c 19.3,0 38.6,0 57.9,0 0.8,0 1.5,0.1 2.2,0.4 1.7,0.7 2.8,2 3.2,3.8 0.1,0.3 0.1,0.6 0.1,0.9 0,6 0,12.1 0,18.1 0,2.4 -1.7,4.5 -4.1,5 -0.4,0.1 -0.8,0.1 -1.3,0.1 -38.7,0 -77.3,0 -116,0 -1.1,0 -2.1,-0.2 -3,-0.8 -1.6,-1 -2.4,-2.4 -2.4,-4.3 0,-2.8 0,-5.6 0,-8.4 0,-3.2 0,-6.4 0,-9.6 C -0.1,2.5 1.8,0.5 4.1,0.1 4.5,0 4.7,0 5,0 5.2,0 5.5,0 5.7,0 24.9,0 44.1,0 63.3,0 Z m 0,27.2 h 2.8 c 18.3,0 36.6,0 54.9,0 0.3,0 0.6,0 0.9,0 2,-0.3 3.6,-1.9 3.6,-4 0,-6 0,-12 0,-18 0,-0.3 0,-0.6 -0.1,-0.8 -0.3,-1.5 -1.2,-2.5 -2.7,-3 -0.5,-0.2 -1.1,-0.2 -1.7,-0.2 -38.5,0 -77.1,0 -115.7,0 -0.1,0 -0.2,0 -0.3,0 -0.2,0 -0.5,0 -0.7,0.1 C 2.6,1.5 1.1,3 1.1,5.1 c 0,6 0,12 0,18 0,0.3 0,0.5 0.1,0.8 0.3,1.5 1.2,2.4 2.5,3 0.6,0.2 1.1,0.3 1.7,0.3 19.4,0 38.7,0 57.9,0 z"
   id="path1" />
		<path
   class="st0"
   d="m 9.5,12.4 v 0.4 c 0,3.1 0,6.1 0,9.2 0,0.5 -0.2,0.9 -0.5,1.3 C 8.5,23.7 8,24 7.4,24.1 6.3,24.2 5.1,23.3 5.1,22.1 5.1,17 5.1,11.9 5.1,6.8 5.1,6 5.4,5.4 6,5 6.8,4.4 7.7,4.3 8.7,4.3 c 0.5,0 0.9,0.1 1.4,0.3 0.7,0.3 1.1,0.7 1.4,1.5 1.2,3.6 2.4,7.1 3.6,10.7 0,0.1 0.1,0.2 0.2,0.3 0,-0.1 0.1,-0.2 0.1,-0.3 1,-2.9 2,-5.8 2.9,-8.7 C 18.5,7.4 18.8,6.7 19,6 19.2,5.5 19.5,5.1 20,4.8 20.4,4.6 20.8,4.5 21.3,4.4 22.2,4.2 23,4.3 23.8,4.6 c 0.3,0.1 0.5,0.3 0.8,0.4 0.4,0.4 0.7,1 0.7,1.7 0,0.8 0,1.6 0,2.4 0,4.3 0,8.6 0,12.9 0.2,1.4 -1.6,2.7 -3.1,1.9 -0.3,-0.2 -0.6,-0.4 -0.9,-0.7 -0.3,-0.3 -0.5,-0.7 -0.5,-1.2 0,-3.1 0,-6.1 0,-9.2 v -0.4 h -0.1 c 0,0.1 -0.1,0.2 -0.1,0.3 -1.1,3.1 -2.1,6.1 -3.2,9.2 -0.1,0.4 -0.3,0.7 -0.5,1 -0.3,0.6 -0.8,0.9 -1.4,1 C 15,24 14.6,23.9 14.1,23.8 13.8,23.7 13.5,23.5 13.3,23.3 13,22.9 12.8,22.5 12.7,22 11.6,19 10.6,15.9 9.5,12.8 c 0.1,-0.2 0.1,-0.3 0,-0.4 z"
   id="path2" />
		<path
   class="st0"
   d="m 120.1,13.7 c 0.1,0.1 0.1,0.1 0.2,0.2 0.1,0.1 0.2,0.1 0.3,0.2 0.6,0.4 1,0.9 1.2,1.5 0.1,0.2 0.1,0.5 0.1,0.7 0,0.4 0.1,0.8 0.1,1.2 0,0.9 0.2,1.8 0.4,2.6 0.1,0.5 0.2,1 0.1,1.5 -0.2,0.9 -0.8,1.5 -1.7,1.7 -0.5,0.1 -1,0.1 -1.5,-0.1 -0.9,-0.4 -1.5,-1 -1.6,-2 -0.1,-0.6 -0.1,-1.1 -0.2,-1.7 -0.1,-0.7 -0.1,-1.4 -0.3,-2.1 -0.1,-0.3 -0.2,-0.6 -0.4,-0.9 -0.2,-0.3 -0.4,-0.5 -0.8,-0.6 -0.5,-0.1 -1,-0.2 -1.5,-0.2 -1.2,0 -2.4,0 -3.7,0 -0.1,0 -0.2,0 -0.4,0 0,0.1 0,0.3 0,0.4 0,1.5 0,3.1 0,4.6 0,0.4 0,0.8 -0.1,1.2 -0.3,1 -0.9,1.5 -1.9,1.5 -1.7,0.1 -2.6,-1.2 -2.7,-2.4 0,-0.1 0,-0.3 0,-0.5 0,-4.5 0,-8.9 0,-13.4 0,-0.7 0.1,-1.3 0.4,-2 0.2,-0.5 0.5,-0.8 1,-1 0.7,-0.2 1.3,-0.3 2,-0.3 2.8,0 5.7,0 8.6,0 0.3,0 0.7,0 1,0.1 1.1,0.2 2,0.8 2.8,1.7 0.6,0.7 0.9,1.5 1.1,2.4 0.2,1 0.2,2 -0.1,2.9 -0.3,1.1 -1,2 -2.1,2.5 -0.3,0.3 -0.3,0.3 -0.3,0.3 z m -9.5,-1.5 c 0.1,0 0.1,0 0.2,0 1.5,0 3.1,0 4.6,0 0.3,0 0.7,-0.1 1,-0.2 0.5,-0.1 0.9,-0.4 1.2,-0.9 0.5,-1 0.2,-2.4 -1,-3 -0.4,-0.2 -0.9,-0.2 -1.3,-0.2 -1.5,0 -2.9,0 -4.4,0 -0.1,0 -0.2,0 -0.3,0 z"
   id="path3" />
		<path
   class="st0"
   d="m 61,14 c 0.1,0 0.1,0.1 0.2,0.1 0.1,0.1 0.2,0.2 0.3,0.2 0.6,0.4 0.9,0.9 1.2,1.5 0.1,0.1 0.1,0.3 0.1,0.4 0,0.6 0.1,1.1 0.1,1.7 0,0.6 0.1,1.2 0.2,1.8 0,0.3 0.1,0.5 0.2,0.8 0.1,0.4 0.2,0.9 0.1,1.3 -0.1,0.9 -0.8,1.5 -1.6,1.7 C 61,23.7 60.2,23.5 59.6,23 59.2,22.7 58.9,22.3 58.8,21.8 58.7,21.3 58.6,20.7 58.6,20.2 58.5,19.5 58.4,18.8 58.4,18.1 58.4,17.7 58.2,17.3 58,17 57.8,16.6 57.5,16.4 57.1,16.3 56.4,16 55.9,16 55.4,16 c -1.2,0 -2.5,0 -3.7,0 -0.1,0 -0.2,0 -0.4,0 0,0.1 0,0.3 0,0.4 0,1.5 0,3 0,4.6 0,0.3 0,0.6 -0.1,1 -0.3,1.4 -1.3,1.9 -2.5,1.7 -1.1,-0.1 -1.9,-1 -2.1,-2.1 0,-0.2 -0.1,-0.4 -0.1,-0.7 0,-4.4 0,-8.8 0,-13.3 0,-0.7 0.1,-1.3 0.4,-2 0.2,-0.4 0.4,-0.7 0.8,-0.8 0.6,-0.3 1.3,-0.4 1.9,-0.4 3,0 6,0 9,0 1.8,0 3.1,0.8 4,2.4 0.8,1.5 0.9,3 0.4,4.6 -0.3,1.1 -1,1.9 -2,2.4 0,0 -0.1,0 -0.1,0.1 z m -9.5,-1.5 c 0.1,0 0.2,0 0.3,0 1.5,0 2.9,0 4.4,0 0.3,0 0.6,0 0.9,-0.1 0.7,-0.1 1.2,-0.5 1.5,-1.2 C 59,10.2 58.7,8.9 57.4,8.4 57,8.2 56.5,8.2 56.1,8.2 c -1.4,0 -2.8,0 -4.3,0 -0.1,0 -0.2,0 -0.3,0 z"
   id="path4" />
		<path
   class="st0"
   d="M 33.2,8.8 V 12 c 0.1,0 0.2,0 0.4,0 2.3,0 4.7,0 7.1,0 0.3,0 0.5,0 0.8,0.1 0.8,0.2 1.3,1 1.3,2 -0.1,0.9 -0.7,1.5 -1.5,1.6 -0.2,0 -0.3,0 -0.5,0 -2.3,0 -4.7,0 -7,0 -0.1,0 -0.3,0 -0.4,0 -0.1,0.2 -0.1,3.5 0,4.1 0.1,0 0.2,0 0.4,0 2.7,0 5.5,0 8.2,0 0.2,0 0.4,0 0.5,0 0.9,0.2 1.5,0.9 1.6,1.7 0,0.3 0,0.5 0,0.8 -0.2,0.8 -0.8,1.4 -1.8,1.4 -0.1,0 -0.2,0 -0.3,0 -3.5,0 -7,0 -10.5,0 -0.5,0 -0.9,0 -1.4,-0.2 -0.7,-0.2 -1.2,-0.7 -1.4,-1.4 -0.1,-0.4 -0.1,-0.8 -0.1,-1.2 0,-1.5 0,-3.1 0,-4.6 0,-2.8 0,-5.7 0,-8.5 0,-0.5 0,-1.1 0.2,-1.6 0.2,-0.8 0.7,-1.2 1.5,-1.4 0.4,-0.1 0.8,-0.2 1.2,-0.2 3.3,0 6.6,0 9.9,0 0.3,0 0.6,0.1 1,0.1 1.2,0.3 1.6,1.1 1.5,2.2 -0.1,0.7 -0.5,1.2 -1.1,1.4 -0.5,0.2 -1,0.2 -1.5,0.2 -2.5,0 -5,0 -7.5,0 -0.3,0.3 -0.4,0.3 -0.6,0.3 z"
   id="path5" />
		<path
   class="st0"
   d="m 90.2,11.1 c 0,1.6 0,3.1 0,4.7 0,0.5 0.1,1 0.1,1.4 0.1,0.5 0.3,1 0.7,1.3 0.9,0.9 2.1,1.2 3.3,1.1 0.7,-0.1 1.4,-0.3 1.9,-0.8 0.7,-0.5 1.1,-1.2 1.1,-2.1 0,-0.6 0.1,-1.2 0.1,-1.8 0,-2.9 0,-5.8 0,-8.7 0,-0.3 0,-0.6 0.1,-1 0.1,-0.8 0.6,-1.4 1.5,-1.6 0.6,-0.1 1.2,-0.2 1.7,0 0.9,0.2 1.4,0.8 1.5,1.7 0,0.3 0.1,0.5 0.1,0.8 0,2.9 0,5.8 0.1,8.7 0,1.1 -0.1,2.2 -0.4,3.2 -0.1,0.4 -0.2,0.8 -0.4,1.1 -0.7,1.8 -2,3 -3.8,3.7 -1,0.4 -2.1,0.5 -3.2,0.6 -1.3,0.1 -2.5,0 -3.8,-0.3 -0.5,-0.1 -1,-0.3 -1.5,-0.5 -1.7,-0.7 -2.8,-2 -3.5,-3.8 -0.3,-0.9 -0.5,-1.9 -0.6,-2.9 0,-0.8 -0.1,-1.6 0,-2.4 0,-2.5 0,-4.9 0.1,-7.4 0,-0.4 0,-0.8 0.2,-1.2 0.2,-0.8 0.7,-1.2 1.5,-1.3 0.6,-0.1 1.2,-0.1 1.7,0 0.8,0.2 1.3,0.7 1.4,1.5 0.1,0.3 0.1,0.7 0.1,1 0,1.9 0,3.5 0,5 z"
   id="path6" />
		<path
   class="st0"
   d="m 76.9,12 c 0.1,0.1 0.1,0.2 0.2,0.3 1.9,2.6 3.8,5.3 5.7,7.9 0.2,0.2 0.3,0.4 0.4,0.6 0.3,0.5 0.2,1 -0.1,1.4 -0.6,0.7 -1.3,1.2 -2.1,1.5 -0.6,0.2 -1.1,0.1 -1.6,-0.4 -0.3,-0.3 -0.5,-0.6 -0.8,-0.9 -1.6,-2.3 -3.2,-4.6 -4.8,-6.9 -0.1,-0.1 -0.1,-0.2 -0.2,-0.3 -0.1,0.1 -0.2,0.1 -0.2,0.2 -0.5,0.5 -1.1,1 -1.6,1.5 -0.2,0.1 -0.2,0.3 -0.2,0.5 0,1.4 0,2.8 0,4.1 0,0.2 0,0.4 -0.1,0.7 -0.1,0.6 -0.5,1 -1.1,1.2 -0.8,0.3 -1.6,0.3 -2.3,0.1 -0.9,-0.3 -1.4,-1 -1.4,-1.9 0,-5.2 0,-10.4 0,-15.5 0,-0.7 0.3,-1.2 0.9,-1.6 1,-0.5 2.3,-0.5 3.2,0.2 0.5,0.4 0.7,0.8 0.7,1.5 0,1.6 0,3.2 0,4.8 0,0.1 0,0.2 0,0.4 0.1,-0.1 0.2,-0.1 0.2,-0.2 2.1,-2 4.1,-4 6.1,-6 C 78,5 78.1,4.9 78.2,4.8 78.6,4.4 79,4.2 79.6,4.1 c 1.1,-0.2 2.3,0.5 2.5,1.8 0.1,0.5 -0.1,1 -0.4,1.4 -0.3,0.4 -0.6,0.7 -0.9,1 -1.2,1.2 -2.3,2.3 -3.5,3.5 -0.2,0 -0.3,0.1 -0.4,0.2 z"
   id="path7" />
	</g>
</g>
</svg>
