<?xml version="1.0" encoding="UTF-8" standalone="no"?>
<svg
   width="1452.48"
   height="233.92"
   viewBox="0 0 1452.48 233.92"
   version="1.1"
   xml:space="preserve"
   style="clip-rule:evenodd;fill-rule:evenodd;stroke-linejoin:round;stroke-miterlimit:2"
   id="svg7"
   xmlns="http://www.w3.org/2000/svg"
   xmlns:svg="http://www.w3.org/2000/svg"
   xmlns:serif="http://www.serif.com/"><defs
     id="defs7" /><g
     id="Layer-1"
     serif:id="Layer 1"
     transform="translate(-233.76,-233.677)"><path
       d="m 968.976,361.79 c -2.449,-11.152 -1.087,-22.032 4.08,-32.64 5.983,-12.239 15.503,-20.672 28.015,-24.751 12.512,-4.08 25.024,-2.993 37.265,3.536 10.336,5.44 17.68,13.327 22.575,23.664 -11.967,4.896 -27.472,10.88 -46.511,16.863 -17.952,5.984 -33.185,10.337 -45.424,13.328 m 111.519,-17.679 c 14.146,-6.529 31.825,-14.416 27.744,-26.658 -2.991,-9.518 -14.143,-9.79 -34.271,-5.982 -5.985,-8.704 -13.599,-15.778 -23.12,-21.218 -17.409,-10.063 -36.176,-11.694 -55.759,-5.44 -19.586,6.257 -33.73,18.769 -41.888,37.266 -4.353,9.793 -6.53,19.856 -6.257,30.191 -17.952,8.161 -30.192,15.777 -26.656,26.113 2.177,6.255 8.159,8.159 15.776,8.159 5.984,0 12.784,-1.36 19.041,-2.447 6.527,12.512 16.047,22.575 29.374,29.919 16.592,9.248 35.089,10.608 54.4,4.353 19.313,-6.257 33.185,-18.224 41.346,-35.361 0.814,-1.904 1.631,-4.079 2.446,-5.983 l -19.039,-7.071 c -2.176,5.982 -5.167,11.422 -9.52,16.047 -5.713,6.255 -13.057,10.88 -21.488,13.599 -8.431,2.721 -16.865,3.264 -25.296,1.632 -8.431,-1.632 -15.775,-5.712 -22.304,-11.695 -3.264,-2.993 -5.985,-6.529 -8.432,-10.065 13.327,-3.264 28.56,-7.617 44.065,-12.784 22.575,-7.344 44.062,-15.503 59.838,-22.575"
       style="fill:#00c3ff;fill-rule:nonzero"
       id="path1" /><path
       d="m 351.808,352.229 v 0.041 c 0,8.586 -2.229,16.872 -6.622,24.629 -4.362,7.689 -10.166,13.669 -17.716,18.256 -7.685,4.391 -15.603,6.618 -23.533,6.618 -8.542,0 -16.957,-2.286 -24.367,-6.63 -7.603,-4.194 -13.395,-9.897 -17.7,-17.434 -4.09,-7.158 -6.078,-15.301 -6.078,-24.896 0,-13.976 4.63,-25.83 13.746,-35.214 9.303,-9.3 20.782,-14.016 34.125,-14.016 8.724,0 16.601,2.076 24.079,6.345 7.29,4.169 13.156,10.217 17.437,17.975 4.761,8.64 6.872,16.365 6.629,24.326 m -46.511,-71.766 c -10.939,0 -20.841,2.36 -30.275,7.222 -6.466,3.354 -12.34,7.929 -17.87,13.932 v -17.89 H 233.76 v 183.87 h 23.392 v -64.34 c 5.694,5.705 11.842,10.174 18.718,13.615 9.119,4.421 19.203,6.661 29.969,6.661 19.064,0 35.681,-7.092 49.389,-21.079 13.615,-13.892 20.516,-31.052 20.516,-51.001 0,-19.679 -6.71,-36.094 -20.516,-50.181 -13.34,-13.612 -30.606,-20.809 -49.931,-20.809"
       style="fill:#00c3ff;fill-rule:nonzero"
       id="path2" /><rect
       x="439.936"
       y="233.677"
       width="23.392"
       height="186.592"
       style="fill:#00c3ff"
       id="rect2" /><path
       d="m 633.726,317.329 c 9.121,9.121 13.747,20.968 13.747,35.214 0,9.116 -1.993,17.271 -6.094,24.923 -3.856,7.201 -9.807,13.059 -17.682,17.407 -7.979,4.399 -16.177,6.63 -24.37,6.63 -8.56,0 -16.558,-2.22 -23.805,-6.621 -6.999,-4.001 -12.963,-10.151 -17.724,-18.276 -4.328,-7.38 -6.614,-15.886 -6.614,-24.608 0,-8.719 2.286,-17.228 6.614,-24.606 4.566,-7.789 10.444,-13.851 17.454,-18.006 7.474,-4.271 15.349,-6.348 24.048,-6.348 13.892,0.265 25.466,5.068 34.413,14.277 z m 12.932,-15.8 c -5.166,-5.713 -11.162,-10.361 -17.875,-13.844 -9.302,-4.791 -19.579,-7.222 -30.545,-7.222 -19.42,0 -36.126,7.002 -49.657,20.809 -13.615,13.89 -20.518,30.775 -20.518,50.181 0,19.67 7.094,37.304 20.518,51.001 13.706,13.987 30.323,21.079 49.387,21.079 10.766,0 20.848,-2.24 29.985,-6.668 6.863,-3.434 13.008,-7.903 18.705,-13.608 v 17.012 h 23.119 V 283.727 h -23.119 z"
       style="fill:#00c3ff;fill-rule:nonzero"
       id="path3" /><path
       d="m 839.453,288.312 -0.018,-0.011 c -7.941,-5.2 -17.251,-7.839 -27.677,-7.839 -9.845,0 -19.037,2.274 -28.135,6.974 -6.037,3.382 -11.84,7.989 -17.287,13.726 V 283.728 H 742.942 V 420.27 h 23.394 v -51.136 c 0,-16.761 0.808,-28.358 2.406,-34.476 2.34,-9.101 7.312,-16.822 14.779,-22.952 7.439,-6.112 15.843,-9.212 24.976,-9.212 7.83,0 14.5,1.97 19.284,5.692 5.013,3.956 8.324,9.818 9.849,17.453 1.19,5.349 1.873,15.947 1.873,29.079 v 65.28 h 23.394 v -69.903 c 0,-17.925 -1.866,-31.462 -5.554,-40.257 -3.876,-8.855 -9.895,-16.097 -17.89,-21.526"
       style="fill:#00c3ff;fill-rule:nonzero"
       id="path4" /><path
       d="m 1208.88,235.583 h -23.392 v 48.145 h -22.847 v 21.215 h 22.847 v 115.325 h 23.392 V 304.943 h 26.385 v -21.215 h -26.385 z"
       style="fill:#00c3ff;fill-rule:nonzero"
       id="path5" /><path
       d="m 1390.3,347.642 v 0.005 c 0,15.736 -0.799,26.115 -2.367,30.822 -2.476,6.87 -6.595,12.223 -12.303,15.95 -5.549,4.035 -12.673,5.996 -21.776,5.996 -8.651,0 -16.079,-2.115 -22.073,-6.282 -6.046,-4.212 -10.172,-9.913 -12.26,-16.956 -1.582,-5.288 -2.387,-15.223 -2.387,-29.53 v -63.919 h -23.394 v 65.82 c 0,18.978 2.24,33.355 6.651,42.726 4.596,10.054 11.464,17.766 20.401,22.909 8.901,5.285 20.426,8.079 33.332,8.079 12.907,0 24.434,-2.794 33.36,-8.095 8.889,-5.552 15.648,-13.159 20.096,-22.605 4.417,-9.386 6.657,-23.494 6.657,-41.924 v -66.91 h -23.658 z"
       style="fill:#00c3ff;fill-rule:nonzero"
       id="path6" /><path
       d="m 1682.05,308.223 c -3.695,-8.812 -9.264,-15.7 -16.556,-20.468 -7.296,-4.771 -16.113,-7.292 -25.498,-7.292 -10.326,0 -19.729,2.737 -28.75,8.374 -7.464,4.8 -13.492,10.814 -18.356,18.336 -2.185,-4.873 -4.6,-8.845 -7.357,-12.101 -4.054,-4.633 -9.167,-8.234 -15.197,-10.701 -15.882,-6.493 -32.876,-4.644 -47.75,4.187 -4.344,2.744 -8.579,6.466 -12.875,11.325 v -16.157 h -23.394 v 136.543 h 23.394 v -58.481 c 0,-15.265 1.566,-27.318 4.53,-34.862 2.809,-7.153 7.403,-12.984 13.651,-17.332 5.916,-4.112 12.702,-6.284 19.624,-6.284 5.905,0 11.046,1.473 15.278,4.385 4.07,2.8 7.186,6.901 9.008,11.842 1.777,5.081 2.644,15.167 2.644,30.831 v 69.901 h 23.39 v -54.126 c 0,-17.216 1.479,-30.606 4.262,-38.672 2.871,-7.312 7.258,-13.079 13.41,-17.627 5.869,-4.335 12.644,-6.534 20.138,-6.534 6.168,0 11.306,1.384 15.278,4.114 4.332,2.978 7.283,6.598 9.023,11.069 1.766,4.543 2.628,13.546 2.628,27.52 v 74.256 h 23.665 v -74.256 c 0,-21.88 -0.522,-29.048 -4.19,-37.79"
       style="fill:#00c3ff;fill-rule:nonzero"
       id="path7" /></g></svg>
