<svg width="322" height="30" viewBox="0 0 322 30" fill="none" xmlns="http://www.w3.org/2000/svg">
<g clip-path="url(#clip0_187_511)">
<path d="M9.29736 27.8849L16.0338 16.2222H18.6516L25.388 27.8849L24.1745 30H10.501L9.29736 27.8849Z" fill="#191919"/>
<path d="M1.22841 13.9438L14.6988 13.9414L16.0089 11.6752L9.27499 0.00756931L6.83798 0.000139236L0 11.8436L1.22841 13.9438Z" fill="#191919"/>
<path d="M33.447 13.9438L19.9766 13.9414L18.6665 11.6752L25.4005 0.00756931L27.8375 0.000139236L34.6755 11.8436L33.447 13.9438Z" fill="#191919"/>
</g>
<path d="M90.7466 29.9082H87.1931V0.0442963H105.455C107.254 0.0442963 108.596 0.12738 109.481 0.291558C110.365 0.45673 111.069 0.884089 111.595 1.57314C112.119 2.26368 112.382 3.40247 112.382 4.99151V11.7377C112.382 13.3273 112.134 14.4666 111.639 15.1561C111.145 15.8461 110.47 16.2735 109.615 16.4377C108.761 16.6024 107.463 16.6849 105.724 16.6849L112.336 29.9977H108.738L102.126 16.6849H90.7466V29.9077V29.9082ZM105.365 2.74278H90.7914L90.7461 13.9865H105.365C106.264 13.9865 106.931 13.9491 107.366 13.874C107.801 13.7994 108.154 13.6039 108.423 13.2889C108.693 12.974 108.828 12.4571 108.828 11.7372V4.99151C108.828 4.27212 108.693 3.75471 108.423 3.43979C108.154 3.12486 107.801 2.93034 107.366 2.85472C106.932 2.78009 106.264 2.74228 105.365 2.74228V2.74278Z" fill="#191919"/>
<path d="M122.457 29.9981C120.658 29.9981 119.316 29.9161 118.432 29.7509C117.547 29.5862 116.842 29.1593 116.318 28.4693C115.793 27.7798 115.531 26.6405 115.531 25.0509V21.453C115.531 19.8644 115.793 18.7251 116.318 18.0351C116.842 17.3455 117.547 16.9182 118.432 16.7535C119.316 16.5888 120.658 16.5057 122.457 16.5057H136.491V12.458C136.491 11.7381 136.341 11.2207 136.041 10.9063C135.741 10.5914 135.351 10.3968 134.871 10.3217C134.392 10.2471 133.686 10.2093 132.757 10.2093H117.509V7.5103H133.162C134.961 7.5103 136.303 7.59338 137.188 7.75806C138.072 7.92323 138.776 8.35059 139.302 9.03964C139.826 9.72968 140.089 10.869 140.089 12.458V29.9981H122.457H122.457ZM122.592 27.2997H136.491V19.2037H122.592C121.693 19.2037 121.025 19.242 120.591 19.3162C120.156 19.3913 119.804 19.5858 119.534 19.9007C119.264 20.2157 119.129 20.7331 119.129 21.4525V25.0504C119.129 25.7698 119.264 26.2872 119.534 26.6022C119.804 26.9171 120.156 27.1121 120.591 27.1872C121.025 27.2624 121.693 27.2997 122.592 27.2997Z" fill="#191919"/>
<path d="M150.615 29.9977C148.816 29.9977 147.474 29.9157 146.59 29.7505C145.705 29.5858 145 29.159 144.476 28.4689C143.951 27.7794 143.688 26.6401 143.688 25.0505V12.4576C143.688 10.8686 143.951 9.72928 144.476 9.03924C145 8.34969 145.705 7.92283 146.59 7.75766C147.474 7.59298 148.816 7.5099 150.615 7.5099H165.189V0.0442963H168.787V29.9977H150.615ZM150.705 27.2993H165.144V10.2089H150.705C149.806 10.2089 149.138 10.2467 148.704 10.3213C148.269 10.3964 147.917 10.591 147.647 10.9059C147.377 11.2208 147.242 11.7382 147.242 12.4576V25.0505C147.242 25.7699 147.377 26.2873 147.647 26.6023C147.917 26.9172 148.268 27.1122 148.704 27.1873C149.138 27.2624 149.806 27.2998 150.705 27.2998V27.2993Z" fill="#191919"/>
<path d="M177.326 0.0442963V4.09202H173.728V0.0442963H177.326ZM177.326 7.5099V29.9977H173.728V7.5099H177.326Z" fill="#191919"/>
<path d="M189.205 29.9981C187.406 29.9981 186.064 29.9161 185.18 29.7509C184.295 29.5862 183.59 29.1593 183.065 28.4693C182.541 27.7798 182.279 26.6405 182.279 25.0509V21.453C182.279 19.8644 182.541 18.7251 183.065 18.0351C183.59 17.3455 184.295 16.9182 185.18 16.7535C186.064 16.5888 187.407 16.5057 189.205 16.5057H203.239V12.458C203.239 11.7381 203.087 11.2207 202.788 10.9063C202.489 10.5914 202.099 10.3968 201.619 10.3217C201.14 10.2471 200.435 10.2093 199.505 10.2093H184.258V7.5103H199.91C201.709 7.5103 203.05 7.59338 203.935 7.75806C204.819 7.92323 205.524 8.35059 206.05 9.03964C206.573 9.72968 206.837 10.869 206.837 12.458V29.9981H189.205H189.205ZM189.341 27.2997H203.24V19.2037H189.341C188.441 19.2037 187.773 19.242 187.339 19.3162C186.904 19.3913 186.551 19.5858 186.282 19.9007C186.012 20.2157 185.877 20.7331 185.877 21.4525V25.0504C185.877 25.7698 186.011 26.2872 186.282 26.6022C186.551 26.9171 186.904 27.1121 187.339 27.1872C187.773 27.2624 188.441 27.2997 189.341 27.2997Z" fill="#191919"/>
<path d="M214.436 4.94714V25.0514C214.436 25.7708 214.586 26.2882 214.886 26.6032C215.185 26.9181 215.575 27.1131 216.055 27.1882C216.535 27.2633 217.239 27.3007 218.17 27.3007H236.026V29.9991H217.765C215.965 29.9991 214.623 29.9171 213.739 29.7519C212.854 29.5872 212.149 29.1603 211.625 28.4703C211.1 27.7808 210.838 26.6415 210.838 25.0519V4.94714C210.838 3.3586 211.1 2.21931 211.625 1.52926C212.149 0.839717 212.854 0.412358 213.739 0.247683C214.623 0.0830075 215.966 -7.62939e-05 217.765 -7.62939e-05H236.026V2.69841H218.17C217.239 2.69841 216.535 2.73671 216.055 2.81084C215.575 2.88597 215.185 3.08049 214.886 3.39541C214.586 3.71034 214.436 4.22774 214.436 4.94714Z" fill="#191919"/>
<path d="M240.454 9.02988C240.978 8.34033 241.683 7.91347 242.568 7.7483C243.451 7.58362 244.794 7.50104 246.593 7.50104H257.928C259.727 7.50104 261.069 7.58362 261.953 7.7483C262.838 7.91347 263.543 8.34083 264.068 9.02988C264.592 9.71992 264.855 10.8592 264.855 12.4483V25.0519C264.855 26.6415 264.592 27.7808 264.068 28.4703C263.543 29.1603 262.838 29.5877 261.953 29.7519C261.069 29.9165 259.727 29.9991 257.928 29.9991H246.593C244.794 29.9991 243.451 29.917 242.568 29.7519C241.683 29.5872 240.978 29.1603 240.454 28.4703C239.929 27.7808 239.667 26.6415 239.667 25.0519V12.4483C239.667 10.8592 239.929 9.71992 240.454 9.02988ZM243.715 26.6036C244.015 26.9186 244.404 27.1136 244.884 27.1887C245.364 27.2638 246.069 27.3012 246.998 27.3012H257.523C258.453 27.3012 259.158 27.2638 259.638 27.1887C260.116 27.1141 260.507 26.9186 260.807 26.6036C261.106 26.2887 261.257 25.7713 261.257 25.0519V12.4483C261.257 11.7284 261.107 11.211 260.807 10.8965C260.507 10.5816 260.116 10.3871 259.638 10.312C259.158 10.2373 258.453 10.1995 257.523 10.1995H246.998C246.069 10.1995 245.363 10.2373 244.884 10.312C244.404 10.3871 244.014 10.5816 243.715 10.8965C243.415 11.2114 243.265 11.7289 243.265 12.4483V25.0519C243.265 25.7713 243.415 26.2887 243.715 26.6036Z" fill="#191919"/>
<path d="M275.376 29.9977C273.577 29.9977 272.234 29.9157 271.35 29.7505C270.465 29.5858 269.76 29.159 269.237 28.4689C268.711 27.7794 268.449 26.6401 268.449 25.0505V12.4576C268.449 10.8686 268.711 9.72928 269.237 9.03924C269.761 8.34969 270.465 7.92283 271.35 7.75766C272.234 7.59298 273.577 7.5099 275.376 7.5099H289.949V0.0442963H293.548V29.9977H275.376ZM275.466 27.2993H289.904V10.2089H275.466C274.566 10.2089 273.898 10.2467 273.464 10.3213C273.029 10.3964 272.677 10.591 272.408 10.9059C272.137 11.2208 272.003 11.7382 272.003 12.4576V25.0505C272.003 25.7699 272.137 26.2873 272.408 26.6023C272.677 26.9172 273.029 27.1122 273.464 27.1873C273.898 27.2624 274.566 27.2998 275.466 27.2998V27.2993Z" fill="#191919"/>
<path d="M300.75 18.0363H318.112V12.4593C318.112 11.7394 317.961 11.222 317.662 10.9075C317.362 10.5926 316.971 10.3981 316.493 10.323C316.012 10.2483 315.307 10.2105 314.378 10.2105H304.483C303.553 10.2105 302.848 10.2483 302.369 10.323C301.889 10.3981 301.499 10.5926 301.199 10.9075C300.899 11.2225 300.75 11.7399 300.75 12.4593V25.0522C300.75 25.7716 300.9 26.289 301.199 26.6039C301.499 26.9188 301.889 27.1138 302.369 27.189C302.849 27.2641 303.553 27.3014 304.483 27.3014H320.675V29.9999H304.078C302.278 29.9999 300.936 29.9178 300.052 29.7526C299.167 29.588 298.462 29.1611 297.939 28.471C297.413 27.7815 297.151 26.6422 297.151 25.0527V12.4598C297.151 10.8707 297.413 9.73142 297.939 9.04138C298.463 8.35183 299.167 7.92497 300.052 7.7598C300.936 7.59512 302.279 7.51204 304.078 7.51204H314.783C316.582 7.51204 317.924 7.59512 318.808 7.7598C319.693 7.92497 320.397 8.35233 320.923 9.04138C321.447 9.73142 321.709 10.8707 321.709 12.4598V20.7353H300.749V18.0368L300.75 18.0363Z" fill="#191919"/>
<defs>
<clipPath id="clip0_187_511">
<rect width="34.6753" height="30" fill="white" transform="matrix(1 0 0 -1 0 30)"/>
</clipPath>
</defs>
</svg>
