<svg version="1" xmlns="http://www.w3.org/2000/svg" width="1333.333" height="1333.333" viewBox="0 0 1000.000000 1000.000000"><path fill="#F44336" d="M943.7 78.5c-6.6 3.3-15.1 7.9-33.6 18.2-6.2 3.4-11.5 6.3-11.7 6.3-.1 0-2.9 1.5-6.1 3.4-3.2 1.8-8.9 5-12.8 7.1-3.8 2.1-11.5 6.3-17 9.3-5.5 3-12.9 7.1-16.5 9-3.6 1.9-7.9 4.3-9.5 5.2-1.7 1-13.1 7.2-25.3 13.9-12.3 6.7-24.2 13.2-26.5 14.5-2.3 1.3-15.9 8.8-30.2 16.6-14.3 7.8-28.2 15.5-31 17-2.7 1.5-17.1 9.4-32 17.5-27.3 15-30.6 16.8-40.5 22.2-7.1 3.9-25.3 13.9-30.5 16.8-4 2.1-75.7 41.5-83.8 45.9-2.3 1.3-9.4 5.2-15.7 8.6-6.3 3.5-12.8 7.1-14.5 8-1.6.9-8.6 4.7-15.5 8.5-6.9 3.7-18.3 10.1-25.5 14-7.1 4-15.9 8.8-19.5 10.7-16.3 8.8-22.7 12.3-25.5 13.9-1.6 1-5.6 3.2-8.8 4.9-3.2 1.7-9.3 5-13.5 7.4-4.2 2.3-10.8 6-14.7 8.1-3.8 2.1-10.8 5.9-15.5 8.5-4.7 2.6-11.6 6.4-15.5 8.5-3.8 2.1-9.2 5-12 6.5-2.7 1.5-16.7 9.2-31 17-14.3 7.8-28.5 15.6-31.5 17.3-13.7 7.5-33 18.1-40.5 22.1-2.2 1.1-4.6 2.7-5.3 3.3-.7.7-1.8 1.3-2.3 1.3-.5 0-8.6 4.3-18 9.5-9.3 5.2-17.1 9.5-17.3 9.5-.1 0-4.9 2.6-10.7 5.8-5.7 3.2-13.4 7.5-17.1 9.5-3.8 2-9.8 5.4-13.5 7.4-3.8 2-11.5 6.3-17.2 9.5-5.8 3.2-10.6 5.8-10.9 5.8-.2 0-3.4 1.7-7 3.9-3.7 2.1-10.3 5.8-14.7 8.1-4.4 2.4-9.3 5.1-11 6-1.6.9-16 8.8-32 17.5-15.9 8.7-30.7 17.2-32.8 18.9-10.3 8.2-11.5 25.6-2.4 35.7 5.2 5.8 10.9 8.2 19.7 8.2 7.1 0 28-.9 40-1.8 3-.2 10.5-.6 16.5-1 6.1-.3 14.2-.8 18-1 19.6-1.2 24.8-1.5 34.5-2 5.8-.3 13.9-.7 18-1 4.1-.3 12.2-.8 18-1 5.8-.3 13.5-.8 17.2-1 3.7-.3 11.3-.7 17-1 5.7-.3 13.7-.8 17.8-1 4.1-.3 11.1-.7 15.5-.9 4.4-.3 13.1-.8 19.4-1.1 6.2-.3 11.6-.6 12-.7.3 0 1.1 0 1.8.1 1 .1 7.7 10.9 15.9 25.6 3.9 7.1 3.7 6.8 28.4 50 12.3 21.4 23.7 41.5 25.3 44.5 1.7 3 4.8 8.4 6.9 11.9 2.1 3.4 3.8 6.5 3.8 6.7 0 .3 1.1 2.1 2.3 4.2 1.3 2 3.9 6.4 5.7 9.7 10.1 18.4 20.7 36.5 23.3 39.8 5.4 7 12.5 10.2 21.7 9.8 4.1-.1 21.3-7.6 98-42.4 12.2-5.5 19.3-8.7 19.5-8.7.2 0 14 16.5 19.2 23 8.1 10.1 27 33.1 28.6 35 1.2 1.4 3.8 4.5 5.7 7 1.9 2.4 4.2 5.2 5 6.1.8.9 2.2 2.5 3 3.5 3.9 5 18.6 23 19 23.4.5.5 14.8 17.9 22.1 27 25.1 31 28 33.9 36.1 36.1 7.9 2.1 18.5-.9 23.9-6.8 4.5-4.8 5.4-7 14.4-33.8 8.8-26 46.5-138 59.5-176.5 3.8-11.3 15.3-45.3 25.5-75.5 10.3-30.3 18.8-55.7 19-56.5.2-.8.4-1.5.4-1.5.1 0 28.4-83.8 41.2-122 5.5-16.5 10.4-30.8 11-31.7.5-1 .9-2.6.9-3.6s.2-2.1.6-2.4c.3-.3 7-19.9 15-43.4 7.9-23.6 14.4-42.9 14.4-42.9.1 0 26.2-77.5 26.5-78.5.2-.8 3.8-11.6 8-24 43.9-129.1 42.7-124.9 38.7-134-6.3-14.2-21.2-19.5-35.5-12.5zM894 155c-.6 1-1.6 2.3-2.3 2.7-.7.4-4.8 4.8-9.2 9.7-4.4 4.9-9.3 10.3-11 12.1-1.6 1.7-6.8 7.3-11.5 12.5-4.7 5.1-9.6 10.5-10.8 11.9-6.1 6.6-16.9 18.6-19.1 20.9-1.3 1.5-5.1 5.6-8.4 9.2-8.4 9.2-29.3 32-35.2 38.6-.5.6-5.3 5.7-10.5 11.4-16.1 17.5-28.4 31.1-31.1 34.1-1 1.2-6.3 7-11.7 12.8-5.4 5.8-12.5 13.5-15.6 16.9-3.2 3.5-6.5 7.2-7.4 8.1-1 1-5.5 6-10.2 11.1-4.7 5.2-9.2 10.1-10 11-2.7 2.9-21.5 23.5-22.5 24.6-.5.7-3 3.4-5.5 6.1-8.2 8.9-16.4 17.8-25 27.3-4.7 5.1-9.6 10.5-11 12-1.4 1.5-5.9 6.4-10 11-4.1 4.5-9.3 10.2-11.5 12.5-2.2 2.4-7.4 8.1-11.5 12.6-4.1 4.6-10.4 11.5-14 15.4-3.5 3.8-7.9 8.6-9.6 10.5-1.8 1.9-4.8 5.1-6.6 7.1-1.8 2-7.3 8-12.3 13.5-9.9 10.8-20.4 22.3-22 24-.5.6-4.8 5.3-9.5 10.5-4.7 5.1-9.2 10-10 10.9-.8.9-3.5 3.9-6 6.6-12.8 14.1-22.8 25-25 27.3-1.4 1.4-5.2 5.7-8.5 9.6-3.3 3.8-7.2 8.3-8.7 10-1.6 1.6-4.6 7.5-6.9 13-2.2 5.5-4.5 10.9-5 12-1.9 4.4-29.1 72.1-29.6 73.7-.7 2.4-1.8 2.3-3.1-.5-1.3-2.5-4-7.3-18.2-32.2-5.7-9.9-11.3-19.8-12.6-22-1.2-2.2-5.7-10.1-9.9-17.5-4.3-7.4-9.1-15.9-10.7-18.8-1.7-3-5.7-9.9-8.9-15.4s-5.9-10.1-5.9-10.3c0-.2-1.4-2.8-3.1-5.7-1.8-2.9-4.2-7.1-5.5-9.4l-2.2-4 41-32.5c22.6-17.8 48.1-38 56.7-44.8 8.6-6.7 17-13.4 18.6-14.7 8.4-6.5 54.3-42.8 56-44.2 1.1-1 10.3-8.2 20.5-16.2 10.2-7.9 18.7-14.7 19-15 .3-.3 6.8-5.5 14.5-11.5s18.5-14.5 24-18.9c15.4-12.3 24.8-19.8 67-53 44.4-35.1 41.9-33.1 58.5-46.3 6.9-5.4 22.2-17.5 34-26.8s22.2-17.5 23-18.2c.8-.7 13-10.3 27-21.3 14-11.1 26.7-21.1 28.2-22.3 1.5-1.2 9.5-7.6 17.9-14.2 8.3-6.6 22.9-18.2 32.3-25.7 9.4-7.5 17.2-13.7 17.4-13.7.1-.1-.2.8-.8 1.9zM497.6 709.1c5.5 6.6 10 12.3 10.1 12.7.1.4-3 2.2-7 3.9-4 1.8-10.8 4.9-15.2 6.9-4.4 2-9.8 4.5-12.1 5.4l-4.1 1.8 8.5-21.4c4.8-11.8 8.9-21.4 9.3-21.4.3 0 5.1 5.4 10.5 12.1z"/></svg>