<?xml version='1.0' encoding='UTF-8'?>
<svg xmlns="http://www.w3.org/2000/svg" id="Layer_1" data-name="Layer 1" viewBox="0 0 1600.02 250.00">
  <defs>
    <style>
      .cls-1 {
        fill: #fff;
      }
    </style>
  </defs>
  <g class="cls-1" id="text">
  <path d="M225 536H447V667H63V0H225V269H447V400H225Z" transform="matrix(0.220000,0,0,-0.220000,322.04,198.18)"/><path d="M236 220 156 463H-5L156 9L73 -206H236L489 463H329Z" transform="matrix(0.220000,0,0,-0.220000,428.30,198.18)"/><path d="M246 126 418 463H26V337H184L12 0H409V126Z" transform="matrix(0.220000,0,0,-0.220000,534.78,198.18)"/><path d="M209 463H57V0H209ZM134 679C86 679 52 645 52 598C52 551 86 517 133 517C179 517 214 551 214 597C214 645 181 679 134 679Z" transform="matrix(0.220000,0,0,-0.220000,630.04,198.18)"/><path d="M209 185 312 0H484L349 243L484 463H312L209 298V667H57V0H209Z" transform="matrix(0.220000,0,0,-0.220000,688.34,198.18)"/><path d="M209 0V667H57V0Z" transform="matrix(0.220000,0,0,-0.220000,795.48,198.18)"/><path d="M413 413C368 462 328 481 269 481C130 481 29 373 29 225C29 83 124 -18 256 -18C322 -18 371 4 413 52V0H565V463H413ZM302 355C368 355 415 304 415 230C415 160 364 102 301 102C239 102 191 157 191 228C191 302 237 355 302 355Z" transform="matrix(0.220000,0,0,-0.220000,853.78,198.18)"/><path d="M57 463V0H209V281C209 326 234 355 273 355C312 355 336 328 336 283V0H488V284C488 366 477 404 446 436C417 464 373 481 327 481C271 481 239 462 209 411V463Z" transform="matrix(0.220000,0,0,-0.220000,990.62,198.18)"/><path d="M209 463H57V0H209ZM134 679C86 679 52 645 52 598C52 551 86 517 133 517C179 517 214 551 214 597C214 645 181 679 134 679Z" transform="matrix(0.220000,0,0,-0.220000,1109.86,198.18)"/><path d="M182 73 361 322C417 400 437 449 437 505C437 602 361 670 252 670C133 670 66 600 62 473H137C138 508 141 523 149 542C164 577 201 598 246 598C311 598 357 557 357 499C357 459 342 429 275 332L43 0H417V73Z" transform="matrix(0.220000,0,0,-0.220000,1168.16,198.18)"/><path d="M448 466C448 544 434 584 396 619C359 652 309 669 248 669C180 669 125 647 92 607C62 571 52 530 52 443V223C52 122 61 84 96 47C131 9 185 -11 250 -11C313 -11 366 8 401 45C434 80 448 126 448 201ZM131 441C131 499 135 522 152 546C171 577 208 594 251 594C284 594 314 583 336 563C361 539 370 513 370 461V206C370 157 364 129 349 107C330 80 292 63 251 63C213 63 177 78 156 102C134 127 131 141 131 218Z" transform="matrix(0.220000,0,0,-0.220000,1278.16,198.18)"/><path d="M182 73 361 322C417 400 437 449 437 505C437 602 361 670 252 670C133 670 66 600 62 473H137C138 508 141 523 149 542C164 577 201 598 246 598C311 598 357 557 357 499C357 459 342 429 275 332L43 0H417V73Z" transform="matrix(0.220000,0,0,-0.220000,1388.16,198.18)"/><path d="M372 657H279L88 350C50 289 37 252 37 203C37 82 129 -12 248 -12C366 -12 463 85 463 203C463 316 377 403 266 403C242 403 229 400 201 390ZM252 335C326 335 385 275 385 200C385 124 325 63 250 63C175 63 116 125 116 203C116 277 176 335 252 335Z" transform="matrix(0.220000,0,0,-0.220000,1498.16,198.18)"/></g>
  <g>
    <polygon class="cls-1" points="118.78 170.74 126.42 167.3 122.23 162.18 118.78 170.74"/>
    <polygon class="cls-1" points="117.16 149.64 201.23 57.53 93.86 142.38 109.06 169.02 117.16 149.64"/>
    <path class="cls-1" d="M0,0V250H250V0H0ZM161.78,212.06l-29.03-37.03-25.45,11.53-22.46-40.51-55.94,.63c1.09-.65,192.21-108.75,192.21-108.75l-59.32,174.12Z"/>
  </g>
</svg>