<?xml version="1.0" encoding="utf-8"?>
<!-- Generator: Adobe Illustrator 26.3.1, SVG Export Plug-In . SVG Version: 6.00 Build 0)  -->
<svg version="1.1" id="Layer_1" xmlns="http://www.w3.org/2000/svg" xmlns:xlink="http://www.w3.org/1999/xlink" x="0px" y="0px"
	 viewBox="0 0 1598 250" style="enable-background:new 0 0 1598 250;" xml:space="preserve">
<style type="text/css">
	.st0{fill:#E6060D;}
	.st1{fill:#FFFFFF;}
</style>
<g>
	<g>
		<polygon class="st1" points="118.8,170.7 126.4,167.3 122.2,162.2 		"/>
		<polygon class="st1" points="117.2,149.6 201.2,57.5 93.9,142.4 109.1,169 		"/>
		<path class="st1" d="M0,0v250h250V0H0z M161.8,212.1l-29-37l-25.4,11.5l-22.5-40.5l-55.9,0.6C30,146,221.1,37.9,221.1,37.9
			L161.8,212.1z"/>
	</g>
	<g>
		<g>
			<path class="st1" d="M371.5,110.2h48.8V139h-48.8v59.2h-35.6V51.4h84.5v28.8h-48.8V110.2z"/>
			<path class="st1" d="M500.7,96.3h35.2l-55.7,147.2h-35.9l18.3-47.3l-35.4-99.9h35.4l17.6,53.5L500.7,96.3z"/>
			<path class="st1" d="M624.8,170.5v27.7h-87.3l37.8-74.1h-34.8V96.3h86.2l-37.8,74.1H624.8z"/>
			<path class="st1" d="M677.1,66.8c0,10.1-7.7,17.6-17.8,17.6c-10.3,0-17.8-7.5-17.8-17.8c0-10.3,7.5-17.8,18-17.8
				C669.9,48.8,677.1,56.3,677.1,66.8z M676,198.2h-33.4V96.3H676V198.2z"/>
			<path class="st1" d="M734.3,198.2h-33.4V51.4h33.4v81.2L757,96.3h37.8l-29.7,48.4l29.7,53.5H757l-22.7-40.7V198.2z"/>
			<path class="st1" d="M808,198.2V51.4h33.4v146.7H808z"/>
			<path class="st1" d="M944.6,96.3h33.4v101.9h-33.4v-11.4c-9.2,10.6-20,15.4-34.5,15.4c-29,0-49.9-22.2-49.9-53.5
				c0-32.6,22.2-56.3,52.8-56.3c13,0,21.8,4.2,31.7,15V96.3z M895.8,148c0,15.6,10.6,27.7,24.2,27.7c13.9,0,25.1-12.8,25.1-28.2
				c0-16.3-10.3-27.5-24.9-27.5C905.9,120.1,895.8,131.7,895.8,148z"/>
			<path class="st1" d="M1036.6,96.3v11.4c6.6-11.2,13.6-15.4,26-15.4c10.1,0,19.8,3.7,26.2,9.9c6.8,7,9.2,15.4,9.2,33.4v62.5h-33.4
				v-62.3c0-9.9-5.3-15.8-13.9-15.8s-14.1,6.4-14.1,16.3v61.8h-33.4V96.3H1036.6z"/>
			<path class="st1" d="M1156.9,66.8c0,10.1-7.7,17.6-17.8,17.6c-10.3,0-17.8-7.5-17.8-17.8c0-10.3,7.5-17.8,18-17.8
				C1149.7,48.8,1156.9,56.3,1156.9,66.8z M1155.8,198.2h-33.4V96.3h33.4V198.2z"/>
			<path class="st1" d="M1259.9,182.1v16.1h-82.3l51-73c14.7-21.3,18-27.9,18-36.7c0-12.8-10.1-21.8-24.4-21.8
				c-9.9,0-18,4.6-21.3,12.3c-1.8,4.2-2.4,7.5-2.6,15.2h-16.5c0.9-27.9,15.6-43.3,41.8-43.3c24,0,40.7,15,40.7,36.3
				c0,12.3-4.4,23.1-16.7,40.3l-39.4,54.8H1259.9z"/>
			<path class="st1" d="M1376.7,154c0,16.5-3.1,26.6-10.3,34.3c-7.7,8.1-19.4,12.3-33.2,12.3c-14.3,0-26.2-4.4-33.9-12.8
				c-7.7-8.1-9.7-16.5-9.7-38.7v-48.4c0-19.1,2.2-28.2,8.8-36.1c7.3-8.8,19.4-13.6,34.3-13.6c13.4,0,24.4,3.7,32.6,11
				c8.4,7.7,11.4,16.5,11.4,33.7V154z M1307,150.2c0,16.9,0.7,20,5.5,25.5c4.6,5.3,12.5,8.6,20.9,8.6c9,0,17.4-3.7,21.6-9.7
				c3.3-4.8,4.6-11,4.6-21.8V96.8c0-11.4-2-17.2-7.5-22.4c-4.8-4.4-11.4-6.8-18.7-6.8c-9.5,0-17.6,3.7-21.8,10.6
				c-3.7,5.3-4.6,10.3-4.6,23.1V150.2z"/>
			<path class="st1" d="M1479.9,182.1v16.1h-82.3l51-73c14.7-21.3,18-27.9,18-36.7c0-12.8-10.1-21.8-24.4-21.8
				c-9.9,0-18,4.6-21.3,12.3c-1.8,4.2-2.4,7.5-2.6,15.2h-16.5c0.9-27.9,15.6-43.3,41.8-43.3c24,0,40.7,15,40.7,36.3
				c0,12.3-4.4,23.1-16.7,40.3l-39.4,54.8H1479.9z"/>
			<path class="st1" d="M1514,69.5V53.6h83.2l-43.1,54.8c25.5,0,43.6,18.3,43.6,44.2c0,27.5-20.7,48-48.6,48
				c-23.1,0-39.6-13-44.7-35.2l15.8-2.9c4,14.1,14.3,22,27.9,22c17.8,0,31.9-13.4,31.9-30.6c0-17.6-13.2-29.9-32.3-29.9
				c-6.8,0-11.2,1.3-17.6,5.1l-7.3-6.4l42.5-53.2H1514z"/>
		</g>
	</g>
</g>
</svg>
