<svg width="1728" height="872" viewBox="0 0 1728 872" fill="none" xmlns="http://www.w3.org/2000/svg">
<path d="M29.4502 434.08L284.4 400.97V468.36L29.4502 434.08Z" fill="#010101"/>
<path d="M280.54 405.36V463.94L58.92 434.14L280.54 405.36ZM288.27 396.58L279.55 397.71L57.93 426.49L0 434.01L57.9 441.79L279.52 471.59L288.27 472.77V463.94V405.36V396.58Z" fill="#010101"/>
<path d="M402.05 284.41L436.33 29.4697L469.44 284.41H402.05Z" fill="#010101"/>
<path d="M436.26 58.9301L465.04 280.55H406.46L436.26 58.9301ZM436.4 0L428.62 57.9L398.82 279.52L397.64 288.27H406.47H465.05H473.84L472.71 279.55L443.92 57.94L436.4 0Z" fill="#010101"/>
<path d="M401.94 586.681H469.33L435.05 841.631L401.94 586.681Z" fill="#010101"/>
<path d="M464.91 590.54L435.11 812.16L406.33 590.54H464.91V590.54ZM473.74 582.82H464.91H406.33H397.54L398.67 591.54L427.45 813.16L434.97 871.09L442.75 813.19L472.55 591.57L473.74 582.82Z" fill="#010101"/>
<path d="M586.72 400.97L841.67 434.08L586.72 468.36V400.97Z" fill="#010101"/>
<path d="M590.58 405.36L812.2 434.14L590.58 463.94V405.36ZM582.86 396.58V405.37V463.95V472.78L591.61 471.6L813.23 441.8L871.13 434.02L813.2 426.5L591.58 397.72L582.86 396.58Z" fill="#010101"/>
<path d="M551.28 316.43L553.53 270.03L719.78 151.73L593.7 316.43H551.28Z" fill="#245EAC"/>
<path d="M701.14 169.74L591.79 312.57H555.34L557.3 272.09L701.14 169.74ZM738.43 133.73L696.66 163.45L552.82 265.8L549.77 267.97L549.59 271.71L547.63 312.19L547.24 320.28H555.34H591.79H595.6L597.92 317.25L707.27 174.43L738.43 133.73Z" fill="#245EAC"/>
<path d="M277.94 316.95L151.85 152.25L318.11 270.55L320.35 316.95H277.94Z" fill="#FED500"/>
<path d="M170.5 170.26L314.34 272.61L316.3 313.09H279.85L170.5 170.26ZM133.21 134.25L164.38 174.96L273.73 317.78L276.05 320.81H279.86H316.31H324.41L324.02 312.72L322.06 272.24L321.88 268.5L318.83 266.33L174.98 163.97L133.21 134.25Z" fill="#FED500"/>
<path d="M553.79 597.081L551.54 550.681H593.96L720.04 715.371L553.79 597.081Z" fill="#FED500"/>
<path d="M592.05 554.54L701.4 697.36L557.56 595.01L555.6 554.53H592.05V554.54ZM595.86 546.82H592.05H555.6H547.5L547.89 554.91L549.85 595.39L550.03 599.13L553.08 601.3L696.92 703.65L738.69 733.37L707.52 692.66L598.17 549.84L595.86 546.82Z" fill="#FED500"/>
<path d="M278.2 550.16H320.61L318.37 596.56L152.11 714.85L278.2 550.16Z" fill="#245EAC"/>
<path d="M316.56 554.02L314.6 594.5L170.76 696.85L280.11 554.03H316.56V554.02ZM324.66 546.3H316.56H280.11H276.3L273.98 549.33L164.63 692.15L133.46 732.86L175.23 703.14L319.07 600.79L322.12 598.62L322.3 594.88L324.26 554.4L324.66 546.3Z" fill="#245EAC"/>
<path d="M1727.08 354.9L1663.31 354.94L1598.74 242.89V354.04H1534.62V161.51L1599.26 161.35L1662.91 273.88V161.99H1727.08V354.9Z" fill="#010101"/>
<path d="M932.05 274.94V354.01H867.95V161.8H932.01V241.82L995.83 161.84H1066.76L986.4 258.21L1066.75 355.07H995.8L932.05 274.94Z" fill="#010101"/>
<path d="M1277.03 161.75V193.49H1148.97V242.15H1244.86V274.54H1148.93V322.39H1277.02V354.17H1084.49V161.75H1277.03Z" fill="#010101"/>
<path d="M1309.28 161.58H1501.81V193.79H1373.95V242.16H1469.74V274.38C1469.74 274.38 1406.31 274.38 1374.02 274.38C1374.02 290.48 1374.02 322.15 1374.02 322.15H1501.84V354.05H1309.29V161.58H1309.28Z" fill="#010101"/>
<path d="M1046.06 626.99C1046.06 611.15 1046.29 595.3 1045.98 579.47C1045.77 568.74 1050.89 561.85 1060.32 558.01C1065 556.1 1070.12 554.15 1075.05 554.13C1106.66 553.97 1138.28 554.14 1169.89 554.76C1174.74 554.85 1179.76 557.35 1184.29 559.59C1191.65 563.23 1195.46 569.55 1195.47 577.88C1195.5 610.78 1195.5 643.69 1195.47 676.59C1195.46 686.28 1190.49 693.27 1181.72 696.12C1172.8 699.02 1163.3 701.44 1154 701.64C1129.17 702.18 1104.31 701.53 1079.47 701.06C1074.92 700.97 1070.29 699.82 1065.87 698.55C1050.62 694.17 1046.07 688 1046.06 672.33C1046.05 657.21 1046.06 642.1 1046.06 626.99ZM1096.3 577.9C1096.3 610.98 1096.3 643.74 1096.3 676.63C1112.85 676.63 1129.02 676.63 1145.07 676.63C1145.07 643.39 1145.07 610.67 1145.07 577.9C1128.52 577.9 1112.53 577.9 1096.3 577.9Z" fill="#010101"/>
<path d="M1443.37 676.75C1460.1 676.75 1476.13 676.75 1493.16 676.75C1493.16 669.68 1493.48 662.449 1492.91 655.299C1492.78 653.709 1489.75 651.58 1487.7 651.02C1467.5 645.53 1447.1 640.72 1427.01 634.86C1417.99 632.23 1409.39 627.94 1400.85 623.89C1395.64 621.42 1393.26 616.96 1393.49 610.77C1393.88 600.3 1393.71 589.799 1393.57 579.319C1393.44 569.41 1397.88 562.42 1406.85 558.63C1411.51 556.66 1416.56 554.44 1421.45 554.4C1453.55 554.14 1485.66 554.219 1517.76 554.809C1522.81 554.899 1528.06 557.66 1532.75 560.09C1539.5 563.59 1543.04 569.53 1543.01 577.35C1542.98 585.38 1543 593.41 1543 601.98C1526.49 601.98 1510.31 601.98 1493.4 601.98C1493.4 594.17 1493.4 586.28 1493.4 578C1476.49 578 1460.32 578 1443.8 578C1443.8 586.21 1443.8 594.15 1443.8 602.39C1463.75 607.47 1483.65 612.099 1503.28 617.689C1513.75 620.669 1523.87 625 1533.92 629.27C1540.53 632.08 1543.65 637.24 1543.17 644.99C1543.22 656.77 1543.22 663.89 1543.09 674.97C1543.46 686.05 1538.22 693.48 1528.19 696.63C1519.69 699.3 1510.66 701.489 1501.82 701.659C1476.98 702.119 1452.11 701.52 1427.26 701.08C1422.94 701 1418.55 699.98 1414.34 698.83C1398.6 694.56 1393.61 687.89 1393.6 671.7C1393.6 665.38 1393.6 659.059 1393.6 652.279C1410.19 652.279 1426.42 652.279 1443.36 652.279C1443.37 660.549 1443.37 668.47 1443.37 676.75Z" fill="#010101"/>
<path d="M1021 553.25C1021 602.72 1021 651.92 1021 701.67C1004.65 701.67 988.43 701.67 971.69 701.67C971.69 681.54 971.69 661.15 971.69 640.31C954.97 640.31 938.75 640.31 921.78 640.31C921.78 660.52 921.78 680.87 921.78 701.64C905.02 701.64 889.01 701.64 872.41 701.64C872.41 652.28 872.41 602.75 872.41 552.92C888.64 552.92 904.86 552.92 921.72 552.92C921.72 573.64 921.72 593.98 921.72 614.59C938.56 614.59 954.76 614.59 971.27 614.59C971.27 594.1 971.27 573.93 971.27 553.25C987.96 553.25 1004.35 553.25 1021 553.25Z" fill="#010101"/>
<path d="M1369.24 553.14C1369.24 594.84 1369.28 636.05 1369.21 677.26C1369.19 687.04 1363.73 693.64 1354.95 696.42C1346.45 699.12 1337.44 701.45 1328.61 701.62C1303.27 702.09 1277.91 701.5 1252.56 701.01C1248.01 700.92 1243.4 699.65 1238.99 698.34C1224.42 694 1219.73 687.53 1219.73 672.29C1219.71 632.79 1219.73 593.28 1219.73 553.26C1236.41 553.26 1252.81 553.26 1269.77 553.26C1269.77 594.37 1269.77 635.25 1269.77 676.63C1286.28 676.63 1302.25 676.63 1318.96 676.63C1318.96 635.75 1318.96 594.65 1318.96 553.15C1335.9 553.14 1352.14 553.14 1369.24 553.14Z" fill="#010101"/>
<path d="M1692.13 614.859C1692.13 623.469 1692.13 631.419 1692.13 639.999C1667.39 639.999 1642.88 639.999 1618.04 639.999C1618.04 652.479 1618.04 664.339 1618.04 676.909C1651.02 676.909 1683.83 676.909 1716.87 676.909C1716.87 685.549 1716.87 693.479 1716.87 701.739C1667.31 701.739 1618.12 701.739 1568.38 701.739C1568.38 652.339 1568.38 602.969 1568.38 553.069C1617.44 553.069 1666.81 553.069 1716.71 553.069C1716.71 560.769 1716.71 568.659 1716.71 577.309C1684.09 577.309 1651.31 577.309 1618.11 577.309C1618.11 590.109 1618.11 602.159 1618.11 614.859C1642.83 614.859 1667.34 614.859 1692.13 614.859Z" fill="#010101"/>
<path d="M1329.67 463.98C1334.21 445.65 1338.27 429.2 1342.34 412.78C1351.61 412.78 1360.34 412.78 1369.37 412.78C1374.45 429.32 1379.49 445.72 1385.12 464.02C1389.63 445.71 1393.62 429.49 1397.69 412.96C1406.34 412.96 1414.76 412.96 1423.8 412.96C1423.37 414.78 1423.1 416.55 1422.53 418.21C1413.76 444.02 1393.95 501.63 1393.95 501.63L1365.58 501.34C1365.58 501.34 1354.95 469.99 1352.67 462.59C1348.74 473.49 1339.43 501.34 1339.43 501.34L1309.4 501.63C1309.4 501.63 1289.28 440.61 1282.37 419.31C1281.71 417.27 1281.22 415.17 1280.55 412.76C1291.44 412.76 1301.89 412.76 1312.96 412.76C1318.32 429.15 1323.71 445.71 1329.67 463.98Z" fill="#010101"/>
<path d="M1593.65 456.69C1607.14 461.3 1608.97 463.81 1608.98 475.42C1608.99 483.69 1608.98 491.96 1608.98 500.75C1599.05 500.75 1589.5 500.75 1579.41 500.75C1579.41 488.56 1579.41 476.68 1579.41 464.51C1569.47 464.51 1560.05 464.51 1550.2 464.51C1550.2 476.6 1550.2 488.51 1550.2 500.84C1540.37 500.84 1530.96 500.84 1521 500.84C1521 471.72 1521 442.59 1521 412.47C1524.46 412.47 1528.26 412.47 1532.06 412.47C1548.65 412.49 1565.24 412.37 1581.83 412.61C1586.91 412.68 1592.09 413.26 1597.02 414.46C1606.02 416.66 1608.83 420.84 1608.97 430.13C1609.01 432.9 1609.01 434.23 1609 435.98C1609.22 451.11 1607.26 454.45 1593.65 456.69ZM1579.22 427.84C1569.02 427.84 1559.65 427.84 1550.56 427.84C1550.56 435.32 1550.56 442.27 1550.56 448.87C1560.47 448.87 1569.87 448.87 1579.22 448.87C1579.22 441.61 1579.22 434.85 1579.22 427.84Z" fill="#010101"/>
<path d="M873.93 471.7C884.01 471.7 893.41 471.7 903.53 471.7C903.53 476.42 903.53 480.93 903.53 485.85C913.62 485.85 923 485.85 932.28 485.85C932.62 485.28 933.03 484.91 933.05 484.52C933.64 471.89 933.6 472.01 921.59 468.74C909.16 465.35 896.77 461.82 884.44 458.09C876.84 455.79 874.37 451.24 873.83 442.38C873.58 438.19 873.74 436.28 873.93 430.7C874.28 420.95 877.3 415.01 886.97 414.49C907.79 413.38 928.75 413.34 949.56 414.44C959.63 414.97 962.76 420.73 962.78 431.13C962.79 434.5 962.78 437.86 962.78 441.65C952.89 441.65 943.5 441.65 933.43 441.65C933.43 437.22 933.43 432.71 933.43 427.78C923.39 427.78 914.01 427.78 904.66 427.78C904.38 428.25 903.96 428.64 903.94 429.04C903.15 441.91 903.2 441.75 915.81 445.12C928.02 448.38 940.19 451.83 952.27 455.54C959.77 457.84 963.15 460.81 962.88 471.24C963.15 475.94 963.15 478.1 962.77 482.92C961.99 493.05 960.04 498.51 949.95 499.1C928.92 500.34 907.72 500.33 886.7 499.08C876.66 498.48 873.96 493.03 873.92 482.84C873.92 479.24 873.93 475.65 873.93 471.7Z" fill="#010101"/>
<path d="M977.6 456.53C977.6 447.27 977.73 438 977.56 428.74C977.43 421.91 980.79 417.75 986.87 415.45C988.9 414.68 991.07 413.78 993.18 413.76C1012.38 413.62 1031.63 412.78 1050.76 413.99C1063.25 414.78 1066.4 420.01 1066.4 432.38C1066.41 449.2 1066.42 466.02 1066.39 482.85C1066.37 493.04 1063.53 496.7 1053.62 499.44C1051.98 499.89 1050.3 500.44 1048.63 500.45C1030.86 500.52 1013.05 501.16 995.32 500.28C981.55 499.59 977.6 494.27 977.6 480.67C977.6 472.62 977.6 464.57 977.6 456.53ZM1036.34 427.87C1026.2 427.87 1016.87 427.87 1007.59 427.87C1007.59 447.53 1007.59 466.64 1007.59 485.9C1017.35 485.9 1026.71 485.9 1036.34 485.9C1036.34 466.38 1036.34 447.26 1036.34 427.87Z" fill="#010101"/>
<path d="M1712.48 486.11C1712.48 491.48 1712.48 495.83 1712.48 500.75C1683.27 500.75 1654.17 500.75 1624.49 500.75C1624.49 471.68 1624.49 442.37 1624.49 412.76C1653.75 412.76 1682.88 412.76 1712.34 412.76C1712.34 417.57 1712.34 422.08 1712.34 427.16C1693.06 427.16 1673.92 427.16 1654.27 427.16C1654.27 434.63 1654.27 441.54 1654.27 449.32C1668.49 449.32 1682.95 449.32 1697.69 449.32C1697.69 454.72 1697.69 459.28 1697.69 464.3C1683.34 464.3 1669.03 464.3 1654.24 464.3C1654.24 471.66 1654.24 478.58 1654.24 486.12C1673.42 486.11 1692.56 486.11 1712.48 486.11Z" fill="#010101"/>
<path d="M1513.38 501.28C1502.91 501.28 1480.5 501.35 1480.5 501.35L1474.49 486.58L1455.43 486.48L1450.86 501.35C1450.86 501.35 1432.95 501.41 1424.58 501.41C1434.81 471.34 1454.84 412.53 1454.84 412.53L1483.83 412.47C1483.82 412.46 1503.92 472.16 1513.38 501.28ZM1470.86 471.39C1468.58 464.25 1466.56 457.9 1463.94 449.68C1461.93 457.93 1460.35 464.39 1458.65 471.39C1462.97 471.39 1466.52 471.39 1470.86 471.39Z" fill="#010101"/>
<path d="M1081.26 412.649C1110.63 412.649 1139.6 412.649 1169.04 412.649C1169.04 417.289 1169.04 421.789 1169.04 427.129C1149.99 427.129 1130.65 427.129 1110.96 427.129C1110.96 434.869 1110.96 441.789 1110.96 449.329C1125.42 449.329 1139.69 449.329 1154.38 449.329C1154.38 454.439 1154.38 458.959 1154.38 464.269C1140.16 464.269 1125.72 464.269 1110.63 464.269C1110.63 476.849 1110.63 488.679 1110.63 500.889C1100.56 500.889 1091.15 500.889 1081.25 500.889C1081.26 471.669 1081.26 442.549 1081.26 412.649Z" fill="#010101"/>
<path d="M1243.87 427.349C1243.87 452.319 1243.87 476.16 1243.87 500.65C1234.06 500.65 1224.51 500.65 1214.22 500.65C1214.22 476.56 1214.22 452.34 1214.22 427.549C1204.09 427.549 1194.68 427.549 1184.78 427.549C1184.78 422.499 1184.78 418.009 1184.78 412.979C1213.93 412.979 1243.2 412.979 1272.82 412.979C1272.82 417.639 1272.82 422.179 1272.82 427.349C1263.47 427.349 1254.06 427.349 1243.87 427.349Z" fill="#010101"/>
<path d="M310.23 779.84V560.06H90.4502V309.03H310.23V89.25H561.25V309.03H781.04V560.06H561.25V779.84H310.23Z" fill="#BA2026"/>
<path d="M557.39 93.1097V312.89H777.17V556.2H557.39V775.98H314.09V556.2H94.3103V312.89H314.09V93.1097H557.39ZM565.11 85.3896H557.39H314.09H306.37V93.1097V305.17H94.3103H86.5903V312.89V556.2V563.92H94.3103H306.37V775.98V783.7H314.09H557.4H565.12V775.98V563.92H777.18H784.9V556.2V312.89V305.17H777.18H565.11V93.1097V85.3896Z" fill="#010101"/>
<path d="M436.08 560.44C505.63 560.44 562.01 504.059 562.01 434.51C562.01 364.961 505.63 308.58 436.08 308.58C366.531 308.58 310.15 364.961 310.15 434.51C310.15 504.059 366.531 560.44 436.08 560.44Z" fill="white"/>
<path d="M538.147 451.264C547.388 394.874 509.165 341.669 452.774 332.429C396.384 323.189 343.179 361.411 333.939 417.802C324.699 474.193 362.922 527.397 419.312 536.637C475.703 545.878 528.907 507.655 538.147 451.264Z" fill="#BA2026"/>
<path d="M280.54 463.939V405.359L58.9199 434.149L280.54 463.939Z" fill="white"/>
<path d="M529.21 435.39L374.87 508.42L418.24 436.45L374.47 364.49L529.21 435.39Z" fill="white"/>
<path d="M280.54 463.939V405.359L58.9199 434.149L280.54 463.939Z" fill="white"/>
<path d="M406.47 280.55H465.05L436.26 58.9297L406.47 280.55Z" fill="white"/>
<path d="M464.91 590.54H406.33L435.12 812.17L464.91 590.54Z" fill="white"/>
<path d="M590.58 463.939V405.359L812.21 434.149L590.58 463.939Z" fill="white"/>
</svg>
