<svg xmlns="http://www.w3.org/2000/svg" id="Vrstva_1" version="1.1" viewBox="117.4 225.3 607.1 144.7" width="607.1" height="144.7">
  <!-- Generator: Adobe Illustrator 29.4.0, SVG Export Plug-In . SVG Version: 2.1.0 Build 152)  -->
  <defs>
    <style>
      .st0 {
        fill: #801c7d;
      }
    </style>
  </defs>
  <g>
    <path class="st0" d="M117.4,315.5h9.8l28.5,35.7v-35.7h10.4v53.7h-9.8l-28.5-35.7v35.7h-10.4v-53.7Z"/>
    <path class="st0" d="M193.8,315.5h12.6l21.8,53.7h-11.7l-4.7-12.1h-23.9l-4.7,12.1h-11.2l21.8-53.7ZM208.5,347.9l-8.7-22.2-8.6,22.2h17.3Z"/>
    <path class="st0" d="M234.1,315.5h21.6c15.8,0,27.4,11.7,27.4,26.8s-11.6,26.8-27.4,26.8h-21.6v-53.7ZM255.1,360c9.8,0,16.7-7.7,16.7-17.6s-6.9-17.6-16.7-17.6h-10.3v35.3h10.3Z"/>
    <path class="st0" d="M306.6,315.5h12.6l21.8,53.7h-11.7l-4.7-12.1h-23.9l-4.7,12.1h-11.2l21.8-53.7ZM321.3,347.9l-8.7-22.2-8.6,22.2h17.3Z"/>
    <path class="st0" d="M369.9,314.8c13.2,0,23.2,8.4,25.5,19.6h-11.5c-2.2-6.2-7.4-10.4-14-10.4-9.4,0-16,8-16,18.4s6.6,18.4,16,18.4,11.8-4.2,14-10.4h11.5c-2.4,11.1-12.3,19.6-25.5,19.6s-27.2-12-27.2-27.6,11.4-27.6,27.2-27.6ZM355.2,298.7h8.7l6,7,6.1-7h8.5l-9,13h-11.4l-9-13Z"/>
    <path class="st0" d="M404.5,315.5h9.8l28.5,35.7v-35.7h10.4v53.7h-9.8l-28.5-35.7v35.7h-10.4v-53.7Z"/>
    <path class="st0" d="M471.9,299.4h14.2l-13.7,12.3h-9.6l9-12.3ZM463.7,315.5h10.7v53.7h-10.7v-53.7Z"/>
    <path class="st0" d="M507.8,315.5h39.8v9.2h-29.1v14.6h25.2v9.2h-25.2v20.7h-10.7v-53.7Z"/>
    <path class="st0" d="M579.4,314.8c16.1,0,27.9,12,27.9,27.6s-11.8,27.6-27.9,27.6-27.9-12-27.9-27.6,11.8-27.6,27.9-27.6ZM579.4,360.8c9.6,0,16.7-8,16.7-18.4s-7.1-18.4-16.7-18.4-16.7,8-16.7,18.4,7.1,18.4,16.7,18.4Z"/>
    <path class="st0" d="M616.3,315.5h9.8l28.5,35.7v-35.7h10.4v53.7h-9.8l-28.5-35.7v35.7h-10.4v-53.7Z"/>
    <path class="st0" d="M675.5,315.5h21.6c15.8,0,27.4,11.7,27.4,26.8s-11.6,26.8-27.4,26.8h-21.6v-53.7ZM696.6,360c9.8,0,16.7-7.7,16.7-17.6s-6.9-17.6-16.7-17.6h-10.3v35.3h10.3Z"/>
  </g>
  <g>
    <path class="st0" d="M117.4,226h10.7v53.7h-10.7v-53.7Z"/>
    <path class="st0" d="M163.5,225.3c16.1,0,27.9,12,27.9,27.6s-11.8,27.6-27.9,27.6-27.9-12-27.9-27.6,11.8-27.6,27.9-27.6ZM163.5,271.3c9.6,0,16.7-8,16.7-18.4s-7.1-18.4-16.7-18.4-16.7,8-16.7,18.4,7.1,18.4,16.7,18.4Z"/>
    <path class="st0" d="M223.6,225.3c13.2,0,23.2,8.4,25.6,19.6h-11.5c-2.2-6.2-7.4-10.4-14-10.4-9.4,0-16,8-16,18.4s6.6,18.4,16,18.4,11.8-4.2,14-10.4h11.5c-2.4,11.1-12.3,19.6-25.6,19.6s-27.2-12-27.2-27.6,11.4-27.6,27.2-27.6Z"/>
    <path class="st0" d="M256.4,226h27.6c9.3,0,15.6,6.4,15.6,14.7s-2.4,9.2-6.2,11.7c4.8,2.4,7.8,7.1,7.8,12.7,0,8.2-6.4,14.7-15.6,14.7h-29.2v-53.7ZM281.8,248.5c4.3,0,7.1-2.9,7.1-6.8s-2.8-6.8-7.1-6.8h-15v13.6h15ZM283.3,270.9c4.3,0,7.1-3,7.1-6.8s-2.8-6.8-7.1-6.8h-16.6v13.7h16.6Z"/>
    <path class="st0" d="M343.1,235.3h-18.1v-9.2h47v9.2h-18.1v44.5h-10.7v-44.5h0Z"/>
    <path class="st0" d="M376.2,226h40.6v9.2h-29.8v13h26v9.2h-26v13h29.8v9.2h-40.6v-53.7Z"/>
    <path class="st0" d="M448.8,225.3c13.2,0,23.2,8.4,25.6,19.6h-11.5c-2.2-6.2-7.4-10.4-14-10.4-9.4,0-16,8-16,18.4s6.6,18.4,16,18.4,11.8-4.2,14-10.4h11.5c-2.4,11.1-12.3,19.6-25.6,19.6s-27.2-12-27.2-27.6,11.4-27.6,27.2-27.6Z"/>
    <path class="st0" d="M533.7,226h10.7v22.2h27.2v-22.2h10.7v53.7h-10.7v-22.2h-27.2v22.2h-10.7v-53.7Z"/>
    <path class="st0" d="M522.6,255.6h-40.9v-5.2h40.9v5.2Z"/>
  </g>
</svg>