<svg xmlns="http://www.w3.org/2000/svg" width="320.246" height="30" viewBox="0 0 320.246 30">
  <g id="Group_697" data-name="Group 697" transform="translate(-33 -115)">
    <rect id="Rectangle_357" data-name="Rectangle 357" width="22.218" height="2.825" transform="translate(298.586 128.588)" fill="#801c7d"/>
    <rect id="Rectangle_358" data-name="Rectangle 358" width="5.833" height="29.167" transform="translate(100.667 115.417)" fill="#801c7d"/>
    <path id="Path_9972" data-name="Path 9972" d="M158.669,0a14.722,14.722,0,0,1,15.167,15A15.168,15.168,0,0,1,143.5,15,14.722,14.722,0,0,1,158.669,0m0,25c5.208,0,9.083-4.333,9.083-10s-3.875-10-9.083-10-9.083,4.333-9.083,10,3.875,10,9.083,10" transform="translate(-33.002 115)" fill="#801c7d"/>
    <path id="Path_9973" data-name="Path 9973" d="M219.485,0c7.167,0,12.583,4.541,13.875,10.625h-6.25A8.027,8.027,0,0,0,219.485,5c-5.083,0-8.666,4.333-8.666,10s3.583,10,8.666,10a8.08,8.08,0,0,0,7.625-5.625h6.25C232.068,25.416,226.651,30,219.485,30c-8.542,0-14.75-6.5-14.75-15s6.208-15,14.75-15" transform="translate(-61.165 115)" fill="#801c7d"/>
    <path id="Path_9974" data-name="Path 9974" d="M265,.772h15c5.042,0,8.5,3.458,8.5,7.958a7.549,7.549,0,0,1-3.375,6.375,7.46,7.46,0,0,1,4.208,6.874c0,4.459-3.458,7.958-8.5,7.958H265Zm13.792,12.167a3.59,3.59,0,0,0,3.833-3.667,3.622,3.622,0,0,0-3.833-3.708h-8.167v7.375Zm.833,12.208a3.71,3.71,0,1,0,0-7.417h-9v7.417Z" transform="translate(-88.884 114.645)" fill="#801c7d"/>
    <path id="Path_9975" data-name="Path 9975" d="M343.815,5.771h-9.833v-5h25.5v5h-9.833V29.938h-5.833Z" transform="translate(-120.61 114.646)" fill="#801c7d"/>
    <path id="Path_9976" data-name="Path 9976" d="M385.508.771H407.55v5H391.341v7.083h14.125v5H391.341v7.083H407.55v5H385.508Z" transform="translate(-144.309 114.646)" fill="#801c7d"/>
    <path id="Path_9977" data-name="Path 9977" d="M445.943,0c7.167,0,12.583,4.541,13.875,10.625h-6.25A8.027,8.027,0,0,0,445.943,5c-5.083,0-8.666,4.333-8.666,10s3.583,10,8.666,10a8.081,8.081,0,0,0,7.625-5.625h6.25C458.526,25.416,453.109,30,445.943,30c-8.542,0-14.75-6.5-14.75-15S437.4,0,445.943,0" transform="translate(-165.321 115)" fill="#801c7d"/>
    <path id="Path_9978" data-name="Path 9978" d="M544.063.771H549.9V12.855h14.75V.771h5.834V29.938h-5.834V17.855H549.9V29.938h-5.833Z" transform="translate(-217.234 114.646)" fill="#801c7d"/>
    <path id="Path_9979" data-name="Path 9979" d="M0,.771H5.333L20.791,20.188V.771h5.625V29.938H21.083L5.625,10.521V29.938H0Z" transform="translate(33 114.646)" fill="#801c7d"/>
    <path id="Path_9980" data-name="Path 9980" d="M58.864.771H80.489v5H64.7v7.917H78.406v5H64.7v11.25H58.864Z" transform="translate(5.926 114.646)" fill="#801c7d"/>
  </g>
</svg>
