<svg xmlns="http://www.w3.org/2000/svg" xmlns:xlink="http://www.w3.org/1999/xlink" width="50" zoomAndPan="magnify" viewBox="0 0 37.5 37.499999" height="50" preserveAspectRatio="xMidYMid meet" version="1.0"><defs><g/><clipPath id="8a80114021"><path d="M 0 0 L 37.007812 0 L 37.007812 37.007812 L 0 37.007812 Z M 0 0 " clip-rule="nonzero"/></clipPath></defs><g clip-path="url(#8a80114021)"><path fill="#ffffff" d="M 0 0 L 37.007812 0 L 37.007812 37.007812 L 0 37.007812 Z M 0 0 " fill-opacity="1" fill-rule="nonzero"/><path fill="#ffffff" d="M 0 0 L 37.007812 0 L 37.007812 37.007812 L 0 37.007812 Z M 0 0 " fill-opacity="1" fill-rule="nonzero"/></g><g fill="#1175da" fill-opacity="1"><g transform="translate(7.470436, 28.891089)"><g><path d="M 10.296875 -20.796875 L 10.296875 0 L 5.90625 0 L 5.90625 -15.40625 L 5.71875 -15.40625 C 5.488281 -15.0625 5.007812 -14.71875 4.28125 -14.375 C 3.5625 -14.039062 2.628906 -13.875 1.484375 -13.875 L 1.484375 -17.359375 C 2.378906 -17.359375 3.160156 -17.554688 3.828125 -17.953125 C 4.492188 -18.347656 5.015625 -18.816406 5.390625 -19.359375 C 5.773438 -19.898438 5.972656 -20.378906 5.984375 -20.796875 Z M 10.296875 -20.796875 "/></g></g></g><g fill="#1175da" fill-opacity="1"><g transform="translate(21.02315, 28.891089)"><g><path d="M 4.25 0.265625 C 3.582031 0.265625 3.007812 0.03125 2.53125 -0.4375 C 2.050781 -0.914062 1.8125 -1.492188 1.8125 -2.171875 C 1.8125 -2.835938 2.050781 -3.40625 2.53125 -3.875 C 3.007812 -4.351562 3.582031 -4.59375 4.25 -4.59375 C 4.90625 -4.59375 5.472656 -4.351562 5.953125 -3.875 C 6.441406 -3.40625 6.6875 -2.835938 6.6875 -2.171875 C 6.6875 -1.492188 6.441406 -0.914062 5.953125 -0.4375 C 5.472656 0.03125 4.90625 0.265625 4.25 0.265625 Z M 4.25 0.265625 "/></g></g></g></svg>