<svg xmlns="http://www.w3.org/2000/svg" xmlns:xlink="http://www.w3.org/1999/xlink" width="50" zoomAndPan="magnify" viewBox="0 0 37.5 37.499999" height="50" preserveAspectRatio="xMidYMid meet" version="1.0"><defs><g/><clipPath id="78ecc7f04c"><path d="M 0 0 L 37.007812 0 L 37.007812 37.007812 L 0 37.007812 Z M 0 0 " clip-rule="nonzero"/></clipPath></defs><g clip-path="url(#78ecc7f04c)"><path fill="#ffffff" d="M 0 0 L 37.007812 0 L 37.007812 37.007812 L 0 37.007812 Z M 0 0 " fill-opacity="1" fill-rule="nonzero"/><path fill="#1175da" d="M 0 0 L 37.007812 0 L 37.007812 37.007812 L 0 37.007812 Z M 0 0 " fill-opacity="1" fill-rule="nonzero"/></g><g fill="#ffffff" fill-opacity="1"><g transform="translate(9.076211, 28.541375)"><g><path d="M 9.375 0.28125 C 7.851562 0.28125 6.5 0.0195312 5.3125 -0.5 C 4.132812 -1.019531 3.207031 -1.742188 2.53125 -2.671875 C 1.851562 -3.597656 1.503906 -4.664062 1.484375 -5.875 L 5.90625 -5.875 C 5.945312 -5.113281 6.296875 -4.5 6.953125 -4.03125 C 7.609375 -3.570312 8.414062 -3.34375 9.375 -3.34375 C 10.382812 -3.34375 11.207031 -3.597656 11.84375 -4.109375 C 12.488281 -4.628906 12.804688 -5.304688 12.796875 -6.140625 C 12.804688 -6.972656 12.46875 -7.65625 11.78125 -8.1875 C 11.09375 -8.71875 10.160156 -8.984375 8.984375 -8.984375 L 7.046875 -8.984375 L 7.046875 -12.21875 L 8.984375 -12.21875 C 9.984375 -12.21875 10.796875 -12.46875 11.421875 -12.96875 C 12.054688 -13.476562 12.375 -14.140625 12.375 -14.953125 C 12.375 -15.742188 12.101562 -16.378906 11.5625 -16.859375 C 11.019531 -17.347656 10.300781 -17.59375 9.40625 -17.59375 C 8.507812 -17.59375 7.742188 -17.351562 7.109375 -16.875 C 6.472656 -16.40625 6.140625 -15.773438 6.109375 -14.984375 L 1.90625 -14.984375 C 1.914062 -16.179688 2.253906 -17.238281 2.921875 -18.15625 C 3.585938 -19.070312 4.484375 -19.785156 5.609375 -20.296875 C 6.734375 -20.816406 8.007812 -21.078125 9.4375 -21.078125 C 10.863281 -21.078125 12.113281 -20.816406 13.1875 -20.296875 C 14.269531 -19.773438 15.109375 -19.070312 15.703125 -18.1875 C 16.304688 -17.300781 16.609375 -16.3125 16.609375 -15.21875 C 16.609375 -14.050781 16.242188 -13.078125 15.515625 -12.296875 C 14.785156 -11.523438 13.84375 -11.035156 12.6875 -10.828125 L 12.6875 -10.65625 C 14.21875 -10.46875 15.382812 -9.941406 16.1875 -9.078125 C 16.988281 -8.210938 17.382812 -7.132812 17.375 -5.84375 C 17.382812 -4.65625 17.046875 -3.597656 16.359375 -2.671875 C 15.671875 -1.753906 14.722656 -1.03125 13.515625 -0.5 C 12.304688 0.0195312 10.925781 0.28125 9.375 0.28125 Z M 9.375 0.28125 "/></g></g></g></svg>