<svg xmlns="http://www.w3.org/2000/svg" xmlns:xlink="http://www.w3.org/1999/xlink" width="50" zoomAndPan="magnify" viewBox="0 0 37.5 37.499999" height="50" preserveAspectRatio="xMidYMid meet" version="1.0"><defs><g/><clipPath id="b03a6919b8"><path d="M 0 0 L 37.007812 0 L 37.007812 37.007812 L 0 37.007812 Z M 0 0 " clip-rule="nonzero"/></clipPath></defs><g clip-path="url(#b03a6919b8)"><path fill="#ffffff" d="M 0 0 L 37.007812 0 L 37.007812 37.007812 L 0 37.007812 Z M 0 0 " fill-opacity="1" fill-rule="nonzero"/><path fill="#1175da" d="M 0 0 L 37.007812 0 L 37.007812 37.007812 L 0 37.007812 Z M 0 0 " fill-opacity="1" fill-rule="nonzero"/></g><g fill="#ffffff" fill-opacity="1"><g transform="translate(8.808892, 28.54139)"><g><path d="M 1.375 -3.65625 L 1.375 -7.125 L 10.046875 -20.796875 L 15.5625 -20.796875 L 15.5625 -7.171875 L 18.140625 -7.171875 L 18.140625 -3.65625 L 15.5625 -3.65625 L 15.5625 0 L 11.359375 0 L 11.359375 -3.65625 Z M 11.4375 -7.171875 L 11.4375 -16 L 11.265625 -16 L 5.796875 -7.34375 L 5.796875 -7.171875 Z M 11.4375 -7.171875 "/></g></g></g></svg>