<svg xmlns="http://www.w3.org/2000/svg" xmlns:xlink="http://www.w3.org/1999/xlink" width="50" zoomAndPan="magnify" viewBox="0 0 37.5 37.499999" height="50" preserveAspectRatio="xMidYMid meet" version="1.0"><defs><g/><clipPath id="536bb29a4e"><path d="M 0 0 L 37.007812 0 L 37.007812 37.007812 L 0 37.007812 Z M 0 0 " clip-rule="nonzero"/></clipPath></defs><g clip-path="url(#536bb29a4e)"><path fill="#ffffff" d="M 0 0 L 37.007812 0 L 37.007812 37.007812 L 0 37.007812 Z M 0 0 " fill-opacity="1" fill-rule="nonzero"/><path fill="#ffffff" d="M 0 0 L 37.007812 0 L 37.007812 37.007812 L 0 37.007812 Z M 0 0 " fill-opacity="1" fill-rule="nonzero"/></g><g fill="#1175da" fill-opacity="1"><g transform="translate(4.55907, 28.54139)"><g><path d="M 1.375 -3.65625 L 1.375 -7.125 L 10.046875 -20.796875 L 15.5625 -20.796875 L 15.5625 -7.171875 L 18.140625 -7.171875 L 18.140625 -3.65625 L 15.5625 -3.65625 L 15.5625 0 L 11.359375 0 L 11.359375 -3.65625 Z M 11.4375 -7.171875 L 11.4375 -16 L 11.265625 -16 L 5.796875 -7.34375 L 5.796875 -7.171875 Z M 11.4375 -7.171875 "/></g></g></g><g fill="#1175da" fill-opacity="1"><g transform="translate(23.938508, 28.54139)"><g><path d="M 4.25 0.265625 C 3.582031 0.265625 3.007812 0.03125 2.53125 -0.4375 C 2.050781 -0.914062 1.8125 -1.492188 1.8125 -2.171875 C 1.8125 -2.835938 2.050781 -3.40625 2.53125 -3.875 C 3.007812 -4.351562 3.582031 -4.59375 4.25 -4.59375 C 4.90625 -4.59375 5.472656 -4.351562 5.953125 -3.875 C 6.441406 -3.40625 6.6875 -2.835938 6.6875 -2.171875 C 6.6875 -1.492188 6.441406 -0.914062 5.953125 -0.4375 C 5.472656 0.03125 4.90625 0.265625 4.25 0.265625 Z M 4.25 0.265625 "/></g></g></g></svg>