<svg xmlns="http://www.w3.org/2000/svg" xmlns:xlink="http://www.w3.org/1999/xlink" width="50" zoomAndPan="magnify" viewBox="0 0 37.5 37.499999" height="50" preserveAspectRatio="xMidYMid meet" version="1.0"><defs><g/><clipPath id="865868b921"><path d="M 0 0 L 37.007812 0 L 37.007812 37.007812 L 0 37.007812 Z M 0 0 " clip-rule="nonzero"/></clipPath></defs><g clip-path="url(#865868b921)"><path fill="#ffffff" d="M 0 0 L 37.007812 0 L 37.007812 37.007812 L 0 37.007812 Z M 0 0 " fill-opacity="1" fill-rule="nonzero"/><path fill="#ffffff" d="M 0 0 L 37.007812 0 L 37.007812 37.007812 L 0 37.007812 Z M 0 0 " fill-opacity="1" fill-rule="nonzero"/></g><g fill="#1175da" fill-opacity="1"><g transform="translate(5.033697, 28.54139)"><g><path d="M 9.28125 0.28125 C 7.84375 0.28125 6.5625 0.0195312 5.4375 -0.5 C 4.3125 -1.03125 3.421875 -1.757812 2.765625 -2.6875 C 2.117188 -3.613281 1.78125 -4.675781 1.75 -5.875 L 6.015625 -5.875 C 6.078125 -5.070312 6.414062 -4.421875 7.03125 -3.921875 C 7.65625 -3.421875 8.40625 -3.171875 9.28125 -3.171875 C 10.3125 -3.171875 11.15625 -3.507812 11.8125 -4.1875 C 12.476562 -4.863281 12.8125 -5.742188 12.8125 -6.828125 C 12.8125 -7.910156 12.472656 -8.796875 11.796875 -9.484375 C 11.128906 -10.171875 10.269531 -10.519531 9.21875 -10.53125 C 8.601562 -10.53125 8.007812 -10.40625 7.4375 -10.15625 C 6.875 -9.90625 6.429688 -9.5625 6.109375 -9.125 L 2.203125 -9.828125 L 3.1875 -20.796875 L 15.90625 -20.796875 L 15.90625 -17.203125 L 6.8125 -17.203125 L 6.28125 -11.984375 L 6.390625 -11.984375 C 6.765625 -12.503906 7.316406 -12.929688 8.046875 -13.265625 C 8.785156 -13.609375 9.613281 -13.78125 10.53125 -13.78125 C 11.78125 -13.78125 12.894531 -13.484375 13.875 -12.890625 C 14.863281 -12.304688 15.640625 -11.5 16.203125 -10.46875 C 16.773438 -9.4375 17.054688 -8.257812 17.046875 -6.9375 C 17.054688 -5.53125 16.734375 -4.285156 16.078125 -3.203125 C 15.421875 -2.117188 14.507812 -1.265625 13.34375 -0.640625 C 12.175781 -0.0234375 10.820312 0.28125 9.28125 0.28125 Z M 9.28125 0.28125 "/></g></g></g><g fill="#1175da" fill-opacity="1"><g transform="translate(23.458878, 28.54139)"><g><path d="M 4.25 0.265625 C 3.582031 0.265625 3.007812 0.03125 2.53125 -0.4375 C 2.050781 -0.914062 1.8125 -1.492188 1.8125 -2.171875 C 1.8125 -2.835938 2.050781 -3.40625 2.53125 -3.875 C 3.007812 -4.351562 3.582031 -4.59375 4.25 -4.59375 C 4.90625 -4.59375 5.472656 -4.351562 5.953125 -3.875 C 6.441406 -3.40625 6.6875 -2.835938 6.6875 -2.171875 C 6.6875 -1.492188 6.441406 -0.914062 5.953125 -0.4375 C 5.472656 0.03125 4.90625 0.265625 4.25 0.265625 Z M 4.25 0.265625 "/></g></g></g></svg>