<svg xmlns="http://www.w3.org/2000/svg" xmlns:xlink="http://www.w3.org/1999/xlink" width="50" zoomAndPan="magnify" viewBox="0 0 37.5 37.499999" height="50" preserveAspectRatio="xMidYMid meet" version="1.0"><defs><g/><clipPath id="2fe78aa98f"><path d="M 0 0 L 37.007812 0 L 37.007812 37.007812 L 0 37.007812 Z M 0 0 " clip-rule="nonzero"/></clipPath></defs><g clip-path="url(#2fe78aa98f)"><path fill="#ffffff" d="M 0 0 L 37.007812 0 L 37.007812 37.007812 L 0 37.007812 Z M 0 0 " fill-opacity="1" fill-rule="nonzero"/><path fill="#1175da" d="M 0 0 L 37.007812 0 L 37.007812 37.007812 L 0 37.007812 Z M 0 0 " fill-opacity="1" fill-rule="nonzero"/></g><g fill="#ffffff" fill-opacity="1"><g transform="translate(9.0653, 28.541382)"><g><path d="M 9.671875 0.28125 C 8.597656 0.28125 7.566406 0.101562 6.578125 -0.25 C 5.585938 -0.613281 4.695312 -1.1875 3.90625 -1.96875 C 3.125 -2.757812 2.503906 -3.804688 2.046875 -5.109375 C 1.597656 -6.421875 1.367188 -8.03125 1.359375 -9.9375 C 1.367188 -12.28125 1.722656 -14.285156 2.421875 -15.953125 C 3.117188 -17.628906 4.097656 -18.910156 5.359375 -19.796875 C 6.617188 -20.691406 8.101562 -21.140625 9.8125 -21.140625 C 11.207031 -21.140625 12.429688 -20.867188 13.484375 -20.328125 C 14.546875 -19.785156 15.398438 -19.050781 16.046875 -18.125 C 16.703125 -17.195312 17.097656 -16.148438 17.234375 -14.984375 L 12.890625 -14.984375 C 12.722656 -15.753906 12.367188 -16.34375 11.828125 -16.75 C 11.285156 -17.164062 10.613281 -17.375 9.8125 -17.375 C 8.457031 -17.375 7.429688 -16.78125 6.734375 -15.59375 C 6.035156 -14.414062 5.679688 -12.800781 5.671875 -10.75 L 5.8125 -10.75 C 6.28125 -11.664062 6.984375 -12.378906 7.921875 -12.890625 C 8.859375 -13.410156 9.898438 -13.671875 11.046875 -13.671875 C 12.273438 -13.671875 13.375 -13.378906 14.34375 -12.796875 C 15.3125 -12.222656 16.070312 -11.429688 16.625 -10.421875 C 17.175781 -9.421875 17.445312 -8.269531 17.4375 -6.96875 C 17.445312 -5.5625 17.125 -4.304688 16.46875 -3.203125 C 15.8125 -2.109375 14.898438 -1.25 13.734375 -0.625 C 12.566406 -0.0078125 11.210938 0.289062 9.671875 0.28125 Z M 9.640625 -3.171875 C 10.660156 -3.171875 11.503906 -3.519531 12.171875 -4.21875 C 12.847656 -4.925781 13.1875 -5.800781 13.1875 -6.84375 C 13.1875 -7.875 12.851562 -8.738281 12.1875 -9.4375 C 11.53125 -10.144531 10.691406 -10.5 9.671875 -10.5 C 9.003906 -10.5 8.398438 -10.332031 7.859375 -10 C 7.328125 -9.664062 6.90625 -9.222656 6.59375 -8.671875 C 6.28125 -8.117188 6.117188 -7.503906 6.109375 -6.828125 C 6.109375 -6.148438 6.257812 -5.535156 6.5625 -4.984375 C 6.875 -4.429688 7.296875 -3.988281 7.828125 -3.65625 C 8.359375 -3.332031 8.960938 -3.171875 9.640625 -3.171875 Z M 9.640625 -3.171875 "/></g></g></g></svg>