<?xml version="1.0" encoding="UTF-8"?>
<!DOCTYPE svg PUBLIC "-//W3C//DTD SVG 1.1//EN" "http://www.w3.org/Graphics/SVG/1.1/DTD/svg11.dtd">
<!-- Creator: CorelDRAW Home & Student 2019 -->
<svg xmlns="http://www.w3.org/2000/svg" xml:space="preserve" width="3.684mm" height="4.835mm" version="1.1" style="shape-rendering:geometricPrecision; text-rendering:geometricPrecision; image-rendering:optimizeQuality; fill-rule:evenodd; clip-rule:evenodd"
viewBox="0 0 12.41 16.29"
 xmlns:xlink="http://www.w3.org/1999/xlink">
 <defs>
  <style type="text/css">
   <![CDATA[
    .fil0 {fill:#F2B72B}
    .fil1 {fill:white}
   ]]>
  </style>
 </defs>
 <g id="Vrstva_x0020_1">
  <metadata id="CorelCorpID_0Corel-Layer"/>
  <polygon class="fil0" points="12.41,12.41 8.44,12.41 6.21,16.29 3.97,12.41 -0,12.41 -0,0 12.41,0 "/>
  <g id="_627174288">
   <g>
    <polygon class="fil1" points="4.2,6.23 4.33,6.36 3.41,9 3.03,9 3.03,9 2.22,8.19 2.22,7.03 3.03,6.23 3.03,4.63 2.86,4.13 4.37,4.13 4.2,4.63 "/>
    <polygon class="fil1" points="10.19,5.38 10.02,5.88 10.02,8.78 9.8,9 9.33,9 8.07,5.38 "/>
    <path class="fil1" d="M9.15 9.69l-1.89 -5.43 0 -1.03 0.22 -0.5 -2.23 0 0.22 0.5 0 1.03 -1.89 5.43 5.57 0zm-4 -0.39l-1.02 0 1.34 -3.84 -0.32 3.84zm1.47 -3.09l0.89 0 0.1 0.28 -0.89 0 -0.1 -0.28zm0.36 1.03l0.89 0 0.1 0.28 -0.89 0 -0.1 -0.28zm0.36 1.03l0.89 0 0.1 0.28 -0.89 0 -0.1 -0.28z"/>
   </g>
  </g>
 </g>
</svg>
