<?xml version="1.0" encoding="utf-8"?>
<!-- Generator: Adobe Illustrator 27.8.1, SVG Export Plug-In . SVG Version: 6.00 Build 0)  -->
<svg version="1.1" id="Layer_1" xmlns="http://www.w3.org/2000/svg" xmlns:xlink="http://www.w3.org/1999/xlink" x="0px" y="0px"
	 viewBox="0 0 250 250" style="enable-background:new 0 0 250 250;" xml:space="preserve">
<style type="text/css">
	.st0{fill:#F2B72B;}
	.st1{fill:#FFFFFF;}
</style>
<g>
	<polygon class="st1" points="135.51,130.58 153.5,130.58 151.55,124.97 133.56,124.97 	"/>
	<polygon class="st1" points="142.75,151.31 160.73,151.31 158.78,145.7 140.79,145.7 	"/>
	<polygon class="st1" points="149.98,172.05 167.97,172.05 166.01,166.44 148.02,166.44 	"/>
	<path class="st1" d="M0,0v250h250V0H0z M61.01,181.38v-0.16l-16.27-16.27v-23.23l16.27-16.27V93.31l-3.37-10.1h30.29l-3.37,10.1
		v32.14l2.63,2.63l-18.58,53.3H61.01z M72.23,195.12l38.14-109.38V64.98l-4.49-10.1h44.87l-4.49,10.1v20.75l38.14,109.38H72.23z
		 M201.89,118.55v58.34l-4.49,4.49h-9.37l-25.43-72.92h42.65L201.89,118.55z"/>
	<polygon class="st1" points="103.88,187.18 110.37,109.84 83.4,187.18 	"/>
</g>
</svg>
