<?xml version="1.0" encoding="utf-8"?>
<!-- Generator: Adobe Illustrator 27.8.1, SVG Export Plug-In . SVG Version: 6.00 Build 0)  -->
<svg version="1.1" id="Layer_1" xmlns="http://www.w3.org/2000/svg" xmlns:xlink="http://www.w3.org/1999/xlink" x="0px" y="0px"
	 viewBox="0 0 786.46 250" style="enable-background:new 0 0 786.46 250;" xml:space="preserve">
<style type="text/css">
	.st0{fill:#F2B72B;}
	.st1{fill:#FFFFFF;}
</style>
<rect id="Box_00000036959485494407751080000001244893011237084803_" class="st0" width="250" height="250"/>
<g>
	<path d="M335.9,51.44h42.9c25.3,0,40.92,4.62,54.34,16.06c15.62,13.2,23.98,33,23.98,55.88c0,23.1-8.58,44.44-23.32,57.86
		c-12.1,11-29.92,16.94-51.04,16.94H335.9V51.44z M371.54,168.92h5.5c25.96,0,44-18.04,44-44.44c0-12.98-5.28-26.4-13.42-33.88
		c-7.04-6.38-18.48-10.56-29.26-10.56h-6.82V168.92z"/>
	<path d="M505.52,153.74c-0.22,0.88-0.22,1.98-0.22,2.42c0,7.26,7.92,13.42,17.38,13.42c8.58,0,15.18-5.06,15.18-11.66
		c0-6.82-3.96-9.9-21.12-16.06c-32.12-11.44-44.66-24.86-44.66-47.3c0-27.5,20.24-45.98,50.82-45.98c19.8,0,36.08,8.36,44.66,22.66
		c4.18,6.82,6.16,13.2,7.7,23.54h-36.3c-1.1-10.12-6.16-14.74-16.28-14.74c-8.8,0-14.52,4.62-14.52,11.66c0,4.4,2.2,7.92,6.82,10.56
		c2.64,1.76,5.5,3.08,16.72,7.26c16.72,6.38,24.64,10.56,31.24,16.5c8.14,7.48,12.32,17.6,12.32,29.48
		c0,27.28-21.12,45.54-52.58,45.54c-32.12,0-52.14-18.26-52.14-47.3H505.52z"/>
	<path d="M625.42,110.18h48.4V139h-48.4v30.36h48.4v28.82h-84.04V51.44h84.04v28.82h-48.4V110.18z"/>
	<path d="M737.62,110.18h48.84V139h-48.84v59.18h-35.64V51.44h84.48v28.82h-48.84V110.18z"/>
</g>
<g>
	<g>
		<polygon class="st1" points="84.57,125.44 87.2,128.08 68.62,181.38 61.01,181.38 61.01,181.21 44.75,164.95 44.75,141.71 
			61.01,125.44 61.01,93.31 57.65,83.21 87.94,83.21 84.57,93.31 		"/>
		<polygon class="st1" points="205.25,108.45 201.89,118.55 201.89,176.89 197.4,181.38 188.03,181.38 162.6,108.45 		"/>
		<path class="st1" d="M184.42,195.12L146.27,85.73V64.98l4.49-10.1h-44.87l4.49,10.1v20.75L72.23,195.12H184.42z M103.88,187.18
			H83.4l26.97-77.34L103.88,187.18z M133.56,124.97h17.99l1.96,5.61h-17.99L133.56,124.97z M140.79,145.7h17.99l1.95,5.61h-17.99
			L140.79,145.7z M148.02,166.44h17.99l1.96,5.61h-17.99L148.02,166.44z"/>
	</g>
</g>
</svg>
