<?xml version="1.0" encoding="UTF-8"?>
<!DOCTYPE svg PUBLIC "-//W3C//DTD SVG 1.1//EN" "http://www.w3.org/Graphics/SVG/1.1/DTD/svg11.dtd">
<!-- Creator: CorelDRAW Home & Student 2019 -->
<svg xmlns="http://www.w3.org/2000/svg" xml:space="preserve" width="4.835mm" height="3.684mm" version="1.1" style="shape-rendering:geometricPrecision; text-rendering:geometricPrecision; image-rendering:optimizeQuality; fill-rule:evenodd; clip-rule:evenodd"
viewBox="0 0 20.94 15.95"
 xmlns:xlink="http://www.w3.org/1999/xlink">
 <defs>
  <style type="text/css">
   <![CDATA[
    .fil0 {fill:#F2B72B}
    .fil1 {fill:white}
   ]]>
  </style>
 </defs>
 <g id="Vrstva_x0020_1">
  <metadata id="CorelCorpID_0Corel-Layer"/>
  <g id="_1082928432">
   <polygon class="fil0" points="4.98,15.95 4.98,10.85 -0,7.98 4.98,5.1 4.98,0 20.94,0 20.94,15.95 "/>
   <g>
    <g>
     <polygon class="fil1" points="10.38,8 10.55,8.17 9.36,11.57 8.88,11.57 8.88,11.56 7.84,10.53 7.84,9.04 8.88,8 8.88,5.95 8.66,5.31 10.59,5.31 10.38,5.95 "/>
     <polygon class="fil1" points="18.08,6.92 17.87,7.56 17.87,11.29 17.58,11.57 16.98,11.57 15.36,6.92 "/>
     <path class="fil1" d="M16.75 12.45l-2.43 -6.98 0 -1.32 0.29 -0.64 -2.86 0 0.29 0.64 0 1.32 -2.43 6.98 7.16 0zm-5.14 -0.51l-1.31 0 1.72 -4.94 -0.41 4.94zm1.89 -3.97l1.15 0 0.13 0.36 -1.15 0 -0.13 -0.36zm0.46 1.32l1.15 0 0.12 0.36 -1.15 0 -0.12 -0.36zm0.46 1.32l1.15 0 0.13 0.36 -1.15 0 -0.13 -0.36z"/>
    </g>
   </g>
  </g>
 </g>
</svg>
