<?xml version="1.0" encoding="UTF-8"?>
<!DOCTYPE svg PUBLIC "-//W3C//DTD SVG 1.1//EN" "http://www.w3.org/Graphics/SVG/1.1/DTD/svg11.dtd">
<!-- Creator: CorelDRAW Home & Student 2019 -->
<svg xmlns="http://www.w3.org/2000/svg" xml:space="preserve" width="4.835mm" height="3.684mm" version="1.1" style="shape-rendering:geometricPrecision; text-rendering:geometricPrecision; image-rendering:optimizeQuality; fill-rule:evenodd; clip-rule:evenodd"
viewBox="0 0 24.88 18.95"
 xmlns:xlink="http://www.w3.org/1999/xlink">
 <defs>
  <style type="text/css">
   <![CDATA[
    .fil0 {fill:#00AE6B}
    .fil1 {fill:white}
   ]]>
  </style>
 </defs>
 <g id="Vrstva_x0020_1">
  <metadata id="CorelCorpID_0Corel-Layer"/>
  <g id="_1082923848">
   <polygon class="fil0" points="5.92,18.95 5.92,12.9 -0,9.48 5.92,6.06 5.92,0 24.88,0 24.88,18.95 "/>
   <g>
    <path class="fil1" d="M10.93 9.27l0 -4.85 11.76 0 0 7.57 -5.11 0c0,0 0,1.55 0,1.55l0.98 0 0 0.55 -3.49 0 0 -0.55 0.98 0c0,0 0,-1.55 0,-1.55l-0.73 0c0,0 0.23,-0.69 0.23,-0.69l6.46 0c0,0 0,-6.19 0,-6.19l-10.38 0c0,0 0,3.77 0,3.77 -0.23,0.13 -0.46,0.26 -0.69,0.39l0 0z"/>
    <path class="fil1" d="M8.11 11.39l0 0.14c0,0 2.32,-0.03 2.32,-0.03l1.03 1.86 1.17 -0.53 1.33 1.7 2.72 -7.98c0,0 -7.15,4.04 -8.56,4.85l0 -0zm3.88 1.24l0.16 -0.39 0.19 0.23 -0.35 0.16zm-1.14 -1.3l4.92 -3.89 -3.85 4.22 -0.37 0.89 -0.7 -1.22 0 -0z"/>
   </g>
  </g>
 </g>
</svg>
