<?xml version="1.0" encoding="UTF-8"?>
<!DOCTYPE svg PUBLIC "-//W3C//DTD SVG 1.1//EN" "http://www.w3.org/Graphics/SVG/1.1/DTD/svg11.dtd">
<!-- Creator: CorelDRAW Home & Student 2019 -->
<svg xmlns="http://www.w3.org/2000/svg" xml:space="preserve" width="3.684mm" height="4.835mm" version="1.1" style="shape-rendering:geometricPrecision; text-rendering:geometricPrecision; image-rendering:optimizeQuality; fill-rule:evenodd; clip-rule:evenodd"
viewBox="0 0 14.8 19.43"
 xmlns:xlink="http://www.w3.org/1999/xlink">
 <defs>
  <style type="text/css">
   <![CDATA[
    .fil0 {fill:#00AE6B}
    .fil1 {fill:white}
   ]]>
  </style>
 </defs>
 <g id="Vrstva_x0020_1">
  <metadata id="CorelCorpID_0Corel-Layer"/>
  <polygon class="fil0" points="14.8,14.8 10.07,14.8 7.4,19.43 4.73,14.8 -0,14.8 -0,0 14.8,0 "/>
  <g id="_618160456">
   <path class="fil1" d="M3.91 7.24l0 -3.79 9.18 0 0 5.91 -3.99 0c0,0 0,1.21 0,1.21l0.77 0 0 0.43 -2.73 0 0 -0.43 0.77 0c0,0 0,-1.21 0,-1.21l-0.57 0c0,0 0.18,-0.54 0.18,-0.54l5.04 0c0,0 0,-4.84 0,-4.84l-8.11 0c0,0 0,2.95 0,2.95 -0.18,0.1 -0.36,0.2 -0.54,0.3l0 0z"/>
   <path class="fil1" d="M1.71 8.9l0 0.11c0,0 1.81,-0.02 1.81,-0.02l0.8 1.45 0.91 -0.41 1.04 1.33 2.12 -6.23c0,0 -5.58,3.16 -6.69,3.78l0 -0zm3.03 0.97l0.12 -0.31 0.15 0.18 -0.27 0.12zm-0.89 -1.02l3.84 -3.04 -3.01 3.3 -0.29 0.69 -0.54 -0.95 0 -0z"/>
  </g>
 </g>
</svg>
