<?xml version="1.0" encoding="utf-8"?>
<!-- Generator: Adobe Illustrator 26.4.1, SVG Export Plug-In . SVG Version: 6.00 Build 0)  -->
<svg version="1.1" id="Layer_1" xmlns="http://www.w3.org/2000/svg" xmlns:xlink="http://www.w3.org/1999/xlink" x="0px" y="0px"
	 viewBox="0 0 250 250" style="enable-background:new 0 0 250 250;" xml:space="preserve">
<style type="text/css">
	.st0{fill:#1175DA;}
	.st1{fill:#FFFFFF;}
</style>
<path class="st1" d="M0,0v250h250V0H0z M209.49,95.22l-34.62,27.35l-15.21,22.1l-11.67,20.35l-44.32,17.67l-23.27,12.43l-31.64-9.28
	l34.67-2.68l9.32-15.03l-24.58-57.65L28.9,64.92L89.59,95.2l13.21,14.15l28.05,42.81l-23.25,10.72l32.77-7.12l-33.37-44.87
	l2.66-18.36L91.31,54.88l36.97,26.34l10.04,35.26l2.99,20.33l21.55-15.27l3.69-15.18l-23.11-11.19l39.41,2.27l38.26-28.65
	l-32.94,35.17L209.49,95.22z"/>
</svg>
