<?xml version="1.0" encoding="UTF-8"?>
<svg id="Layer_1" data-name="Layer 1" xmlns="http://www.w3.org/2000/svg" viewBox="0 0 1768 250">
  <defs>
    <style>
      .cls-1 {
        fill: #fff;
      }
    </style>
  </defs>
  <g>
    <path class="cls-1" d="M371.54,110.18h48.84v28.82h-48.84v59.18h-35.64V51.44h84.48v28.82h-48.84v29.92Z"/>
    <path class="cls-1" d="M500.68,96.32h35.2l-55.66,147.18h-35.86l18.26-47.3-35.42-99.88h35.42l17.6,53.46,20.46-53.46Z"/>
    <path class="cls-1" d="M624.76,170.46v27.72h-87.34l37.84-74.14h-34.76v-27.72h86.24l-37.84,74.14h35.86Z"/>
    <path class="cls-1" d="M677.11,66.84c0,10.12-7.7,17.6-17.82,17.6s-17.82-7.48-17.82-17.82,7.48-17.82,18.04-17.82,17.6,7.48,17.6,18.04Zm-1.1,131.34h-33.44V96.32h33.44v101.86Z"/>
    <path class="cls-1" d="M734.31,198.18h-33.44V51.44h33.44v81.18l22.66-36.3h37.84l-29.7,48.4,29.7,53.46h-37.84l-22.66-40.7v40.7Z"/>
    <path class="cls-1" d="M808.01,198.18V51.44h33.44V198.18h-33.44Z"/>
    <path class="cls-1" d="M944.63,96.32h33.44v101.86h-33.44v-11.44c-9.24,10.56-20.02,15.4-34.54,15.4-29.04,0-49.94-22.22-49.94-53.46s22.22-56.32,52.8-56.32c12.98,0,21.78,4.18,31.68,14.96v-11Zm-48.84,51.7c0,15.62,10.56,27.72,24.2,27.72s25.08-12.76,25.08-28.16c0-16.28-10.34-27.5-24.86-27.5s-24.42,11.66-24.42,27.94Z"/>
    <path class="cls-1" d="M1036.59,96.32v11.44c6.6-11.22,13.64-15.4,25.96-15.4,10.12,0,19.8,3.74,26.18,9.9,6.82,7.04,9.24,15.4,9.24,33.44v62.48h-33.44v-62.26c0-9.9-5.28-15.84-13.86-15.84s-14.08,6.38-14.08,16.28v61.82h-33.44V96.32h33.44Z"/>
    <path class="cls-1" d="M1156.93,66.84c0,10.12-7.7,17.6-17.82,17.6s-17.82-7.48-17.82-17.82,7.48-17.82,18.04-17.82,17.6,7.48,17.6,18.04Zm-1.1,131.34h-33.44V96.32h33.44v101.86Z"/>
    <path class="cls-1" d="M1304.55,74.1c11.88,13.86,17.16,30.14,17.16,52.14s-8.8,43.34-24.86,56.98c-13.2,11.44-29.92,17.6-46.86,17.6-21.78,0-43.12-10.34-56.76-27.5-10.12-12.76-15.4-29.26-15.4-47.74,0-43.78,31.02-76.78,72.6-76.78,20.46,0,40.04,9.24,54.12,25.3Zm-107.8,50.82c0,34.1,22.44,58.96,52.8,58.96,14.74,0,29.26-6.38,39.16-17.6,8.58-9.46,14.08-25.3,14.08-40.26,0-19.58-5.28-33.88-16.72-44.88-9.68-9.46-23.1-15.18-36.08-15.18-30.58,0-53.24,25.08-53.24,58.96Z"/>
    <path class="cls-1" d="M1364.83,96.76v14.3c8.8-11.88,17.6-16.72,30.14-16.72,9.24,0,17.6,3.08,23.54,8.36,6.38,6.16,8.58,13.2,8.58,27.06v68.42h-16.72v-64.68c0-9.02-1.1-13.86-3.74-17.38-3.08-4.18-9.02-6.82-15.84-6.82-7.48,0-14.3,2.86-19.36,8.58-4.84,5.28-6.6,10.12-6.6,18.48v61.82h-16.72V96.76h16.72Z"/>
    <path class="cls-1" d="M1460.08,198.18V51.44h16.72V198.18h-16.72Z"/>
    <path class="cls-1" d="M1529.6,68.38c0,5.94-4.84,10.56-10.78,10.56s-10.56-4.62-10.56-10.78,4.62-10.78,10.78-10.78,10.56,4.84,10.56,11Zm-2.42,129.8h-16.72V96.76h16.72v101.42Z"/>
    <path class="cls-1" d="M1577.56,96.76v14.3c8.8-11.88,17.6-16.72,30.14-16.72,9.24,0,17.6,3.08,23.54,8.36,6.38,6.16,8.58,13.2,8.58,27.06v68.42h-16.72v-64.68c0-9.02-1.1-13.86-3.74-17.38-3.08-4.18-9.02-6.82-15.84-6.82-7.48,0-14.3,2.86-19.36,8.58-4.84,5.28-6.6,10.12-6.6,18.48v61.82h-16.72V96.76h16.72Z"/>
    <path class="cls-1" d="M1682.5,152.86c.88,8.58,2.42,12.98,6.6,18.48,6.6,9.02,16.28,13.86,27.28,13.86,12.54,0,24.42-6.82,30.36-17.38l14.74,5.5c-8.36,16.94-25.74,27.28-45.1,27.28-30.14,0-51.7-22-51.7-52.8s21.34-53.46,51.04-53.46,51.48,22.22,51.48,51.92c0,1.32,0,4.18-.22,6.6h-84.48Zm66.88-12.32c-.66-7.92-2.2-12.32-5.72-17.38-6.38-8.58-16.72-13.86-27.94-13.86s-21.34,5.28-27.28,14.08c-3.08,4.84-4.4,9.02-5.72,17.16h66.66Z"/>
  </g>
  <g>
    <polygon class="cls-1" points="80.01 166.64 84.63 164.56 82.1 161.47 80.01 166.64"/>
    <polygon class="cls-1" points="64.95 149.5 74.14 165.6 79.03 153.88 129.85 98.21 64.95 149.5"/>
    <path class="cls-1" d="M0,0V250H250V0H0ZM88.46,169.23l-15.38,6.97-13.58-24.49-30.6,.34v-1.79c18.71-10.6,112.97-63.91,112.97-63.91l-35.86,105.25-17.55-22.38Zm132.65-11.05h-67.44v20.45h12.92v7.25h-46.04v-7.25h12.92v-20.45h-9.69l3.09-9.07h85.16V67.45H75.09v49.74c-3.06,1.73-6.1,3.45-9.07,5.13V58.38H221.1v99.8Z"/>
  </g>
</svg>