<?xml version="1.0" encoding="UTF-8"?>
<svg id="Layer_1" data-name="Layer 1" xmlns="http://www.w3.org/2000/svg" viewBox="0 0 250 250">
  <defs>
    <style>
      .cls-1 {
        fill: #00ae6b;
      }

      .cls-2 {
        fill: #fff;
      }
    </style>
  </defs>
  <rect id="Box" class="cls-1" y="0" width="250" height="250"/>
  <g>
    <path class="cls-2" d="M66.02,122.32V58.38H221.1v99.8h-67.44s0,20.45,0,20.45h12.92v7.25h-46.04v-7.25h12.92s0-20.45,0-20.45h-9.69s3.09-9.07,3.09-9.07h85.16s0-81.67,0-81.67H75.09s0,49.74,0,49.74c-3.06,1.73-6.1,3.45-9.07,5.13Z"/>
    <path class="cls-2" d="M28.9,150.28v1.79s30.6-.34,30.6-.34l13.58,24.49,15.38-6.97,17.55,22.38,35.86-105.25s-94.25,53.31-112.97,63.91Zm51.12,16.36l2.08-5.17,2.53,3.09-4.61,2.08Zm-15.06-17.14l64.9-51.28-50.82,55.67-4.89,11.72-9.19-16.1Z"/>
  </g>
</svg>