<?xml version="1.0" encoding="UTF-8"?>
<svg id="Layer_1" data-name="Layer 1" xmlns="http://www.w3.org/2000/svg" viewBox="0 0 250 250">
  <defs>
    <style>
      .cls-1 {
        fill: #fff;
      }
    </style>
  </defs>
  <polygon class="cls-1" points="80.01 166.64 84.63 164.56 82.1 161.47 80.01 166.64"/>
  <polygon class="cls-1" points="64.95 149.5 74.14 165.6 79.03 153.88 129.85 98.21 64.95 149.5"/>
  <path class="cls-1" d="M0,0V250H250V0H0ZM88.46,169.23l-15.38,6.97-13.58-24.49-30.6,.34v-1.79c18.71-10.6,112.97-63.91,112.97-63.91l-35.86,105.25-17.55-22.38Zm132.65-11.05h-67.44v20.45h12.92v7.25h-46.04v-7.25h12.92v-20.45h-9.69l3.09-9.07h85.16V67.45H75.09v49.74c-3.06,1.73-6.1,3.45-9.07,5.13V58.38H221.1v99.8Z"/>
</svg>