<?xml version="1.0" encoding="UTF-8"?>
<!DOCTYPE svg PUBLIC "-//W3C//DTD SVG 1.1//EN" "http://www.w3.org/Graphics/SVG/1.1/DTD/svg11.dtd">
<!-- Creator: CorelDRAW Home & Student 2019 -->
<svg xmlns="http://www.w3.org/2000/svg" xml:space="preserve" width="6760px" height="1000px" version="1.1" style="shape-rendering:geometricPrecision; text-rendering:geometricPrecision; image-rendering:optimizeQuality; fill-rule:evenodd; clip-rule:evenodd"
viewBox="0 0 27394.72 4051.22"
 xmlns:xlink="http://www.w3.org/1999/xlink">
 <defs>
  <style type="text/css">
   <![CDATA[
    .fil0 {fill:#C22D86}
    .fil1 {fill:white}
    .fil2 {fill:black;fill-rule:nonzero}
   ]]>
  </style>
 </defs>
 <g id="Vrstva_x0020_1">
  <metadata id="CorelCorpID_0Corel-Layer"/>
  <g id="_1138645608">
   <rect id="Box_00000083056659096386301490000016113851017412428735_" class="fil0" width="4051.22" height="4051.22"/>
   <path class="fil1" d="M1284.48 747.86c-255.56,357.78 -434.46,690.01 -536.68,971.13l0 153.34c76.67,-306.68 332.23,-715.58 664.46,-1124.47l-127.78 0zm920.02 0c-536.68,281.11 -971.13,587.79 -1175.58,817.79 306.67,-255.56 792.24,-536.68 1354.48,-817.79l-178.9 0zm1098.92 51.11c-664.46,153.33 -1354.48,357.78 -1840.05,587.79 332.23,-153.34 1073.36,-332.23 1840.05,-511.12l0 -76.67zm-690.02 562.23c-383.34,0 -792.24,51.12 -1150.03,153.34 -204.45,51.11 -408.89,102.23 -562.23,255.56 -127.78,127.78 -153.34,357.79 -51.12,511.13 102.23,178.89 306.68,255.56 511.13,306.67 562.23,127.78 1098.91,127.78 1661.15,51.11 153.34,-25.56 178.89,-153.34 178.89,-255.56l0 -766.68c-25.55,-153.34 -102.22,-204.45 -204.45,-230.01l-383.34 -25.56zm-332.23 255.57l357.79 25.55c102.22,0 76.67,102.23 0,102.23 -332.23,0 -638.91,0 -945.58,127.78l-460.01 178.89c-76.67,25.56 -204.45,25.56 -127.78,-76.67 76.67,-127.78 230,-178.89 357.78,-230 255.57,-76.67 536.68,-127.78 817.8,-127.78zm-1533.37 613.34l0 127.78c102.22,281.12 281.12,613.35 562.24,945.58l102.22 0c-332.23,-408.9 -587.79,-766.68 -664.46,-1073.36zm281.12 306.68c204.45,230 587.79,485.56 1098.91,766.68l153.34 0c-511.12,-255.56 -945.58,-511.12 -1252.25,-766.68zm408.9 153.34c485.56,230 1201.14,434.45 1865.6,613.34l0 -102.22c-766.69,-178.9 -1533.37,-357.79 -1865.6,-511.12z"/>
   <polygon class="fil2" points="5813.89,1090.18 6740.87,1090.18 6740.87,833.48 5514.41,833.48 5514.41,3211.54 5813.89,3211.54 5813.89,2141.94 6740.87,2141.94 6740.87,1885.24 5813.89,1885.24 "/>
   <polygon id="1" class="fil2" points="7617.94,2787.26 7175.83,1567.93 6887.05,1567.93 7471.76,3161.62 7129.49,4003.03 7425.41,4003.03 8405.87,1567.93 8109.95,1567.93 "/>
   <polygon id="2" class="fil2" points="8962.06,2972.66 9807.04,1567.93 8598.4,1567.93 8598.4,1806.8 9361.37,1806.8 8505.7,3211.54 9717.9,3211.54 9717.9,2972.66 "/>
   <path id="3" class="fil2" d="M10377.49 1567.93l-270.97 0 0 1643.61 270.97 0 0 -1643.61zm-131.92 -638.19c-99.83,0 -174.7,74.87 -174.7,174.7 0,99.83 74.87,174.7 171.14,174.7 96.26,0 174.7,-74.87 174.7,-171.13 0,-99.83 -74.88,-178.27 -171.14,-178.27z"/>
   <polygon id="4" class="fil2" points="11193.94,2477.08 11849.96,3211.54 12188.67,3211.54 11457.78,2370.13 12192.23,1567.93 11849.96,1567.93 11193.94,2288.12 11193.94,833.48 10922.98,833.48 10922.98,3211.54 11193.94,3211.54 "/>
   <path id="5" class="fil2" d="M13657.58 1838.89c-160.44,-213.91 -342.27,-310.18 -591.84,-310.18 -452.8,0 -780.81,363.66 -780.81,866.37 0,499.14 320.88,855.67 773.67,855.67 249.58,0 434.97,-110.52 598.98,-356.53l0 317.32 270.96 0 0 -1643.61 -270.96 0 0 270.96zm-552.62 -67.74c328,0 556.18,246.01 556.18,602.54 0,352.97 -253.13,641.75 -563.32,641.75 -299.48,0 -527.66,-263.83 -527.66,-613.23 0,-160.43 49.91,-317.31 135.48,-434.97 96.26,-135.48 221.05,-196.09 399.32,-196.09zm221.04 -912.72l-292.35 470.62 192.53 0 420.7 -470.62 -320.88 0z"/>
   <polygon id="6" class="fil2" points="14744.99,3211.54 14744.99,833.48 14474.03,833.48 14474.03,3211.54 "/>
   <path id="7" class="fil2" d="M15290.49 1567.93l0 1643.61 270.96 0 0 -1001.85c0,-135.49 28.53,-213.92 106.96,-299.49 82.01,-92.7 192.53,-139.05 313.75,-139.05 110.52,0 206.79,42.79 256.7,110.53 42.79,57.04 60.61,135.48 60.61,281.66l0 1048.2 270.97 0 0 -1108.81c0,-224.62 -35.66,-338.71 -139.05,-438.54 -96.26,-85.57 -231.75,-135.48 -381.49,-135.48 -203.22,0 -345.83,78.44 -488.45,270.97l0 -231.75 -270.96 0z"/>
   <path id="8" class="fil2" d="M17376.19 1567.93l-270.96 0 0 1643.61 270.96 0 0 -1643.61zm21.4 -709.5l-295.92 470.62 196.09 0 417.14 -470.62 -317.31 0z"/>
   <polygon id="9" class="fil2" points="18452.92,1856.72 19319.3,3211.54 19896.87,3211.54 19896.87,833.48 19319.3,833.48 19319.3,2170.47 18452.92,833.48 17875.34,833.48 17875.34,3211.54 18452.92,3211.54 "/>
   <path id="10" class="fil2" d="M21622.48 1739.06c-160.44,-174.69 -303.05,-242.43 -513.4,-242.43 -495.58,0 -855.68,385.05 -855.68,912.71 0,506.27 338.71,866.37 809.33,866.37 235.31,0 410.01,-78.44 559.75,-249.57l0 185.4 541.93 0 0 -1650.74 -541.93 0 0 178.26zm-395.75 206.79c235.31,0 402.88,181.83 402.88,445.67 0,249.57 -181.83,456.36 -406.44,456.36 -221.05,0 -392.19,-196.09 -392.19,-449.24 0,-263.82 164.01,-452.79 395.75,-452.79zm146.18 -1148.02l-295.92 506.27 320.88 0 495.58 -506.27 -520.54 0z"/>
   <path id="11" class="fil2" d="M23112.78 3033.27c139.05,174.7 288.79,242.44 531.24,242.44 502.7,0 834.27,-349.4 834.27,-880.63 0,-260.26 -82,-484.88 -231.74,-638.19 -160.44,-164 -388.62,-260.26 -620.36,-260.26 -213.92,0 -360.1,64.17 -513.41,228.18l0 -891.33 -541.93 0 0 2378.06 541.93 0 0 -178.27zm395.75 -1087.42c221.05,0 392.19,196.09 392.19,452.79 0,263.84 -167.57,449.24 -402.89,449.24 -224.61,0 -392.18,-188.97 -392.18,-442.1 0,-249.57 185.4,-459.93 402.88,-459.93z"/>
   <path id="12" class="fil2" d="M25615.63 1496.63c-549.06,0 -930.55,367.22 -930.55,891.32 0,516.97 388.62,887.76 923.42,887.76 520.53,0 930.54,-381.49 930.54,-869.93 0,-527.67 -388.62,-909.15 -923.41,-909.15zm0 481.31c235.31,0 377.92,156.88 377.92,420.7 0,235.32 -156.88,399.32 -381.49,399.32 -228.18,0 -385.05,-167.57 -385.05,-410.01 0,-246.01 153.31,-410.01 388.62,-410.01z"/>
   <path id="13" class="fil2" d="M27376.89 1560.8l-541.93 0 0 1650.74c0,164 -71.3,246 -210.35,246 -17.83,0 -49.91,0 -78.44,-3.56l0 492.01c60.61,3.56 121.23,7.13 146.18,7.13 470.63,0 684.54,-231.74 684.54,-741.58l0 -1650.74zm-267.39 -770.11c-171.14,0 -292.36,121.22 -292.36,288.79 0,167.57 121.22,288.79 288.79,288.79 164.01,0 288.79,-121.22 288.79,-285.22 0,-171.14 -117.66,-292.36 -285.22,-292.36z"/>
  </g>
 </g>
</svg>
