<?xml version="1.0" encoding="UTF-8" standalone="no"?>
<svg
   width="100"
   zoomAndPan="magnify"
   viewBox="0 0 75 74.999997"
   height="100"
   preserveAspectRatio="xMidYMid meet"
   version="1.0"
   id="svg15"
   sodipodi:docname="naboj_symbol.svg"
   xml:space="preserve"
   inkscape:version="1.2.2 (732a01da63, 2022-12-09)"
   xmlns:inkscape="http://www.inkscape.org/namespaces/inkscape"
   xmlns:sodipodi="http://sodipodi.sourceforge.net/DTD/sodipodi-0.dtd"
   xmlns="http://www.w3.org/2000/svg"
   xmlns:svg="http://www.w3.org/2000/svg"><sodipodi:namedview
     id="namedview17"
     pagecolor="#ffffff"
     bordercolor="#000000"
     borderopacity="0.25"
     inkscape:showpageshadow="2"
     inkscape:pageopacity="0.0"
     inkscape:pagecheckerboard="0"
     inkscape:deskcolor="#d1d1d1"
     showgrid="false"
     inkscape:zoom="5.1349304"
     inkscape:cx="33.009211"
     inkscape:cy="48.394034"
     inkscape:window-width="1920"
     inkscape:window-height="991"
     inkscape:window-x="-9"
     inkscape:window-y="-9"
     inkscape:window-maximized="1"
     inkscape:current-layer="svg15" /><defs
     id="defs5"><clipPath
       id="79868b745e"><path
         d="M 15.054688 15.015625 L 60.054688 15.015625 L 60.054688 60.015625 L 15.054688 60.015625 Z M 15.054688 15.015625 "
         clip-rule="nonzero"
         id="path2" /></clipPath></defs><path
     id="rect364"
     style="fill:#ffffff;stroke:#000000;stroke-width:0.702272;stroke-opacity:0"
     d="M 0.35113587,0.35113564 V 74.648863 H 74.648863 V 0.35113564 Z M 24.457786,15.096036 h 2.248606 C 20.86002,22.265297 16.363091,29.43487 15.013929,34.811815 v -2.688184 c 1.798883,-4.928867 4.946646,-10.754493 9.443857,-17.027595 z m 16.189677,0 h 3.148929 C 33.90253,20.024902 25.357223,24.953201 19.960571,29.433989 23.558339,25.40128 31.203323,20.024902 40.647463,15.096036 Z m 19.338608,0.895575 v 1.344821 c -13.49163,3.136552 -26.532984,6.273112 -32.379357,8.961585 8.544699,-4.032708 20.686611,-7.617933 32.379357,-10.306406 z m -12.141894,9.858619 6.745822,0.447787 c 1.798884,0.44808 3.147172,1.344532 3.596893,4.033005 v 13.442379 c 0,1.792314 -0.449137,4.032713 -3.147464,4.480792 -9.893862,1.344237 -19.33803,1.343361 -29.231893,-0.897033 -3.597767,-0.896158 -7.195544,-2.239816 -8.994428,-5.376368 -1.798884,-2.688473 -1.349748,-6.721192 0.898857,-8.961586 2.698327,-2.688473 6.296982,-3.584634 9.89475,-4.480793 6.296093,-1.792314 13.491651,-2.688183 20.237463,-2.688183 z m -5.846963,4.480792 c -4.946931,0 -9.893291,0.896161 -14.3905,2.240397 -2.248605,0.896157 -4.94723,1.792611 -6.296392,4.033005 -1.349164,1.792315 0.899444,1.791442 2.248606,1.343362 l 8.094107,-3.135971 c 5.396652,-2.240393 10.7942,-2.240396 16.640572,-2.240396 1.349163,0 1.798883,-1.792609 0,-1.792609 z M 15.013929,41.085217 c 1.349162,5.376946 5.846091,11.649484 11.692463,18.818746 H 24.907214 C 19.960283,54.078938 16.812812,48.25448 15.013929,43.325614 Z m 4.946642,5.376368 c 5.396652,4.480789 13.042223,8.961589 22.036643,13.442378 H 39.299178 C 30.304758,54.975096 23.558339,50.494294 19.960571,46.461585 Z m 7.195251,2.688183 c 5.846372,2.688473 19.338619,5.825034 32.830249,8.961586 v 1.792609 C 48.293325,56.767411 35.70052,53.182478 27.155822,49.149768 Z" /></svg>
