<?xml version="1.0" encoding="UTF-8"?>
<!DOCTYPE svg PUBLIC "-//W3C//DTD SVG 1.1//EN" "http://www.w3.org/Graphics/SVG/1.1/DTD/svg11.dtd">
<!-- Creator: CorelDRAW Home & Student 2019 -->
<svg xmlns="http://www.w3.org/2000/svg" xml:space="preserve" width="4.835mm" height="3.684mm" version="1.1" style="shape-rendering:geometricPrecision; text-rendering:geometricPrecision; image-rendering:optimizeQuality; fill-rule:evenodd; clip-rule:evenodd"
viewBox="0 0 15.78 12.02"
 xmlns:xlink="http://www.w3.org/1999/xlink">
 <defs>
  <style type="text/css">
   <![CDATA[
    .fil0 {fill:#C22D86}
    .fil1 {fill:white}
   ]]>
  </style>
 </defs>
 <g id="Vrstva_x0020_1">
  <metadata id="CorelCorpID_0Corel-Layer"/>
  <g id="_1084166072">
   <polygon class="fil0" points="3.76,12.02 3.76,8.18 -0,6.01 3.76,3.84 3.76,0 15.78,0 15.78,12.02 "/>
   <path class="fil1" d="M7.25 1.68c-0.87,1.21 -1.47,2.34 -1.82,3.29l0 0.52c0.26,-1.04 1.13,-2.43 2.25,-3.81l-0.43 0zm3.12 0c-1.82,0.95 -3.29,1.99 -3.99,2.77 1.04,-0.87 2.69,-1.82 4.59,-2.77l-0.61 0zm3.73 0.17c-2.25,0.52 -4.59,1.21 -6.24,1.99 1.13,-0.52 3.64,-1.13 6.24,-1.73l0 -0.26zm-2.34 1.91c-1.3,0 -2.69,0.17 -3.9,0.52 -0.69,0.17 -1.39,0.35 -1.91,0.87 -0.43,0.43 -0.52,1.21 -0.17,1.73 0.35,0.61 1.04,0.87 1.73,1.04 1.91,0.43 3.73,0.43 5.63,0.17 0.52,-0.09 0.61,-0.52 0.61,-0.87l0 -2.6c-0.09,-0.52 -0.35,-0.69 -0.69,-0.78l-1.3 -0.09zm-1.13 0.87l1.21 0.09c0.35,0 0.26,0.35 0,0.35 -1.13,0 -2.17,0 -3.21,0.43l-1.56 0.61c-0.26,0.09 -0.69,0.09 -0.43,-0.26 0.26,-0.43 0.78,-0.61 1.21,-0.78 0.87,-0.26 1.82,-0.43 2.77,-0.43zm-5.2 2.08l0 0.43c0.35,0.95 0.95,2.08 1.91,3.21l0.35 0c-1.13,-1.39 -1.99,-2.6 -2.25,-3.64zm0.95 1.04c0.69,0.78 1.99,1.65 3.73,2.6l0.52 0c-1.73,-0.87 -3.21,-1.73 -4.25,-2.6zm1.39 0.52c1.65,0.78 4.07,1.47 6.33,2.08l0 -0.35c-2.6,-0.61 -5.2,-1.21 -6.33,-1.73z"/>
  </g>
 </g>
</svg>
