<?xml version="1.0" encoding="UTF-8"?>
<!DOCTYPE svg PUBLIC "-//W3C//DTD SVG 1.1//EN" "http://www.w3.org/Graphics/SVG/1.1/DTD/svg11.dtd">
<!-- Creator: CorelDRAW Home & Student 2019 -->
<svg xmlns="http://www.w3.org/2000/svg" xml:space="preserve" width="3.684mm" height="4.835mm" version="1.1" style="shape-rendering:geometricPrecision; text-rendering:geometricPrecision; image-rendering:optimizeQuality; fill-rule:evenodd; clip-rule:evenodd"
viewBox="0 0 11.63 15.26"
 xmlns:xlink="http://www.w3.org/1999/xlink">
 <defs>
  <style type="text/css">
   <![CDATA[
    .fil0 {fill:#C22D86}
    .fil1 {fill:white}
   ]]>
  </style>
 </defs>
 <g id="Vrstva_x0020_1">
  <metadata id="CorelCorpID_0Corel-Layer"/>
  <g id="_1166788080">
   <polygon class="fil0" points="11.63,11.63 7.91,11.63 5.81,15.26 3.72,11.63 -0,11.63 -0,0 11.63,0 "/>
   <path class="fil1" d="M3.38 1.62c-0.84,1.17 -1.42,2.26 -1.76,3.19l0 0.5c0.25,-1.01 1.09,-2.35 2.18,-3.69l-0.42 0zm3.02 0c-1.76,0.92 -3.19,1.93 -3.86,2.68 1.01,-0.84 2.6,-1.76 4.44,-2.68l-0.59 0zm3.6 0.17c-2.18,0.5 -4.44,1.17 -6.04,1.93 1.09,-0.5 3.52,-1.09 6.04,-1.68l0 -0.25zm-2.26 1.84c-1.26,0 -2.6,0.17 -3.77,0.5 -0.67,0.17 -1.34,0.34 -1.84,0.84 -0.42,0.42 -0.5,1.17 -0.17,1.68 0.34,0.59 1.01,0.84 1.68,1.01 1.84,0.42 3.6,0.42 5.45,0.17 0.5,-0.08 0.59,-0.5 0.59,-0.84l0 -2.51c-0.08,-0.5 -0.34,-0.67 -0.67,-0.75l-1.26 -0.08zm-1.09 0.84l1.17 0.08c0.34,0 0.25,0.34 0,0.34 -1.09,0 -2.1,0 -3.1,0.42l-1.51 0.59c-0.25,0.08 -0.67,0.08 -0.42,-0.25 0.25,-0.42 0.75,-0.59 1.17,-0.75 0.84,-0.25 1.76,-0.42 2.68,-0.42zm-5.03 2.01l0 0.42c0.34,0.92 0.92,2.01 1.84,3.1l0.34 0c-1.09,-1.34 -1.93,-2.51 -2.18,-3.52zm0.92 1.01c0.67,0.75 1.93,1.59 3.6,2.51l0.5 0c-1.68,-0.84 -3.1,-1.68 -4.11,-2.51zm1.34 0.5c1.59,0.75 3.94,1.42 6.12,2.01l0 -0.34c-2.51,-0.59 -5.03,-1.17 -6.12,-1.68z"/>
  </g>
 </g>
</svg>
