<svg xmlns="http://www.w3.org/2000/svg" xmlns:xlink="http://www.w3.org/1999/xlink" width="100" zoomAndPan="magnify" viewBox="0 0 75 74.999997" height="100" preserveAspectRatio="xMidYMid meet" version="1.0"><defs><clipPath id="02e2cca1ab"><path d="M 7.335938 7.335938 L 67.335938 7.335938 L 67.335938 67.335938 L 7.335938 67.335938 Z M 7.335938 7.335938 " clip-rule="nonzero"/></clipPath></defs><rect x="-7.5" width="90" fill="#ffffff" y="-7.5" height="89.999996" fill-opacity="1"/><rect x="-7.5" width="90" fill="#c22d86" y="-7.5" height="89.999996" fill-opacity="1"/><g clip-path="url(#02e2cca1ab)"><path fill="#ffffff" d="M 19.933594 7.335938 C 13.933594 15.734375 9.734375 23.535156 7.335938 30.136719 L 7.335938 33.734375 C 9.136719 26.535156 15.136719 16.933594 22.933594 7.335938 Z M 41.535156 7.335938 C 28.933594 13.933594 18.734375 21.136719 13.933594 26.535156 C 21.136719 20.535156 32.535156 13.933594 45.734375 7.335938 Z M 67.335938 8.535156 C 51.734375 12.136719 35.535156 16.933594 24.136719 22.335938 C 31.933594 18.734375 49.335938 14.535156 67.335938 10.335938 Z M 51.136719 21.734375 C 42.136719 21.734375 32.535156 22.933594 24.136719 25.335938 C 19.335938 26.535156 14.535156 27.734375 10.933594 31.335938 C 7.933594 34.335938 7.335938 39.734375 9.734375 43.335938 C 12.136719 47.535156 16.933594 49.335938 21.734375 50.535156 C 34.933594 53.535156 47.535156 53.535156 60.734375 51.734375 C 64.335938 51.136719 64.933594 48.136719 64.933594 45.734375 L 64.933594 27.734375 C 64.335938 24.136719 62.535156 22.933594 60.136719 22.335938 Z M 43.335938 27.734375 L 51.734375 28.335938 C 54.136719 28.335938 53.535156 30.734375 51.734375 30.734375 C 43.933594 30.734375 36.734375 30.734375 29.535156 33.734375 L 18.734375 37.933594 C 16.933594 38.535156 13.933594 38.535156 15.734375 36.136719 C 17.535156 33.136719 21.136719 31.933594 24.136719 30.734375 C 30.136719 28.933594 36.734375 27.734375 43.335938 27.734375 Z M 7.335938 42.136719 L 7.335938 45.136719 C 9.734375 51.734375 13.933594 59.535156 20.535156 67.335938 L 22.933594 67.335938 C 15.136719 57.734375 9.136719 49.335938 7.335938 42.136719 Z M 13.933594 49.335938 C 18.734375 54.734375 27.734375 60.734375 39.734375 67.335938 L 43.335938 67.335938 C 31.335938 61.335938 21.136719 55.335938 13.933594 49.335938 Z M 23.535156 52.933594 C 34.933594 58.335938 51.734375 63.136719 67.335938 67.335938 L 67.335938 64.933594 C 49.335938 60.734375 31.335938 56.535156 23.535156 52.933594 Z M 23.535156 52.933594 " fill-opacity="1" fill-rule="nonzero"/></g></svg>