<?xml version="1.0" encoding="UTF-8"?>
<!DOCTYPE svg PUBLIC "-//W3C//DTD SVG 1.1//EN" "http://www.w3.org/Graphics/SVG/1.1/DTD/svg11.dtd">
<!-- Creator: CorelDRAW Home & Student 2019 -->
<svg xmlns="http://www.w3.org/2000/svg" xml:space="preserve" width="44px" height="57px" version="1.1" style="shape-rendering:geometricPrecision; text-rendering:geometricPrecision; image-rendering:optimizeQuality; fill-rule:evenodd; clip-rule:evenodd"
viewBox="0 0 1.32 1.74"
 xmlns:xlink="http://www.w3.org/1999/xlink">
 <defs>
  <style type="text/css">
   <![CDATA[
    .fil0 {fill:#C22D86}
    .fil1 {fill:white}
   ]]>
  </style>
 </defs>
 <g id="Vrstva_x0020_1">
  <metadata id="CorelCorpID_0Corel-Layer"/>
  <g id="_657797216">
   <polygon class="fil0" points="1.32,1.32 0.9,1.32 0.66,1.74 0.42,1.32 0,1.32 0,0 1.32,0 "/>
   <path class="fil1" d="M0.42 0.24c-0.08,0.12 -0.14,0.23 -0.18,0.32l0 0.05c0.03,-0.1 0.11,-0.23 0.22,-0.37l-0.04 0 0 0zm0.3 0c-0.17,0.1 -0.32,0.2 -0.38,0.27 0.1,-0.08 0.26,-0.17 0.44,-0.27l-0.06 0zm0.36 0.02c-0.22,0.05 -0.44,0.12 -0.6,0.19 0.11,-0.05 0.35,-0.11 0.6,-0.16l0 -0.03zm-0.23 0.19c-0.12,0 -0.25,0.01 -0.37,0.05 -0.07,0.01 -0.14,0.03 -0.19,0.08 -0.04,0.04 -0.05,0.12 -0.01,0.17 0.03,0.05 0.1,0.08 0.17,0.1 0.18,0.04 0.35,0.04 0.54,0.01 0.05,-0.01 0.06,-0.05 0.06,-0.08l0 -0.25c-0.01,-0.05 -0.04,-0.07 -0.07,-0.08l-0.13 0 0 0zm-0.1 0.08l0.11 0.01c0.04,0 0.03,0.03 0,0.03 -0.11,0 -0.21,0 -0.31,0.04l-0.15 0.06c-0.02,0.01 -0.06,0.01 -0.04,-0.02 0.03,-0.05 0.08,-0.06 0.12,-0.08 0.08,-0.02 0.17,-0.04 0.27,-0.04l0 0zm-0.51 0.2l0 0.04c0.04,0.09 0.1,0.2 0.19,0.31l0.03 0c-0.11,-0.13 -0.19,-0.25 -0.22,-0.35l0 0zm0.1 0.1c0.06,0.07 0.19,0.16 0.36,0.25l0.05 0c-0.17,-0.08 -0.31,-0.17 -0.41,-0.25l0 0zm0.13 0.05c0.16,0.07 0.39,0.14 0.61,0.2l0 -0.03c-0.25,-0.06 -0.5,-0.12 -0.61,-0.17z"/>
  </g>
 </g>
</svg>
