<?xml version="1.0" encoding="UTF-8"?>
<!DOCTYPE svg PUBLIC "-//W3C//DTD SVG 1.1//EN" "http://www.w3.org/Graphics/SVG/1.1/DTD/svg11.dtd">
<!-- Creator: CorelDRAW Home & Student 2019 -->
<svg xmlns="http://www.w3.org/2000/svg" xml:space="preserve" width="57px" height="44px" version="1.1" style="shape-rendering:geometricPrecision; text-rendering:geometricPrecision; image-rendering:optimizeQuality; fill-rule:evenodd; clip-rule:evenodd"
viewBox="0 0 2.21 1.68"
 xmlns:xlink="http://www.w3.org/1999/xlink">
 <defs>
  <style type="text/css">
   <![CDATA[
    .fil0 {fill:#C22D86}
    .fil1 {fill:white}
   ]]>
  </style>
 </defs>
 <g id="Vrstva_x0020_1">
  <metadata id="CorelCorpID_0Corel-Layer"/>
  <g id="_396271848">
   <polygon class="fil0" points="0.53,1.68 0.53,1.15 0,0.84 0.53,0.54 0.53,0 2.21,0 2.21,1.68 "/>
   <path class="fil1" d="M1.06 0.31c-0.11,0.15 -0.18,0.29 -0.22,0.4l0 0.07c0.03,-0.13 0.14,-0.3 0.27,-0.47l-0.05 0 0 0zm0.38 0c-0.22,0.12 -0.4,0.25 -0.49,0.34 0.13,-0.11 0.33,-0.22 0.57,-0.34l-0.08 0zm0.46 0.02c-0.28,0.07 -0.56,0.15 -0.77,0.25 0.14,-0.07 0.45,-0.14 0.77,-0.22l0 -0.03zm-0.29 0.24c-0.16,0 -0.33,0.02 -0.48,0.06 -0.08,0.02 -0.17,0.04 -0.23,0.11 -0.05,0.05 -0.06,0.14 -0.02,0.21 0.04,0.07 0.13,0.1 0.21,0.13 0.24,0.05 0.46,0.05 0.69,0.02 0.07,-0.01 0.08,-0.07 0.08,-0.11l0 -0.32c-0.01,-0.06 -0.05,-0.08 -0.09,-0.09l-0.16 -0.01 0 0zm-0.14 0.1l0.15 0.01c0.05,0 0.04,0.05 0,0.05 -0.13,0 -0.26,0 -0.39,0.05l-0.19 0.07c-0.03,0.01 -0.09,0.01 -0.05,-0.03 0.03,-0.05 0.09,-0.07 0.14,-0.09 0.11,-0.04 0.23,-0.06 0.34,-0.06l0 0zm-0.63 0.26l0 0.05c0.04,0.12 0.11,0.26 0.23,0.39l0.04 0c-0.13,-0.17 -0.24,-0.32 -0.27,-0.44l0 0zm0.11 0.12c0.09,0.1 0.25,0.21 0.46,0.32l0.06 0c-0.21,-0.1 -0.39,-0.21 -0.52,-0.32l0 0zm0.17 0.07c0.21,0.09 0.5,0.18 0.78,0.25l0 -0.04c-0.32,-0.07 -0.64,-0.15 -0.78,-0.21z"/>
  </g>
 </g>
</svg>
