<svg xmlns="http://www.w3.org/2000/svg" xmlns:xlink="http://www.w3.org/1999/xlink" width="100" zoomAndPan="magnify" viewBox="0 0 75 74.999997" height="100" preserveAspectRatio="xMidYMid meet" version="1.0"><defs><clipPath id="79868b745e"><path d="M 15.054688 15.015625 L 60.054688 15.015625 L 60.054688 60.015625 L 15.054688 60.015625 Z M 15.054688 15.015625 " clip-rule="nonzero"/></clipPath></defs><rect x="-7.5" width="90" fill="#ffffff" y="-7.5" height="89.999996" fill-opacity="1"/><rect x="-7.5" width="90" fill="#800080" y="-7.5" height="89.999996" fill-opacity="1"/><g clip-path="url(#79868b745e)"><path fill="#ffffff" d="M 24.503906 15.015625 C 20.003906 21.316406 16.855469 27.167969 15.054688 32.117188 L 15.054688 34.816406 C 16.40625 29.417969 20.90625 22.21875 26.753906 15.015625 Z M 40.703125 15.015625 C 31.253906 19.96875 23.605469 25.367188 20.003906 29.417969 C 25.40625 24.917969 33.953125 19.96875 43.855469 15.015625 Z M 60.054688 15.917969 C 48.355469 18.617188 36.203125 22.21875 27.65625 26.265625 C 33.503906 23.566406 46.554688 20.417969 60.054688 17.265625 Z M 47.90625 25.816406 C 41.15625 25.816406 33.953125 26.71875 27.65625 28.515625 C 24.054688 29.417969 20.453125 30.316406 17.753906 33.015625 C 15.503906 35.265625 15.054688 39.316406 16.855469 42.015625 C 18.65625 45.167969 22.253906 46.515625 25.855469 47.417969 C 35.753906 49.667969 45.203125 49.667969 55.105469 48.316406 C 57.804688 47.867188 58.253906 45.617188 58.253906 43.816406 L 58.253906 30.316406 C 57.804688 27.617188 56.453125 26.71875 54.65625 26.265625 Z M 42.054688 30.316406 L 48.355469 30.765625 C 50.15625 30.765625 49.703125 32.566406 48.355469 32.566406 C 42.503906 32.566406 37.105469 32.566406 31.703125 34.816406 L 23.605469 37.96875 C 22.253906 38.417969 20.003906 38.417969 21.355469 36.617188 C 22.703125 34.367188 25.40625 33.46875 27.65625 32.566406 C 32.15625 31.21875 37.105469 30.316406 42.054688 30.316406 Z M 15.054688 41.117188 L 15.054688 43.367188 C 16.855469 48.316406 20.003906 54.167969 24.953125 60.015625 L 26.753906 60.015625 C 20.90625 52.816406 16.40625 46.515625 15.054688 41.117188 Z M 20.003906 46.515625 C 23.605469 50.566406 30.355469 55.066406 39.355469 60.015625 L 42.054688 60.015625 C 33.054688 55.515625 25.40625 51.015625 20.003906 46.515625 Z M 27.203125 49.21875 C 35.753906 53.265625 48.355469 56.867188 60.054688 60.015625 L 60.054688 58.21875 C 46.554688 55.066406 33.054688 51.917969 27.203125 49.21875 Z M 27.203125 49.21875 " fill-opacity="1" fill-rule="nonzero"/></g></svg>