<?xml version="1.0" encoding="UTF-8" standalone="no"?>
<!-- Created with Inkscape (http://www.inkscape.org/) -->

<svg
   version="1.1"
   id="svg1"
   width="374.83307"
   height="92.854935"
   viewBox="0 0 374.83306 92.854935"
   xmlns="http://www.w3.org/2000/svg"
   xmlns:svg="http://www.w3.org/2000/svg">
  <defs
     id="defs1">
    <clipPath
       clipPathUnits="userSpaceOnUse"
       id="clipPath2">
      <path
         d="M 0,173.653 H 365.389 V 0 H 0 Z"
         transform="translate(-79.225404,-98.534202)"
         id="path2" />
    </clipPath>
    <clipPath
       clipPathUnits="userSpaceOnUse"
       id="clipPath4">
      <path
         d="M 0,173.653 H 365.389 V 0 H 0 Z"
         transform="translate(-60.709301,-115.0735)"
         id="path4" />
    </clipPath>
    <clipPath
       clipPathUnits="userSpaceOnUse"
       id="clipPath6">
      <path
         d="M 0,173.653 H 365.389 V 0 H 0 Z"
         transform="translate(-69.086302,-80.972802)"
         id="path6" />
    </clipPath>
    <clipPath
       clipPathUnits="userSpaceOnUse"
       id="clipPath8">
      <path
         d="M 0,173.653 H 365.389 V 0 H 0 Z"
         transform="translate(-79.225404,-75.118999)"
         id="path8" />
    </clipPath>
    <clipPath
       clipPathUnits="userSpaceOnUse"
       id="clipPath10">
      <path
         d="M 0,173.653 H 365.389 V 0 H 0 Z"
         transform="translate(-89.364505,-80.972802)"
         id="path10" />
    </clipPath>
    <clipPath
       clipPathUnits="userSpaceOnUse"
       id="clipPath12">
      <path
         d="M 0,173.653 H 365.389 V 0 H 0 Z"
         transform="translate(-89.364505,-92.6804)"
         id="path12" />
    </clipPath>
    <clipPath
       clipPathUnits="userSpaceOnUse"
       id="clipPath14">
      <path
         d="M 0,173.653 H 365.389 V 0 H 0 Z"
         transform="translate(-158.43981,-106.3875)"
         id="path14" />
    </clipPath>
    <clipPath
       clipPathUnits="userSpaceOnUse"
       id="clipPath16">
      <path
         d="M 0,173.653 H 365.389 V 0 H 0 Z"
         transform="translate(-179.6976,-84.272705)"
         id="path16" />
    </clipPath>
    <clipPath
       clipPathUnits="userSpaceOnUse"
       id="clipPath18">
      <path
         d="M 0,173.653 H 365.389 V 0 H 0 Z"
         transform="translate(-207.07021,-95.872805)"
         id="path18" />
    </clipPath>
    <clipPath
       clipPathUnits="userSpaceOnUse"
       id="clipPath20">
      <path
         d="M 0,173.653 H 365.389 V 0 H 0 Z"
         transform="translate(-248.38561,-92.044205)"
         id="path20" />
    </clipPath>
    <clipPath
       clipPathUnits="userSpaceOnUse"
       id="clipPath22">
      <path
         d="M 0,173.653 H 365.389 V 0 H 0 Z"
         transform="translate(-276.0448,-72.844002)"
         id="path22" />
    </clipPath>
    <clipPath
       clipPathUnits="userSpaceOnUse"
       id="clipPath24">
      <path
         d="M 0,173.653 H 365.389 V 0 H 0 Z"
         transform="translate(-325.64641,-84.272705)"
         id="path24" />
    </clipPath>
  </defs>
  <g
     id="layer-MC0"
     transform="translate(-59.362116,-69.341067)">
    <path
       id="path1"
       d="m 0,0 c 3.668,0 5.355,2.719 7.425,5.747 1.953,2.857 4.825,7.651 7.779,12.704 0.29,0.495 0.09,1.129 -0.426,1.379 C 9.653,22.312 5.955,23.113 0,23.113 c -5.955,0 -9.653,-0.801 -14.778,-3.283 -0.516,-0.25 -0.716,-0.884 -0.426,-1.379 C -12.213,13.338 -9.26,8.43 -7.327,5.624 -5.28,2.652 -3.608,0 0,0"
       style="fill:#c18a33;fill-opacity:1;fill-rule:nonzero;stroke:none"
       transform="matrix(1.3333333,0,0,-1.3333333,105.63387,100.1584)"
       clip-path="url(#clipPath2)" />
    <path
       id="path3"
       d="m 0,0 c -0.284,0.498 -0.932,0.642 -1.407,0.32 -4.712,-3.197 -7.255,-5.999 -10.233,-11.156 -2.978,-5.158 -4.133,-8.762 -4.545,-14.442 -0.042,-0.57 0.409,-1.06 0.981,-1.057 5.924,0.034 11.651,0.138 15.047,0.408 3.597,0.287 6.73,0.409 8.534,3.534 1.834,3.176 0.323,5.997 -1.264,9.303 C 5.614,-9.969 2.899,-5.085 0,0"
       style="fill:#c18a33;fill-opacity:1;fill-rule:nonzero;stroke:none"
       transform="matrix(1.3333333,0,0,-1.3333333,80.945733,78.106)"
       clip-path="url(#clipPath4)" />
    <path
       id="path5"
       d="m 0,0 c -1.834,3.176 -5.032,3.279 -8.689,3.557 -3.452,0.262 -9.039,0.353 -14.892,0.385 -0.572,0.003 -1.023,-0.486 -0.981,-1.057 0.412,-5.68 1.567,-9.284 4.545,-14.442 2.978,-5.157 5.521,-7.959 10.233,-11.156 0.474,-0.322 1.123,-0.178 1.407,0.32 2.932,5.147 5.706,10.159 7.17,13.236 C 0.343,-5.899 1.804,-3.125 0,0"
       style="fill:#c18a33;fill-opacity:1;fill-rule:nonzero;stroke:none"
       transform="matrix(1.3333333,0,0,-1.3333333,92.115067,123.5736)"
       clip-path="url(#clipPath6)" />
    <path
       id="path7"
       d="m 0,0 c -3.668,0 -5.355,-2.719 -7.425,-5.747 -1.953,-2.857 -4.825,-7.651 -7.779,-12.704 -0.29,-0.495 -0.09,-1.129 0.426,-1.379 5.125,-2.482 8.823,-3.283 14.778,-3.283 5.955,0 9.653,0.801 14.778,3.283 0.516,0.25 0.716,0.884 0.426,1.379 C 12.213,-13.338 9.26,-8.43 7.327,-5.624 5.28,-2.652 3.608,0 0,0"
       style="fill:#c18a33;fill-opacity:1;fill-rule:nonzero;stroke:none"
       transform="matrix(1.3333333,0,0,-1.3333333,105.63387,131.37867)"
       clip-path="url(#clipPath8)" />
    <path
       id="path9"
       d="m 0,0 c -1.834,-3.176 -0.323,-5.997 1.264,-9.303 1.499,-3.121 4.214,-8.005 7.113,-13.09 0.284,-0.498 0.932,-0.642 1.407,-0.32 4.712,3.197 7.255,5.999 10.233,11.156 2.978,5.158 4.133,8.761 4.545,14.441 0.042,0.571 -0.409,1.061 -0.981,1.058 C 17.657,3.908 11.93,3.804 8.534,3.534 4.937,3.247 1.804,3.125 0,0"
       style="fill:#c18a33;fill-opacity:1;fill-rule:nonzero;stroke:none"
       transform="matrix(1.3333333,0,0,-1.3333333,119.15267,123.5736)"
       clip-path="url(#clipPath10)" />
    <path
       id="path11"
       d="m 0,0 c 1.834,-3.176 5.032,-3.279 8.689,-3.557 3.452,-0.262 9.039,-0.353 14.892,-0.385 0.572,-0.003 1.023,0.486 0.981,1.057 C 24.15,2.795 22.995,6.399 20.017,11.557 17.039,16.714 14.496,19.516 9.784,22.713 9.31,23.035 8.661,22.891 8.377,22.393 5.445,17.246 2.671,12.234 1.207,9.157 -0.343,5.899 -1.804,3.125 0,0"
       style="fill:#c18a33;fill-opacity:1;fill-rule:nonzero;stroke:none"
       transform="matrix(1.3333333,0,0,-1.3333333,119.15267,107.96347)"
       clip-path="url(#clipPath12)" />
    <path
       id="path13"
       d="M 0,0 H 8.171 V -40.001 H 0.229 l -19.658,26.4 v -26.4 h -8.172 V 0 h 7.943 L 0,-26.458 Z"
       style="fill:#c18a33;fill-opacity:1;fill-rule:nonzero;stroke:none"
       transform="matrix(1.3333333,0,0,-1.3333333,211.25307,89.687333)"
       clip-path="url(#clipPath14)" />
    <path
       id="path15"
       d="M 0,0 H 14.915 C 13.886,3.314 11.086,5.543 7.429,5.543 3.943,5.543 1.086,3.314 0,0 M 22.629,-5.886 H -0.114 c 1.029,-3.486 4,-5.943 8.058,-5.943 3.199,0 5.886,1.543 7.313,4.114 l 6.344,-2.857 c -2.572,-4.629 -7.486,-7.886 -13.886,-7.886 -8.972,0 -15.772,6.629 -15.772,15.314 0,8.687 6.686,15.315 15.486,15.315 9.886,0 16.8,-8.229 15.2,-18.057"
       style="fill:#c18a33;fill-opacity:1;fill-rule:nonzero;stroke:none"
       transform="matrix(1.3333333,0,0,-1.3333333,239.5968,119.17373)"
       clip-path="url(#clipPath16)" />
    <path
       id="path17"
       d="m 0,0 h 7.715 v -17.029 c 0,-3.6 2.514,-6 6.114,-6 3.543,0 6.114,2.4 6.114,6 V 0 h 7.715 v -17.029 c 0,-7.771 -5.829,-13.029 -13.829,-13.029 C 5.771,-30.058 0,-24.8 0,-17.029 Z"
       style="fill:#c18a33;fill-opacity:1;fill-rule:nonzero;stroke:none"
       transform="matrix(1.3333333,0,0,-1.3333333,276.0936,103.70693)"
       clip-path="url(#clipPath18)" />
    <path
       id="path19"
       d="M 0,0 C 2.515,3.429 6.687,5.314 11.029,3.943 V -3.372 C 4.801,-1.2 0,-4.058 0,-9.144 V -25.658 H -7.714 V 3.829 H 0 Z"
       style="fill:#c18a33;fill-opacity:1;fill-rule:nonzero;stroke:none"
       transform="matrix(1.3333333,0,0,-1.3333333,331.1808,108.81173)"
       clip-path="url(#clipPath20)" />
    <path
       id="path21"
       d="m 0,0 c 4.457,0 7.771,3.542 7.771,8.285 0,4.687 -3.314,8.23 -7.771,8.23 -4.4,0 -7.771,-3.543 -7.771,-8.23 C -7.771,3.542 -4.4,0 0,0 M 0,23.6 C 8.972,23.6 15.771,16.972 15.771,8.285 15.771,-0.4 8.972,-7.029 0,-7.029 c -8.972,0 -15.771,6.629 -15.771,15.314 0,8.687 6.799,15.315 15.771,15.315"
       style="fill:#c18a33;fill-opacity:1;fill-rule:nonzero;stroke:none"
       transform="matrix(1.3333333,0,0,-1.3333333,368.05973,134.412)"
       clip-path="url(#clipPath22)" />
    <path
       id="path23"
       d="m 0,0 v -17.887 h -7.715 v 16.515 c 0,3.829 -2.743,6.515 -6.685,6.515 -3.829,0 -6.687,-2.686 -6.687,-6.515 v -16.515 h -7.714 V 11.6 h 7.714 V 7.771 c 2.058,2.687 5.315,4.4 9.2,4.4 C -4.801,12.171 0,7.029 0,0"
       style="fill:#c18a33;fill-opacity:1;fill-rule:nonzero;stroke:none"
       transform="matrix(1.3333333,0,0,-1.3333333,434.1952,119.17373)"
       clip-path="url(#clipPath24)" />
  </g>
</svg>
