<?xml version="1.0" encoding="UTF-8"?>
<!DOCTYPE svg PUBLIC "-//W3C//DTD SVG 1.1//EN" "http://www.w3.org/Graphics/SVG/1.1/DTD/svg11.dtd">
<!-- Creator: CorelDRAW Home & Student 2019 -->
<svg xmlns="http://www.w3.org/2000/svg" xml:space="preserve" width="3.684mm" height="4.835mm" version="1.1" style="shape-rendering:geometricPrecision; text-rendering:geometricPrecision; image-rendering:optimizeQuality; fill-rule:evenodd; clip-rule:evenodd"
viewBox="0 0 17.5 22.97"
 xmlns:xlink="http://www.w3.org/1999/xlink">
 <defs>
  <style type="text/css">
   <![CDATA[
    .fil0 {fill:#1175DA}
    .fil1 {fill:white;fill-rule:nonzero}
   ]]>
  </style>
 </defs>
 <g id="Vrstva_x0020_1">
  <metadata id="CorelCorpID_0Corel-Layer"/>
  <polygon class="fil0" points="-0,5.47 5.59,5.47 8.75,0 11.91,5.47 17.5,5.47 17.5,22.97 -0,22.97 "/>
  <path class="fil1" d="M8.63 18.95c-0.6,0 -1.13,-0.11 -1.61,-0.34 -0.47,-0.23 -0.85,-0.54 -1.13,-0.93 -0.28,-0.4 -0.42,-0.85 -0.44,-1.36l1.62 0c0.03,0.38 0.19,0.69 0.49,0.92 0.3,0.24 0.65,0.36 1.07,0.36 0.33,0 0.62,-0.07 0.87,-0.22 0.26,-0.15 0.46,-0.36 0.6,-0.62 0.15,-0.27 0.22,-0.57 0.22,-0.91 0,-0.35 -0.07,-0.66 -0.22,-0.93 -0.15,-0.27 -0.36,-0.48 -0.62,-0.63 -0.26,-0.15 -0.56,-0.23 -0.9,-0.23 -0.28,-0 -0.55,0.05 -0.81,0.15 -0.27,0.1 -0.48,0.24 -0.64,0.41l-1.5 -0.25 0.48 -4.75 5.34 0 0 1.39 -3.96 0 -0.27 2.44 0.06 0c0.17,-0.2 0.41,-0.37 0.72,-0.5 0.31,-0.13 0.65,-0.2 1.02,-0.2 0.56,0 1.06,0.13 1.49,0.39 0.44,0.26 0.78,0.62 1.03,1.08 0.25,0.46 0.38,0.98 0.38,1.57 0,0.61 -0.14,1.15 -0.42,1.62 -0.28,0.47 -0.67,0.85 -1.16,1.12 -0.5,0.27 -1.07,0.41 -1.72,0.41z"/>
 </g>
</svg>
