<?xml version="1.0" encoding="UTF-8"?>
<!DOCTYPE svg PUBLIC "-//W3C//DTD SVG 1.1//EN" "http://www.w3.org/Graphics/SVG/1.1/DTD/svg11.dtd">
<!-- Creator: CorelDRAW Home & Student 2019 -->
<svg xmlns="http://www.w3.org/2000/svg" xml:space="preserve" width="3.684mm" height="4.835mm" version="1.1" style="shape-rendering:geometricPrecision; text-rendering:geometricPrecision; image-rendering:optimizeQuality; fill-rule:evenodd; clip-rule:evenodd"
viewBox="0 0 14.58 19.14"
 xmlns:xlink="http://www.w3.org/1999/xlink">
 <defs>
  <style type="text/css">
   <![CDATA[
    .fil0 {fill:#1175DA}
    .fil1 {fill:white;fill-rule:nonzero}
   ]]>
  </style>
 </defs>
 <g id="Vrstva_x0020_1">
  <metadata id="CorelCorpID_0Corel-Layer"/>
  <polygon class="fil0" points="-0,4.56 4.66,4.56 7.29,0 9.92,4.56 14.58,4.56 14.58,19.14 -0,19.14 "/>
  <path class="fil1" d="M4.69 15.74l0 -1 2.66 -2.61c0.25,-0.26 0.47,-0.48 0.64,-0.69 0.17,-0.2 0.3,-0.39 0.38,-0.58 0.09,-0.19 0.13,-0.39 0.13,-0.6 0,-0.24 -0.06,-0.45 -0.17,-0.62 -0.11,-0.17 -0.26,-0.31 -0.45,-0.4 -0.19,-0.1 -0.41,-0.14 -0.66,-0.14 -0.25,0 -0.47,0.05 -0.66,0.15 -0.19,0.1 -0.34,0.25 -0.44,0.44 -0.1,0.19 -0.16,0.41 -0.16,0.68l-1.32 0c0,-0.49 0.11,-0.91 0.33,-1.27 0.22,-0.36 0.53,-0.64 0.92,-0.83 0.39,-0.2 0.84,-0.3 1.35,-0.3 0.51,0 0.97,0.09 1.36,0.29 0.39,0.19 0.69,0.46 0.91,0.79 0.22,0.34 0.32,0.72 0.32,1.15 0,0.29 -0.05,0.57 -0.17,0.85 -0.11,0.28 -0.3,0.58 -0.58,0.92 -0.28,0.34 -0.66,0.75 -1.16,1.23l-1.32 1.34 0 0.05 3.34 0 0 1.16 -5.26 0z"/>
 </g>
</svg>
