<?xml version="1.0" encoding="UTF-8"?>
<!DOCTYPE svg PUBLIC "-//W3C//DTD SVG 1.1//EN" "http://www.w3.org/Graphics/SVG/1.1/DTD/svg11.dtd">
<!-- Creator: CorelDRAW Home & Student 2019 -->
<svg xmlns="http://www.w3.org/2000/svg" xml:space="preserve" width="4.835mm" height="3.684mm" version="1.1" style="shape-rendering:geometricPrecision; text-rendering:geometricPrecision; image-rendering:optimizeQuality; fill-rule:evenodd; clip-rule:evenodd"
viewBox="0 0 18.09 13.78"
 xmlns:xlink="http://www.w3.org/1999/xlink">
 <defs>
  <style type="text/css">
   <![CDATA[
    .fil0 {fill:#1175DA}
    .fil1 {fill:white;fill-rule:nonzero}
   ]]>
  </style>
 </defs>
 <g id="Vrstva_x0020_1">
  <metadata id="CorelCorpID_0Corel-Layer"/>
  <polygon class="fil0" points="13.78,0 13.78,4.4 18.09,6.89 13.78,9.38 13.78,13.78 -0,13.78 -0,0 "/>
  <path class="fil1" d="M7.22 10.61c-0.51,0 -0.96,-0.09 -1.36,-0.26 -0.4,-0.17 -0.71,-0.42 -0.94,-0.73 -0.23,-0.31 -0.35,-0.67 -0.36,-1.08l1.33 0c0.01,0.2 0.08,0.37 0.19,0.51 0.12,0.14 0.28,0.26 0.47,0.34 0.2,0.08 0.42,0.12 0.66,0.12 0.26,0 0.49,-0.04 0.69,-0.14 0.2,-0.09 0.36,-0.22 0.47,-0.38 0.11,-0.16 0.17,-0.35 0.17,-0.56 0,-0.22 -0.05,-0.41 -0.17,-0.58 -0.11,-0.17 -0.28,-0.3 -0.5,-0.39 -0.22,-0.09 -0.48,-0.14 -0.79,-0.14l-0.64 0 0 -1.01 0.64 0c0.25,0 0.47,-0.04 0.66,-0.13 0.19,-0.09 0.34,-0.21 0.45,-0.37 0.11,-0.16 0.16,-0.34 0.16,-0.55 0,-0.21 -0.04,-0.39 -0.14,-0.54 -0.09,-0.15 -0.22,-0.27 -0.39,-0.36 -0.17,-0.08 -0.37,-0.13 -0.59,-0.13 -0.22,0 -0.43,0.04 -0.61,0.12 -0.19,0.08 -0.34,0.19 -0.46,0.34 -0.12,0.15 -0.18,0.32 -0.18,0.53l-1.26 0c0.01,-0.41 0.13,-0.76 0.35,-1.07 0.23,-0.31 0.53,-0.55 0.91,-0.72 0.38,-0.17 0.8,-0.26 1.27,-0.26 0.48,0 0.9,0.09 1.26,0.27 0.36,0.18 0.63,0.42 0.83,0.73 0.2,0.3 0.29,0.64 0.29,1.01 0,0.41 -0.12,0.75 -0.36,1.03 -0.24,0.28 -0.56,0.46 -0.95,0.54l0 0.06c0.51,0.07 0.9,0.26 1.17,0.56 0.27,0.31 0.41,0.68 0.41,1.14 0,0.41 -0.12,0.77 -0.35,1.09 -0.23,0.32 -0.55,0.57 -0.95,0.75 -0.4,0.18 -0.86,0.27 -1.38,0.27z"/>
 </g>
</svg>
