<?xml version="1.0" encoding="UTF-8"?>
<!DOCTYPE svg PUBLIC "-//W3C//DTD SVG 1.1//EN" "http://www.w3.org/Graphics/SVG/1.1/DTD/svg11.dtd">
<!-- Creator: CorelDRAW Home & Student 2019 -->
<svg xmlns="http://www.w3.org/2000/svg" xml:space="preserve" width="3.684mm" height="4.835mm" version="1.1" style="shape-rendering:geometricPrecision; text-rendering:geometricPrecision; image-rendering:optimizeQuality; fill-rule:evenodd; clip-rule:evenodd"
viewBox="0 0 32.46 42.6"
 xmlns:xlink="http://www.w3.org/1999/xlink">
 <defs>
  <style type="text/css">
   <![CDATA[
    .fil0 {fill:#1175DA}
    .fil1 {fill:white;fill-rule:nonzero}
   ]]>
  </style>
 </defs>
 <g id="Vrstva_x0020_1">
  <metadata id="CorelCorpID_0Corel-Layer"/>
  <polygon class="fil0" points="-0,10.14 10.37,10.14 16.23,0 22.08,10.14 32.46,10.14 32.46,42.6 -0,42.6 "/>
  <path class="fil1" d="M16.2 35.14c-1.2,0 -2.26,-0.21 -3.2,-0.62 -0.93,-0.41 -1.67,-0.98 -2.21,-1.72 -0.54,-0.73 -0.83,-1.58 -0.86,-2.54l3.13 0c0.03,0.46 0.18,0.86 0.46,1.21 0.28,0.34 0.65,0.61 1.11,0.8 0.46,0.19 0.98,0.28 1.55,0.28 0.61,0 1.15,-0.11 1.62,-0.32 0.47,-0.21 0.84,-0.51 1.11,-0.9 0.27,-0.38 0.39,-0.83 0.39,-1.33 0,-0.52 -0.13,-0.97 -0.4,-1.37 -0.27,-0.39 -0.66,-0.7 -1.18,-0.93 -0.51,-0.22 -1.13,-0.33 -1.85,-0.33l-1.51 0 0 -2.38 1.51 0c0.59,0 1.12,-0.11 1.56,-0.31 0.45,-0.21 0.8,-0.5 1.06,-0.87 0.25,-0.38 0.38,-0.81 0.38,-1.3 0,-0.48 -0.1,-0.91 -0.32,-1.26 -0.22,-0.36 -0.53,-0.64 -0.93,-0.84 -0.4,-0.2 -0.86,-0.3 -1.4,-0.3 -0.52,0 -1.01,0.09 -1.45,0.28 -0.45,0.19 -0.81,0.46 -1.08,0.81 -0.27,0.35 -0.42,0.76 -0.43,1.24l-2.98 0c0.02,-0.95 0.3,-1.8 0.83,-2.52 0.53,-0.72 1.24,-1.29 2.13,-1.7 0.89,-0.41 1.89,-0.61 2.99,-0.61 1.14,0 2.13,0.21 2.97,0.64 0.84,0.42 1.49,0.99 1.96,1.71 0.46,0.72 0.69,1.51 0.69,2.38 0,0.96 -0.28,1.76 -0.85,2.42 -0.57,0.65 -1.31,1.08 -2.24,1.28l0 0.13c1.2,0.16 2.12,0.61 2.77,1.33 0.64,0.72 0.96,1.61 0.95,2.68 0,0.95 -0.27,1.81 -0.81,2.56 -0.54,0.75 -1.29,1.34 -2.23,1.77 -0.95,0.43 -2.03,0.64 -3.25,0.64z"/>
 </g>
</svg>
