<?xml version="1.0" encoding="UTF-8"?>
<!DOCTYPE svg PUBLIC "-//W3C//DTD SVG 1.1//EN" "http://www.w3.org/Graphics/SVG/1.1/DTD/svg11.dtd">
<!-- Creator: CorelDRAW Home & Student 2019 -->
<svg xmlns="http://www.w3.org/2000/svg" xml:space="preserve" width="4.835mm" height="3.684mm" version="1.1" style="shape-rendering:geometricPrecision; text-rendering:geometricPrecision; image-rendering:optimizeQuality; fill-rule:evenodd; clip-rule:evenodd"
viewBox="0 0 20.18 15.38"
 xmlns:xlink="http://www.w3.org/1999/xlink">
 <defs>
  <style type="text/css">
   <![CDATA[
    .fil0 {fill:#1175DA}
    .fil1 {fill:white;fill-rule:nonzero}
   ]]>
  </style>
 </defs>
 <g id="Vrstva_x0020_1">
  <metadata id="CorelCorpID_0Corel-Layer"/>
  <polygon class="fil0" points="15.38,0 15.38,4.92 20.18,7.69 15.38,10.46 15.38,15.38 -0,15.38 -0,0 "/>
  <path class="fil1" d="M8.07 11.85c-0.53,0 -1,-0.1 -1.41,-0.3 -0.42,-0.2 -0.75,-0.47 -0.99,-0.82 -0.24,-0.35 -0.37,-0.75 -0.39,-1.19l1.42 0c0.03,0.33 0.17,0.6 0.43,0.81 0.26,0.21 0.57,0.31 0.94,0.31 0.29,0 0.54,-0.07 0.77,-0.2 0.22,-0.13 0.4,-0.32 0.53,-0.55 0.13,-0.24 0.19,-0.5 0.19,-0.8 0,-0.31 -0.06,-0.58 -0.19,-0.81 -0.13,-0.24 -0.31,-0.42 -0.54,-0.56 -0.23,-0.14 -0.49,-0.2 -0.79,-0.2 -0.24,-0 -0.48,0.04 -0.72,0.14 -0.24,0.09 -0.42,0.21 -0.56,0.36l-1.32 -0.22 0.42 -4.17 4.69 0 0 1.23 -3.48 0 -0.23 2.14 0.05 0c0.15,-0.18 0.36,-0.32 0.64,-0.44 0.27,-0.12 0.57,-0.18 0.9,-0.18 0.49,0 0.93,0.12 1.31,0.35 0.38,0.23 0.69,0.55 0.91,0.95 0.22,0.4 0.33,0.86 0.33,1.38 0,0.53 -0.12,1.01 -0.37,1.43 -0.25,0.42 -0.59,0.75 -1.02,0.98 -0.44,0.24 -0.94,0.36 -1.51,0.36z"/>
 </g>
</svg>
