<svg xmlns="http://www.w3.org/2000/svg" xmlns:xlink="http://www.w3.org/1999/xlink" width="50" zoomAndPan="magnify" viewBox="0 0 37.5 37.499999" height="50" preserveAspectRatio="xMidYMid meet" version="1.0"><defs><g/><clipPath id="dc98fb0ee8"><path d="M 0 0 L 37.007812 0 L 37.007812 37.007812 L 0 37.007812 Z M 0 0 " clip-rule="nonzero"/></clipPath></defs><g clip-path="url(#dc98fb0ee8)"><path fill="#ffffff" d="M 0 0 L 37.007812 0 L 37.007812 37.007812 L 0 37.007812 Z M 0 0 " fill-opacity="1" fill-rule="nonzero"/><path fill="#1175da" d="M 0 0 L 37.007812 0 L 37.007812 37.007812 L 0 37.007812 Z M 0 0 " fill-opacity="1" fill-rule="nonzero"/></g><g fill="#ffffff" fill-opacity="1"><g transform="translate(9.496283, 28.541383)"><g><path d="M 1.6875 0 L 1.6875 -3.171875 L 9.09375 -10.015625 C 10.039062 -10.921875 10.757812 -11.707031 11.25 -12.375 C 11.738281 -13.050781 11.984375 -13.800781 11.984375 -14.625 C 11.984375 -15.539062 11.679688 -16.265625 11.078125 -16.796875 C 10.472656 -17.328125 9.710938 -17.59375 8.796875 -17.59375 C 7.847656 -17.59375 7.082031 -17.304688 6.5 -16.734375 C 5.925781 -16.160156 5.644531 -15.378906 5.65625 -14.390625 L 1.484375 -14.390625 C 1.484375 -15.742188 1.789062 -16.921875 2.40625 -17.921875 C 3.019531 -18.929688 3.878906 -19.707031 4.984375 -20.25 C 6.097656 -20.800781 7.378906 -21.078125 8.828125 -21.078125 C 10.316406 -21.078125 11.613281 -20.8125 12.71875 -20.28125 C 13.832031 -19.757812 14.695312 -19.035156 15.3125 -18.109375 C 15.925781 -17.191406 16.234375 -16.128906 16.234375 -14.921875 C 16.234375 -14.140625 16.078125 -13.363281 15.765625 -12.59375 C 15.453125 -11.832031 14.90625 -10.984375 14.125 -10.046875 C 13.34375 -9.117188 12.238281 -8.007812 10.8125 -6.71875 L 7.78125 -3.734375 L 7.78125 -3.59375 L 16.515625 -3.59375 L 16.515625 0 Z M 1.6875 0 "/></g></g></g></svg>