<?xml version="1.0" encoding="UTF-8"?>
<!DOCTYPE svg PUBLIC "-//W3C//DTD SVG 1.1//EN" "http://www.w3.org/Graphics/SVG/1.1/DTD/svg11.dtd">
<!-- Creator: CorelDRAW Home & Student 2019 -->
<svg xmlns="http://www.w3.org/2000/svg" xml:space="preserve" width="4.835mm" height="3.684mm" version="1.1" style="shape-rendering:geometricPrecision; text-rendering:geometricPrecision; image-rendering:optimizeQuality; fill-rule:evenodd; clip-rule:evenodd"
viewBox="0 0 20.23 15.42"
 xmlns:xlink="http://www.w3.org/1999/xlink">
 <defs>
  <style type="text/css">
   <![CDATA[
    .fil0 {fill:#1175DA}
    .fil1 {fill:white;fill-rule:nonzero}
   ]]>
  </style>
 </defs>
 <g id="Vrstva_x0020_1">
  <metadata id="CorelCorpID_0Corel-Layer"/>
  <polygon class="fil0" points="15.42,0 15.42,4.93 20.23,7.71 15.42,10.49 15.42,15.42 -0,15.42 -0,0 "/>
  <path class="fil1" d="M5.33 11.76l0 -1.06 2.81 -2.76c0.27,-0.27 0.49,-0.51 0.67,-0.72 0.18,-0.21 0.31,-0.42 0.4,-0.61 0.09,-0.2 0.14,-0.41 0.14,-0.63 0,-0.26 -0.06,-0.48 -0.17,-0.66 -0.12,-0.18 -0.27,-0.33 -0.48,-0.43 -0.2,-0.1 -0.43,-0.15 -0.69,-0.15 -0.27,0 -0.5,0.05 -0.7,0.16 -0.2,0.11 -0.35,0.27 -0.46,0.47 -0.11,0.2 -0.17,0.44 -0.17,0.72l-1.4 0c0,-0.51 0.12,-0.96 0.35,-1.34 0.23,-0.38 0.56,-0.67 0.97,-0.88 0.41,-0.21 0.89,-0.31 1.42,-0.31 0.54,0 1.02,0.1 1.43,0.3 0.41,0.2 0.73,0.48 0.96,0.83 0.23,0.35 0.34,0.76 0.34,1.21 0,0.3 -0.06,0.6 -0.17,0.9 -0.12,0.29 -0.32,0.62 -0.61,0.97 -0.29,0.36 -0.7,0.79 -1.22,1.3l-1.4 1.42 0 0.06 3.53 0 0 1.23 -5.56 0z"/>
 </g>
</svg>
