<?xml version="1.0" encoding="UTF-8"?>
<!DOCTYPE svg PUBLIC "-//W3C//DTD SVG 1.1//EN" "http://www.w3.org/Graphics/SVG/1.1/DTD/svg11.dtd">
<!-- Creator: CorelDRAW Home & Student 2019 -->
<svg xmlns="http://www.w3.org/2000/svg" xml:space="preserve" width="4.835mm" height="3.684mm" version="1.1" style="shape-rendering:geometricPrecision; text-rendering:geometricPrecision; image-rendering:optimizeQuality; fill-rule:evenodd; clip-rule:evenodd"
viewBox="0 0 22.97 17.5"
 xmlns:xlink="http://www.w3.org/1999/xlink">
 <defs>
  <style type="text/css">
   <![CDATA[
    .fil0 {fill:#1175DA}
    .fil1 {fill:white;fill-rule:nonzero}
   ]]>
  </style>
 </defs>
 <g id="Vrstva_x0020_1">
  <metadata id="CorelCorpID_0Corel-Layer"/>
  <polygon class="fil0" points="17.5,0 17.5,5.59 22.97,8.75 17.5,11.91 17.5,17.5 -0,17.5 -0,0 "/>
  <path class="fil1" d="M9.26 13.48c-0.44,-0 -0.87,-0.08 -1.29,-0.23 -0.42,-0.15 -0.8,-0.4 -1.13,-0.74 -0.34,-0.34 -0.6,-0.8 -0.8,-1.37 -0.2,-0.57 -0.3,-1.28 -0.29,-2.12 0,-0.79 0.08,-1.49 0.25,-2.11 0.17,-0.62 0.41,-1.14 0.72,-1.57 0.31,-0.43 0.69,-0.75 1.14,-0.98 0.45,-0.22 0.94,-0.34 1.5,-0.34 0.58,0 1.09,0.11 1.54,0.34 0.45,0.23 0.81,0.54 1.09,0.93 0.28,0.39 0.45,0.84 0.51,1.33l-1.64 0c-0.08,-0.35 -0.26,-0.64 -0.52,-0.85 -0.26,-0.21 -0.59,-0.32 -0.98,-0.32 -0.64,0 -1.13,0.28 -1.47,0.83 -0.34,0.55 -0.52,1.31 -0.52,2.28l0.06 0c0.15,-0.26 0.34,-0.49 0.57,-0.68 0.23,-0.19 0.5,-0.33 0.79,-0.44 0.3,-0.1 0.61,-0.16 0.94,-0.16 0.54,0 1.03,0.13 1.46,0.39 0.43,0.26 0.77,0.61 1.02,1.06 0.25,0.45 0.38,0.97 0.37,1.55 0,0.61 -0.13,1.15 -0.41,1.63 -0.28,0.48 -0.67,0.86 -1.16,1.14 -0.5,0.27 -1.08,0.41 -1.74,0.41zm-0.01 -1.35c0.32,0 0.62,-0.08 0.88,-0.24 0.26,-0.16 0.46,-0.37 0.61,-0.64 0.15,-0.27 0.22,-0.57 0.22,-0.91 0,-0.33 -0.07,-0.63 -0.21,-0.89 -0.15,-0.27 -0.35,-0.48 -0.6,-0.63 -0.26,-0.16 -0.55,-0.23 -0.87,-0.23 -0.24,0 -0.47,0.05 -0.68,0.14 -0.21,0.09 -0.39,0.22 -0.55,0.38 -0.16,0.16 -0.28,0.35 -0.37,0.57 -0.09,0.21 -0.13,0.44 -0.14,0.69 0,0.32 0.08,0.62 0.22,0.89 0.15,0.27 0.35,0.49 0.61,0.65 0.26,0.16 0.55,0.24 0.88,0.24z"/>
 </g>
</svg>
