<?xml version="1.0" encoding="UTF-8"?>
<!DOCTYPE svg PUBLIC "-//W3C//DTD SVG 1.1//EN" "http://www.w3.org/Graphics/SVG/1.1/DTD/svg11.dtd">
<!-- Creator: CorelDRAW Home & Student 2019 -->
<svg xmlns="http://www.w3.org/2000/svg" xml:space="preserve" width="3.684mm" height="4.835mm" version="1.1" style="shape-rendering:geometricPrecision; text-rendering:geometricPrecision; image-rendering:optimizeQuality; fill-rule:evenodd; clip-rule:evenodd"
viewBox="0 0 11.3 14.83"
 xmlns:xlink="http://www.w3.org/1999/xlink">
 <defs>
  <style type="text/css">
   <![CDATA[
    .fil0 {fill:#1175DA}
    .fil1 {fill:white;fill-rule:nonzero}
   ]]>
  </style>
 </defs>
 <g id="Vrstva_x0020_1">
  <metadata id="CorelCorpID_0Corel-Layer"/>
  <polygon class="fil0" points="-0,3.53 3.61,3.53 5.65,0 7.69,3.53 11.3,3.53 11.3,14.83 -0,14.83 "/>
  <path class="fil1" d="M5.69 12.23c-0.28,-0 -0.56,-0.05 -0.83,-0.15 -0.27,-0.1 -0.51,-0.26 -0.73,-0.48 -0.22,-0.22 -0.39,-0.52 -0.52,-0.88 -0.13,-0.37 -0.19,-0.83 -0.19,-1.37 0,-0.51 0.05,-0.96 0.16,-1.36 0.11,-0.4 0.26,-0.74 0.47,-1.01 0.2,-0.28 0.45,-0.49 0.74,-0.63 0.29,-0.14 0.61,-0.22 0.97,-0.22 0.37,0 0.7,0.07 0.99,0.22 0.29,0.15 0.52,0.35 0.7,0.6 0.18,0.25 0.29,0.54 0.33,0.86l-1.06 0c-0.05,-0.23 -0.16,-0.41 -0.33,-0.55 -0.17,-0.14 -0.38,-0.2 -0.63,-0.2 -0.41,0 -0.73,0.18 -0.95,0.54 -0.22,0.36 -0.33,0.85 -0.33,1.47l0.04 0c0.1,-0.17 0.22,-0.32 0.37,-0.44 0.15,-0.12 0.32,-0.21 0.51,-0.28 0.19,-0.07 0.39,-0.1 0.6,-0.1 0.35,0 0.66,0.08 0.94,0.25 0.28,0.17 0.5,0.4 0.66,0.69 0.16,0.29 0.24,0.63 0.24,1 0,0.39 -0.09,0.74 -0.27,1.05 -0.18,0.31 -0.43,0.55 -0.75,0.73 -0.32,0.18 -0.69,0.27 -1.12,0.26zm-0.01 -0.87c0.21,0 0.4,-0.05 0.57,-0.15 0.17,-0.1 0.3,-0.24 0.4,-0.42 0.1,-0.17 0.14,-0.37 0.14,-0.59 0,-0.21 -0.04,-0.4 -0.14,-0.58 -0.09,-0.17 -0.22,-0.31 -0.39,-0.41 -0.16,-0.1 -0.35,-0.15 -0.56,-0.15 -0.16,0 -0.3,0.03 -0.44,0.09 -0.13,0.06 -0.25,0.14 -0.35,0.25 -0.1,0.11 -0.18,0.23 -0.24,0.37 -0.06,0.14 -0.09,0.29 -0.09,0.44 0,0.21 0.05,0.4 0.14,0.57 0.1,0.17 0.23,0.31 0.39,0.42 0.17,0.1 0.36,0.16 0.57,0.16z"/>
 </g>
</svg>
