<svg fill="none" xmlns="http://www.w3.org/2000/svg" viewBox="0 0 172 64"><path fill="#fff" d="M0 0h59.535v64H0z"></path><path fill-rule="evenodd" clip-rule="evenodd" d="M1.904 63.847v-.05c0-.052.047-.052.047-.102v-.153c0-.051-.047 0-.047-.102v-.204c.047 0 .047 0 .047-.05v-.255c0-.102.048-.102.048-.204s.047-.05.047-.102v-.153c0-.05.048-.05.048-.101 0-.051.048-.102.048-.153v-.204c-.048 0 0-.102 0-.153 0-.101.047-.05.047-.152 0-.051.048-.102.048-.102 0-.102.047-.051.047-.153.048 0 .048-.204.048-.306h.047v-.05c0-.051 0-.051.048-.051 0-.051.048-.051.048-.102v-.153c0-.153.047-.204.047-.356.095 0 .048-.306.095-.306l.048-.153c0-.101.048-.05.048-.152.047 0 0-.051.047-.051.048 0 .048-.255.048-.306 0-.05-.048-.356-.048-.356l.048-.153c.047 0 .047-.05.047-.102v-.05l.048-.103c.048 0 .048-.102.095-.102.048 0 .048-.254.048-.305.047 0 .047-.153.095-.153 0 0 0-.102.048-.102.047 0 .047-.152.047-.152l.048-.102v-.305c0-.102.047-.052.047-.153h.048v-.051c.047 0 0 0 .047-.051v-.102c.048 0 0-.051 0-.051v-.051c0-.05.048.051.048-.05v-.052s.048-.102.048-.153v-.254c0-.102.047-.102.047-.204v-.153c0-.101.048 0 .048-.101v-.204c.047-.051.047 0 .047-.102l.048-.05.048-.103v-.05c0-.052.047 0 .047-.102v-.153c.048 0 .048-.051.048-.102 0-.102.047-.051.047-.153.048 0 .048-.153.048-.203 0-.051.048-.153.048-.153l.047-.204v-.204c0-.05.048-.101.048-.152 0-.102.047-.051.047-.102v-.102s0-.102.048-.102c0-.05 0-.102.048-.102v-.254c0-.051.047 0 .047-.051v-.051s.048-.102.048-.153v-.102c0-.102.047 0 .047-.102 0 0 0-.101.048-.101v-.255c0-.102.047-.05.047-.153v-.204c0-.05.048-.05.048-.101v-.509c.048 0-.048-.102.048-.102v-.102c0-.051.047-.051.047-.102v-.102l.048-.153.047-.203c0-.051.048-.102.048-.153.095 0 0-.153 0-.153v-.152c0-.052.048-.052.048-.102 0-.051 0-.102.047-.102v-.204c.048 0 0-.05.048-.102v-.05c0-.052.047 0 .047-.052v-.51c.048-.05 0-.102 0-.153 0-.05-.047-.152 0-.203 0-.051.048-.051.048-.102l.048-.051v-.05c.095 0 0-.052.047-.052 0-.05.048-.05.048-.102 0 0 0-.102.047-.102.048 0 0-.203 0-.203 0-.051 0-.102.048-.102v-.152c.047 0 0-.052.047-.103v-.101c0-.051 0 0 .048 0v-.102c0-.051.048 0 .048-.102v-.153l.047-.102c.048 0-.047-.152.048-.152 0-.255.047-.459.047-.713 0-.051.048-.102.048-.153l.048-.102v-.255c0-.05 0-.101.047-.101v-.102c.048 0 0-.051 0-.102v-.306l.048-.407c0-.05.047 0 .047-.05v-.102c0-.052 0-.102.048-.102v-.051c-.048 0 0-.204 0-.204.048 0 .095-.102.095-.153 0-.05 0-.153.048-.153v-.407c0-.05 0-.102.047-.102v-.102s.095-.305.048-.305v-.153s-.048 0-.048-.05v-.103c0-.102.048 0 .048-.102V41.9c.048 0 .048 0 .048-.05 0-.103.047-.205.047-.357v-.153c0-.051.048 0 .048-.051v-.051c0-.05.047 0 .047-.05v-.306s-.047 0-.047-.051c0-.102.047-.051.047-.102v-.153c0-.05 0-.05-.047-.05v-.154c0-.05.047-.05.047-.152h.048v-.459c0-.203.047-.356.047-.56v-.254c0-.051-.047-.204 0-.204v-.255c0-.101.048-.152.048-.305v-.102s-.048-.204 0-.204l.048-.152v-.051h.047v-.255c0-.102-.047-.102-.047-.153 0-.102.095-.254.047-.356v-.051h-.047v-.102c-.048 0-.048-.102-.048-.153 0-.05-.048-.05-.048-.101v-.459c.048 0 0-.153 0-.153v-.305c0-.05 0-.102-.047-.102v-.356c.047 0 .047 0 .047-.051s.048 0 .048-.102c0-.051.048-.051.048-.102v-.153c.047 0 .047-.05.047-.05v-.408c.048 0 0-.05 0-.102 0-.05 0-.05.048-.05v-.204c0-.051 0-.051-.048-.051v-.306c.048 0 .048 0 .048-.05 0-.102-.048-.052-.048-.154v-.152c0-.051 0-.051.048-.051v-.102c0-.05-.048-.05-.048-.102v-.254c.095 0 .048-.102.048-.153v-.917c0-.05-.048-.356-.048-.356l.048-.153v-.204c0-.203.047-.254.047-.458v-.203c0-.052.048.05.048-.052v-.05c0-.051-.048 0-.048-.102v-.661c.048 0 .048-.051.048-.102 0-.05-.048.05-.048-.05v-.052c-.047 0 0-.05-.047-.05l-.048-.103c0-.05-.047-.05-.047-.102h-.096l-.047.052c-.143.101-.143.05-.143.101h-.095c0 .051-.048.051-.048.051-.047 0-.047 0-.047.051-.048 0-.048.051-.095.051-.048 0 0 .051-.048.051H5.52c-.047 0-.142.05-.19.05-.048 0-.095.052-.095.103-.048 0-.048.05-.095.05 0 0-.048.052-.048 0 0-.05-.095.052-.095-.05h-.19c0 .05-.143.05-.19.05h-.144c0-.05 0-.05-.047-.05h-.143c-.048 0-.095.05-.095.05H4.14c-.047 0 0 0 0 .052h-.808c-.096 0-.096-.051-.143-.051-.048 0-.048-.051-.096-.051-.047 0-.047-.051-.095-.051 0 0 0-.051-.047-.051h-.286l-.095-.051c-.048 0 0-.05-.095-.05h-.048c-.143 0-.19-.052-.333-.052 0-.102-.19 0-.19-.05 0 0-.096 0-.096-.052l-.047-.05h-.048c0-.051 0-.051-.047-.051-.048 0-.048-.052-.096-.052 0 0-.047-.05-.095-.05-.047 0-.047 0-.047-.051h-.095c0-.051-.143 0-.143-.051h-.048c-.095 0 0-.051-.047-.051H.999c-.047 0-.095 0-.095-.051H.809c-.048 0 0-.051-.048-.051H.714v-.05H.666l-.047-.052s0-.05-.048-.05c0-.052-.095-.052-.143-.052 0 0-.047.051-.047 0 0 0-.048-.05-.095-.05-.048 0 0-.052-.048-.052s0-.05-.048-.05c0-.051-.047-.102-.047-.102l-.048-.051C.048 28.102.048 28 0 28v36h1.904c-.048-.102 0-.102 0-.153z" fill="#EA2839"></path><path fill-rule="evenodd" clip-rule="evenodd" d="M.05 26.637s.05 0 .05-.05v-.049l.05-.099s.05-.098.05-.148c.05 0 .05 0 .05-.05v-.049c.05 0 .05-.099.05-.099h.05c0-.098.05-.049.05-.098.05-.05.1-.05.1-.1 0-.049.05 0 .05-.098 0 0 .05 0 .05-.05 0-.049.049-.049.049-.098 0 0 .1-.05.1-.1 0-.049.05-.049.05-.098l.05-.05c0-.049.05 0 .05-.049l.05-.05c.05 0 0-.098.05-.098 0 0 0-.148.05-.148s0-.1.1-.1c0-.098.149-.098.149-.197l.05-.05s.05-.098.05-.049v-.05c0-.049.05-.049.05-.098 0-.05.05-.099.1-.099 0-.05.05-.05.05-.099.05 0 .1-.049.1-.098l.05-.05v-.099c0-.05 0-.05.05-.05 0-.049.05-.049.05-.098l.05-.099.05-.05.049-.049s.05-.099.05-.05c0-.049.05-.049.05-.049 0-.049.05-.098.05-.098l.05-.1.05-.049s0-.049.05-.049c0-.05.05 0 .05-.05v-.049l.05-.05c.05-.049.1-.049.1-.148.05 0 0-.098.05-.098-.1.05-.05 0-.05 0s.05 0 .05-.05v-.05c.05 0 .05 0 .05-.049h.049c0-.049.1-.099.1-.099 0-.049.05-.049.05-.098l.05-.1.05-.049c.1 0 0-.098.1-.098l.05-.1c0-.049.05-.049.05-.098.05 0 .05 0 .05-.05.05 0 0-.049.05-.049 0 0 0-.099.05-.099 0-.05.049-.099.099-.099 0-.049.05-.049.05-.098 0-.05.05-.05.05-.1.05 0 .05-.049.1-.098 0 0 .05-.05.1-.05 0-.049.05 0 .05-.049h.05l.05-.05c.05 0 .05-.049.05-.049 0-.05 0-.099.05-.099l.049-.049c.05 0 .05-.05.05-.05s.05 0 .05-.049h.05l.05-.099c.05 0 0-.05.05-.05 0-.098.05-.049.05-.098 0-.05.05-.05.05-.099.05 0 .1-.05.1-.099.05 0 .05-.099.1-.099 0-.049.05-.049.05-.148.05 0 .05-.099.099-.099v-.049s.05 0 .05-.05c0-.049.1-.049.1-.098l.05-.1h.05c0-.049.05-.049.05-.049 0-.049.05-.098.1-.098v-.05c.05 0 .05 0 .05-.05l.1-.098.05-.05s.049-.049.049-.098l.05-.1c.05 0 .05-.049.1-.049 0 0 .05-.049.05-.098l.1-.1c.05-.049 0-.098.1-.098v-.05c0-.049.05 0 .05-.049 0-.05.05-.05.05-.099l.05-.05s.05 0 .05-.049l.049-.049c.05 0 .05 0 .05-.05.05 0 0-.049.05-.049 0 0 0-.099.05-.099h.05c0-.05.05-.099.05-.099 0-.049.05-.049.05-.098l.05-.1c.05 0 .05-.098.05-.098.05 0 .05-.05.1-.099l.05-.05.05-.098c.049 0 .049-.05.049-.05s.1-.049.1-.098l.05-.05c0-.05.05-.05.1-.099.05-.05.05-.099.1-.099 0-.049.05-.049.05-.098 0-.05.05 0 .05-.05l.05-.05c0-.049.05-.049.05-.098 0-.05.05-.099.099-.099 0-.05.05-.05.05-.099h.05s.05-.099.05-.05c0-.049.05-.098.05-.098 0-.05.05-.05.05-.099.05 0 .05-.099.05-.099l.05-.099v-.098c.05 0 .05 0 .05-.05l.05-.099s-.05-.049 0-.049c0 0 .05-.05.05-.099 0-.05.05-.05.05-.05 0-.049.05-.049.05-.098 0-.05.099-.05.099-.099 0-.05.05-.05.05-.099 0-.05.05 0 .05-.05 0 0 .05 0 .05-.049.05 0 0-.049.05-.049l.05-.05s-.05-.049.05-.049v-.099c0-.05.05-.098.05-.148 0-.05.05-.05.05-.148 0 0 .05-.05 0-.05l.05-.05s.05-.048.05-.098.05-.05.05-.05c.05 0 0-.049.05-.049 0 0 .049-.05.049-.099s.05 0 .05-.049c0-.05.05 0 .05-.099.05 0 0-.099.05-.099l.05-.05.05-.048v-.05c0-.05 0 0 .05 0v-.05c0-.049.1-.049.1-.098.05 0 .05-.05.05-.099 0-.05.05-.05.05-.099 0 0 .1-.05.1-.099 0 0 .049 0 .049-.05.05 0 0-.048.05-.048 0-.05.05-.05.05-.1 0-.049 0-.049.05-.049 0-.05 0-.099.05-.148 0 0 .05-.05.05-.099 0 0 .05 0 .05-.05l.05-.049c0-.099.05-.05.05-.099l.05-.049.05-.05.05-.098c.05 0 .099-.1.099-.149.05 0 .05-.049.1-.049 0-.099.05-.05.05-.148.05 0 0-.05.05-.05l.05-.049c.05-.05.05-.099.1-.099.05-.05 0-.148.05-.148 0-.05.05-.05.05-.099 0-.05.05 0 .05-.05 0-.049.05-.049.05-.049 0-.05.05-.05.05-.05v-.049l.05-.05c0-.048.049-.098.099-.098 0-.05.05 0 .05-.05 0-.049.05 0 .05-.049 0 0 .05 0 .05-.05 0-.049.05-.049.05-.049s0-.049.05-.049v-.05c0-.098 0 0 .05-.049v-.05h.05s.05 0 .05-.049l.05-.098.05-.1c0-.049.05-.098.05-.098s0-.05.049-.05c0 0 0-.049.05-.049l.05-.099.1-.099.05-.099c0-.049.05 0 .05-.049 0-.05.05-.099.05-.05l.05-.098c.05 0 0-.05.05-.05l.05-.05.05-.049c.05 0 .05-.049.05-.049h.049v-.05s0-.049.05-.049c0-.05.05-.099.05-.148 0 0 0-.05.05-.05v-.049c.05 0 .1-.099.1-.148 0-.05.05-.05.05-.05 0-.049.1-.049.1-.148.05 0 .05-.05.05-.05 0-.049 0 0 .05-.049l.05-.098v-.05c.05 0 .05 0 .05-.05l.049-.049c0-.05.15-.05.15-.099l.1-.098c.05 0 .05-.05.05-.1.05 0 .05-.049.05-.049s.05-.098.1-.098l.05-.05c.05 0 0-.05.05-.05v-.049l.05-.05v-.049c.049 0 .049 0 .049-.049 0 0 0-.05.05-.05s0-.049.05-.049c0 0 .05-.099.1-.099 0-.05 0-.099.05-.099 0 0 .1-.049.1-.098 0-.05.05-.05.05-.149.05 0 .05-.098.1-.098 0 0 .05-.05.05-.1 0 0 .05-.098.1-.098l.049-.05c0-.049 0 0 .05 0V7.66c0-.05.05-.05.05-.05l.05-.098s.05-.05.05-.1c0-.048.05 0 .05-.098.05 0 0-.05.05-.05l.05-.049s.05 0 .05-.05c.05 0 0 0 .05-.049v-.049s.05 0 .05-.05l.05-.049h.05c0-.05.049-.05.049-.099l.05-.099s.05-.049.05-.098c.05 0 .05 0 .05-.05l.05-.05c0-.049.05-.098.1-.098l.05-.05c.05 0 .05-.049.05-.098l.05-.1c.05 0 .05-.049.05-.049.05 0 .05-.049.05-.049v-.05h.05c.049 0 0-.098.049-.098 0-.05.1-.198.15-.198l.05-.05.1-.098.05-.05s.05-.049.1-.049c0-.099.1-.148.15-.198l.049-.099c.05 0 .05-.049.05-.098l.1-.05.05-.099.05-.148h.05l.05-.05.1-.049.05-.05.05-.049c.05 0 .05-.049.1-.049 0-.05.049-.099.049-.099.05-.05.05-.148.15-.148 0-.05.05-.05.05-.099.05 0 .1-.05.1-.099l.05-.05v-.049h.05s.05 0 .05-.049l.05-.05.05-.049c0-.05.05-.05.05-.099.049 0 0-.05.049-.05 0 0 .05 0 .05-.049l.05-.049c0-.05 0-.05.05-.05l.15-.148c.05-.05.1-.148.15-.148 0-.099.1-.099.15-.198 0 0 .049-.049.049-.098 0-.05.1-.05.1-.1.05 0 .1-.098.15-.148l.1-.049c0-.05.1-.05.1-.05 0-.049.05 0 .05-.049.05 0 .05-.05.05-.05s.05-.049.099-.049l.1-.098c.05 0 .05-.1.1-.149.05 0 0-.05.05-.05h.05c.05 0 .05-.049.05-.049.05 0 .05-.098.1-.098l.1-.1c0-.049.05 0 .05-.098l.05-.05.099-.098c.05 0 0-.05.1-.05 0-.05 0-.05.05-.05l.1-.098.05-.05c0-.049.05-.098.1-.098 0-.05.05-.1.1-.1 0-.049.149-.098.149-.147l.05-.1.1-.098h.05v-.05h.05s.05-.049.1-.049c0-.05.05-.05.1-.099 0-.05.1-.05.1-.099s.049-.098.049-.098c0-.05.1-.05.1-.1 0 0 0-.049.05-.049s0-.05.05-.05l.05-.098c.05 0 .05-.099.1-.099h.05c.05 0 0 0 .05-.05h.05c-.05 0 .05-.049.05-.049L21.117 0h.05H0v26.538c0 .148.05.148.05.1z" fill="#7AB800"></path><path fill-rule="evenodd" clip-rule="evenodd" d="M21.337.2c0 .1.15.05.15.151.05 0 .05.05.1.05 0 0 0 .05.05.05s.05.05.05.1.05 0 .05.101c.05 0 .05.05.1.1l.05.05.05.05.05.05c0 .051.05.051.05.101.05 0 .05.1.1.1s.1.05.1.1c.05 0 .05.05.05.151.05 0 .05.05.05.1.05 0 .05.1.1.1h.05v.051l.05.05c0 .05.05.05.05.05v.05h.05l.05.05h.05v.05h.05c0 .051.05.101.05.101l.1.05.05.05s0 .05.05.05l.05.05c.05 0 .05.05.1.101.05 0 .05-.05.05.05.05 0 .1 0 .1.05.05 0 .15.1.15.15l.05.101v.05c0 .05.05.05.05.1 0 0 .05 0 .05.05 0 0 .05 0 .05.05l.049.101s0 .05.05.05l.05.05.05.1.05.101c0 .1.05.15.05.2 0 .101.05.101.05.252.05 0 0 .1 0 .1.05 0 .05.05.05.1-.15.1-.1.1-.1.2 0 .051 0 .201.05.201l.05.1v.05h.05l.05.051s.05 0 .05.05c.05 0 0 .05.05.05l.05.1c0 .101.05.05.05.151 0 .05 0 .1.05.15v.05h.05v.051c.05.1 0 .25 0 .401v.452c.1 0 .05.3.05.35v.453c0 .05.05 0 .05.05 0 0 .05.15 0 .2-.05 0 0 .051 0 .101 0 .1-.05.05-.05.15v.201c0 .05-.05 0-.05.05v.402c0 .1-.05.15-.05.25v.753c0 .05-.05.1-.05.15v.201c0 .05-.05.05-.05.1v.3c-.05 0 0 .1-.05.1v.1h-.05v.151c0 .05 0 .301-.1.301v.15c-.05 0-.05 0-.05.05 0 0 0 .101-.05.101l-.05.1c-.05 0-.05.1-.05.151v.05c0 .05 0 .05-.05.05v.1c0 .05 0 .05-.05.05v.201c0 .05-.05-.05-.05.05v.251c0 .05-.05 0-.05.05s-.05.1-.05.201v.15c0 .05-.05-.05-.05.05 0 .05 0 .05-.05.05v.101c0 .05 0 .05-.05.05 0 .05 0 .15-.05.15 0 .101-.05.101-.05.201v.151c0 .05 0 .05-.05.05v.05c0 .05-.05.15-.05.2v.051c0 .05 0 .05-.05.05v.05c-.05 0 0 .15-.05.15s0 .151-.05.151c0 .05 0 .1-.05.1v.05c0 .05 0 .05-.05.05v.301l-.05.101-.05.05-.05.05v.05c0 .05 0 .05-.05.05v.101c0 .05-.05.1-.05.1v.15c0 .101-.05.101-.05.151-.05 0-.05.1-.05.1 0 .05-.05.101-.05.201l-.05.1s-.05 0-.05.05c-.05 0-.05.051-.05.051v.05c-.05 0-.05 0-.05.05v.1c0 .05 0 .1-.05.1v.101c0 .05-.05.05-.05.1v.05l-.05.05c-.05.051-.05.101-.05.151 0 .05 0 .1-.05.1v.1c0 .051-.05.051-.05.101v.1c-.049 0-.049.05-.049.1 0 .051-.05 0-.05.051v.401c0 .05-.05.05-.05.1s-.05 0-.05.05c0 0 0 .05-.05.05-.05.051-.05.151-.05.252v.15c-.05 0-.1.15-.1.15s-.05 0-.05.05c-.05 0-.05 0-.05.051 0 0-.05 0-.05.05v.05c0 .05-.05.05-.05.1-.05 0-.05.151-.05.151-.05 0 0 .05-.05.05 0 0 0 .05-.05.05v.05c-.05 0-.05 0-.05.05v.251c0 .05-.05 0-.05.05v.05c0 .05-.05.101-.05.151 0 .05-.05.1-.05.1v.05c-.1 0 0 .05-.05.05s0 .051-.05.051-.05.05-.05.1c-.1 0-.1.201-.15.201 0 .05 0 .05-.05.05 0 .05-.05.05-.05.05 0 .05-.05 0-.05.05v.05c0 .1-.05.1-.05.251v.15c-.1 0 0 .051-.05.051l-.05.1-.05.1c-.05 0 .05.1-.05.1v.101c0 .05.05.05-.05.05v.1c0 .05-.049.101-.049.151 0 .05-.05.05-.05.1s-.05.05-.05.1c0 .051-.05 0-.05.051v.1s-.05.301-.05.351v.05c0 .05-.05 0-.05.05v.252c0 .05 0 .05-.05.05v.1c-.05.05 0 .15-.05.15 0 .1-.1.15-.1.251 0 .05 0 .15-.05.15 0 .05 0 .05-.05.05l-.05.101-.05.1-.05.05s0 .05-.05.05 0 .151 0 .151-.05.1-.05.15c0 .05-.05 0-.05.05v.101c0 .05-.05 0-.05.05v.251c0 .05-.05.05-.05.1v.1l-.1.252c0 .05-.05.05-.05.1v.05c0 .05 0 .05-.05.05v.2c0 .101-.05.151-.05.252l-.05.1c-.05 0 .05.05-.05.05v.15c0 .1-.05.1-.05.201 0 .05-.05 0-.05.05v.1c0 .1-.05.05-.05.151v.05l-.05.1v.1c0 .051 0 .051-.05.051v.1c-.05 0 0 .1 0 .15l-.05.151c-.05 0 .05.1-.05.1h-.049s-.05.201 0 .201.05.351 0 .351 0 .1-.05.1c0 0-.05.151-.1.151l-.05.05c0 .05-.05.05-.05.05v.251c0 .05-.05 0-.05.1 0 .05-.05.1-.05.151h-.05v.1c-.05 0 0 .05 0 .05h-.05v.201c0 .05-.05 0-.05.05s0 .1-.05.1c0 .05 0 .05-.05.1-.05 0-.05.051-.05.101-.05 0-.05.05-.05.05 0 .05-.05 0-.05.1 0 .101-.05.201-.05.302.05 0 0 .25 0 .3 0 .05-.05 0-.05.1v.402c0 .05-.05.05-.05.1v.05c0 .05-.05.05-.05.1 0 .051-.05 0-.05.051 0 .05-.05 0-.05.05v.2c0 .051 0 .151-.05.151s0 .15-.05.15v.05c0 .051-.05 0-.05.101v.1c0 .05-.05 0-.05.05s0 .352-.05.352 0 .15-.05.15c0 .05-.05.1-.05.15l-.05.05v.051c-.05 0-.05 0-.05.05h-.05v.1c0 .05-.05-.05-.05.05 0 .05-.049.252.05.252v.1c-.05 0 0 .05-.05.05v.05c0 .1-.049 0-.049.1v.05c0 .1 0 .1-.05.151 0 .05-.05.05-.05.1s0 0-.05 0v.1c0 .05-.05 0-.05.05 0 .051-.05.051-.05.101-.05 0-.05.1-.05.1-.05 0 0 .05 0 .05v.05c0 .05 0 0-.05.05-.05 0-.05.202-.1.202v.15c0 .05-.05.1-.05.15v.15c0 .051-.05.051-.05.101 0 .05-.05 0-.05.1-.05 0-.05.1-.05.151v.25c0 .051 0 .051-.05.051v.1c0 .05-.05.1-.05.15l-.05.05c-.05 0 0 .051-.05.051v.452c0 .1-.05.2-.05.3 0 .05 0 .15-.05.15v.152l-.05.05-.05.151s-.05.1-.05.15c0 0 0 .1-.05.1l-.05.252v.2c0 .05-.05.1-.05.15v.101c-.1 0 0 .1-.05.1l-.05.1-.05.1c0 .101-.05.051-.05.151v.05c0 .05-.1.251-.05.352v.05h.05s.05.1.1.1h.05c.05 0 0 .05.05.05s.1-.05.1-.05c.05 0 .05-.05.1-.05 0-.05.05-.05.05-.05.05 0 .05-.05.05-.1 0 0 0-.05.05-.05l.05-.05c.05 0 .05-.101.05-.101.05 0 0 0 .05-.05l.05-.05h.05c0-.05 0-.05.05-.05v-.05c0-.05.05 0 .05-.05v-.051c0-.05.05-.05.05-.05l.1-.1.05-.1s.05-.051.1-.051c0 0 .05-.1.1-.1s.05-.1.1-.1c0 0 .1-.05.1-.101l.05-.05.05-.05c.05 0 .05-.1.05-.1.05 0 .05-.1.1-.1s.05-.051.05-.051h.05c0-.05.05-.05.05-.05l.05-.1.05-.05s.05 0 .05-.05l.05-.051s.05-.05.05-.1l.1-.05c.05 0 0-.05.1-.05v-.05c.05 0 .05 0 .05-.05 0-.051.05 0 .05-.051 0-.05.05-.1.05-.2 0 0 .05-.05.05-.101v-.05c.1 0 0 0 .05-.05 0-.05 0 0 .05-.05s0-.1.05-.1.05-.051.1-.051l.05-.1h.1c0-.1 0 0 .049-.05.05 0 .05-.1.05-.1l.05-.05v-.051c.05 0 .05 0 .05-.05l.05-.05c.05 0 0-.05.05-.05v-.05s.05 0 .05-.05c0-.101.15-.051.15-.151h.05c.05 0 0-.05.05-.05l.05-.05c0-.05.05-.05.05-.101.05 0 .05-.05.1-.05.05-.05-.05-.05.05-.05v-.05h.1l.05-.05c0-.05.05-.05.05-.1.05 0 0-.051.05-.051 0-.1.05 0 .05-.05l.05-.1c0-.05.1-.151.15-.201.05 0 .05-.1.1-.1s.05-.1.1-.1l.05-.05c0-.051.1-.051.1-.101l.099-.05h.05v-.05s.05 0 .05-.05c.05 0 .1-.05.1-.101 0 0 .05 0 .05-.05v-.05c.05 0 0 0 .05-.05h.05c.05 0 0-.05 0-.05l.05-.05c0-.051.05-.051.05-.051l.05-.05c.05 0 0-.05 0-.05h.05c0-.05.1-.05.1-.1 0 0 .1-.05.1-.1 0-.051.05-.101.1-.101s.1-.05.1-.1.05 0 .05-.05c0 0 .05-.05.05-.101 0 0 .05 0 .05-.05l.05-.05c.05 0 .05-.1.1-.1l.15-.151.05-.05c.05 0 .1-.05.1-.05l.05-.05c.049 0 .049-.05.099-.05 0-.05.05-.101.1-.101 0 0 .05-.05.05-.1s.1 0 .1-.05l.05-.05v-.05c0-.051 0 0 .05-.051l.05-.05c0-.05.05-.1.05-.1.05 0 .1-.05.1-.05s.1-.05.05-.05c0 0 .05 0 .05-.05 0-.051.1-.051.1-.051v-.05c.05 0 .05-.05.05-.05.05 0 .05-.1.05-.1.05 0 .05-.05.05-.101.05 0 .05 0 .05-.05l.1-.1.05-.1s.05 0 .05-.051h.05v-.05c0-.05.05 0 .05 0v-.05s.15-.1.15-.15c0-.05 0-.05.05-.05 0-.051 0-.051.05-.051 0-.05.05-.1.1-.1 0-.05.049-.1.099-.1l.1-.101c0-.05.1-.05.1-.1s.05-.05.05-.05.05-.1.1-.1.05-.05.1-.05c0-.051.15-.101.15-.151l.1-.05.05-.05c.05-.05.15-.101.15-.151l.05-.05.05-.05.1-.1c.1 0 .1-.101.2-.151l.15-.15.05-.05h.05c0-.051.05-.101.05-.101.049 0 .049-.05.099-.05 0-.05.1-.1.1-.1v-.05l.05-.051c.05 0 .05-.1.1-.1l.05-.05c0-.05.1-.05.1-.1 0 0 .05.05.05 0 0 0 .05 0 .05-.051l.05-.05c0-.05.1-.05.15-.15 0-.05.1-.05.1-.1 0 0 .05 0 .05-.051 0-.05.05-.05.1-.05l.05-.05c.05 0 .05 0 .05-.05 0 0 0-.05.05-.05.05-.05.1 0 .1-.101.05 0 .05-.05.1-.05l.05-.05s.1-.05.1-.1c0 0 0-.05.05-.05 0-.05 0-.05.05-.05 0-.051.05 0 .05-.051l.049-.05.1-.05c0-.05.1-.05.1-.05s.05-.05.1-.05l.05-.05v-.051h.05l.05-.05h.05l.05-.05.05-.05h.05c.05 0 0-.05.05-.05 0 0 .05 0 .05-.05 0 0 .1-.051.05-.051l.05-.05.15-.05c0-.05.1-.05.1-.1.05-.05 0-.05.05-.05v-.05s.05-.051.1-.051c0 0 .05-.05.05-.1.05 0 .05-.05.1-.05s.05-.05.1-.1c.05 0 .1-.051.1-.051.099 0 0 0 .049-.05l.05-.05.1-.05.05-.05c.05 0 0-.05.1-.05l.05-.05c.05-.051.2-.101.2-.151l.1-.05s.05-.1.1-.1l.05-.051.1-.05.05-.05h.1c0-.05 0 0 .05 0s0-.05.1-.05v-.05h.05c0-.05 0-.05.05-.05v-.051l.05-.05.1-.05v-.05c.05 0 .05-.05.05-.05.05 0 0-.05.05-.05s0-.05.05-.05c0-.051.05-.051.05-.051a.52.52 0 0 1 .249-.1v-.05h.05v-.05c0-.05.05-.05.1-.05 0-.051.1-.101.15-.101.05 0 0-.05.05-.05 0-.05 0-.05.05-.05 0-.05.1 0 .1-.1.05 0 .1 0 .1-.051.05 0 .05-.05.15-.05 0-.05.1 0 .1-.1.05 0 .05-.05.05 0-.05 0 .05-.05.05-.05h.05c.05 0 0 0 0-.05h.05l.15-.05.05-.051c.05 0 0 0 .05-.05.05 0 .05-.05.1-.05h.099c.05 0 0-.05 0-.05l.1-.05c0-.05.05-.05.1-.05 0-.051.05-.051.05-.051.05 0 .05 0 .05-.05.05-.05 0-.05.1-.05 0-.05.05-.05.1-.05l.05-.05c.1 0 0-.05.05-.05s.05-.05.1-.05.1-.051.15-.051c.05 0 0-.05.1-.05 0-.05 0 0 .05 0 0-.05.1-.05.1-.05.05 0 0-.05.05-.05l.1-.05s.1 0 .1-.05l.05-.051.05-.05.1-.05c.05 0 .05-.05.05-.05l.05-.05.149-.05.1-.051c.05 0 .35 0 .35-.05 0 0 .1-.05.15-.05h.2c.05 0 .1.05.15 0h.25c.05 0 .25-.05.25 0l.149.05c0 .05.1.05.1.1 0 0 .1.05.15.05.1 0 .15.1.2.1 0 .05.05 0 .05.05.1 0 0 0 .05.051l.05.05c.2-.05.3-.05.3-.05s0 .05.05.05v.05c.05 0 .05 0 .05.05h.05c0 .05.05.05.05.05l.1.05c0 .05 0 .05.05.05l.05.051h.05c0 .1.05 0 .05.05v.05l.05.05c0 .05 0 0 .05 0v.05l.05.05c0 .051.1.051.1.101l.049.05c.05 0 .05.1.1.1l.05.05c0 .05.05 0 .05.05l.05.051c.05 0 0 .05.05.05s.05.05.05.1h.05v.05c.05 0 .05.05.05.101.05 0 0 .05.05.05l.05.05c0 .05.05 0 0 .05l.05.1v.051c.05 0 0 .05.05.05l.05.1v.05c.05 0 .05 0 .05.05l.05.05.05.101s.05.1.1.1.05.1.1.1.1.202.1.202h.05v.1l.05.1.05.15c.05 0 0 0 0 .05.1 0 0 .05.05.05 0 0 0 .101.05.101 0 .1.05.05.05.15 0 0 0 .101.05.101v.2c.05 0 .05.1.05.201l.1.2c0 .051 0 0 .049 0v.101l.05.05c.05.05 0 .1 0 .15 0 .101-.05.201-.05.302v.25c0 .1.05.1.05.201v.401c0 .05 0 .15-.05.15v.452c0 .05 0 .05-.05.05v.05l-.05.05c-.05 0-.05.201-.05.252 0 .1-.05 0-.05.05v.1c0 .1-.05.1-.05.15-.05 0-.05.151-.1.151 0 0-.05.15-.05.2v.05c0 .05 0 .101-.05.101v.05c-.05 0 0 .05-.05.05l-.05.05h-.05s-.05.1-.05.05c0 .05-.05.101-.05.101 0 .05 0 .05-.05.05 0 .05-.05.05-.05.1s-.05 0-.05.05-.05 0-.05.1v.051c0 .05-.05 0-.05.05v.05l-.05.05c0 .1-.1.1-.1.151 0 0-.05 0-.05.05s-.05 0-.05.1l-.05.1-.05.101c0 .05-.05 0-.05.05-.05 0 0 0 0 .05s-.05.05-.05.1c0 0 0 .05-.05.05s0 0-.05.051c0 .05-.049.05-.099.05l-.05.05-.05.05-.05.05s-.05 0-.05.05c0 .051-.1 0-.1.101 0 0-.1.05-.1.1l-.15.151s-.05.05-.05.1-.05 0-.05.05 0 .05-.05.05c0 .05-.1 0-.1.05-.05 0-.05.05-.1.05s-.1.101-.1.151c-.05 0-.05.1-.05.15h-.05s-.05.101-.05.051l-.05.05c-.1 0 0 0-.05.05l-.05.1c-.05 0-.05.1-.05.1-.05 0-.05 0-.05.051h-.05c0 .05-.05.05-.1.1l-.05.05-.099.1c-.05 0-.15.101-.15.151-.1 0-.1.15-.2.15-.05 0-.05.051-.1.051s-.05.05-.1.05c0 .05-.05.05-.05.05l-.05.05s-.05 0-.05.05c0 0 0 .05-.05.05 0 .05 0 0-.05.05l-.1.101c-.05 0-.05.1-.05.1-.05 0-.05.1-.1.1s-.05.051-.1.051l-.05.05-.05.05-.05.05c0 .05-.05.05-.05.1 0 0-.1.101-.05.101 0 0-.05.05-.05.1 0 0-.05.05-.1.05s-.099 0-.149.05l-.2.201-.1.05c0 .05-.05.05-.1.05s-.1.05-.15.05h-.05c.05 0-.05.051-.05.051l-.1.05h-.05v.05l-.1.05-.1.05c-.05 0 0 0-.05.05 0 0-.05 0-.05.05 0 0-.05.051-.05.101-.05 0-.1.05-.1.05s-.05 0-.05.05h-.05c-.05 0 0 .05-.05.05h-.05c-.05 0-.1 0-.1.05l-.099.051-.05.1v.05c-.05 0 0 .05-.05.05s-.1.05-.15.05l-.05.051c0 .05-.05 0-.05 0v.05l-.1.05c0 .05-.1.05-.1.05 0 .05-.1 0-.1.1-.05 0-.05.05-.05.05l-.05.051c-.05 0-.05.1-.05.1s-.05.05-.1.05 0 .05-.05.05l-.05.05-.1.051c-.05 0-.05.05-.1.05-.1 0-.05.05-.1.05h-.05c-.05 0-.05.05-.1.05 0 0-.1.05-.1.1l-.05.101c-.05 0-.05.05-.099.05l-.05.05h-.05c0 .05-.05.05-.1.05l-.05.05c0 .05-.1 0-.1.101 0 .05-.1.05-.1.05 0 .05-.15.05-.2.05 0 0-.05.05-.1.05v.05h-.1l-.1.05c-.05 0 0 .051-.05.051l-.05.05-.05.05-.05.05s-.05.05-.1.05l-.05.1-.1.051-.05.05c-.05 0-.05 0-.05.05-.05.05-.05.05-.1.05 0 0 0 .05-.05 0-.049 0 0 .05-.049.05h-.1l-.1.05s-.05.051-.1.051v.05h-.05l-.05.05-.1.1c-.05 0-.05.05-.05.05s0 .051-.05.051v.05c-.05.05-.05.05-.1.05 0 .05-.05.05-.05.05l-.1.05c0 .05-.1.05-.1.1-.05 0-.05.051-.15.051 0 .05-.05.05-.1.1h-.05l-.05.05s0 .05-.05.05c0 0 0 .05-.05.05 0 .051-.1 0-.15.051h-.05c-.05 0 0 .05-.05.05-.049 0-.149.05-.149.05s-.1.05-.05.05c-.05 0 0 .05-.1.05l-.1.05h-.15c-.05 0-.05.05-.05.05-.05 0 0 0-.05.051 0 0-.05 0-.05.05l-.1.1-.05.05c-.05 0-.05.05-.05.101 0 .05-.05.05-.05.1s-.05 0-.05.05c0 0 0 .05-.05.05l-.05.05s-.05 0-.05.051c-.05 0-.05 0-.05.05s-.05.05-.1.05c0 0-.05.05-.1.05 0 0-.05.05-.05.1v.05h-.05l-.05.051-.05.05s-.05 0-.05.05l-.05.05c-.049 0-.049.05-.099.05s0 .05-.1.05h-.05v.051c-.05 0-.1.05-.15.05h-.05c0 .05 0 .05-.05.05s-.05.05-.05.1l-.05.05c-.05 0 0 .051-.05.051s-.1.05-.15.05c-.05 0-.15.05-.15.1v.05c-.1 0 0 0-.05.05 0 0-.05 0-.05.05-.05 0-.2.051-.2.101l-.05.05-.05.05c-.05.05 0 .05-.1.05-.05 0-.1 0-.1.05h-.05v.051c0 .05 0 0-.05.05l-.05.05-.049.05v.05c-.1 0 0 0-.05.05h-.1c0 .05-.05.05-.05.05h-.05c-.05 0 0 .051-.05.051s-.1.05-.1.05 0 .05-.05.05v.05c-.1 0-.05.05-.1.05s-.05.05-.1.101c-.05 0 0 0-.05.05l-.05.05c-.05 0-.05.05-.1.05 0 0-.05.05-.1.05s0 0 0 .05h-.05v.051l-.15.05c0 .05-.05.05-.1.1h-.15c0 .05 0 .05-.05.05v.05s-.05.05-.1.05c0 0-.05.051-.1.051l-.049.05c-.05 0-.05 0-.05.05-.05 0-.05.1-.15.1h-.1c0 .05 0 0-.05 0-.1 0-.1.101-.2.101h-.05c-.05 0-.1.1-.15.1-.05 0-.1.05-.15.05l-.1.1c-.05 0-.05.05-.05.05 0 .051-.1 0-.1.051 0 0-.05 0-.05.05 0 0-.05.05-.05.1h-.05c-.05 0 0 0-.05.05s-.15.101-.2.151c-.05.05-.05.05-.149.05 0 .05-.05.05-.05.05l-.05.05-.05.05c-.05 0 0 .051-.1.051l-.05.1s-.05.1-.1.1h-.05v.05c-.1 0 0 0-.05.05l-.1.051c-.05 0 0 .05-.05.05h-.1c-.05 0-.05 0-.05.05h-.05c0 .05-.1 0-.1.05l-.1.05c-.05 0-.05.05-.1.05.25-.802.2-.802.15-.802-.05 0-.05.05-.1.05 0 .05-.1.05-.1.05-.05 0-.1.05-.15.05l-.1.051h-.2c-.049 0 0 .05-.049.05-.05 0-.05 0-.05.05-.1 0-.1.05-.2.05-.05 0 0 .05-.1.05h-.4c-.05 0 0 0 0 .05h-.1c0 .05-.1.05-.1.05h-.05c-.05 0-.05.051-.1.051s-.05.05-.1.05h-.1c0 .1-.15 0-.15.05 0 0-.1 0-.1.05-.05 0-.05.05-.05.1 0 0-.05.101 0 .101l.05.05v.05c.05 0 .05 0 .05.05.05 0 .05.05.15.05h.05c.05 0 .1 0 .1.051l.1.05.1.05s.05 0 .05.05.05 0 .05.1c0 .05 0 .101.05.101l.05.1.1.05c.05 0 .05.05.1.05s.05.101.1.101c0 .05.05.1.05.1h.05l.05.05.1.05c0 .05.05.05.05.05 0 .05.15.101.15.151.05 0 .1 0 .1.05.05 0 .05 0 .05.05h.1v.05h.05c0 .05 0 .05.05.05h.05c0 .051.05.051.1.051 0 0 .1 0 .1.05h.05l.1.05c0 .05.05.05.1.1s.1.151.15.151c0 0 .05 0 .05.05 0 0 .05.05.1.05 0 .05.05.05.1.05h.05c0 .05.05.1.05.1s.05.051.05 0c0 .051 0 0 .05.051v.05c.05 0 .05 0 .05.05l.05.05c.05 0 .099.05.149.05 0 0 0 .05.05.05v.051c0 .05.1.05.1.05 0 .05.05 0 .05.1.05 0 .1.05.1.1.05 0 0 .051.05.051h.05c0 .05.1.05.1.05 0 .05.05 0 .05.05h.1c0 .05.05.1.1.1 0 0 .05.05.1.05s0 .05.05.05.05.051.05.051c.05 0 .15.1.15.15 0 .05.1.1.15.151 0 .05.1.05.15.05.05 0 .05.05.15.05 0 .05.05.05.099.1l.1.1c.05 0 .05.051.1.051 0 .05.15 0 .15.05s.05.05.05.05h.05s0 .05.05.1l.05.05s.1.051.1.101c0 .05.1 0 .1.05.05 0 .05 0 .1.05 0 .05.05 0 .05.05l.1.05c.05 0 .05.101.1.101s.05.05.1.05c0 .05.05 0 .05.05s.05.05.1.05c0 .05.15.1.15.151 0 0 .1.05.1.1 0 0 .099 0 .099.05h.1c.05 0 0 .05.05.05.05.05.05.05.1.05 0 0 .1.101.1.051 0 .05.05.05.1.1.05 0 .05.05.05.05l.05.05h.05c.05 0 0 .05 0 .05h.05c.05 0 0 .051.05.051h.05l.05.05c.1 0 .1.1.15.1l.1.05c0 .05.05.05.1.05 0 .05.1.05.1.101 0 .05.1 0 .1.05h.149c.05 0 0 .05.05.05s.149.05.149.05c.05 0 .05.05.05.05l.05.05s.05.051.05.101c0 .05.05 0 .05.05s.1 0 .1.05c0 0 .15.05.1.05.05 0 .05.05.15.05 0 .05.05.05.1.05 0 .051.1.051.1.101 0 0 0 .05.05.05s0 .05.05.05h.05c0 .05.1 0 .1.05.05 0 0 .05.05.05s.05.051.1.051c0 .05.05.05.1.05s.05.05.1.05c0 .05.05 0 .05.05l.05.05h.05l.05.05.1.051c.049.05.049.15.149.15 0 .05.1.1.15.1 0 0 0 .05.05.05h.05l.05.051c0 .05.05 0 .05.05h.05c.05 0 .05.05.1.05s.1.05.1.05l.05.1c.05 0 .05.051.1.051h.15c0 .05 0 .05.1.05 0 0 0 .05.05.05 0 0 0 .05.05.05 0 .05.05 0 .05.05h.05c.05 0 .05.05.05.05l.05.05.1.051s.05 0 .05.05l.149.05h.1v.05l.05.05c.05 0 .05.05.1.05 0 .051.05.101.1.101l.05.05c0 .05.1.05.1.1s.1 0 .1.05c.05 0 .15 0 .15.051 0 .05.15 0 .15.1h.2c0 .05.05.05.1.05 0 .05.05.1.15.1 0 .05.05 0 .05.101h.05s0 .05.05.05 0 0 .05.05c0 0 .099 0 .099.05 0 0 .1.05.05.05.05 0 .05 0 .05.05.05 0 .05.051.1.051s.1.05.15.05c0 .05.05.05.1.1 0 .05.05-.05.05.05h.05c.05 0 .05 0 .05.05h.05l.1.051h.05c0 .05 0 .05.05.05h.05c.05 0 0 .05.05.05h.1l.05.05s.1.05.15.05h.05l.05.05c0 .05 0 .05.05.05h.05c.05 0 .05.051.1.051 0 .05.1.05.149.05 0 .05.05.05.1.05 0 0 .1.1.1.05l.15.05c0 .05.05-.05.05.05h.05c.05 0 0 .051.05.051h.1l.05.05h.05c0 .05 0 .05.05.05s0 .05.05.05l.05.05h.05c0 .05.05.05.1.05l.1.05.1.051c0 .05 0 .05.05.05-.05 0 .05.05.05.05s.05.05.1.05v.05h.05v.05c.05 0 .1 0 .1.051h.199c0 .05.1 0 .1.1.05 0 .15.05.15.05s.1.05.1.1l.1.051h.05c.05 0 .05.05.1.05s.05.05.1.05c0 0 .05.05.1.05 0 0 .1.05.15.05h.1c.05 0 0 0 0 .05l.05.05c.05 0 0 .051.1.051l.1.05c0 .05.05-.05.05.05h.05c.05.05.1 0 .1.05h.05c.05 0 0 .05.099.05.05 0 .1.05.15.05 0 0 .1.051.1.101.05 0 .15 0 .15.05h.1c.05 0 .05.05.05.05.05 0 .05.05.15.05l.1.05c.05 0 .05 0 .05.051h.05s.05 0 .05.05c0 0 .1 0 .1.05s.1.05.15.05v.05h.15l.1.05c0 .05.1.05.1.05 0 .051.1 0 .1.051 0 0 .099.05.149.05 0 .1.05 0 .05.05h.05c.05 0 .05-.05.05.05h.1c.05 0 0 .05.1.05h.05l.05.05.1.051c.05 0 0 .05.1.05h.05c.05 0 0 .05.1.05h.1c0 .05.1.05.1.1 0 0 .1.05.15.05l.2.05h.05c0 .051.05 0 .1 0 .05.051.099.051.149.051h.05c.05 0 .05 0 .05.05h.05s.25.1.3.1c.05 0 0 .05.1.05h.05c.05 0 0 .05.05.05h.05c.05 0 .05.051.1.051h.151c.1 0 .05.05.15.05h.05c.05 0 0 .05.05.05h.05c0 .05 0 0 .1 0 0 .05.05.05.05.05s.1 0 .1.05c.05 0 .1 0 .1.05h.049c0 .051.05 0 .05.051l.15.05c0 .05.05 0 .05.05.05 0 .05.05.1.05s.25.05.25.1.1.05.1.05l.1.051h.05c0 .05.1 0 .1.05 0 0 .1.05.15.05v.05h.1c.05 0 .05 0 .05.05h.149c0 .05.1.05.15.05h.05c.05 0 .05 0 .05.051h.099c0 .05.05 0 .1 0h.1c0 .05.05 0 .05.05l.25.1h.05c0 .05.1 0 .1.05l.1.05c0 .05.15 0 .2.05h.05c.05 0 .05 0 .05.051h.1l.1.05c.05 0 .1-.05.1.05h.15c.05 0 0 .05.05.05h.05c.049 0 0 0 0 .05h.199c.05 0-.05.05.05.05h.05c.05 0 .1.051.2.051h.05c.1 0 .05.05.1.05h.1c.05 0 0 .05.05.05s.1.05.15.05c.05 0 .05 0 .05.05h.15c.05 0 .05 0 .05.05h.1c0 .051.05 0 .1 0 0 .051 0 .051.05.051.1 0 0 .05.1.05.05 0 0 .05.1.05h.05c.049 0 .149 0 .149.05 0 0 .15.05.2.05v.05h.05l.1.05.15.051c.05 0 0 .05.05.05h.151c.05 0 .1.05.1.05h.2c.05 0 0 .05.1.05.05 0 .1 0 .1.05h.2c.05 0 .05.05.1.05h.149c.05 0 0 .051.1.051h.1l.1.05c0 .05.1 0 .1.05l.15.05s.1 0 .1.05l.1.05c.05 0 .1 0 .1.051h.2c0 .05.05.05.05.05h.05c.1 0 0 .05.05.05h.05c.05 0 .1.05.15.05h.1v.05h.05v.05c.05 0 .05 0 .05.05h.099c.05 0 .4.051.4.051 0 .05.1.05.15.05h.05c.05 0 .05 0 .05.05h.149c.05 0 0 .05.05.05h.15c.1 0 0 .05.05.05h.25c0 .05.05.05.1.05s.05-.05.05.051h.149c.05 0 .1.05.15.05l.1.05h.35c0 .05.05.05.1.05s0 .05.1.05c.15 0 .25.05.35.05h.1c0 .101.1 0 .15.05.05.051.15 0 .15.051h.199c.05 0 0 .05.1.05h.151c0 .05.1.05.15.05h.15l.1.05c.05 0 0 .05.1.05h.05c.05 0 .15.05.15.05.05 0 .2 0 .2.051.05 0 .2-.05.2 0l.15.05c.05 0 .149 0 .149.05h.15c.05 0 .05.05.1.05h.35c.1 0 .05.05.1.05s.05 0 .05.05c.05 0 .15.051.2.051h.349c0 .05.05.05.05.05h.1c0 .05 0 .05.05.05s.05.05.1.05h.149c0 .05.05.05.1.05h.25c.05 0 .05.05.1.05.1 0 .2.05.3.05h.301c.1 0 0 .051.1.051h.25c.1 0 .1.05.15.05h.499c0 .05.05.05.1.05s.2 0 .2.05.45.05.5.05c0 .101.15 0 .15.05l.1.051h.469V0H21.088c.05 0 .05 0 .1.05s.1.15.15.15z" fill="#00ADD0"></path><path d="M58.965 64H4.048c.058 0 .048-.017.04-.032-.006-.01-.011-.018.01-.018h.1c0-.05 0-.05.05-.05h.05c0-.1.05-.05.05-.05 0-.05 0-.05.05-.05v-.05c.033 0 .044.023.048.022l.001-.023h.1c.021 0 .016-.008.01-.019-.008-.014-.018-.031.04-.031.032-.032.044-.023.048-.026.002-.001.002-.006.002-.024h.05c0-.025.013-.038.025-.05.013-.013.025-.025.025-.05l.05-.05c.059 0 .066-.018.072-.032.004-.01.007-.019.028-.019h.2c0-.025.025-.025.05-.025s.05 0 .05-.025c0-.05.05 0 .05 0l.1-.05c0-.05.05-.1.1-.1l.15-.05s.15 0 .15-.05c.05 0 .15 0 .15-.05.02 0 .032-.01.047-.02a.152.152 0 0 1 .102-.031h.05c.059 0 .066-.017.072-.031.004-.01.008-.02.028-.02h.15c.025 0 .025-.012.025-.024 0-.013 0-.025.025-.025.05 0 .15-.05.15-.05s.1 0 .1-.05l.1-.05h.2c.05 0 .1 0 .1-.05h.05l.2-.051s.05.05.05 0h.05v-.05s.15-.05.25-.05c0-.05 0-.05.05-.05 0-.026 0-.038.006-.044.006-.007.018-.007.043-.007 0-.05.1-.05.1-.05.05 0 .1 0 .1-.05h.1v-.05l.1-.05h.05l.05-.05h.05v-.05c.025 0 .038-.013.05-.026.013-.012.025-.025.05-.025l.1-.1c.025 0 .037-.013.05-.025.012-.013.025-.025.05-.025 0 0 .05-.05.1-.05h.05c0-.035-.023-.046-.022-.049 0 0 .006-.002.022-.002h.05s.05-.05.05-.1c.05 0 .1-.1.1-.1 0-.025.012-.038.025-.05.012-.013.025-.026.025-.05l.1-.05c.025 0 .025-.013.025-.026 0-.012 0-.025.025-.025v-.05h.1c.058 0 .065-.017.071-.032.004-.01.008-.018.028-.018 0 0 .1-.05.1-.1.025 0 .05-.013.075-.026.025-.012.05-.025.075-.025h.15c.05 0 .05 0 .1-.05 0 0 .05 0 .05-.05.05-.05.05-.1.05-.15 0-.05.05-.15.05-.15.05 0 .05-.101.05-.101v-.05c0-.05.013-.076.025-.1.012-.026.025-.05.025-.101.05 0 .05-.1.05-.15 0-.05.05-.05.05-.05v-.302c0-.058.017-.065.031-.071.01-.005.019-.008.019-.029v-.05l.05-.05c.025 0 .025-.013.025-.025 0-.013 0-.025.025-.025.02 0 .016-.009.01-.019-.009-.014-.019-.032.04-.032 0-.034-.023-.045-.022-.048 0 0 .006-.002.022-.002v-.2c.034 0 .045.023.048.022 0 0 .002-.006.002-.022v-.301s-.05-.05 0-.05v-.05c0-.06.017-.05.031-.04.01.005.019.01.019-.01 0-.06.017-.084.031-.104.01-.014.019-.026.019-.047 0 0 .05-.05.05-.1 0 0 .05-.05.05-.1 0 0 .05-.101 0-.101-.025 0-.025-.025-.025-.05s0-.05-.025-.05v-.15c0-.026-.013-.026-.025-.026-.013 0-.025 0-.025-.025v-.25s0-.051.05-.051c0-.05.012-.075.025-.1.012-.025.025-.05.025-.1 0-.06-.017-.084-.032-.104-.01-.014-.018-.026-.018-.047v-.2c.073 0 .066-.028.057-.062a.128.128 0 0 1-.007-.039v-.15c0-.06.017-.066.031-.072.01-.005.019-.008.019-.029 0-.025.012-.025.025-.025.012 0 .025 0 .025-.025 0 0 .05-.05.05-.1 0-.025.012-.038.025-.05.012-.013.025-.026.025-.05v-.251c.058 0 .048-.035.04-.063-.006-.02-.011-.038.01-.038l.05-.1c0-.059.017-.083.03-.103.01-.014.02-.027.02-.047v-.1c0-.026.012-.026.024-.026.013 0 .025 0 .025-.025v-.05c0-.025.013-.038.026-.05.012-.013.024-.025.024-.05v-.1c.05 0 .05-.038.05-.076s0-.075.05-.075v-.1c.05 0 .05-.05.05-.05v-.05c0-.026.013-.026.025-.026.013 0 .025 0 .025-.025 0-.05 0-.05.05-.05v-.15c0-.05 0-.151.05-.151v-.25a.32.32 0 0 1 .032-.136.18.18 0 0 0 .018-.066c0-.05.025-.087.05-.125.025-.038.05-.075.05-.125s0-.1.05-.15c.025 0 .038 0 .044-.007.006-.006.006-.019.006-.044 0-.025.013-.025.025-.025.013 0 .025 0 .025-.025l.05-.05c0-.025.013-.025.025-.025.012 0 .025 0 .025-.025v-.15s-.05-.051 0-.101v-.1c.05 0 .05-.1.05-.1v-.05c.025 0 .037 0 .044-.007.006-.006.006-.019.006-.044v-.1c.05 0 .05-.05.05-.05.05 0 .05-.05.05-.05l.05-.05c0-.026.012-.038.025-.051.012-.013.025-.025.025-.05.05 0 .1-.15.1-.2h.05v-.302c0-.025.012-.037.025-.05.012-.012.025-.025.025-.05 0-.02.008-.024.018-.029.015-.006.032-.013.032-.071v-.201s.05-.05.05-.1v-.05c.025 0 .037 0 .043-.007.007-.006.007-.019.007-.044 0-.05.05-.05.05-.05.019-.019.03-.038.04-.054.017-.027.029-.046.06-.046 0-.05.012-.063.025-.075.012-.013.024-.025.024-.076.05 0 .1-.05.1-.05.05 0 .05-.05.05-.05h.1c0-.05.038-.05.075-.05.038 0 .075 0 .075-.05h.35c0-.025 0-.038.006-.044.007-.006.019-.006.044-.006h.1c.059 0 .066-.018.072-.032.004-.01.007-.018.028-.018.025 0 .05-.013.075-.026.025-.012.05-.025.075-.025l.15-.05h.1c.025 0 .025-.012.025-.025 0-.012 0-.025.025-.025h.45c0 .077.058.066.108.056.015-.003.03-.006.041-.006.083 0 .135.015.182.029a.395.395 0 0 0 .118.021h.5c0 .05.05.05.1.05h.5c.058 0 .048.018.04.032-.006.01-.011.019.01.019h.15c.1 0 .35 0 .35.05h.699c0 .025.012.025.031.025s.044 0 .069.025h.05a.057.057 0 0 1-.02.044c-.005.006-.005.006.02.006h.45c.05 0 .1 0 .1.05.02 0 .032.009.046.019.02.014.045.031.103.031h.2c0-.05.15.05.15.05.05 0 .075.013.1.026.025.012.05.025.1.025.025 0 .05.012.075.025.025.012.05.025.075.025 0 .05.1.05.15.05h.25l.15.05c0 .05.1.05.1.05 0 .05 0 .05.05.05h.05s.05-.05.05 0 .1.05.15.05c.024 0 .037.013.05.026.012.012.024.025.05.025h.15c.058 0 .065.017.07.031.005.01.008.019.03.019h.249c.02 0 .024.009.028.019.006.014.013.031.072.031.02 0 .041.017.066.038.034.028.075.063.134.063 0 .1.2.15.3.15 0 .05.15.1.2.1.024 0 .024.013.024.025 0 .013 0 .025.025.025h.1c0 .077.059.066.108.056a.237.237 0 0 1 .042-.005h.1s0 .05.05.05l.05.05v.05c0 .05.05.05.05.05 0 .05 0 .05.05.05 0 .025.013.025.025.025.013 0 .025 0 .025.026l.05.05c.025 0 .05.012.075.025.025.012.05.025.075.025h.2c.02 0 .015.008.01.018-.009.015-.019.032.04.032h.1c.025 0 .025.013.025.025 0 .013 0 .025.025.025a.25.25 0 0 0 .1.05.251.251 0 0 1 .1.05c0 .026.012.026.025.026.012 0 .025 0 .025.025.019 0 .038-.008.054-.014.026-.01.046-.017.046.014h.15c0 .05.05.05.1.05s.1.05.1.05.05-.05.05 0h.05c.05 0 .05.05.05.05a.18.18 0 0 1 .074.025c.025.013.05.025.075.025h.15c.059 0 .066.017.072.032.004.01.007.018.028.018.025 0 .025.013.025.026 0 .012 0 .024.025.024.05 0 .05.013.05.026 0 .012 0 .025.05.025h.15c.05 0 .062.012.075.025.012.012.025.025.075.025l.05.05c.025 0 .037.013.05.025.012.013.025.025.05.025.032.032.002.044.003.048 0 0 .01.002.047.002.025 0 .037-.003.043-.007a.134.134 0 0 0 .007.007c.032.032.043.003.047.004 0 0 .003.01.003.047h.05l.1.05s.15 0 .15.05h.1c.024 0 .037.012.05.025.012.012.024.025.05.025.024 0 .05.012.074.025.025.013.05.025.075.025.02 0 .016.009.01.019-.008.014-.018.031.04.031.025 0 .038 0 .044.007.006.006.006.018.006.043.034 0 .045-.023.049-.022l.001.022h.05c0 .05.05.05.05.05.05 0 .1.05.1.05v.05c.025 0 .037.013.05.026.012.012.025.025.05.025 0 0 0 .05.05.05h.05c.05 0 .15.05.15.05 0 .05.1.05.15.05 0 .06.034.066.062.072.02.005.038.008.038.029.025 0 .037.012.05.025.012.013.025.025.05.025l.15.05.15.1c.05 0 .1.05.1.05.05 0 .1.05.1.05.024 0 .024.013.024.026 0 .012 0 .025.025.025.05 0 .05.05.05.05.025.025.063.025.094.025s.056 0 .056.025h.1c.025 0 .025.013.025.025 0 .013 0 .025.025.025s.05.013.075.026c.025.012.05.025.075.025.025 0 .037.012.05.025.012.012.025.025.05.025 0 .1.05.05.05.05l.1.05c.05 0 .062.025.075.05.012.025.025.05.075.05 0 .05.05.05.05.05l.1.05c.025 0 .05.013.075.026.024.012.05.025.074.025 0 .05.05.05.1.05 0 .059.035.066.063.072.02.004.037.008.037.028l.15.05.1.1c.025 0 .038.013.05.026.013.012.025.025.05.025.032.032.044.023.048.026.002.001.002.006.002.024h.05v.05c.05 0 .25.1.25.15.05 0 .075.026.1.05.025.026.05.051.1.051-.05 0 .1.05.1.05s.1.05.15.05h.15c0 .06.017.049.031.04.01-.005.019-.01.019.01l.05.05.1.05c0 .05.05.05.1.05 0 .051.1.051.15.051l.15.05s.1.05.15.05c.02 0 .032.009.046.02.02.013.045.03.103.03 0 .05.1.05.1.05l.2.101c.02 0 .024.009.028.019.006.014.013.031.072.031 0 .021.008.016.018.01.015-.008.032-.018.032.04.05 0 .075.025.1.05.025.026.05.05.1.05.02 0 .024.01.028.02.006.014.013.03.072.03h.05c.05 0 .075.013.1.026.025.012.05.025.1.025 0 0 .15 0 .15.05 0 .02.008.016.018.01.014-.008.031-.018.031.04l.05.05c0 .05.15.05.15.05 0 .026.063.026.125.026.063 0 .125 0 .125.025s.025.025.05.025.05 0 .05.025l.15.05c0 .025.025.025.05.025s.05 0 .05.025h.05c.025 0 .05.013.075.025.025.013.05.025.075.025h.05c0 .05.1.05.1.05.05 0 .1 0 .1.05h.05c.05 0 .05 0 .05.05h.1c0 .051.1.051.15.051h.05c.024 0 .024.013.024.025 0 .013 0 .025.025.025h.05c0 .05.05.05.05.05h.05c.025 0 .025.013.025.025 0 .013 0 .026.025.026l.1.05c0 .05.15.05.2.05.025 0 .038.012.05.025.013.012.025.025.05.025h.1c.025 0 .05.013.075.025.025.013.05.025.075.025h.1v.05c.025 0 .037.013.05.025.012.013.025.025.05.025h.1c.058 0 .065.018.071.032.004.01.008.019.029.019.045 0 .08.02.118.042.047.027.099.058.181.058.025 0 .025.012.025.025 0 .013 0 .025.026.025h.1c0 .05.05.05.1.05 0 .05.05.05.05.05 0 .05.05.05.05.05 0 .05.1.05.15.05.058 0 .065.018.07.032.005.01.008.019.03.019h.299c.025 0 .037.012.05.025.012.012.025.025.05.025l.05.05s.1.05.05.05l.05.05c0 .026.037.026.075.026.037 0 .075 0 .075.025.05 0 .062.012.075.025.012.012.025.025.075.025 0 .05.05.05.1.05h.05c.05 0 .05.05.05.05.032.032.043.023.047.026.002.001.002.006.002.024.059 0 .083.018.103.032.015.01.027.018.047.018h.1c0 .074.027.067.061.057a.168.168 0 0 1 .04-.006h.05c.05 0 .15 0 .15.05h.1c.044 0 .089.01.138.021a.894.894 0 0 0 .21.029c0 .025.013.025.026.025.012 0 .025 0 .025.025.05 0 .062.013.075.025.012.013.025.025.075.025h.15c0 .059.051.066.094.072.03.004.056.008.056.029.025 0 .037.012.05.025.012.012.025.025.05.025.052.026.077.039.103.044a.454.454 0 0 0 .096.006c.035 0 .045-.023.049-.022l.001.022h.05c.025 0 .025.012.025.025 0 .012 0 .025.025.025l.1.05s.15 0 .15.05h.25c.017 0 .039-.005.061-.01.044-.012.089-.023.089.01h.2l.1.05h.2c0 .05.05.05.1.05h.05c.1 0 .2 0 .2.05l.2.101h.05c.058 0 .065.017.07.031.005.01.008.02.03.02l.1.05h.1c.024 0 .024.012.024.024 0 .013 0 .026.025.026h.2c.059 0 .049.017.04.031-.006.01-.01.019.01.019h.15v.05h.05c.025 0 .05.012.075.025.025.013.05.025.075.025.025 0 .025.013.025.025 0 .013 0 .025.025.025h.05c0 .05.1.05.1.05 0 .025.05.025.1.025s.1 0 .1.026l.1.05c.025 0 .037 0 .043.006.006.006.006.019.006.044 0 .025.013.025.025.025.013 0 .025 0 .025.025h.1c.05 0 .15 0 .15.05h.1c.05 0 .05.05.05.05.025 0 .063.013.1.025a.383.383 0 0 0 .1.025h.05c.059 0 .066.018.072.032.004.01.007.019.028.019 0 0 .1 0 .1.05.05 0 .2 0 .2.05.058 0 .083.017.103.031.014.01.026.02.047.02h.05c.05 0 .15 0 .15.05h.2c.024 0 .024.012.024.024 0 .013 0 .025.025.025h.1l.2.05h.05c.059 0 .049.018.04.032-.006.01-.01.019.01.019.05 0 .15 0 .15-.05.05 0 .1 0 .1.05h.15c.025 0 .025.012.025.025 0 .012 0 .025.025.025h.4c.02 0 .015.008.01.018-.009.015-.019.032.04.032h.4c0 .067 0 .067.014.06a.074.074 0 0 1 .035-.01h.05c0 .025.025.025.05.025s.05 0 .05.025c.021 0 .042.009.066.019a.325.325 0 0 0 .134.032l.2.05h.2l.35.05c0 .05.1.05.1.05h.05c0 .025 0 .038.006.044.006.006.019.006.044.006h.1a.18.18 0 0 1 .074.025c.026.013.05.025.075.025h.2c.021 0 .025.009.029.019.006.014.013.031.071.031h.15v.05h.05c.02 0 .038-.007.055-.013.026-.01.045-.017.045.014h.05c0 .05 0 .05.05.05h.2c.082 0 .15.015.21.029.05.01.095.02.14.02.05 0 .4.051.4.051 0 .1.75.1.849.1.025 0 .038.013.05.025.013.013.025.026.05.026 0 .025.012.025.025.025.012 0 .025 0 .025.025 0 .05.1.05.15.05.025 0 .037.012.05.025.012.012.025.025.05.025h.15c.02 0 .024.009.028.019.006.014.013.031.072.031h.05c.1.05.2.1.35.1h.05a.057.057 0 0 1-.02.044c-.006.007-.006.007.02.007h.2l.1.05h.05c0 .025 0 .037.005.044.007.006.02.006.044.006h.05c.05 0 .15 0 .15.05s.15 0 .15 0h.05c.025 0 .037 0 .044.006.006.007.006.02.006.044h.2c.05 0 .05 0 .05.05h.3c.024 0 .037-.012.05-.025.012-.012.025-.025.05-.025.018 0 .038.008.054.014.026.01.045.017.045-.014h.35c0 .046 0 .06.005.063.006.002.018-.013.045-.013h.2c.059 0 .066.018.072.032.004.01.007.019.028.019.025 0 .05.012.075.025.025.012.05.025.075.025h.05c.05 0 .05.05.05.05.082 0 .12.015.153.029a.223.223 0 0 0 .097.021c.082 0 .15.015.21.029.05.011.095.021.14.021.058 0 .082.017.102.032.015.01.027.018.047.018h.1l.1.05h.6c.045 0 .08.01.118.022.047.013.1.029.182.029 0 .05.15.05.2.05h.4c0 .03.018.023.045.013a.156.156 0 0 1 .054-.013h.05c.025 0 .025.012.025.025 0 .012 0 .025.025.025h.05a.65.65 0 0 1 .175.025c.05.013.1.025.175.025h.15c.025 0 .037-.012.05-.025.012-.012.025-.025.05-.025h.2c.025 0 .062.013.1.025a.383.383 0 0 0 .1.025h.25c.02 0 .015.009.01.019-.009.014-.02.031.04.031h.15c.024 0 .037.013.05.025.012.013.024.025.05.025h.2c.024 0 .037.013.05.026.012.012.024.025.05.025.024 0 .024.012.024.025 0 .012 0 .025.025.025l.08-.006c.132-.012.37-.033.37.006h.05v.05h.2c.05 0 .105-.006.16-.011.112-.011.223-.023.29.01h.05v.051c.058 0 .065.017.071.032.004.01.008.018.028.018h.1s.1 0 .15.1V64z" fill="#002776"></path><path d="M24.425 53.847c.005.002.011.009.004.014-.012-.014-.009-.016-.004-.014z" fill="#002776"></path><path fill-rule="evenodd" clip-rule="evenodd" d="M18.29 41.38h.15c.05 0 .05-.05.1-.05h.049c0-.051.15 0 .15-.101.05 0 .05-.05.15-.05 0-.05.05-.05.1-.05 0-.1 0 0 .05-.05l.1-.05c.05 0 .1 0 .1-.05.05 0 .1 0 .1-.051h.05l.1-.05c0-.05.1-.05.1-.05 0-.05.1-.05.15-.05 0-.05.1-.05.1-.05 0-.05.1-.05.1-.05v-.051h.149c0-.05.05-.05.1-.05s0-.05.05-.05h.049c.05 0 .1-.05.15-.05.05 0 0-.05.05-.05 0 0 0-.05.05-.05s.1-.051.1-.101c.05 0 .1 0 .1-.05.1 0 .1-.05.2-.05.05 0 .05-.05.1-.05s.1-.05.15-.05l.05-.101c.05 0 .1-.05.1-.05.05 0 .05-.05.05-.05 0-.05.05 0 .05 0 0-.05.1 0 .1-.05l.15-.05c0-.05.05 0 .05 0 .05-.05-.05 0 .05 0 .05 0 .05-.05.05-.05l.1-.051s.049 0 .049-.05 0 0 .05-.05c.05 0 .05-.05.1-.05l.05-.05.05-.05c.05 0 .05-.051.1-.051s.05 0 .05-.05v-.05c.1 0 .05 0 .05-.05.05-.05.2-.05.2-.15.05 0 .15-.051.15-.101.05 0 .1-.05.15-.05h.05l.05-.05c0-.05.05-.05.1-.1.05-.051.05.05.05-.051.05 0 0 0 0 0 .05-.05.05 0 .05-.05.05 0 .05-.05.05-.1.05 0 .1-.05.15-.05 0 0 .05-.05.1-.05s.1-.151.149-.151c.05 0 .1-.05.1-.1.05 0 .05-.1.1-.1l.2-.101c0-.05.05 0 .05-.1.05 0 .05-.05.1-.05v-.05c.05 0 .05 0 .05-.051h.05v-.05h.05l.05-.05.05-.05.1-.05c.05 0 .05-.05.1-.1l.1-.101c0-.05.05-.05.1-.05v-.05c0 .05.1-.05.05-.05.05 0 .05-.05.1-.05s.05-.101.1-.101l.05-.05.05-.05s.05 0 .05-.05v-.05s.099 0 .099-.05l.05-.101c.05 0 .1 0 .1-.05v-.05c0-.05.05 0 .05-.05.05 0 .1-.05.1-.101l.1-.05c0-.05.05-.1.05-.1.05 0 0-.05.05-.05l.05-.05s.05-.051.05-.101c.05 0 .05-.05.1-.05.1 0 .15-.15.2-.15l.05-.05s.05-.051.05-.101l.1-.05c0-.1.05-.05.05-.1l.05-.05.05-.051c.05 0 .05-.05.1-.05l.1-.1c0-.05.1-.05.1-.1 0-.051.05-.051.05-.051 0-.05.049 0 .049-.05s0 0 .05 0 0 0 0-.05h.05c0-.05 0-.05.05-.05l.05-.05.05-.05c.05 0 0-.05.05-.05l.05-.101.1-.1.05-.05.05-.05.05-.051c.05 0 .05-.1.1-.1s.05-.05.1-.05c0-.05.05-.05.05-.1.05 0 .05-.05.1-.05 0-.051.05 0 .05-.051v-.05s0-.05.05-.05v-.05l.05-.1s.1-.051.1-.101l.1-.1c.05 0 .05-.05.05-.05.05 0 .05-.101.1-.101 0-.05.05-.05.05-.1l.05-.05.05-.05c0-.05.05-.05.05-.1.049 0 .049-.101.099-.101l.05-.1c.05 0 .05-.05.1-.05l.05-.05c0-.051.1-.051.1-.101l.15-.15.05-.05.05-.101.05-.05c0-.05.05-.05.05-.1l.05-.05c0-.05.05-.05.05-.101 0-.05.05-.05.05-.1h.05s0-.05.05-.05v-.05h.05l.05-.05.1-.101.05-.05c.05 0 .05 0 .05-.05 0 0 .05 0 .05-.05l.05-.05v-.05c.05-.051-.05-.051.05-.051v-.1c.05 0 .05 0 .05-.05 0 0 .05-.1.1-.1l.05-.051c0-.05.05 0 .05-.05 0 0 0-.05.049-.05.05 0 .05-.1.05-.1.05 0 .05-.101.05-.101l.05-.1s.1-.1.05-.1c.05 0 .05-.05.05-.1l.05-.051.05-.05.05-.05s.05 0 .05-.05c.05 0 0-.05.05-.05v-.05c.05 0 0-.051 0-.051.05 0 .05-.1.05-.1v-.251c0-.05-.05-.05-.05-.1s0-.1-.05-.1h-.05v-.05c-.05-.051-.05-.051-.1-.051s-.05-.05-.1-.05-.05 0-.05-.05h-.299c0 .05-.1 0-.1.05l-.05.05s-.05 0-.05.05-.05 0-.05.05c-.05 0-.05 0 0 .05h-.1c-.1 0 0-.05-.05-.05h-.05c-.05-.05-.1 0-.15 0h-.1c0 .05 0 .05-.1.05 0 .05-.05.05-.1.05l-.1.05-.05.05c-.05 0-.15 0-.15.051l-.1.1c-.05 0-.05.05-.099.05-.05 0 0 .05-.05.05h-.15c-.1 0-.1.05-.15.05-.05 0-.05.051-.1.051s0 .05-.05.05 0 .05-.05.05h-.1v.05h-.1c-.05 0 0 .05-.05.05s-.1.05-.1.05c0 .05-.05 0-.05.05l-.05.051h-.1v.05l-.05.05-.1.05v.05h-.05l-.1.151c0 .05-.1.05-.1.1-.05 0-.05.05-.1.05 0 .05-.05 0-.05.05l-.049.051-.05.1-.05.1c-.05 0-.1.05-.1.1-.05 0-.05 0-.05.051l-.05.05-.05.05h-.05v.05h-.15c0 .05-.05 0-.05.05 0 0-.1.05-.05.05-.1 0-.05.101-.15.101 0 .05-.05.05-.05.05s-.1.05-.05.05c-.05 0-.05.05-.1.05 0 0-.1.05-.1.1l-.1.101v.05c-.05 0-.05 0-.05.05-.05 0-.05.05-.15.05l-.05.101c-.05 0-.1.05-.1.05 0 .05-.05 0-.05.05h-.05s-.049.05-.099.05l-.05.05c-.05 0 0 .05-.05.05s0 .101-.05.101-.05.05-.05.1l-.1.05-.1.1c-.05 0-.05.051-.05.101 0 .05-.05.05-.05.1 0 0 0 .05-.05.05v.05l-.05.051c0 .05 0 0-.05 0v.05c0 .05 0 0-.05 0v.05l-.05.05h-.05v.1h-.05l-.05.051c-.05.05-.15.05-.15.1l-.05.05c-.05 0 0 .05-.05.05h-.05l-.05.05h-.05v.05l-.05.051c0 .05-.05.05-.05.05l-.05.05-.05.05c0 .05-.05.05-.05.1-.05 0-.05.051-.099.051 0 0 0 .05-.05.05v.05c-.05 0-.1.05-.1.05h-.05c0 .05 0 .05-.05.05s-.05.05-.1.05h-.05c0 .05-.05 0-.05.05h-.1c-.05 0 0 .051-.05.051l-.05.05c0 .05-.05 0-.05.05v.301h-.05c0 .05-.05.05-.05.05-.05.05-.1.05-.1.1-.05 0-.05.051-.1.101l-.05.1c0 .05-.05.05-.05.1-.05 0-.05.101-.1.101 0 0-.05.05-.05.1-.05.05-.15.1-.15.15h-.05s-.05-.05-.05 0v.051l-.05.05s-.05 0-.05.05c-.05 0-.05.1-.099.1l-.1.05s-.05.101-.05.051c0 0-.05.05-.1.05 0 .05-.05.05-.05.1 0 0-.05 0-.05.05l-.05.05s-.05.05-.05.101c-.05 0-.1.05-.1.05 0 .05-.05 0-.05.05v.1c0 .05-.05.101-.1.101 0 0 0 .05-.05.05l-.05.05v.05h-.1c0 .05 0 .05-.05.05h-.05c0 .05-.05.1-.05.1l-.05.051c0 .05-.05 0-.05.05l-.05.05-.1.1c0 .05-.05 0-.05.05l-.05.051c0 .05-.05.05-.05.1h-.05c0 .05-.05.05-.05.05 0 .1-.149.1-.149.201-.05 0-.15.15-.15.15s-.05.05-.1.05c0 0-.05.05-.1.05 0 0-.05.051-.05.101l-.05.05c-.05 0 0 .05-.05.05l-.05.1c0 .051-.05 0-.05.051l-.05.05c0 .05-.1.15-.15.15 0 .05-.05.05-.05.101v.15c-.05 0-.05 0-.05.05s-.05.05-.05.1l-.05.051-.05.05c0 .05-.05.05-.05.15-.05 0-.05.151-.1.151 0 0 0 .1-.05.1 0 0-.05.1-.1.1-.05.151-.05.201-.1.201 0 .1-.05.05-.05.1l-.05.05s-.05.101-.1.101c-.049 0-.099.05-.099.1 0 0-.05.05-.05.1v.051c0 .05-.05 0-.05.1-.05 0-.1.15-.15.15l-.05.151-.1.1c0 .05-.05.05-.05.1 0 .101.05.151.1.151z" fill="#002776"></path><path d="M161.205 61.994h1.599v-8.577c.849-.552 2.149-1.354 3.448-1.354 1.999 0 2.299 1.203 2.299 3.11v6.82h1.549v-7.122c0-1.906-.2-4.213-3.448-4.213-1.599 0-2.849.853-3.848 1.555V50.96h-1.599v11.035zm-7.296-1.054c-2.598 0-3.398-2.106-3.398-4.463 0-2.107.7-4.515 3.398-4.515 2.699 0 3.348 2.458 3.348 4.514-.05 2.207-.699 4.464-3.348 4.464zm-.1 1.305c2.899 0 5.047-1.906 5.047-5.768 0-3.712-1.599-5.819-4.897-5.819-2.948 0-5.047 2.107-5.047 5.919-.05 3.661 1.849 5.668 4.897 5.668zm-8.945-13.794h1.6v-1.855h-1.6v1.855zm0 13.543h1.6V50.909h-1.6v11.085zm-3.647.25c.699 0 1.599-.25 1.949-.35l-.3-1.355c-.25.1-1.1.301-1.749.301-1.649 0-2.099-.3-2.099-1.906v-6.62h3.448v-1.355h-3.448v-2.307h-1.549v2.257h-1.599v1.354h1.599v6.621c0 3.31 1.699 3.36 3.748 3.36zm-12.543-1.354c-1.199 0-1.999-.501-1.999-2.006 0-1.103.95-1.956 2.649-2.006l2.648-.1v2.858c-.25.201-1.899 1.254-3.298 1.254zm-.4 1.304c2.199 0 3.298-1.103 3.848-1.454.1 1.003 1.149 1.404 2.099 1.404h.3l.1-1.254c-.5-.05-1.05-.25-1.05-1.053v-6.17c0-2.206-1.449-2.959-3.898-2.959-1.649 0-3.048.452-3.547.653l.349 1.253c.45-.15 1.699-.501 2.749-.501 1.949 0 2.848.35 2.848 2.106v1.455l-2.648.05c-1.799.05-4.198.652-4.198 3.31-.05 2.057 1.099 3.16 3.048 3.16zm-9.394-1.354c-1.849 0-3.148-1.304-3.148-4.263 0-2.307.999-4.615 3.598-4.615 1.099 0 1.699.201 2.198.351v7.273c-.399.351-1.549 1.254-2.648 1.254zm-.1 1.354c1.199 0 2.199-.652 2.798-1.254v1.054h1.549V46.746h-1.549v4.213c-.799-.2-1.199-.3-2.198-.3-2.849 0-5.247 2.006-5.247 5.868 0 4.915 2.648 5.667 4.647 5.667zm-15.741-.2h1.599v-8.577c.85-.552 2.149-1.354 3.448-1.354 1.999 0 2.299 1.203 2.299 3.11v6.82h1.549v-7.122c0-1.906-.2-4.213-3.448-4.213-1.599 0-2.848.853-3.848 1.555V50.96h-1.599v11.035zm-8.595.25c1.75 0 3.049-1.003 3.948-1.554v1.304h1.549V50.909h-1.55v8.477c-.499.3-2.148 1.354-3.547 1.354-1.999 0-2.099-1.354-2.099-3.11v-6.72h-1.599v7.071c-.05 1.906.2 4.264 3.298 4.264zM83.9 60.94c-2.598 0-3.398-2.106-3.398-4.463 0-2.107.7-4.515 3.349-4.515 2.698 0 3.347 2.458 3.347 4.514 0 2.207-.65 4.464-3.297 4.464zm-.15 1.305c2.899 0 5.048-1.906 5.048-5.768 0-3.712-1.6-5.819-4.898-5.819-2.948 0-5.047 2.107-5.047 5.919 0 3.661 1.85 5.668 4.898 5.668zm-14.44-.251h1.648v-6.12h6.296V54.52h-6.296v-5.517h6.746V47.65H69.31v14.345zm50.619-18.107h1.549l5.397-15.548h-1.649l-2.748 7.924-.65 1.956-.6-2.006-2.398-7.925h-1.749l3.548 11.085h.749l-1.449 4.514zm-6.046-4.464h1.599V24.176h-1.599v15.247zm-4.797-13.542h1.599v-1.856h-1.599v1.856zm0 13.542h1.599V28.39h-1.599v11.034zm-18.59 0h1.6v-8.476c.9-.652 2.148-1.455 3.198-1.455 1.999 0 2.199 1.354 2.199 3.11v6.821h1.599v-7.122c0-.452-.05-.953-.15-1.455.949-.652 2.098-1.354 3.298-1.354 1.998 0 2.248 1.354 2.248 3.06v6.821h1.599v-7.072c0-1.906-.199-4.213-3.448-4.213-1.749 0-3.098.953-3.947 1.655-.4-.903-1.3-1.655-3.048-1.655-1.35 0-2.649.852-3.548 1.555v-1.304h-1.6v11.084zm-8.344-1.103c-1.2 0-2-.502-2-2.007 0-1.103.95-1.956 2.65-2.006l2.648-.1v2.859c-.3.2-1.95 1.254-3.299 1.254zm-.45 1.304c2.198 0 3.298-1.104 3.847-1.455.1 1.003 1.15 1.405 2.1 1.405h.3l.099-1.254c-.5-.05-1.05-.251-1.05-1.053v-6.17c0-2.207-1.449-2.96-3.897-2.96-1.65 0-3.048.452-3.548.653l.35 1.254c.45-.15 1.699-.502 2.748-.502 1.95 0 2.849.351 2.849 2.107v1.454l-2.649.05c-1.799.05-4.197.653-4.197 3.311-.05 2.056 1.099 3.16 3.048 3.16zm-12.393-.2h1.65v-6.07h6.295V32h-6.296v-5.517h6.746v-1.355H69.31v14.295zm89.847-22.571h1.599V8.727c.5-.802 1.549-1.755 2.848-1.755.65 0 .95.05 1.3.15l.3-1.354c-.2-.05-.65-.2-1.3-.2a3.731 3.731 0 0 0-3.148 1.705V5.818h-1.599v11.035zm-9.494-6.42c.2-2.458 1.399-3.712 3.048-3.712 1.749 0 2.548 1.505 2.548 3.712h-5.596zm3.598 6.67c1.799 0 3.148-.4 3.498-.551l-.3-1.304c-.5.15-1.899.451-2.749.451-2.298 0-3.997-.552-4.097-4.113h7.295v-.552c0-3.661-1.249-5.517-3.997-5.517-2.749 0-4.947 1.555-4.947 6.019.1 4.263 2.098 5.567 5.297 5.567zm-16.341-.25h1.599V8.326c.85-.502 2.149-1.354 3.448-1.354 1.999 0 2.299 1.204 2.299 3.11v6.82h1.549V9.73c0-1.906-.2-4.213-3.448-4.213-1.599 0-2.848.853-3.848 1.555V5.818h-1.599v11.035zm-4.597 0h1.599V1.605h-1.599v15.248zm-4.797 0h1.599V1.605h-1.599v15.248zm-9.495-6.42c.2-2.458 1.4-3.712 3.049-3.712 1.749 0 2.548 1.505 2.548 3.712h-5.597zm3.548 6.67c1.799 0 3.148-.4 3.498-.551l-.3-1.304c-.499.15-1.898.451-2.748.451-2.299 0-3.998-.552-4.098-4.113h7.296v-.552c0-3.661-1.249-5.517-3.998-5.517-2.748 0-4.947 1.555-4.947 6.019.1 4.263 2.149 5.567 5.297 5.567zm-15.541-.25h1.649V2.558h-1.649v14.295zm8.196 0h2.198l-6.296-7.724 5.947-6.621h-2.099l-5.597 6.52v.351l5.847 7.474zm-21.688-6.42c.2-2.458 1.4-3.712 3.049-3.712 1.749 0 2.548 1.505 2.548 3.712h-5.597zm3.598 6.67c1.8 0 3.148-.4 3.498-.551l-.3-1.304c-.5.15-1.898.451-2.748.451-2.299 0-3.998-.552-4.098-4.113h7.296v-.552c0-3.661-1.25-5.517-3.998-5.517s-4.947 1.555-4.947 6.019c.05 4.263 2.1 5.567 5.297 5.567zm-16.34-.25h1.599V8.326c.5-.3 2.149-1.354 3.448-1.354 1.999 0 2.299 1.153 2.299 3.11v6.82h1.499V9.73c0-1.906-.15-4.213-3.398-4.213-1.7 0-3.049 1.003-3.848 1.555V1.605h-1.6v15.248zm-7.845 0h1.698V3.963h4.848V2.557H67.11v1.404h4.848v12.89z" fill="#002776"></path></svg>