<?xml version="1.0" encoding="UTF-8"?>
<svg id="Layer_1" xmlns="http://www.w3.org/2000/svg" viewBox="0 0 1223.38 250">
  <defs>
    <style>
      .cls-1 {
        fill: #fff;
      }
    </style>
  </defs>
  <g>
    <path class="cls-1" d="M336.23,51.44h42.9c25.3,0,40.92,4.62,54.34,16.06,15.62,13.2,23.98,33,23.98,55.88s-8.58,44.44-23.32,57.86c-12.1,11-29.92,16.94-51.04,16.94h-46.86V51.44ZM371.87,168.92h5.5c25.96,0,44-18.04,44-44.44,0-12.98-5.28-26.4-13.42-33.88-7.04-6.38-18.48-10.56-29.26-10.56h-6.82v88.88Z"/>
    <path class="cls-1" d="M505.85,153.74c-.22.88-.22,1.98-.22,2.42,0,7.26,7.92,13.42,17.38,13.42,8.58,0,15.18-5.06,15.18-11.66s-3.96-9.9-21.12-16.06c-32.12-11.44-44.66-24.86-44.66-47.3,0-27.5,20.24-45.98,50.82-45.98,19.8,0,36.08,8.36,44.66,22.66,4.18,6.82,6.16,13.2,7.7,23.54h-36.3c-1.1-10.12-6.16-14.74-16.28-14.74-8.8,0-14.52,4.62-14.52,11.66,0,4.4,2.2,7.92,6.82,10.56,2.64,1.76,5.5,3.08,16.72,7.26,16.72,6.38,24.64,10.56,31.24,16.5,8.14,7.48,12.32,17.6,12.32,29.48,0,27.28-21.12,45.54-52.58,45.54s-52.14-18.26-52.14-47.3h34.98Z"/>
    <path class="cls-1" d="M625.75,110.18h48.4v28.82h-48.4v30.36h48.4v28.82h-84.04V51.44h84.04v28.82h-48.4v29.92Z"/>
    <path class="cls-1" d="M737.95,110.18h48.84v28.82h-48.84v59.18h-35.64V51.44h84.48v28.82h-48.84v29.92Z"/>
    <path class="cls-1" d="M884.03,182.12v16.06h-82.28l51.04-73.04c14.74-21.34,18.04-27.94,18.04-36.74,0-12.76-10.12-21.78-24.42-21.78-9.9,0-18.04,4.62-21.34,12.32-1.76,4.18-2.42,7.48-2.64,15.18h-16.5c.88-27.94,15.62-43.34,41.8-43.34,23.98,0,40.7,14.96,40.7,36.3,0,12.32-4.4,23.1-16.72,40.26l-39.38,54.78h51.7Z"/>
    <path class="cls-1" d="M1000.85,153.96c0,16.5-3.08,26.62-10.34,34.32-7.7,8.14-19.36,12.32-33.22,12.32s-26.18-4.4-33.88-12.76c-7.7-8.14-9.68-16.5-9.68-38.72v-48.4c0-19.14,2.2-28.16,8.8-36.08,7.26-8.8,19.36-13.64,34.32-13.64,13.42,0,24.42,3.74,32.56,11,8.36,7.7,11.44,16.5,11.44,33.66v58.3ZM931.11,150.22c0,16.94.66,20.02,5.5,25.52,4.62,5.28,12.54,8.58,20.9,8.58,9.02,0,17.38-3.74,21.56-9.68,3.3-4.84,4.62-11,4.62-21.78v-56.1c0-11.44-1.98-17.16-7.48-22.44-4.84-4.4-11.44-6.82-18.7-6.82-9.46,0-17.6,3.74-21.78,10.56-3.74,5.28-4.62,10.34-4.62,23.1v49.06Z"/>
    <path class="cls-1" d="M1104.03,182.12v16.06h-82.28l51.04-73.04c14.74-21.34,18.04-27.94,18.04-36.74,0-12.76-10.12-21.78-24.42-21.78-9.9,0-18.04,4.62-21.34,12.32-1.76,4.18-2.42,7.48-2.64,15.18h-16.5c.88-27.94,15.62-43.34,41.8-43.34,23.98,0,40.7,14.96,40.7,36.3,0,12.32-4.4,23.1-16.72,40.26l-39.38,54.78h51.7Z"/>
    <path class="cls-1" d="M1203.69,68.16h-47.3v39.38c7.48-2.86,14.08-4.18,21.56-4.18,25.74,0,45.1,20.24,45.1,47.74s-20.68,48.62-49.5,48.62c-20.68,0-36.3-10.78-43.78-30.14l15.84-5.94c3.52,6.38,5.06,9.02,7.48,11.22,4.62,4.62,12.76,7.48,20.9,7.48,17.6,0,31.02-13.64,31.02-31.68s-13.2-31.24-32.56-31.24c-11.44,0-23.1,5.28-32.56,14.96V51.44h63.8v16.72Z"/>
  </g>
  <g>
    <polygon class="cls-1" points="143.08 151.31 161.06 151.31 159.11 145.7 141.12 145.7 143.08 151.31"/>
    <polygon class="cls-1" points="135.85 130.58 153.83 130.58 151.88 124.97 133.89 124.97 135.85 130.58"/>
    <polygon class="cls-1" points="104.21 187.18 110.7 109.84 83.73 187.18 104.21 187.18"/>
    <polygon class="cls-1" points="150.31 172.05 168.3 172.05 166.34 166.44 148.35 166.44 150.31 172.05"/>
    <path class="cls-1" d="M.33,0v250h250V0H.33ZM61.34,181.38v-.16l-16.27-16.27v-23.23l16.27-16.27v-32.14l-3.37-10.1h30.29l-3.37,10.1v32.14l2.63,2.63-18.58,53.3h-7.61ZM72.56,195.12l38.14-109.38v-20.75l-4.49-10.1h44.87l-4.49,10.1v20.75l38.14,109.38h-112.19ZM202.22,118.55v58.34l-4.49,4.49h-9.37l-25.43-72.92h42.65l-3.37,10.1Z"/>
  </g>
</svg>