<?xml version="1.0" encoding="utf-8"?>
<!-- Generator: Adobe Illustrator 26.0.1, SVG Export Plug-In . SVG Version: 6.00 Build 0)  -->
<svg version="1.1" id="Layer_1" xmlns="http://www.w3.org/2000/svg" xmlns:xlink="http://www.w3.org/1999/xlink" x="0px" y="0px"
	 viewBox="0 0 1600 390" style="enable-background:new 0 0 1600 390;" xml:space="preserve">
<style type="text/css">
	.st0{fill:#FFFFFF;}
</style>
<g>
	<g>
		<path class="st0" d="M91.06,157.38h124.79v73.64H91.06v151.21H0V7.31h215.85v73.64H91.06V157.38z"/>
		<path class="st0" d="M451.41,382.23h-91.06V216.97L237.24,7.31h108.49l60.7,115.24L466.02,7.31h106.8L451.41,216.97V382.23z"/>
		<path class="st0" d="M692.06,382.23H601V7.31h91.06v158.5l87.7-158.5h104.54L779.75,185.49l104.54,196.74H779.75l-87.7-164.12
			V382.23z"/>
		<path class="st0" d="M1294.7,195.62c0,107.35-87.7,193.93-196.19,193.93c-111.83,0-200.65-85.46-200.65-193.38
			c0-54.51,21.92-105.11,62.94-143.9C996.78,18.56,1045.69,0,1100.77,0C1211.51,0,1294.7,83.76,1294.7,195.62z M990.59,195.05
			c0,61.85,46.67,110.19,106.25,110.19c58.46,0,105.68-48.34,105.68-108.49c0-64.09-44.98-112.43-105.11-112.43
			C1036.14,84.31,990.59,131.53,990.59,195.05z"/>
		<path class="st0" d="M1421.84,268.69c-0.57,2.24-0.57,5.05-0.57,6.19c0,18.54,20.23,34.28,44.41,34.28
			c21.92,0,38.79-12.94,38.79-29.8c0-17.42-10.12-25.28-53.98-41.03c-82.05-29.23-114.09-63.52-114.09-120.86
			C1336.39,47.22,1388.11,0,1466.25,0c50.58,0,92.15,21.37,114.09,57.89c10.67,17.44,15.75,33.73,19.66,60.15h-92.72
			c-2.81-25.85-15.75-37.67-41.6-37.67c-22.49,0-37.12,11.82-37.12,29.8c0,11.22,5.62,20.23,17.44,26.97
			c6.74,4.5,14.06,7.86,42.72,18.56c42.72,16.3,62.97,26.97,79.83,42.15c20.78,19.11,31.45,44.98,31.45,75.33
			c0,69.69-53.94,116.36-134.32,116.36c-82.07,0-133.22-46.67-133.22-120.86H1421.84z"/>
	</g>
</g>
</svg>
