<?xml version="1.0" encoding="UTF-8" standalone="no"?>
<svg
xmlns="http://www.w3.org/2000/svg"
version="1.1"
width="1063"
height="1420" viewbox="0 0 1063 1420"><g
transform="matrix(1,0,0,-1,0,1420)"
><path
d="m 0,0 1062.99,0 0,269.293 L 0,269.293 0,0 z"
/><path
d="m 0,1148.03 1062.99,0 0,269.289 -1062.99,0 0,-269.289 z"
/><path
d="m 0,297.637 170.078,0 c 154.539,27.25 306.16,76.496 432.285,170.078 82.508,61.223 152,141.383 177.164,240.945 14.946,59.125 10.278,124.637 -35.433,162.992 C 785.797,829.949 789.594,766 772.441,708.66 746.555,622.141 680.836,555.168 602.363,510.234 537.301,472.984 464.598,450.992 389.762,446.457 282.039,439.93 170.98,473.992 120.473,566.93 97.0781,609.977 92.125,659.727 92.125,708.66 c 0,156.055 90.961,291.4 191.34,411.02 L 0,1119.68"
/><path
d="m 1062.99,1119.68 -170.076,0 C 738.375,1092.44 586.75,1043.19 460.629,949.605 378.121,888.383 308.629,808.223 283.465,708.66 268.52,649.535 273.188,584.027 318.898,545.668 c -41.703,41.703 -45.5,105.652 -28.347,162.992 25.883,86.52 91.605,153.492 170.078,198.426 65.059,37.254 137.766,59.242 212.598,63.777 107.726,6.532 218.785,-27.535 269.293,-120.468 23.394,-43.051 28.343,-92.797 28.343,-141.735 0,-156.051 -90.957,-291.394 -191.336,-411.023 l 283.463,0"
/><path
d="m 382.676,574.016 c 17.64,-24.278 47.785,-34.43 77.953,-35.434 58.043,-1.926 111.363,26.402 155.906,63.781 79.559,66.758 126.93,169.907 67.32,240.942 -16.023,19.101 -43.308,22.465 -67.32,14.175 -7.172,-2.476 -14.172,-6.941 -14.172,-14.175 0,-27.336 38.633,-15.7 56.692,-28.344 65.906,-46.149 33.73,-147.199 -42.52,-211.18 -44.719,-37.527 -97.652,-67.336 -155.906,-65.199 -30.242,1.109 -60.258,11.789 -77.953,36.141 -0.223,0.308 -0.313,-0.274 0,-0.707"
/><path
d="m 680.316,843.305 c -17.64,24.277 -47.785,34.433 -77.953,35.433 C 544.32,880.664 491,852.336 446.457,814.961 366.898,748.199 319.527,645.051 379.133,574.016 c 16.027,-19.098 43.308,-22.461 67.324,-14.176 7.168,2.476 14.172,6.941 14.172,14.176 0,27.336 -38.633,15.699 -56.691,28.347 -65.907,46.145 -33.731,147.196 42.519,211.18 44.719,37.523 97.652,67.336 155.906,65.195 30.242,-1.109 60.258,-11.785 77.953,-36.14 0.223,-0.309 0.313,0.277 0,0.707"
/><path
d="m 0,0 1062.99,0 0,269.293 L 0,269.293 0,0 z"
style="fill:none;stroke:#000000;stroke-width:5;stroke-linejoin:round;stroke-miterlimit:10;" /><path
d="m 0,297.637 170.078,0 c 154.539,27.25 306.16,76.496 432.285,170.078 82.508,61.223 152,141.383 177.164,240.945 14.946,59.125 10.278,124.637 -35.433,162.992 C 785.797,829.949 789.594,766 772.441,708.66 746.555,622.141 680.836,555.168 602.363,510.234 537.301,472.984 464.598,450.992 389.762,446.457 282.039,439.93 170.98,473.992 120.473,566.93 97.0781,609.977 92.125,659.727 92.125,708.66 c 0,156.055 90.961,291.4 191.34,411.02 L 0,1119.68 0,297.637 z"
style="fill:none;stroke:#000000;stroke-width:5;stroke-linejoin:round;stroke-miterlimit:10;" /><path
d="m 0,1148.03 1062.99,0 0,269.289 -1062.99,0 0,-269.289 z"
style="fill:none;stroke:#000000;stroke-width:5;stroke-linejoin:round;stroke-miterlimit:10;" /><path
d="m 1062.99,1119.68 -170.076,0 C 738.375,1092.44 586.75,1043.19 460.629,949.605 378.121,888.383 308.629,808.223 283.465,708.66 268.52,649.535 273.188,584.027 318.898,545.668 c -41.703,41.703 -45.5,105.652 -28.347,162.992 25.883,86.52 91.605,153.492 170.078,198.426 65.059,37.254 137.766,59.242 212.598,63.777 107.726,6.532 218.785,-27.535 269.293,-120.468 23.394,-43.051 28.343,-92.797 28.343,-141.735 0,-156.051 -90.957,-291.394 -191.336,-411.023 l 283.463,0 0,822.043 z"
style="fill:none;stroke:#000000;stroke-width:5;stroke-linejoin:round;stroke-miterlimit:10;" /><path
d="m 382.676,574.016 c 17.64,-24.278 47.785,-34.43 77.953,-35.434 58.043,-1.926 111.363,26.402 155.906,63.781 79.559,66.758 126.93,169.907 67.32,240.942 -16.023,19.101 -43.308,22.465 -67.32,14.175 -7.172,-2.476 -14.172,-6.941 -14.172,-14.175 0,-27.336 38.633,-15.7 56.692,-28.344 65.906,-46.149 33.73,-147.199 -42.52,-211.18 -44.719,-37.527 -97.652,-67.336 -155.906,-65.199 -30.242,1.109 -60.258,11.789 -77.953,36.141 -0.223,0.308 -0.313,-0.274 0,-0.707 z"
style="fill:none;stroke:#000000;stroke-width:5;stroke-linejoin:round;stroke-miterlimit:10;" /><path
d="m 680.316,843.305 c -17.64,24.277 -47.785,34.433 -77.953,35.433 C 544.32,880.664 491,852.336 446.457,814.961 366.898,748.199 319.527,645.051 379.133,574.016 c 16.027,-19.098 43.308,-22.461 67.324,-14.176 7.168,2.476 14.172,6.941 14.172,14.176 0,27.336 -38.633,15.699 -56.691,28.347 -65.907,46.145 -33.731,147.196 42.519,211.18 44.719,37.523 97.652,67.336 155.906,65.195 30.242,-1.109 60.258,-11.785 77.953,-36.14 0.223,-0.309 0.313,0.277 0,0.707 z"
style="fill:none;stroke:#000000;stroke-width:5;stroke-linejoin:round;stroke-miterlimit:10;" /><path
d="m 595.273,708.66 c 0,16.918 -6.718,33.137 -18.679,45.098 -11.961,11.961 -28.184,18.683 -45.098,18.683 -16.918,0 -33.137,-6.722 -45.098,-18.683 -11.96,-11.961 -18.683,-28.18 -18.683,-45.098 0,-16.914 6.723,-33.137 18.683,-45.098 11.961,-11.96 28.18,-18.679 45.098,-18.679 16.914,0 33.137,6.719 45.098,18.679 11.961,11.961 18.679,28.184 18.679,45.098 z"
style="fill:none;stroke:#000000;stroke-width:5;stroke-linejoin:round;stroke-miterlimit:10;" /><path
d="m 531.496,708.66 -45.098,45.098"
style="fill:none;stroke:#000000;stroke-width:5;stroke-linecap:round;stroke-linejoin:round;stroke-miterlimit:10;" /><path
d="m 536.496,708.66 61.606,16.508 -10,0 c 11.183,-41.738 -21.086,-80.356 -61.317,-80.356 l 10,0 c -5.48,0 -11.109,0.719 -16.797,2.243"
/><path
d="m 526.496,708.66 -16.508,-61.605 c 5.688,-1.524 11.317,-2.243 16.797,-2.243 l 10,0 c 40.231,0 72.5,38.618 61.317,80.356 l -10,0"
/><path
d="m 584.41,721.5 c -4.043,15.098 -12.015,28.004 -19.898,28.004 l -10,0 c -2.047,0 -4.086,-0.871 -6.047,-2.793 -9.098,-8.914 5.93,-18.961 8.832,-29.797 l 10,0"
/><path
d="m 574.41,721.5 -17.113,-4.586 10,0 c -2.902,10.836 -17.93,20.883 -8.832,29.797 1.961,1.922 4,2.793 6.047,2.793 l -10,0 c 7.883,0 15.855,-12.906 19.898,-28.004"
/><path
d="m 562.297,716.914 c 2.906,-10.836 -5.086,-27.051 7.25,-30.223 12.926,-3.32 14.957,15.797 9.863,34.809"
style="fill:#ffffff;" /><path
d="m 501.441,733.715 10,0 c -2.257,12.808 10.715,22.023 25.055,24.551 l -10,0 c -13.012,-1.137 -25.848,-5.301 -35.078,-14.528"
/><path
d="m 501.441,733.715 10,0 -10.023,10.023 c 9.23,9.227 22.066,13.391 35.078,14.528 l -10,0 c -14.34,-2.528 -27.312,-11.743 -25.055,-24.551"
/><path
d="m 501.418,743.738 -10,0 c -14.594,-14.597 -16.539,-33.715 -3.898,-35.078 0.41,-0.043 0.804,-0.066 1.187,-0.066 l 10,0 c 9.629,0 10.715,13.683 12.734,25.121"
/><path
d="m 501.418,743.738 -10,0 10.023,-10.023 c -2.019,-11.438 -3.105,-25.121 -12.734,-25.121 l 10,0 c -0.383,0 -0.777,0.023 -1.187,0.066 -12.641,1.363 -10.696,20.481 3.898,35.078"
/><path
d="m 527.324,674.434 -10,0 c -3.117,-2.618 -6.679,-3.762 -10.386,-3.762 l 10,0 c -8.133,0 -16.973,5.523 -23.403,13.187 l -10,0 c 7.492,-10.699 17.516,-19.738 30.121,-23.113 l 10,0"
/><path
d="m 527.324,674.434 -10,0 -3.668,-13.688 10,0 c -12.605,3.375 -22.629,12.414 -30.121,23.113 l -10,0 c 6.43,-7.664 15.27,-13.187 23.403,-13.187 l 10,0 c 3.707,0 7.269,1.144 10.386,3.762"
/><path
d="m 518.656,660.746 c 19.942,-5.344 37.469,2.531 32.328,14.16 -4.367,9.871 -17.312,3.66 -28.66,-0.472"
style="fill:#ffffff;" /><path
d="m 543.898,708.66 c 0,3.289 -1.308,6.445 -3.632,8.77 -2.328,2.328 -5.481,3.632 -8.77,3.632 -3.289,0 -6.445,-1.304 -8.769,-3.632 -2.325,-2.325 -3.633,-5.481 -3.633,-8.77 0,-3.289 1.308,-6.441 3.633,-8.769 2.324,-2.325 5.48,-3.633 8.769,-3.633 3.289,0 6.442,1.308 8.77,3.633 2.324,2.328 3.632,5.48 3.632,8.769"
style="fill:#ffffff;" /><path
d="m 543.898,708.66 c 0,3.289 -1.308,6.445 -3.632,8.77 -2.328,2.328 -5.481,3.632 -8.77,3.632 -3.289,0 -6.445,-1.304 -8.769,-3.632 -2.325,-2.325 -3.633,-5.481 -3.633,-8.77 0,-3.289 1.308,-6.441 3.633,-8.769 2.324,-2.325 5.48,-3.633 8.769,-3.633 3.289,0 6.442,1.308 8.77,3.633 2.324,2.328 3.632,5.48 3.632,8.769 z"
style="fill:none;stroke:#000000;stroke-width:5;stroke-linecap:round;stroke-linejoin:round;stroke-miterlimit:10;" /><path
d="m 754.723,1282.68 c 0,21.61 -8.586,42.34 -23.871,57.62 -15.282,15.29 -36.008,23.87 -57.625,23.87 -21.614,0 -42.34,-8.58 -57.625,-23.87 -15.282,-15.28 -23.872,-36.01 -23.872,-57.62 0,-21.62 8.59,-42.34 23.872,-57.63 15.285,-15.28 36.011,-23.87 57.625,-23.87 21.617,0 42.343,8.59 57.625,23.87 15.285,15.29 23.871,36.01 23.871,57.63"
style="fill:#ffffff;" /><path
d="m 722.457,1285 c -0.711,13.6 -6.059,26.41 -14.855,35.59 -8.297,8.67 -19.028,13.45 -30.063,13.45 l -10,0 -2,-0.06 c -11.73,-0.61 -22.699,-6.61 -30.488,-16.66 -7.789,-10.06 -11.766,-23.36 -11.055,-36.96 0.715,-13.61 6.059,-26.41 14.859,-35.6 8.297,-8.67 19.028,-13.44 30.063,-13.44 l 10,0 2,0.05 c 11.73,0.61 22.695,6.61 30.488,16.67 7.789,10.05 11.766,23.35 11.051,36.96"
/><path
d="m 712.457,1285 c 0.715,-13.61 -3.262,-26.91 -11.051,-36.96 -7.793,-10.06 -18.758,-16.06 -30.488,-16.67 l -2,-0.05 10,0 c -11.035,0 -21.766,4.77 -30.063,13.44 -8.8,9.19 -14.144,21.99 -14.859,35.6 -0.711,13.6 3.266,26.9 11.055,36.96 7.789,10.05 18.758,16.05 30.488,16.66 l 2,0.06 -10,0 c 11.035,0 21.766,-4.78 30.063,-13.45 8.796,-9.18 14.144,-21.99 14.855,-35.59"
/><path
d="m 471.258,134.645 c 0,21.617 -8.586,42.343 -23.867,57.625 -15.286,15.285 -36.012,23.871 -57.629,23.871 -21.614,0 -42.34,-8.586 -57.625,-23.871 -15.282,-15.282 -23.871,-36.008 -23.871,-57.625 0,-21.614 8.589,-42.3403 23.871,-57.6255 15.285,-15.2812 36.011,-23.8711 57.625,-23.8711 21.617,0 42.343,8.5899 57.629,23.8711 15.281,15.2852 23.867,36.0115 23.867,57.6255"
style="fill:#ffffff;" /><path
d="m 438.992,136.965 c -0.711,13.605 -6.054,26.41 -14.855,35.597 -8.297,8.665 -19.028,13.442 -30.063,13.442 l -10,0 -2,-0.051 c -11.73,-0.617 -22.695,-6.613 -30.488,-16.668 -7.789,-10.058 -11.766,-23.351 -11.055,-36.957 0.715,-13.609 6.059,-26.414 14.86,-35.6014 8.297,-8.6641 19.027,-13.4414 30.062,-13.4414 l 10,0 2,0.0507 c 11.731,0.6172 22.695,6.6133 30.488,16.6681 7.789,10.058 11.766,23.351 11.051,36.961"
/><path
d="m 428.992,136.965 c 0.715,-13.61 -3.262,-26.903 -11.051,-36.961 -7.793,-10.0548 -18.757,-16.0509 -30.488,-16.6681 l -2,-0.0507 10,0 c -11.035,0 -21.765,4.7773 -30.062,13.4414 -8.801,9.1874 -14.145,21.9924 -14.86,35.6014 -0.711,13.606 3.266,26.899 11.055,36.957 7.793,10.055 18.758,16.051 30.488,16.668 l 2,0.051 -10,0 c 11.035,0 21.766,-4.777 30.063,-13.442 8.801,-9.187 14.144,-21.992 14.855,-35.597"
/><path
d="m 425.195,113.387 70.8672,0 0,42.5195 -70.8672,0 0,-42.5195 z"
/><path
d="m 375.59,219.684 28.348,0 21.257,35.433 -24.8,0 -10.633,-17.715 -10.629,17.715 -24.801,0"
style="fill:#ffffff;" /><path
d="m 333.07,1204.72 35.434,0 0,63.78 63.777,0 0,28.35 -63.777,0 0,35.43 85.039,0 0,28.35 -120.473,0"
style="fill:#ffffff;" /><path
d="m 616.535,56.6914 35.434,0 0,63.7816 35.433,0 c 11.149,0 21.258,-7.223 21.258,-17.719 l 0,-31.8868 c 0,-5.6953 2.207,-11.3555 7.086,-14.1758 l 35.434,0 c -4.879,2.8203 -7.086,8.4805 -7.086,14.1758 l 0,31.8868 c 0,12.004 -6.449,22.691 -14.172,31.891 9.34,7.839 14.172,19.675 14.172,31.89 0,24.82 -18.364,46.063 -42.52,46.063 l -85.039,0"
style="fill:#ffffff;" /><path
d="m 651.969,148.82 35.433,0 c 11.149,0 21.258,7.219 21.258,17.715 0,10.496 -10.109,17.719 -21.258,17.719 l -35.433,0"
/></g></svg>
