<?xml version="1.0" encoding="UTF-8" standalone="no"?>
<!-- Created with Inkscape (http://www.inkscape.org/) -->

<svg
   version="1.1"
   id="svg2"
   xml:space="preserve"
   width="397.33334"
   height="402.66666"
   viewBox="0 0 397.33334 402.66666"
   sodipodi:docname="maso.svg"
   inkscape:version="1.3.2 (091e20e, 2023-11-25, custom)"
   inkscape:export-filename="maso.png"
   inkscape:export-xdpi="96"
   inkscape:export-ydpi="96"
   xmlns:inkscape="http://www.inkscape.org/namespaces/inkscape"
   xmlns:sodipodi="http://sodipodi.sourceforge.net/DTD/sodipodi-0.dtd"
   xmlns="http://www.w3.org/2000/svg"
   xmlns:svg="http://www.w3.org/2000/svg"
   xmlns:rdf="http://www.w3.org/1999/02/22-rdf-syntax-ns#"
   xmlns:cc="http://creativecommons.org/ns#"
   xmlns:dc="http://purl.org/dc/elements/1.1/"><metadata
     id="metadata8"><rdf:RDF><cc:Work
         rdf:about=""><dc:format>image/svg+xml</dc:format><dc:type
           rdf:resource="http://purl.org/dc/dcmitype/StillImage" /><dc:title /></cc:Work></rdf:RDF></metadata><defs
     id="defs6"><clipPath
       clipPathUnits="userSpaceOnUse"
       id="clipPath20"><path
         d="M 0,8.01953 H 2980 V 3018.0195 H 0 Z"
         id="path18"
         inkscape:connector-curvature="0" /></clipPath></defs><sodipodi:namedview
     pagecolor="#ffffff"
     bordercolor="#666666"
     borderopacity="1"
     objecttolerance="10"
     gridtolerance="10"
     guidetolerance="10"
     inkscape:pageopacity="0"
     inkscape:pageshadow="2"
     inkscape:window-width="1920"
     inkscape:window-height="991"
     id="namedview4"
     showgrid="false"
     inkscape:zoom="1.1721855"
     inkscape:cx="246.54801"
     inkscape:cy="279.39264"
     inkscape:window-x="-9"
     inkscape:window-y="-9"
     inkscape:window-maximized="1"
     inkscape:current-layer="g10"
     inkscape:showpageshadow="2"
     inkscape:pagecheckerboard="0"
     inkscape:deskcolor="#d1d1d1" /><g
     id="g10"
     inkscape:groupmode="layer"
     inkscape:label="maso_logo_text_as_outline"
     transform="matrix(1.3333333,0,0,-1.3333333,0,402.66667)"><g
       id="g8523"
       transform="translate(204.86027,0.7293805)"
       style="stroke:none;fill:#ffffff"><path
         inkscape:connector-curvature="0"
         id="path26-3"
         style="fill:#ffffff;stroke:none;stroke-width:3.19999981;stroke-linecap:round;stroke-linejoin:round;stroke-miterlimit:4;stroke-dasharray:none;stroke-opacity:1"
         d="M -8.0592695,173.08062 H 39.94073 v 48 H -8.0592695 Z" /><path
         inkscape:connector-curvature="0"
         id="path28-6"
         style="fill:#ffffff;stroke:none;stroke-width:3.19999981;stroke-linecap:round;stroke-linejoin:round;stroke-miterlimit:4;stroke-dasharray:none;stroke-opacity:1"
         d="m -56.059273,125.08062 h 48.0000035 v 48 H -56.059273 Z" /><path
         inkscape:connector-curvature="0"
         id="path30-7"
         style="fill:#ffffff;stroke:none;stroke-width:3.19999981;stroke-linecap:round;stroke-linejoin:round;stroke-miterlimit:4;stroke-dasharray:none;stroke-opacity:1"
         d="M -7.9112695,125.08062 H 40.08873 v 48 H -7.9112695 Z" /><path
         inkscape:connector-curvature="0"
         id="path32-5"
         style="fill:#ffffff;stroke:none;stroke-width:3.19999981;stroke-linecap:round;stroke-linejoin:round;stroke-miterlimit:4;stroke-dasharray:none;stroke-opacity:1"
         d="m -104.05927,125.08062 h 47.999997 v 48 h -47.999997 z" /><path
         inkscape:connector-curvature="0"
         id="path34-3"
         style="fill:#ffffff;stroke:none;stroke-width:3.19999981;stroke-linecap:round;stroke-linejoin:round;stroke-miterlimit:4;stroke-dasharray:none;stroke-opacity:1"
         d="m -104.05927,173.08062 h 47.999997 v 48 h -47.999997 z" /><path
         inkscape:connector-curvature="0"
         id="path36-5"
         style="fill:#ffffff;stroke:none;stroke-width:3.19999981;stroke-linecap:round;stroke-linejoin:round;stroke-miterlimit:4;stroke-dasharray:none;stroke-opacity:1"
         d="m -152.05907,125.08062 h 48 v 48 h -48 z" /><path
         inkscape:connector-curvature="0"
         id="path38-6"
         style="fill:#ffffff;stroke:none;stroke-width:3.19999981;stroke-linecap:round;stroke-linejoin:round;stroke-miterlimit:4;stroke-dasharray:none;stroke-opacity:1"
         d="m -152.05907,77.080419 h 48 v 48.000001 h -48 z" /><path
         inkscape:connector-curvature="0"
         id="path40-2"
         style="fill:#ffffff;stroke:none;stroke-width:3.19999981;stroke-linecap:round;stroke-linejoin:round;stroke-miterlimit:4;stroke-dasharray:none;stroke-opacity:1"
         d="M -56.059273,77.080419 H -8.0592695 V 125.08042 H -56.059273 Z" /></g><g
       id="g12"
       transform="scale(0.1)"><g
         id="g14"><g
           id="g16"
           clip-path="url(#clipPath20)"><path
             d="m 16.0195,26.1094 h 2640 v 2640 h -2640 z"
             style="fill:none;stroke:#000000;stroke-width:32;stroke-linecap:round;stroke-linejoin:round;stroke-miterlimit:4;stroke-dasharray:none;stroke-opacity:1"
             id="path22"
             inkscape:connector-curvature="0" /><path
             d="m 320,362.117 h 2640 v 2640 H 320 Z"
             style="fill:none;stroke:#000000;stroke-width:32;stroke-linecap:round;stroke-linejoin:round;stroke-miterlimit:4;stroke-dasharray:none;stroke-opacity:1"
             id="path24"
             inkscape:connector-curvature="0" /><path
             d="m 1968.01,1738.1 h 480 v 480 h -480 z"
             style="fill:none;stroke:#000000;stroke-width:32;stroke-linecap:round;stroke-linejoin:round;stroke-miterlimit:4;stroke-dasharray:none;stroke-opacity:1"
             id="path26"
             inkscape:connector-curvature="0" /><path
             d="m 1488.01,1258.1 h 480 v 480 h -480 z"
             style="fill:none;stroke:#000000;stroke-width:32;stroke-linecap:round;stroke-linejoin:round;stroke-miterlimit:4;stroke-dasharray:none;stroke-opacity:1"
             id="path28"
             inkscape:connector-curvature="0" /><path
             d="m 1969.49,1258.1 h 480 v 480 h -480 z"
             style="fill:none;stroke:#000000;stroke-width:32;stroke-linecap:round;stroke-linejoin:round;stroke-miterlimit:4;stroke-dasharray:none;stroke-opacity:1"
             id="path30"
             inkscape:connector-curvature="0" /><path
             d="m 1008.01,1258.1 h 480 v 480 h -480 z"
             style="fill:none;stroke:#000000;stroke-width:32;stroke-linecap:round;stroke-linejoin:round;stroke-miterlimit:4;stroke-dasharray:none;stroke-opacity:1"
             id="path32"
             inkscape:connector-curvature="0" /><path
             d="m 1008.01,1738.1 h 480 v 480 h -480 z"
             style="fill:none;stroke:#000000;stroke-width:32;stroke-linecap:round;stroke-linejoin:round;stroke-miterlimit:4;stroke-dasharray:none;stroke-opacity:1"
             id="path34"
             inkscape:connector-curvature="0" /><path
             d="m 528.012,1258.1 h 480 v 480 h -480 z"
             style="fill:none;stroke:#000000;stroke-width:32;stroke-linecap:round;stroke-linejoin:round;stroke-miterlimit:4;stroke-dasharray:none;stroke-opacity:1"
             id="path36"
             inkscape:connector-curvature="0" /><path
             d="m 528.012,778.098 h 480 v 480 h -480 z"
             style="fill:none;stroke:#000000;stroke-width:32;stroke-linecap:round;stroke-linejoin:round;stroke-miterlimit:4;stroke-dasharray:none;stroke-opacity:1"
             id="path38"
             inkscape:connector-curvature="0" /><path
             d="m 1488.01,778.098 h 480 v 480 h -480 z"
             style="fill:none;stroke:#000000;stroke-width:32;stroke-linecap:round;stroke-linejoin:round;stroke-miterlimit:4;stroke-dasharray:none;stroke-opacity:1"
             id="path40"
             inkscape:connector-curvature="0" /><path
             d="M 843.406,1626.91 908.891,1378 H 877.297 L 837,1531.2 769.438,1369 701.125,1531.34 660.781,1378 H 629 l 65.469,248.91 74.859,-177.91 74.078,177.91"
             style="fill:#000000;fill-opacity:1;fill-rule:nonzero;stroke:none"
             id="path42"
             inkscape:connector-curvature="0" /><path
             d="M 1246.45,1620.91 1359.91,1374 h -34.02 l -28.01,60.97 H 1196.45 L 1168.92,1374 H 1135 Z m 0.25,-74.61 -38.06,-84.33 h 76.81 z"
             style="fill:#000000;fill-opacity:1;fill-rule:nonzero;stroke:none"
             id="path44"
             inkscape:connector-curvature="0" /><path
             d="m 1802.94,1592.11 -26.44,-21.19 c -7.09,7.09 -13.21,12.33 -18.86,15.8 -5.85,3.56 -13.79,5.2 -24.45,5.2 -11.71,0.03 -21.1,-2.67 -28.35,-8 -7.53,-5.31 -10.87,-12.2 -10.87,-20.61 -0.33,-7.04 3.19,-13.7 9.56,-19.28 6.21,-5.26 17.22,-11.66 32.5,-18.23 15.28,-6.5 27.19,-12.69 35.7,-18.38 8.27,-5.48 15.5,-11.95 20.97,-18.83 5.25,-6.73 9.55,-14.1 12.22,-21.71 2.37,-7.58 4.02,-15.67 4.02,-24.16 -0.31,-19.75 -7.21,-36.76 -21.61,-50.75 -14.51,-13.97 -31.82,-20.97 -52.27,-20.97 -19.97,0 -37.56,5.46 -52.83,16.39 -15.35,11.14 -27.01,27.34 -35.23,49.22 l 32.98,9.36 c 11.41,-27.31 29.73,-40.99 53.97,-40.99 11.43,0.01 21.52,3.54 29.3,10.63 7.71,7.21 11.69,16.02 11.69,26.83 -0.31,6.65 -2.03,12.96 -6.08,19.48 -4.33,6.56 -9.07,11.91 -15.09,16.13 -6.28,4.53 -15.72,9.17 -29.07,14.87 -13.59,5.72 -23.63,10.84 -30.82,15.42 -7.49,4.8 -13.42,10.04 -18.68,16.38 -5.32,6.42 -9.11,12.64 -11.56,18.92 -2.65,6.4 -3.66,12.99 -3.66,20.14 -0.32,17.27 6.85,31.85 20.54,43.95 13.51,12.21 30.29,18.18 49.82,18.18 12.82,0.03 26.07,-2.79 39.38,-8.36 13.07,-5.42 24.38,-14.06 33.22,-25.44"
             style="fill:#000000;fill-opacity:1;fill-rule:nonzero;stroke:none"
             id="path46"
             inkscape:connector-curvature="0" /><path
             d="m 2078,1500.14 c 0,34.83 12.97,64.13 38.92,88.78 25.64,24.68 57.13,36.99 93.55,36.99 35.39,0.03 66.17,-12.43 91.87,-37.27 25.59,-24.71 38.55,-54.34 38.55,-88.5 -0.3,-35.88 -12.69,-66.73 -38.08,-91.7 -25.65,-24.78 -56.54,-37.44 -93.47,-37.44 -36.53,0 -67.41,12.57 -92.98,37.72 -25.7,25.25 -38.36,55.63 -38.36,91.42 z m 228.91,-1.87 c -0.31,26.58 -9.52,48.53 -28.55,66.57 -19.15,18.11 -42.45,27.08 -70.23,27.08 -26.47,0.03 -49.05,-9.18 -67.9,-27.54 -18.91,-18.15 -28.25,-40.4 -28.25,-66.11 -0.32,-25.86 9.67,-48.17 29,-66.22 19.02,-17.73 43.04,-27.07 71.08,-27.07 25.77,0.01 48.05,9.21 66.77,27.63 18.44,18.55 28.08,40.31 28.08,65.66"
             style="fill:#000000;fill-opacity:1;fill-rule:nonzero;stroke:none"
             id="path48"
             inkscape:connector-curvature="0" /><path
             d="m 1281.99,1978.1 c 0,-18.79 -15.19,-33.99 -33.98,-33.99 -18.79,0 -34.03,15.2 -34.03,33.99 0,18.78 15.24,34.02 34.03,34.02 18.79,0 33.98,-15.24 33.98,-34.02"
             style="fill:#000000;fill-opacity:1;fill-rule:nonzero;stroke:none"
             id="path50"
             inkscape:connector-curvature="0" /><path
             d="m 2241.99,1978.1 c 0,-18.79 -15.19,-33.99 -33.98,-33.99 -18.79,0 -34.03,15.2 -34.03,33.99 0,18.78 15.24,34.02 34.03,34.02 18.79,0 33.98,-15.24 33.98,-34.02"
             style="fill:#000000;fill-opacity:1;fill-rule:nonzero;stroke:none"
             id="path52"
             inkscape:connector-curvature="0" /><path
             d="m 801.988,1021.1 c 0,-18.79 -15.187,-33.979 -33.976,-33.979 -18.793,0 -34.032,15.189 -34.032,33.979 0,18.79 15.239,33.99 34.032,33.99 18.789,0 33.976,-15.2 33.976,-33.99"
             style="fill:#000000;fill-opacity:1;fill-rule:nonzero;stroke:none"
             id="path54"
             inkscape:connector-curvature="0" /><path
             d="m 921.988,901.102 c 0,-18.793 -15.187,-33.981 -33.976,-33.981 -18.793,0 -34.032,15.188 -34.032,33.981 0,18.789 15.239,33.988 34.032,33.988 18.789,0 33.976,-15.199 33.976,-33.988"
             style="fill:#000000;fill-opacity:1;fill-rule:nonzero;stroke:none"
             id="path56"
             inkscape:connector-curvature="0" /><path
             d="m 681.988,1141.1 c 0,-18.79 -15.187,-33.98 -33.976,-33.98 -18.793,0 -34.032,15.19 -34.032,33.98 0,18.79 15.239,33.99 34.032,33.99 18.789,0 33.976,-15.2 33.976,-33.99"
             style="fill:#000000;fill-opacity:1;fill-rule:nonzero;stroke:none"
             id="path58"
             inkscape:connector-curvature="0" /><path
             d="m 1881.99,901.102 c 0,-18.793 -15.19,-33.981 -33.98,-33.981 -18.79,0 -34.03,15.188 -34.03,33.981 0,18.789 15.24,33.988 34.03,33.988 18.79,0 33.98,-15.199 33.98,-33.988"
             style="fill:#000000;fill-opacity:1;fill-rule:nonzero;stroke:none"
             id="path60"
             inkscape:connector-curvature="0" /><path
             d="m 1881.99,1141.1 c 0,-18.79 -15.19,-33.98 -33.98,-33.98 -18.79,0 -34.03,15.19 -34.03,33.98 0,18.79 15.24,33.99 34.03,33.99 18.79,0 33.98,-15.2 33.98,-33.99"
             style="fill:#000000;fill-opacity:1;fill-rule:nonzero;stroke:none"
             id="path62"
             inkscape:connector-curvature="0" /><path
             d="m 1641.99,901.102 c 0,-18.793 -15.19,-33.981 -33.98,-33.981 -18.79,0 -34.03,15.188 -34.03,33.981 0,18.789 15.24,33.988 34.03,33.988 18.79,0 33.98,-15.199 33.98,-33.988"
             style="fill:#000000;fill-opacity:1;fill-rule:nonzero;stroke:none"
             id="path64"
             inkscape:connector-curvature="0" /><path
             d="m 1641.99,1141.1 c 0,-18.79 -15.19,-33.98 -33.98,-33.98 -18.79,0 -34.03,15.19 -34.03,33.98 0,18.79 15.24,33.99 34.03,33.99 18.79,0 33.98,-15.2 33.98,-33.99"
             style="fill:#000000;fill-opacity:1;fill-rule:nonzero;stroke:none"
             id="path66"
             inkscape:connector-curvature="0" /></g></g></g><path
       style="fill:#ffd842;stroke-width:1.70568;stroke-linejoin:round;stroke-miterlimit:0;fill-opacity:1"
       d="M 45.64124,200.90677 V 49.906777 H 198.774 351.90676 V 200.90677 351.90676 H 198.774 45.64124 Z m 91.07959,68.46186 0.22366,-31.77825 h 29.41143 29.41144 l 0.22366,31.77825 0.22366,31.77824 h 34.12429 34.12429 l 0.22365,-31.76787 0.22365,-31.76787 31.76788,-0.22365 31.76787,-0.22365 V 171.04801 104.9322 h -34.12429 -34.1243 l -0.22365,31.77824 -0.22366,31.77825 h -29.41144 -29.41144 l -0.22366,-31.77825 -0.22366,-31.77824 h -34.12429 -34.12429 l -0.22365,31.76787 -0.22365,31.76787 -31.76787,0.22365 -31.767876,0.22365 -0.220545,65.26271 c -0.1213,35.89449 -0.03568,65.74699 0.190266,66.33891 0.323124,0.84647 7.65404,1.02857 34.344835,0.8531 l 33.93403,-0.22309 z"
       id="path1"
       transform="matrix(0.75000002,0,0,-0.75000002,0,302.00001)" /><path
       style="fill:#ffd842;fill-opacity:1;stroke-width:1.70568;stroke-linejoin:round;stroke-miterlimit:0"
       d="m 357.0254,199.69688 c 0,-83.71543 -0.23302,-152.817123 -0.51783,-153.559313 -0.46955,-1.223664 -14.98043,-1.349434 -155.69208,-1.349434 H 45.64124 V 24.740112 4.6920901 H 218.82202 392.0028 V 178.29942 351.90676 h -17.4887 -17.4887 z"
       id="path2"
       transform="matrix(0.75000002,0,0,-0.75000002,0,302.00001)" /><path
       style="fill:#ffd842;fill-opacity:1;stroke-width:1.70568;stroke-linejoin:round;stroke-miterlimit:0"
       d="M 4.6920901,223.08756 V 49.906777 H 22.605019 40.517948 l 0.215601,153.346033 0.215601,153.34604 155.4788,0.21557 155.47881,0.21557 v 19.61918 19.61917 H 178.29942 4.6920901 Z"
       id="path3"
       transform="matrix(0.75000002,0,0,-0.75000002,0,302.00001)" /></g></svg>
