<svg width="305" height="80" viewBox="0 0 420 110" version="1.1" xmlns="http://www.w3.org/2000/svg" xmlns:xlink="http://www.w3.org/1999/xlink" xml:space="preserve" xmlns:serif="http://www.serif.com/" style="fill-rule:evenodd;clip-rule:evenodd;stroke-linejoin:round;stroke-miterlimit:2;"><g><path d="M77.799,26.838l-4.842,-0l-24.341,44.304l-24.408,-44.304l-4.841,-0l26.795,48.748l-2.388,4.378l-29.249,-53.126l-4.842,-0l31.637,57.504l-2.387,4.443l-34.091,-61.947l-4.842,-0l-0,66.324l4.842,0l-0,-57.503l4.841,8.755l0,48.748l4.842,0l-0,-39.927l4.842,8.821l-0,31.106l4.841,0l0,-22.285l12.271,22.285l4.841,0l36.479,-66.324Zm9.684,-0l-4.842,-0l-36.479,66.324l4.841,0l36.48,-66.324Zm9.616,66.324l0,-66.192l-4.841,0l-36.413,66.192l4.842,0l12.27,-22.285l-0,22.285l4.842,0l0,-31.039l4.775,-8.821l0,39.86l4.842,0l-0,-48.616l4.842,-8.821l0,57.437l4.841,0Z" style="fill:#0000dc;"></path><path d="M171.367,60c-0,-6.169 -1.659,-12.204 -4.775,-17.377l-0,17.377c-0,7.76 -3.118,15.255 -8.556,20.76c-5.506,5.438 -13,8.555 -20.76,8.555c-3.515,0 -6.964,-0.663 -10.214,-1.857l0,-5.173c3.183,1.459 6.632,2.255 10.214,2.255c6.5,0 12.734,-2.587 17.376,-7.163c4.578,-4.643 7.164,-10.877 7.164,-17.377l-0,-23.678l-0.464,-0.399c-1.327,-1.392 -2.786,-2.586 -4.312,-3.714l0,27.791c0,5.239 -2.056,10.28 -5.77,13.995c-3.714,3.713 -8.754,5.769 -13.994,5.769c-3.648,0 -7.164,-0.994 -10.214,-2.852l0,-5.969c2.785,2.587 6.433,4.046 10.214,4.046c3.979,-0 7.76,-1.591 10.612,-4.377c2.785,-2.852 4.377,-6.633 4.377,-10.612l0,-30.642c-4.643,-2.255 -9.749,-3.449 -14.989,-3.449c-9.021,0 -17.709,3.582 -24.076,10.014c-6.433,6.368 -10.015,15.057 -10.015,24.077c-0,6.168 1.657,12.204 4.776,17.377l-0,-17.377c-0,-7.76 3.116,-15.255 8.555,-20.76c5.505,-5.438 13,-8.556 20.76,-8.556c3.515,0 6.964,0.664 10.213,1.857l0,5.173c-3.183,-1.459 -6.631,-2.255 -10.213,-2.255c-6.5,0 -12.735,2.588 -17.378,7.164c-4.575,4.642 -7.162,10.877 -7.162,17.377l-0,23.678l0.464,0.398c1.327,1.392 2.785,2.586 4.311,3.714l-0,-27.79c-0,-5.239 2.056,-10.281 5.77,-13.995c3.714,-3.714 8.755,-5.77 13.995,-5.77c3.647,-0 7.163,0.995 10.213,2.852l0,5.969c-2.785,-2.586 -6.433,-4.045 -10.213,-4.045c-3.98,-0 -7.76,1.591 -10.612,4.377c-2.786,2.852 -4.378,6.632 -4.378,10.612l0,30.642c4.643,2.255 9.75,3.449 14.99,3.449c9.02,-0 17.708,-3.582 24.076,-10.015c6.434,-6.368 10.015,-15.056 10.015,-24.076Zm-23.878,-0c0,2.719 -1.061,5.306 -2.984,7.229c-1.923,1.923 -4.51,2.985 -7.229,2.985c-2.72,-0 -5.306,-1.062 -7.23,-2.985c-1.923,-1.923 -2.984,-4.51 -2.984,-7.229c0,-2.72 1.061,-5.306 2.984,-7.23c1.924,-1.923 4.51,-2.984 7.23,-2.984c2.719,-0 5.306,1.061 7.229,2.984c1.923,1.924 2.984,4.51 2.984,7.23Z" style="fill:#0000dc;"></path></g><g><g transform="matrix(2.9794,0,0,2.9794,-375.015,-55.1998)"><g transform="matrix(12,0,0,12,193.029,35.9249)"><path d="M0.839,-0l-0,-0.712l-0.149,0l-0.128,0.351c-0.032,0.09 -0.064,0.183 -0.094,0.273l-0.002,0c-0.03,-0.09 -0.062,-0.183 -0.094,-0.273l-0.129,-0.351l-0.148,0l0,0.712l0.09,-0l-0,-0.362c-0,-0.09 -0.001,-0.181 -0.002,-0.272l0.002,-0c0.031,0.091 0.064,0.181 0.097,0.272l0.132,0.362l0.106,-0l0.132,-0.362c0.033,-0.091 0.066,-0.181 0.097,-0.272l0.002,-0c-0.001,0.091 -0.002,0.182 -0.002,0.272l0,0.362l0.09,-0Z" style="fill:#0000dc;fill-rule:nonzero;"></path></g><g transform="matrix(12,0,0,12,204.237,35.9249)"><path d="M0.259,-0.522c-0.129,0 -0.199,0.073 -0.204,0.169l0.088,0c0.003,-0.06 0.042,-0.101 0.116,-0.101c0.068,-0 0.115,0.035 0.115,0.119l0,0.02c-0.04,0.003 -0.102,0.01 -0.147,0.017c-0.146,0.023 -0.193,0.076 -0.193,0.16c0,0.086 0.066,0.149 0.172,0.149c0.082,-0 0.141,-0.031 0.176,-0.085l0.002,0c0,0.023 0.002,0.051 0.007,0.074l0.08,-0c-0.007,-0.031 -0.012,-0.074 -0.012,-0.13l-0,-0.195c-0,-0.134 -0.076,-0.197 -0.2,-0.197Zm0.115,0.305c0,0.06 -0.01,0.088 -0.041,0.12c-0.025,0.026 -0.064,0.04 -0.105,0.04c-0.066,0 -0.104,-0.035 -0.104,-0.087c-0,-0.05 0.03,-0.075 0.117,-0.088c0.039,-0.007 0.094,-0.013 0.133,-0.016l0,0.031Z" style="fill:#0000dc;fill-rule:nonzero;"></path></g><g transform="matrix(12,0,0,12,210.489,35.9249)"><path d="M0.257,-0.069c-0.051,0 -0.07,-0.024 -0.07,-0.082l-0,-0.287l0.101,-0l-0,-0.07l-0.101,0l-0,-0.123l-0.088,0l0,0.123l-0.088,0l0,0.07l0.088,-0l0,0.296c0,0.105 0.041,0.146 0.138,0.146c0.018,-0 0.041,-0.002 0.056,-0.006l-0,-0.072c-0.009,0.003 -0.023,0.005 -0.036,0.005Z" style="fill:#0000dc;fill-rule:nonzero;"></path></g><g transform="matrix(12,0,0,12,214.137,35.9249)"><path d="M0.28,-0.054c-0.083,0 -0.147,-0.057 -0.151,-0.182l0.38,-0c-0,-0.044 -0.003,-0.08 -0.01,-0.109c-0.026,-0.109 -0.107,-0.177 -0.222,-0.177c-0.148,0 -0.236,0.111 -0.236,0.261c0,0.166 0.089,0.275 0.239,0.275c0.13,-0 0.207,-0.077 0.224,-0.166l-0.09,-0c-0.012,0.057 -0.06,0.098 -0.134,0.098Zm-0.003,-0.4c0.078,-0 0.136,0.052 0.145,0.151l-0.292,0c0.009,-0.097 0.066,-0.151 0.147,-0.151Z" style="fill:#0000dc;fill-rule:nonzero;"></path></g><g transform="matrix(12,0,0,12,220.737,35.9249)"><path d="M0.619,-0.519c-0.075,0 -0.127,0.035 -0.161,0.096c-0.027,-0.063 -0.081,-0.096 -0.151,-0.096c-0.059,0 -0.106,0.025 -0.142,0.074l-0.002,-0l-0,-0.063l-0.085,0l0,0.508l0.088,-0l-0,-0.282c-0,-0.102 0.046,-0.165 0.121,-0.165c0.065,-0 0.103,0.047 0.103,0.127l0,0.32l0.088,-0l-0,-0.288c-0,-0.097 0.046,-0.159 0.12,-0.159c0.065,-0 0.104,0.038 0.104,0.14l0,0.307l0.088,-0l-0,-0.314c-0,-0.137 -0.063,-0.205 -0.171,-0.205Z" style="fill:#0000dc;fill-rule:nonzero;"></path></g><g transform="matrix(12,0,0,12,231.093,35.9249)"><path d="M0.259,-0.522c-0.129,0 -0.199,0.073 -0.204,0.169l0.088,0c0.003,-0.06 0.042,-0.101 0.116,-0.101c0.068,-0 0.115,0.035 0.115,0.119l0,0.02c-0.04,0.003 -0.102,0.01 -0.147,0.017c-0.146,0.023 -0.193,0.076 -0.193,0.16c0,0.086 0.066,0.149 0.172,0.149c0.082,-0 0.141,-0.031 0.176,-0.085l0.002,0c0,0.023 0.002,0.051 0.007,0.074l0.08,-0c-0.007,-0.031 -0.012,-0.074 -0.012,-0.13l-0,-0.195c-0,-0.134 -0.076,-0.197 -0.2,-0.197Zm0.115,0.305c0,0.06 -0.01,0.088 -0.041,0.12c-0.025,0.026 -0.064,0.04 -0.105,0.04c-0.066,0 -0.104,-0.035 -0.104,-0.087c-0,-0.05 0.03,-0.075 0.117,-0.088c0.039,-0.007 0.094,-0.013 0.133,-0.016l0,0.031Z" style="fill:#0000dc;fill-rule:nonzero;"></path></g><g transform="matrix(12,0,0,12,237.345,35.9249)"><path d="M0.257,-0.069c-0.051,0 -0.07,-0.024 -0.07,-0.082l-0,-0.287l0.101,-0l-0,-0.07l-0.101,0l-0,-0.123l-0.088,0l0,0.123l-0.088,0l0,0.07l0.088,-0l0,0.296c0,0.105 0.041,0.146 0.138,0.146c0.018,-0 0.041,-0.002 0.056,-0.006l-0,-0.072c-0.009,0.003 -0.023,0.005 -0.036,0.005Z" style="fill:#0000dc;fill-rule:nonzero;"></path></g><g transform="matrix(12,0,0,12,241.185,35.9249)"><path d="M0.166,-0.613l-0,-0.099l-0.088,0l0,0.099l0.088,-0Zm-0,0.613l-0,-0.508l-0.088,0l0,0.508l0.088,-0Z" style="fill:#0000dc;fill-rule:nonzero;"></path></g><g transform="matrix(12,0,0,12,244.113,35.9249)"><path d="M0.28,-0.522c-0.147,0 -0.239,0.103 -0.239,0.268c0,0.165 0.092,0.268 0.239,0.268c0.124,-0 0.207,-0.085 0.217,-0.201l-0.092,0c-0.006,0.073 -0.056,0.129 -0.126,0.129c-0.09,0 -0.145,-0.074 -0.145,-0.196c-0,-0.121 0.055,-0.196 0.145,-0.196c0.07,-0 0.12,0.05 0.126,0.122l0.092,-0c-0.01,-0.114 -0.095,-0.194 -0.217,-0.194Z" style="fill:#0000dc;fill-rule:nonzero;"></path></g><g transform="matrix(12,0,0,12,250.521,35.9249)"><path d="M0.509,-0l-0.255,-0.278l0.228,-0.23l-0.109,0l-0.205,0.211l-0.002,0l-0,-0.415l-0.088,0l0,0.712l0.088,-0l-0,-0.254l0.002,-0l0.225,0.254l0.116,-0Z" style="fill:#0000dc;fill-rule:nonzero;"></path></g><g transform="matrix(12,0,0,12,256.377,35.9249)"><path d="M0.262,-0.569l0.123,-0.143l-0.113,0l-0.086,0.143l0.076,-0Zm-0.003,0.047c-0.129,0 -0.199,0.073 -0.204,0.169l0.088,0c0.003,-0.06 0.042,-0.101 0.116,-0.101c0.068,-0 0.115,0.035 0.115,0.119l0,0.02c-0.04,0.003 -0.102,0.01 -0.147,0.017c-0.146,0.023 -0.193,0.076 -0.193,0.16c0,0.086 0.066,0.149 0.172,0.149c0.082,-0 0.141,-0.031 0.176,-0.085l0.002,0c0,0.023 0.002,0.051 0.007,0.074l0.08,-0c-0.007,-0.031 -0.012,-0.074 -0.012,-0.13l-0,-0.195c-0,-0.134 -0.076,-0.197 -0.2,-0.197Zm0.115,0.305c0,0.06 -0.01,0.088 -0.041,0.12c-0.025,0.026 -0.064,0.04 -0.105,0.04c-0.066,0 -0.104,-0.035 -0.104,-0.087c-0,-0.05 0.03,-0.075 0.117,-0.088c0.039,-0.007 0.094,-0.013 0.133,-0.016l0,0.031Z" style="fill:#0000dc;fill-rule:nonzero;"></path></g><g transform="matrix(12,0,0,12,193.029,49.6537)"><path d="M0.282,-0.522c-0.149,0 -0.241,0.102 -0.241,0.268c0,0.166 0.092,0.268 0.241,0.268c0.149,-0 0.242,-0.102 0.242,-0.268c-0,-0.166 -0.093,-0.268 -0.242,-0.268Zm-0,0.072c0.093,-0 0.15,0.075 0.15,0.196c0,0.121 -0.057,0.196 -0.15,0.196c-0.092,0 -0.149,-0.075 -0.149,-0.196c-0,-0.121 0.057,-0.196 0.149,-0.196Z" style="fill:#0000dc;fill-rule:nonzero;"></path></g><g transform="matrix(12,0,0,12,199.809,49.6537)"><rect x="0.078" y="-0.712" width="0.088" height="0.712" style="fill:#0000dc;fill-rule:nonzero;"></rect></g><g transform="matrix(12,0,0,12,202.737,49.6537)"><path d="M0.478,-0.508l-0.093,0l-0.148,0.404l-0.002,0l-0.146,-0.404l-0.095,0l0.193,0.51c-0.033,0.09 -0.059,0.114 -0.126,0.114c-0.016,0 -0.03,-0.002 -0.042,-0.006l0,0.074c0.013,0.004 0.029,0.005 0.046,0.005c0.109,-0 0.159,-0.036 0.209,-0.166l0.204,-0.531Z" style="fill:#0000dc;fill-rule:nonzero;"></path></g><g transform="matrix(12,0,0,12,208.401,49.6537)"><path d="M0.619,-0.519c-0.075,0 -0.127,0.035 -0.161,0.096c-0.027,-0.063 -0.081,-0.096 -0.151,-0.096c-0.059,0 -0.106,0.025 -0.142,0.074l-0.002,-0l-0,-0.063l-0.085,0l0,0.508l0.088,-0l-0,-0.282c-0,-0.102 0.046,-0.165 0.121,-0.165c0.065,-0 0.103,0.047 0.103,0.127l0,0.32l0.088,-0l-0,-0.288c-0,-0.097 0.046,-0.159 0.12,-0.159c0.065,-0 0.104,0.038 0.104,0.14l0,0.307l0.088,-0l-0,-0.314c-0,-0.137 -0.063,-0.205 -0.171,-0.205Z" style="fill:#0000dc;fill-rule:nonzero;"></path></g><g transform="matrix(12,0,0,12,218.757,49.6537)"><path d="M0.322,-0.521c-0.068,0 -0.128,0.033 -0.155,0.086l-0.002,-0l-0,-0.073l-0.087,0l0,0.693l0.088,-0l-0,-0.257l0.002,0c0.028,0.051 0.087,0.084 0.155,0.084c0.129,-0 0.212,-0.105 0.212,-0.267c-0,-0.162 -0.083,-0.266 -0.213,-0.266Zm-0.022,0.071c0.087,-0 0.143,0.076 0.143,0.195c0,0.119 -0.056,0.196 -0.143,0.196c-0.084,0 -0.138,-0.075 -0.138,-0.196c-0,-0.12 0.054,-0.195 0.138,-0.195Z" style="fill:#0000dc;fill-rule:nonzero;"></path></g><g transform="matrix(12,0,0,12,225.669,49.6537)"><path d="M0.166,-0.613l-0,-0.099l-0.088,0l0,0.099l0.088,-0Zm-0,0.613l-0,-0.508l-0.088,0l0,0.508l0.088,-0Z" style="fill:#0000dc;fill-rule:nonzero;"></path></g><g transform="matrix(12,0,0,12,228.597,49.6537)"><path d="M0.262,-0.569l0.123,-0.143l-0.113,0l-0.086,0.143l0.076,-0Zm-0.003,0.047c-0.129,0 -0.199,0.073 -0.204,0.169l0.088,0c0.003,-0.06 0.042,-0.101 0.116,-0.101c0.068,-0 0.115,0.035 0.115,0.119l0,0.02c-0.04,0.003 -0.102,0.01 -0.147,0.017c-0.146,0.023 -0.193,0.076 -0.193,0.16c0,0.086 0.066,0.149 0.172,0.149c0.082,-0 0.141,-0.031 0.176,-0.085l0.002,0c0,0.023 0.002,0.051 0.007,0.074l0.08,-0c-0.007,-0.031 -0.012,-0.074 -0.012,-0.13l-0,-0.195c-0,-0.134 -0.076,-0.197 -0.2,-0.197Zm0.115,0.305c0,0.06 -0.01,0.088 -0.041,0.12c-0.025,0.026 -0.064,0.04 -0.105,0.04c-0.066,0 -0.104,-0.035 -0.104,-0.087c-0,-0.05 0.03,-0.075 0.117,-0.088c0.039,-0.007 0.094,-0.013 0.133,-0.016l0,0.031Z" style="fill:#0000dc;fill-rule:nonzero;"></path></g><g transform="matrix(12,0,0,12,234.969,49.6537)"><path d="M0.498,-0l-0,-0.712l-0.088,0l0,0.274l-0.002,-0c-0.028,-0.051 -0.087,-0.083 -0.155,-0.083c-0.129,0 -0.212,0.104 -0.212,0.266c0,0.162 0.083,0.267 0.213,0.267c0.069,-0 0.128,-0.033 0.156,-0.086l0.002,0l0,0.074l0.086,-0Zm-0.222,-0.45c0.084,-0 0.139,0.075 0.139,0.195c0,0.121 -0.055,0.196 -0.139,0.196c-0.087,0 -0.143,-0.077 -0.143,-0.196c-0,-0.119 0.056,-0.195 0.143,-0.195Z" style="fill:#0000dc;fill-rule:nonzero;"></path></g><g transform="matrix(12,0,0,12,241.881,49.6537)"><path d="M0.259,-0.522c-0.129,0 -0.199,0.073 -0.204,0.169l0.088,0c0.003,-0.06 0.042,-0.101 0.116,-0.101c0.068,-0 0.115,0.035 0.115,0.119l0,0.02c-0.04,0.003 -0.102,0.01 -0.147,0.017c-0.146,0.023 -0.193,0.076 -0.193,0.16c0,0.086 0.066,0.149 0.172,0.149c0.082,-0 0.141,-0.031 0.176,-0.085l0.002,0c0,0.023 0.002,0.051 0.007,0.074l0.08,-0c-0.007,-0.031 -0.012,-0.074 -0.012,-0.13l-0,-0.195c-0,-0.134 -0.076,-0.197 -0.2,-0.197Zm0.115,0.305c0,0.06 -0.01,0.088 -0.041,0.12c-0.025,0.026 -0.064,0.04 -0.105,0.04c-0.066,0 -0.104,-0.035 -0.104,-0.087c-0,-0.05 0.03,-0.075 0.117,-0.088c0.039,-0.007 0.094,-0.013 0.133,-0.016l0,0.031Z" style="fill:#0000dc;fill-rule:nonzero;"></path></g></g></g></svg>