<?xml version="1.0" encoding="UTF-8" standalone="no"?>
<svg
   width="134.3374pt"
   height="74.250565pt"
   viewBox="0 0 134.3374 74.250565"
   version="1.2"
   id="svg5"
   sodipodi:docname="logo.svg"
   inkscape:version="1.2.2 (b0a8486541, 2022-12-01)"
   xmlns:inkscape="http://www.inkscape.org/namespaces/inkscape"
   xmlns:sodipodi="http://sodipodi.sourceforge.net/DTD/sodipodi-0.dtd"
   xmlns="http://www.w3.org/2000/svg"
   xmlns:svg="http://www.w3.org/2000/svg">
  <defs
     id="defs9" />
  <sodipodi:namedview
     id="namedview7"
     pagecolor="#505050"
     bordercolor="#eeeeee"
     borderopacity="1"
     inkscape:showpageshadow="0"
     inkscape:pageopacity="0"
     inkscape:pagecheckerboard="0"
     inkscape:deskcolor="#505050"
     inkscape:document-units="pt"
     showgrid="false"
     inkscape:zoom="3.7955142"
     inkscape:cx="89.315962"
     inkscape:cy="95.375747"
     inkscape:window-width="1920"
     inkscape:window-height="1035"
     inkscape:window-x="0"
     inkscape:window-y="45"
     inkscape:window-maximized="1"
     inkscape:current-layer="svg5" />
  <path
     style="fill:#ffffff;fill-opacity:1;fill-rule:nonzero;stroke:none"
     d="m 34.142004,73.615508 c -3.105469,-1.308594 -6.214844,-3.738281 -7.183594,-5.617187 -0.292968,-0.578126 -0.695312,-2.054688 -0.882812,-3.285157 -0.191406,-1.230469 -0.375,-2.261719 -0.410156,-2.292969 -0.03516,-0.02734 -1.675782,-0.207031 -3.652344,-0.398437 -5.820313,-0.5625 -8.261719,-1.40625 -10.886719,-3.769531 -2.3164058,-2.078125 -3.0546868,-4.0625 -3.4492188,-9.25 l -0.320312,-4.242188 -2.316406,-2.269531 c -3.871094,-3.796875 -5.30859399,-7.511719 -5.00000049,-12.957031 0.1796875,-3.269532 0.9179685,-5.4375 2.72265649,-8.027344 0.691406,-0.984375 2.621094,-3.785156 4.292968,-6.226562 3.9882818,-5.8046877 5.4414068,-7.1132817 8.9531258,-8.0468757 3.367187,-0.898437 7.84375,-0.316406 13.457031,1.746094 l 3.261719,1.1992187 2.136718,-2.1132807 c 1.386719,-1.371094 2.765625,-2.40625 3.933594,-2.949219 1.699219,-0.792969 2.027344,-0.839844 5.996094,-0.839844 3.992187,0 4.273437,0.039063 5.75,0.816407 0.84375,0.449218 2.316406,1.492187 3.265625,2.324218 0.949219,0.828125 1.871093,1.503906 2.050781,1.503906 0.183594,0 1.476562,-0.980468 2.882812,-2.175781 7.652344,-6.49609295 13.195313,-8.054687 20.34375,-5.722656 3.261719,1.0625 4.898438,2.09375 8.734376,5.5 1.859374,1.652344 3.546874,3 3.75,3 0.203124,0 1.34375,-0.789063 2.527343,-1.757813 2.527344,-2.0625 4.648438,-3.164062 7.277345,-3.78125 5.16406,-1.21875 10.08984,-0.011718 14.17187,3.476563 2.05078,1.753906 2.71875,2.0625 4.45703,2.066406 2.0586,0 3.5,0.5703127 4.9961,1.9648437 0.76953,0.722656 1.79296,2.027344 2.26171,2.890625 0.75,1.378906 0.8711,1.964844 0.98828,4.734375 0.125,3.019531 0.082,3.296875 -0.95312,6.265625 -0.58984,1.710938 -1.00391,3.222656 -0.92187,3.359375 0.082,0.136719 0.98046,0.691406 1.99218,1.230469 2.47656,1.320312 4.5625,3.484375 5.32813,5.53125 0.89843,2.414062 0.84765,6.773437 -0.125,9.40625 -0.39453,1.070312 -1.27735,3.703125 -1.97266,5.847656 -2.10547,6.550781 -2.08984,6.511719 -3.66406,8.050781 -3.96094,3.871094 -9.19141,4.375 -17.46875,1.683594 -2.00781,-0.65625 -3.8125,-1.1875 -4.00781,-1.1875 -0.19922,0 -1.42578,0.746094 -2.72657,1.65625 -3.03125,2.125 -6.843742,3.910156 -9.589836,4.484375 -2.804688,0.589844 -10.949219,0.613281 -13.058594,0.03906 -0.828125,-0.222656 -2.550781,-0.832031 -3.835937,-1.34375 -1.28125,-0.515624 -2.375,-0.9375 -2.425781,-0.9375 -0.05078,0 -1.429688,1.011719 -3.066407,2.246094 -5.152343,3.894532 -9.511719,5.550782 -14.664062,5.574219 -1.925781,0.01172 -3.28125,-0.171875 -4.722657,-0.617187 l -2.019531,-0.628907 -1.980469,1.519531 c -3.492187,2.671876 -3.925781,2.824219 -8.523437,2.925782 -3.675781,0.08203 -4.199219,0.02734 -5.703125,-0.605469 z m 9.316406,-5.324219 c 0.605469,-0.324218 1.441406,-2.78125 2.835938,-8.339844 0.425781,-1.707031 1.902344,-7.035156 3.28125,-11.847656 3.6875,-12.863281 3.746094,-13.367187 1.648437,-14.449218 -2.050781,-1.0625 -2.886719,-0.03125 -4.648437,5.734374 -0.449219,1.46875 -0.90625,2.773438 -1.019532,2.898438 -0.183593,0.210938 -2.34375,-1.921875 -6.691406,-6.609375 -1.554687,-1.671875 -1.851562,-1.863281 -2.902344,-1.863281 -1.292968,0 -2.113281,0.601562 -2.113281,1.550781 0,1.222656 1.976563,4.273437 5.472657,8.4375 1.964843,2.339844 3.710937,4.539063 3.875,4.890625 0.242187,0.496094 -0.0625,2.03125 -1.390626,7.046875 -0.933593,3.523437 -1.847656,7.453125 -2.039062,8.726563 -0.328125,2.238281 -0.316406,2.339843 0.355469,3.058593 0.921875,0.972657 2.335937,1.300781 3.335937,0.765625 z m 24.5,-16.992187 c 0.484375,-0.65625 0.519532,-0.273438 -0.542968,-5.710938 -1.082032,-5.496093 -1.355469,-4.882812 2.902343,-6.535156 1.550781,-0.597656 3.019531,-1.292969 3.265625,-1.539063 1.125,-1.117187 -0.160156,-3.402343 -1.910156,-3.402343 -0.488281,0 -1.742188,0.269531 -2.789062,0.597656 -1.042969,0.328125 -2.140626,0.597656 -2.425782,0.597656 -0.976562,0.01172 -1.195312,-1.375 -1.023437,-6.441406 0.175781,-5.132813 0.632812,-7.644531 1.824219,-9.996094 1.382812,-2.730469 2.238281,-2.71875 2.886718,0.03906 0.839844,3.570312 2.320313,4.542968 4.457032,2.929687 1.542968,-1.164062 1.070312,-5.066406 -0.914063,-7.574219 -1.058594,-1.335937 -3.460937,-2.632812 -4.886719,-2.636718 -2.359375,-0.01172 -5.109375,2.433594 -6.910156,6.140625 -1.394531,2.867187 -1.648438,4.871093 -1.652344,12.910156 v 6.914063 l -2.324218,0.957031 c -2.945313,1.207034 -4.273438,2.02344 -4.273438,2.621096 0,0.253907 0.347656,0.816407 0.777344,1.246094 0.757812,0.757813 0.84375,0.773438 3.570312,0.582032 l 2.800782,-0.199219 0.453124,1.28125 c 0.25,0.703125 0.871094,2.640625 1.371094,4.3125 0.503906,1.667969 1.085938,3.171875 1.296875,3.34375 0.921875,0.761719 3.355469,0.5 4.046875,-0.4375 z m 34.82031,-0.355469 c 0.30859,-0.304688 0.65625,-1.21875 0.76953,-2.023438 0.30859,-2.136718 0.50391,-2.8125 0.80078,-2.8125 0.14453,0 1.24219,0.628907 2.44531,1.394532 2.9961,1.925781 4.33985,2.488281 5.95704,2.496094 1.73046,0.01172 2.96093,-0.851563 2.96093,-2.066407 0,-1.027343 -0.41797,-1.398437 -3.44922,-3 -2.98437,-1.585937 -4.42968,-2.667969 -4.23828,-3.171875 0.082,-0.214844 1.28516,-1.921875 2.67578,-3.792968 3.80079,-5.117188 4.19532,-6.199219 2.77735,-7.617188 -0.84375,-0.839844 -2.10938,-0.957031 -3.07031,-0.285156 -0.35547,0.25 -1.82032,1.929687 -3.26172,3.738281 -1.4375,1.808594 -2.71094,3.230469 -2.82813,3.160156 -0.10937,-0.07422 -0.30469,-1.722656 -0.41797,-3.664062 -0.28125,-4.839844 -1.03906,-11.460938 -1.41797,-12.429688 -0.36328,-0.917969 -1.62109,-1.539062 -2.83593,-1.398437 -0.667968,0.07813 -0.894531,0.304687 -1.097656,1.09375 -0.136719,0.542968 -0.214844,7.46875 -0.164062,15.382812 l 0.08594,14.394532 0.75,0.574218 c 0.980458,0.753906 2.824208,0.765625 3.558588,0.02734 z m -14.527341,-2.621094 1.96875,-1.625 1.246094,0.90625 c 1.382812,1 2.484375,1.140625 3.492187,0.4375 0.824219,-0.578125 0.835938,-1.1875 0.07422,-2.96875 -0.332031,-0.765625 -0.886719,-2.765625 -1.238281,-4.449218 -0.347656,-1.683594 -0.703125,-3.355469 -0.785156,-3.710938 -0.394532,-1.742188 -2.445313,-2.484375 -3.5625,-1.292969 -0.316407,0.335938 -1.449219,2.320313 -2.519532,4.414063 -1.074218,2.09375 -2.101562,3.851562 -2.289062,3.902344 -0.472656,0.136718 -0.660156,-0.800782 -1.039063,-5.222657 -0.410156,-4.84375 -0.71875,-5.640625 -2.375,-6.136719 -2.4375,-0.730468 -2.839843,0.386719 -2.554687,7.222657 0.210937,5.121093 0.515625,6.222656 2.257812,8.210937 1.097656,1.25 1.828125,1.710938 3.148438,1.988282 1.445312,0.300781 2.089844,0.04297 4.17578,-1.675782 z M 26.45841,48.787383 c 1.410156,-1.109375 4.285156,-8.285156 4.828125,-12.035156 0.164063,-1.179688 0.09766,-1.507813 -0.414062,-2.015625 -0.328125,-0.335938 -0.953125,-0.695313 -1.378907,-0.804688 -1.300781,-0.324219 -2.328124,1.035157 -4.351562,5.75 -0.308594,0.730469 -0.644531,1.328125 -0.730469,1.328125 -0.09766,0 -0.648437,-1.046875 -1.230469,-2.324218 -1.839843,-4.035157 -2.339843,-4.917969 -3.21875,-5.652344 -1.023437,-0.863282 -1.996093,-0.917969 -2.921874,-0.164063 -0.6875,0.554688 -0.6875,0.566407 -0.214844,2.480469 1.136718,4.613281 4.582031,11.871094 6.324218,13.34375 1.042969,0.875 2.269532,0.910156 3.308594,0.09375 z m 4.761719,-19.097656 c 1.949219,-1.492188 2.757813,-2.714844 2.664063,-4.015625 -0.04688,-0.660157 -2.597657,-3.472657 -3.640626,-4.011719 -0.730468,-0.375 -0.878906,-0.371094 -1.21875,0.03516 -0.289062,0.351563 -0.308593,0.75 -0.08203,1.605469 l 0.304688,1.136719 -2.242188,0.1875 c -1.234375,0.105468 -4.011719,0.191406 -6.171875,0.195312 -2.550781,0 -4.1875,0.136719 -4.671875,0.382813 -0.847656,0.421875 -1.160156,1.546875 -0.503906,1.796875 0.230469,0.09375 3.410156,0.261718 7.058594,0.382812 l 6.636719,0.21875 v 1.253906 c 0,1.921876 0.28125,2.046876 1.867187,0.832032 z m 13.070313,-0.453125 c 0.167968,-0.207031 0.476562,-1.039063 0.679687,-1.84375 0.285156,-1.144531 0.851563,-1.996094 2.582031,-3.894531 2.4375,-2.679688 2.894532,-3.640626 2.03125,-4.277344 -2,-1.457032 -6.648437,1.5625 -8.441406,5.484375 -0.878906,1.917969 -0.773438,2.777343 0.496094,4.046875 0.90625,0.90625 2.113281,1.128906 2.652344,0.484375"
     id="path2" />
</svg>
