<?xml version="1.0" encoding="UTF-8" standalone="no"?>
<svg
   xmlns:dc="http://purl.org/dc/elements/1.1/"
   xmlns:cc="http://creativecommons.org/ns#"
   xmlns:rdf="http://www.w3.org/1999/02/22-rdf-syntax-ns#"
   xmlns:svg="http://www.w3.org/2000/svg"
   xmlns="http://www.w3.org/2000/svg"
   xmlns:sodipodi="http://sodipodi.sourceforge.net/DTD/sodipodi-0.dtd"
   xmlns:inkscape="http://www.inkscape.org/namespaces/inkscape"
   id="svg4187"
   version="1.1"
   inkscape:version="1.0.1 (3bc2e813f5, 2020-09-07)"
   width="824.69995"
   height="801.85571"
   viewBox="0 0 824.69995 801.85571"
   sodipodi:docname="supervyfuk.svg">
  <metadata
     id="metadata4193">
    <rdf:RDF>
      <cc:Work
         rdf:about="">
        <dc:format>image/svg+xml</dc:format>
        <dc:type
           rdf:resource="http://purl.org/dc/dcmitype/StillImage" />
        <dc:title></dc:title>
      </cc:Work>
    </rdf:RDF>
  </metadata>
  <defs
     id="defs4191" />
  <sodipodi:namedview
     pagecolor="#ffffff"
     bordercolor="#666666"
     borderopacity="1"
     objecttolerance="10"
     gridtolerance="10"
     guidetolerance="10"
     inkscape:pageopacity="0"
     inkscape:pageshadow="2"
     inkscape:window-width="1920"
     inkscape:window-height="1001"
     id="namedview4189"
     showgrid="false"
     fit-margin-top="0"
     fit-margin-left="0"
     fit-margin-right="0"
     fit-margin-bottom="0"
     inkscape:zoom="0.96235187"
     inkscape:cx="372.61648"
     inkscape:cy="423.84444"
     inkscape:window-x="-9"
     inkscape:window-y="-9"
     inkscape:window-maximized="1"
     inkscape:current-layer="svg4187"
     inkscape:document-rotation="0" />
  <path
     style="fill:#ffffff"
     d="m 370.36682,797.94706 c -6.45243,-6.9073 -7.52455,-10.2096 -6.96485,-21.4528 0.27936,-5.6117 1.4784,-12.7007 2.66455,-15.7534 2.67483,-6.8841 1.99785,-9.7365 -3.93915,-16.5967 -2.57447,-2.9748 -6.5676,-8.3493 -8.87365,-11.9433 -2.30604,-3.594 -4.69666,-6.5346 -5.3125,-6.5346 -0.61583,0 -1.11969,-0.8438 -1.11969,-1.875 0,-1.0313 -0.42188,-1.876 -0.9375,-1.8772 -0.51563,0 -2.58097,-2.6036 -4.58966,-5.7829 -2.00869,-3.1794 -5.17553,-7.44853 -7.03743,-9.48705 -1.8619,-2.03851 -4.13182,-5.20185 -5.04427,-7.02963 -0.91245,-1.82777 -2.96323,-4.72947 -4.55726,-6.44822 -2.53679,-2.73524 -16.30188,-19.19484 -21.58388,-25.8089 -1.03125,-1.29131 -3.16138,-4.87196 -4.73362,-7.95698 -7.34541,-14.41298 -26.02392,-42.79501 -35.57657,-54.05865 -1.88936,-2.22776 -4.13605,-5.59735 -4.99263,-7.48797 -0.8566,-1.89063 -1.91587,-3.4375 -2.35393,-3.4375 -0.43805,0 -1.43384,-2.53125 -2.21285,-5.625 -0.77903,-3.09375 -1.84951,-5.625 -2.37889,-5.625 -0.52937,0 -1.90085,-1.54688 -3.04772,-3.4375 -1.14688,-1.89063 -3.7928,-5.22806 -5.87984,-7.41651 -2.08704,-2.18846 -4.89035,-6.7589 -6.22956,-10.15654 -3.41602,-8.66647 -7.92204,-18.24823 -8.93023,-18.98945 -0.46754,-0.34375 -1.27581,-2.58571 -1.79615,-4.98214 -0.52035,-2.39642 -1.65395,-4.92767 -2.51912,-5.625 -0.86517,-0.69732 -2.24123,-3.37724 -3.0579,-5.95536 -0.81668,-2.57813 -2.03694,-4.6875 -2.7117,-4.6875 -0.67475,0 -0.91998,-0.4965 -0.54493,-1.10334 0.84791,-1.37195 -3.72075,-14.89356 -5.93299,-17.55951 -0.89551,-1.07919 -3.51765,-5.6184 -5.82697,-10.08715 -2.30931,-4.46875 -5.76939,-11.05127 -7.68906,-14.62784 -1.91967,-3.57656 -4.9158,-11.45156 -6.65808,-17.5 -3.4691,-12.04316 -9.3443,-24.60108 -14.60889,-31.22571 -2.99865,-3.7733 -8.2449,-18.02671 -10.49788,-28.52145 -1.02814,-4.7892 -4.02848,-11.58119 -6.97329,-15.78573 -4.10089,-5.85515 -9.82243,-21.90201 -10.0367,-28.14937 -0.11438,-3.3357 0.16879,-8.3149 0.62934,-11.0649 1.74386,-10.41286 2.15593,-28.37844 0.69138,-30.14311 -1.04585,-1.26018 -1.05518,-1.73189 -0.0343,-1.73189 2.6395,0 1.42241,-10.03044 -2.42889,-20.01719 -2.10756,-5.4651 -4.35905,-10.26232 -5.00328,-10.66049 -0.64425,-0.39816 -2.29341,-3.18696 -3.66478,-6.19732 -1.37138,-3.01036 -2.98817,-5.77916 -3.59289,-6.1529 -0.6047,-0.37372 -2.3761,-3.92346 -3.93642,-7.8883 -5.00308,-12.71298 -6.61041,-15.87426 -10.20178,-20.0648 -1.93537,-2.25829 -3.51888,-4.6717 -3.51888,-5.36311 0,-0.69142 -1.05871,-2.78121 -2.35269,-4.644 -4.4336,-6.38256 -23.362817,-40.88288 -26.205397,-47.76189 -3.81088,-9.22229 -6.83096,-15 -7.84066,-15 -0.45662,0 -1.21631,-1.54688 -1.68818,-3.4375 -1.4053,-5.63052 -5.66383,-11.5625 -8.30067,-11.5625 -6.27808,0 -26.1124,-13.62708 -26.1124,-17.94039 0,-0.70055 -2.2898,-3.98929 -5.08845,-7.30832 -6.1974,-7.34975 -6.01221,-9.94731 0.82887,-11.62629 2.80125,-0.6875 7.5775,-2.9375 10.61389,-5 3.03638,-2.0625 6.14466,-4.03125 6.90729,-4.375 3.00004,-1.35225 10.26494,-8.57675 11.02139,-10.960086 1.06285,-3.34875 7.79643,-6.1701 10.55231,-4.4214 1.12184,0.71185 2.06686,2.35451 2.10007,3.65038 0.0716,2.797666 3.35873,10.760776 8.71227,21.106106 5.25966,10.16392 5.68865,18.30701 1.30472,24.76707 -1.7613,2.59543 -3.20236,5.20959 -3.20236,5.80928 0,0.59967 -0.64316,1.3047 -1.42925,1.56674 -1.64706,0.54901 0.0883,4.42057 3.99559,8.91443 1.30021,1.49539 5.54455,7.77544 9.431827,13.95568 3.88731,6.18024 8.07494,12.3618 9.30588,13.7368 3.46117,3.86629 11.19595,15.72399 11.19595,17.16383 0,0.70817 1.96875,4.02796 4.375,7.37727 2.40625,3.34932 4.375,6.36335 4.375,6.69784 0,0.33447 2.4532,3.8488 5.45154,7.8096 2.99835,3.9608 6.45672,9.17021 7.68527,11.57646 1.22855,2.40625 3.5566,6.1156 5.17345,8.24299 1.61686,2.1274 2.93974,4.22686 2.93974,4.66548 0,0.43863 2.21267,4.41258 4.91705,8.831 2.70437,4.41843 6.11837,10.67059 7.58666,13.89368 3.93428,8.63627 4.21639,6.15346 0.50956,-4.48463 -1.77725,-5.10043 -3.48832,-11.24227 -3.8024,-13.64852 -0.31408,-2.40625 -1.32821,-6.90625 -2.25362,-10 -3.28444,-10.98025 -9.07841,-42.53858 -10.04354,-54.70459 -0.44274,-5.58109 -1.19536,-7.21471 -4.95939,-10.76464 -2.44058,-2.30176 -5.29337,-6.09095 -6.33952,-8.42039 -1.89904,-4.22858 -4.43301,-8.67859 -5.6148,-9.86038 -0.34375,-0.34375 -2.57845,-3.15625 -4.96601,-6.25 -2.38755,-3.09375 -4.79733,-6.1875 -5.35505,-6.875 -0.55773,-0.6875 -4.79178,-6.59834 -9.409,-13.1352 -4.61722,-6.53686 -9.51994,-13.07945 -10.894937,-14.53909 -4.2061,-4.46502 -6.875,-8.37808 -6.875,-10.07995 0,-0.89142 -0.54071,-1.62076 -1.20158,-1.62076 -1.68402,0 -5.04842,-11.948986 -5.04842,-17.929936 0,-3.47371 1.22523,-6.89632 4.05792,-11.33562 4.18842,-6.56393 4.75932,-7.34654 10.315067,-14.14054 3.664,-4.48063 12.56263,-10.86598 17.07218,-12.25041 1.6114,-0.4947 3.65333,-1.4789 4.53762,-2.18711 2.645,-2.11836 19.66954,-2.70136 24.3031,-0.83226 7.72915,3.11782 11.48931,8.52589 13.94834,20.06133 2.61581,12.27089 10.23045,29.07294 15.32211,33.808946 4.10452,3.81783 12.23826,8.5556 14.68811,8.5556 0.91763,0 3.02536,1.06739 4.68386,2.37196 2.7491,2.16244 3.45409,2.21833 7.98108,0.63263 10.17,-3.5623 19.34061,-2.31484 19.34061,2.63087 0,4.77998 2.45019,4.95325 6.23559,0.44099 l 3.52466,-4.20145 3.55738,2.61707 c 1.95656,1.4394 4.11987,4.29632 4.80737,6.34869 l 1.25,3.7316 3.75,-2.2796 c 2.0625,-1.25377 5.01562,-2.28256 6.5625,-2.28619 3.24259,-0.007 3.5063,-0.8861 1.0981,-3.65815 -0.94293,-1.08538 -2.70485,-5.06717 -3.9154,-8.84842 -1.21055,-3.78125 -2.63097,-7.4375 -3.1565,-8.125 -0.52554,-0.6875 -1.64824,-3.584186 -2.49489,-6.437086 -1.24755,-4.20375 -1.22187,-5.9044 0.13549,-8.97089 1.4787,-3.34061 2.55893,-3.93326 9.22279,-5.05988 4.15135,-0.70187 12.32916,-1.65485 18.17291,-2.11777 5.84375,-0.46292 14,-1.15123 18.125,-1.5296 5.94584,-0.54536 22.13941,-0.68538 35.34344,-0.30561 0.87639,0.0252 2.10732,1.39745 2.7354,3.04941 0.62807,1.65197 1.72395,3.36327 2.43526,3.80289 1.62937,1.00701 11.3609,21.089976 11.3609,23.445506 0,0.96142 0.48774,2.2824 1.08386,2.93553 0.59612,0.65312 1.96321,3.71875 3.03799,6.8125 3.05755,8.80119 7.95288,20.07472 9.30361,21.42546 2.30778,2.30778 -0.13829,9.0823 -3.73619,10.34761 -5.90286,2.07593 -9.00733,-0.53006 -12.79775,-10.74283 -1.86883,-5.03539 -5.02771,-12.63543 -7.01971,-16.88898 -1.992,-4.25355 -3.62005,-8.19105 -3.61789,-8.75 0.003,-0.55895 -2.10721,-5.37526 -4.6875,-10.70292 -5.20786,-10.752966 -3.61518,-9.965396 -19.69142,-9.737296 -14.95943,0.21223 -24.56334,1.14916 -26.26622,2.56242 -0.95634,0.7937 -2.9235,1.06708 -4.37147,0.60751 -1.44797,-0.45957 -5.40193,-0.45471 -8.78658,0.0113 l -6.15393,0.84639 3.09561,4.058556 c 1.7026,2.23222 2.74135,4.41284 2.30835,4.84584 -0.433,0.433 -0.0704,2.51816 0.80597,4.63368 1.20486,2.9088 1.25241,4.59443 0.19505,6.91508 -1.35103,2.9652 -1.23799,3.06868 3.35235,3.06868 2.61278,0 7.24134,0.78512 10.2857,1.74472 3.04435,0.9596 8.91017,2.72057 13.03517,3.91327 10.56473,3.05466 23.60551,9.21782 33.19438,15.68788 4.50691,3.04102 10.13191,6.52824 12.5,7.74937 5.10125,2.63052 16.15367,12.99411 27.43062,25.72104 4.46875,5.04333 9.53125,10.72892 11.25,12.63466 6.31323,7.00002 7.6109,9.082 15.0248,24.1057 4.15763,8.4251 8.88951,17.84961 10.5153,20.94336 2.67403,5.08843 6.67085,17.99671 7.54731,24.375 0.18894,1.375 0.41532,5.97636 0.50307,10.22524 l 0.15952,7.72525 4.0625,-1.2685 c 8.06398,-2.51796 21.70716,-4.80408 28.67855,-4.80551 6.4889,-0.001 14.88978,3.10193 17.25895,6.37546 0.34375,0.47496 5.125,3.10201 10.625,5.83789 12.92215,6.42789 17.96994,9.37666 30.7512,17.96393 5.77434,3.87956 13.8738,8.5895 17.9988,10.46653 4.125,1.87702 9.20911,4.21169 11.29803,5.18815 8.81938,4.12261 20.99698,5.91079 39.32697,5.77483 9.96875,-0.0739 19.7598,-0.54842 21.7579,-1.05442 2.79615,-0.7081 4.01976,-0.39095 5.3125,1.37699 3.15823,4.31912 1.8362,7.35546 -7.3829,16.9566 -12.66586,13.19071 -21.78074,26.2036 -24.21175,34.56596 -3.30029,11.35259 -0.3221,41.19064 4.95781,49.6716 2.05631,3.30299 7.56339,17.10585 10.06823,25.23487 1.35891,4.4101 1.99821,11.27618 1.99821,21.46098 l 0,14.97615 -5.16576,10.41397 c -2.84116,5.72769 -5.75715,11.53898 -6.47995,12.91398 -0.72281,1.375 -2.13951,4.13477 -3.14824,6.13284 -1.00872,1.99805 -2.30345,8.71992 -2.87717,14.93747 -0.58502,6.33991 -1.76497,12.0265 -2.68675,12.94828 -2.79837,2.79836 -8.61771,0.50792 -16.04157,-6.31385 -8.57792,-7.88223 -15.30476,-10.19695 -26.43207,-9.09537 -14.03839,1.3898 -51.28248,1.1604 -57.62118,-0.3549 -6.68996,-1.59971 -9.54731,-0.48491 -9.54731,3.72444 0,5.39766 -10.24795,9.84739 -13.43404,5.83314 -1.33961,-1.6878 -4.47962,-10.38525 -4.85131,-13.4375 -0.73972,-6.07467 -3.99565,-11.36405 -9.10502,-14.79148 -15.47974,-10.38396 -24.62914,-20.64199 -38.52408,-43.19204 -10.54927,-17.12037 -10.5818,-17.16279 -8.25542,-10.76648 1.1252,3.09375 2.52373,6.15937 3.10785,6.8125 0.58411,0.65313 1.06202,2.36875 1.06202,3.8125 0,1.44375 0.52658,3.15938 1.17016,3.8125 2.31973,2.35411 10.34402,22.55074 10.93087,27.5123 0.60518,5.11665 -4.33157,22.77791 -9.93714,35.5502 -1.3578,3.09375 -2.66674,6.75 -2.90873,8.125 -1.14928,6.53012 -3.9918,12.6758 -7.69266,16.63196 -2.23438,2.3885 -4.0625,4.82655 -4.0625,5.41789 0,0.59134 -1.16849,2.24364 -2.59665,3.6718 -1.42815,1.42815 -2.2975,3.37621 -1.93187,4.32901 0.36562,0.9528 -0.75229,2.84703 -2.48425,4.20939 -2.59933,2.04463 -2.91669,2.9111 -1.81812,4.9638 0.73199,1.36774 1.33089,4.51018 1.33089,6.9832 0,2.89039 0.68574,4.75955 1.91986,5.23313 1.70182,0.65304 1.67948,1.10997 -0.19677,4.02327 -1.16414,1.8076 -2.95229,3.7814 -3.97366,4.38622 -1.41955,0.84062 -0.72188,1.48993 2.96141,2.75619 2.65015,0.91108 5.04317,1.43179 5.31784,1.15714 0.68815,-0.68815 6.47132,6.30644 6.47132,7.82689 0,0.67595 -0.80089,1.89367 -1.77975,2.70606 -1.39355,1.15654 -2.81755,0.957 -6.5625,-0.91957 -2.63051,-1.31814 -6.32962,-2.76842 -8.22025,-3.22282 -1.89062,-0.45441 -3.4375,-1.67687 -3.4375,-2.71661 0,-2.90605 -3.12261,-3.45059 -7.3251,-1.27739 -2.09041,1.08099 -5.37556,1.97405 -7.30032,1.98458 -7.56852,0.0414 -7.44838,1.48372 1.15816,13.90496 5.4013,7.79534 8.89762,11.7009 10.47484,11.7009 1.60005,0 2.24146,-0.73911 1.97883,-2.28024 -0.21372,-1.25412 0.24928,-3.04881 1.02889,-3.9882 1.43634,-1.73067 3.25691,-1.51211 8.526,1.02356 2.61964,1.26067 3.34176,0.89122 7.09903,-3.63203 2.3005,-2.7695 6.47253,-6.6223 9.2712,-8.56178 3.69287,-2.55916 5.08847,-4.39815 5.08847,-6.70506 0,-4.6889 -2.75513,-11.48125 -4.65705,-11.48125 -0.91015,0 -2.23659,-1.53015 -2.94764,-3.40035 -1.05572,-2.77676 -0.89162,-3.6937 0.89485,-5 3.59548,-2.62907 6.18403,-1.85966 10.75119,3.19564 3.25123,3.59872 4.5238,6.32797 5.09984,10.9375 0.81547,6.52554 -0.32996,14.49205 -2.04875,14.24893 -0.56748,-0.0802 -1.98162,0.94924 -3.14254,2.28779 -1.16091,1.33854 -3.22769,2.64687 -4.59283,2.90738 -1.48821,0.28398 -2.65266,1.67592 -2.90808,3.47618 -0.45719,3.22222 -1.99375,5.06414 -8.61569,10.32791 -3.82066,3.03703 -4.94414,3.29401 -11.82165,2.70391 l -7.59976,-0.65205 2.86219,4.79607 c 1.57421,2.63785 3.94616,6.62421 5.27101,8.85859 2.91051,4.90863 6.45722,5.25257 14.41905,1.39832 4.89595,-2.37008 6.02891,-2.49073 10.26395,-1.09305 4.20812,1.3888 5.12847,1.29907 7.93161,-0.77333 1.7441,-1.28944 4.29464,-4.31944 5.66785,-6.73333 2.13751,-3.75741 2.31755,-5.22911 1.25126,-10.22861 -0.68502,-3.21185 -2.05173,-6.50885 -3.03715,-7.32666 -2.19925,-1.82521 -2.24705,-3.45185 -0.22916,-7.79688 3.14993,-6.78257 7.59629,-3.46619 11.38416,8.49104 4.42794,13.97769 3.18128,22.57155 -4.54815,31.35264 -6.79381,7.71817 -10.26457,8.9612 -15.08022,5.40083 -3.2256,-2.38478 -4.21989,-2.55467 -7.66364,-1.30939 -2.17642,0.78701 -4.76096,1.43953 -5.7434,1.45006 -0.98244,0.01 -2.57877,0.52085 -3.54741,1.13405 -1.40984,0.89251 -0.76084,2.37125 3.25355,7.41311 2.7581,3.46401 7.7267,11.81306 11.04136,18.55345 3.31466,6.74039 7.89744,14.36625 10.18395,16.94635 2.28651,2.58011 4.15695,5.1114 4.15653,5.625 -4.3e-4,0.5137 2.73787,0.744 6.08511,0.5119 4.27029,-0.2961 7.53351,0.3181 10.93827,2.0589 10.27843,5.2553 14.20465,11.7686 14.22042,23.5905 0.006,4.4792 -0.57445,5.6382 -4.05553,8.0976 -2.23437,1.5787 -4.90625,3.8712 -5.9375,5.0946 -1.03125,1.2234 -3.42187,2.3428 -5.3125,2.4875 -1.89062,0.1447 -3.4375,0.6186 -3.4375,1.053 0,0.4344 1.766,3.2277 3.92445,6.2074 2.15845,2.9796 5.26673,8.3494 6.90728,11.9329 4.76032,10.3979 2.97605,12.3532 -18.33173,20.0887 -4.46875,1.6223 -12.50362,3.3127 -17.85527,3.7564 -5.35165,0.4436 -10.02547,1.2843 -10.38627,1.8681 -1.20087,1.943 -3.2192,1.1002 -6.96317,-2.9078 z m 33.01721,-14.439 c 3.26562,-1.1471 5.93169,-2.6777 5.92459,-3.4012 -0.007,-0.7236 -1.38468,-3.8468 -3.06126,-6.9406 -1.67659,-3.0937 -3.61537,-6.8637 -4.30839,-8.3776 -1.71897,-3.7552 -7.31098,-6.4176 -15.50092,-7.3802 -8.049,-0.946 -7.71771,-1.4519 -9.48006,14.4777 -1.65306,14.9419 -1.1798,15.571 10.93099,14.5295 5.25665,-0.4521 12.22942,-1.7605 15.49505,-2.9076 z m -1.5625,-36.6656 c 0,-0.728 0.5735,-0.9693 1.27444,-0.5361 2.25195,1.3918 9.41233,-1.815 13.52325,-6.0564 3.85297,-3.9752 3.92735,-4.2496 2.1288,-7.8549 -1.02502,-2.0547 -3.91173,-4.7125 -6.41493,-5.9062 -4.05331,-1.9329 -4.85862,-1.9689 -7.36051,-0.3296 -4.43593,2.9065 -10.95114,11.6986 -9.12108,12.3087 1.24788,0.4159 1.23852,1.2398 -0.0461,4.0593 -1.31886,2.8945 -1.31619,3.7249 0.0148,4.5691 2.31434,1.4679 6.00146,1.312 6.00146,-0.2539 z m -20,-8.7202 c 0,-2.7742 0.91789,-6.4448 2.03975,-8.157 1.88632,-2.8789 1.88632,-3.2826 0,-5.367 -1.12186,-1.2396 -2.05248,-2.7721 -2.06803,-3.4054 -0.0155,-0.6334 -2.54715,-4.8079 -5.62576,-9.2766 -13.13051,-19.05954 -15.3782,-22.67811 -22.5167,-36.25 -3.55216,-6.75345 -8.9107,-14.43754 -13.51123,-19.375 -1.28118,-1.375 -3.17904,-3.76563 -4.21748,-5.3125 -1.03844,-1.54688 -2.77752,-2.8125 -3.86463,-2.8125 -3.42872,0 -11.49657,-6.47424 -12.30361,-9.87331 -0.42462,-1.78843 -1.67997,-4.84033 -2.78967,-6.782 -1.87638,-3.28314 -1.86449,-3.64285 0.16986,-5.1378 3.1044,-2.28129 2.73001,-4.29278 -1.5625,-8.39493 -2.0625,-1.97104 -3.75,-4.32451 -3.75,-5.22994 0,-0.90543 -1.47355,-3.00991 -3.27456,-4.67663 -3.24745,-3.0053 -7.35558,-8.66853 -12.54775,-17.29761 -2.52446,-4.19549 -3.04518,-4.45463 -8.125,-4.04359 -2.98523,0.24156 -5.65633,0.6577 -5.93578,0.92476 -1.00056,0.9562 4.16942,11.2552 8.85755,17.64491 2.62654,3.57988 4.77554,7.04863 4.77554,7.70834 0,0.65971 0.42187,1.38696 0.9375,1.61614 1.0855,0.48244 14.0625,18.26175 14.0625,19.26651 0,0.68079 7.49561,10.6257 8.87507,11.77515 0.41254,0.34375 0.97504,1.18758 1.25,1.87518 1.52301,3.80857 11.57981,19.37482 12.51739,19.37482 0.60914,0 1.14865,0.98437 1.1989,2.1875 0.0503,1.20312 1.03463,3.69934 2.1875,5.54714 13.24385,21.22691 19.67884,31.74794 20.08158,32.83276 0.9223,2.48439 10.66374,18.8202 13.52196,22.6756 1.57719,2.1274 2.8676,4.3831 2.8676,5.0128 0,1.5696 6.06808,7.9942 7.55059,7.9942 0.65967,0 1.19941,-2.2698 1.19941,-5.044 z m -46.25,-143.6699 c 2.40625,-1.17871 7.04687,-2.86714 10.3125,-3.75206 5.34937,-1.44958 5.9375,-1.96819 5.9375,-5.23573 0,-4.73156 -2.50838,-5.56656 -8.9634,-2.98377 -3.64774,1.45953 -6.73694,1.82286 -10.30996,1.21257 -5.54649,-0.94736 -11.90619,-1.01422 -12.78599,-0.13444 -0.30391,0.30393 0.9517,3.72969 2.79027,7.61282 3.66034,7.73075 3.84138,7.77636 13.01908,3.28061 z m -64.84489,-4.11944 c -1.23452,-1.22532 -1.3781,-1.08175 -0.69975,0.69975 0.46942,1.23278 1.16837,1.92653 1.55323,1.54166 0.38486,-0.38486 8e-4,-1.39348 -0.85348,-2.24141 z m 28.59489,-17.62166 c 5.15625,-0.24849 11.16084,-0.84568 13.34352,-1.32707 l 3.96852,-0.87528 -0.047,-8.15045 c -0.0449,-7.7729 -0.22868,-8.2612 -3.96853,-10.54165 -2.15682,-1.31516 -5.32775,-2.39665 -7.0465,-2.40331 -2.23102,-0.009 -4.91295,-2.05439 -9.375,-7.15119 -3.4375,-3.92649 -8.73731,-9.40752 -11.77736,-12.18006 -3.04004,-2.77254 -6.41504,-6.12478 -7.5,-7.44941 -1.08495,-1.32464 -6.33201,-6.92055 -11.66014,-12.43537 -5.32812,-5.51481 -9.6875,-10.38285 -9.6875,-10.81785 0,-0.435 -1.36135,-1.51948 -3.02521,-2.40995 -1.75319,-0.93828 -2.74583,-2.34708 -2.36078,-3.35053 0.39999,-1.04234 -3.24667,-5.58724 -9.16228,-11.41912 -12.33424,-12.15965 -20.26478,-21.24914 -22.05997,-25.28376 -0.76475,-1.71875 -3.68198,-5.9375 -6.48276,-9.375 -2.80076,-3.4375 -6.72604,-8.5 -8.72282,-11.25 -3.17215,-4.36871 -7.39414,-9.47131 -15.51415,-18.75 -1.20329,-1.375 -3.75982,-4.64632 -5.68115,-7.2696 -1.92135,-2.62328 -3.74524,-4.51771 -4.05309,-4.20986 -0.81385,0.81385 6.86269,17.65085 12.34876,27.08462 2.59239,4.45784 4.71128,8.67659 4.70863,9.375 -0.002,0.69841 9.21936,19.83234 20.49335,42.51984 11.27398,22.6875 22.5903,46.875 25.14737,53.75 2.55708,6.875 6.57142,16.52397 8.92074,21.44216 3.59879,7.53384 5.10204,9.35818 9.54494,11.58365 4.64701,2.32771 6.75821,2.56454 17.77341,1.99374 6.875,-0.35626 16.71875,-0.85106 21.875,-1.09955 z m 41.26331,-6.49898 c 6.04017,-1.90808 9.94803,-3.78701 9.66186,-4.64549 -0.26427,-0.79284 -3.91083,-2.53881 -8.10344,-3.87992 -7.0512,-2.2555 -7.85179,-2.28843 -10.67415,-0.43915 -4.28089,2.80494 -5.92632,12.16854 -2.13833,12.16854 0.61142,0 5.67576,-1.44179 11.25406,-3.20398 z m 12.48669,-17.26837 c 0,-1.72901 -4.50689,-10.83005 -6.99854,-14.13257 -3.94171,-5.22451 -16.10686,-28.88993 -17.26762,-33.59152 -0.49952,-2.02321 -2.21312,-6.77231 -3.80801,-10.55356 -1.59491,-3.78125 -4.70218,-11.65625 -6.90507,-17.5 -2.20289,-5.84375 -7.42039,-16.8125 -11.59442,-24.375 -11.44168,-20.72994 -14.19668,-26.75833 -19.78023,-43.28247 -2.81515,-8.33124 -6.09257,-16.74953 -7.28316,-18.70729 -1.91391,-3.14719 -2.4441,-3.37198 -4.57633,-1.94029 -6.6247,4.44815 -28.52043,8.49212 -40.00495,7.38861 -3.47486,-0.33388 -9.65666,0.12213 -13.73731,1.01349 -4.08065,0.89131 -10.37249,1.47244 -13.98186,1.29139 -5.35126,-0.26843 -6.5625,0.0445 -6.5625,1.69561 0,1.90066 9.32941,11.96682 16.26205,17.54629 1.71212,1.37792 5.33995,5.31542 8.06184,8.75 2.72187,3.43456 7.60352,9.05716 10.8481,12.49466 3.24457,3.4375 9.45507,11.03189 13.80111,16.8764 7.93487,10.67075 15.5725,20.58344 17.9019,23.23445 0.6875,0.78241 3.21875,3.88585 5.625,6.8965 2.40625,3.01066 6.5501,7.44689 9.20855,9.85829 8.40686,7.6256 11.10443,10.37458 24.54145,25.00936 7.21875,7.86221 14.70028,15.93149 16.6256,17.93172 1.92534,2.00023 3.79685,5.11804 4.15894,6.92847 0.61426,3.07133 1.13297,3.30032 7.7494,3.42107 3.90009,0.0711 9.05981,1.00363 11.46606,2.0721 4.55244,2.02149 6.25,2.47625 6.25,1.67429 z m 15.33012,-8.28622 c 1.19343,-2.75472 2.16988,-5.61337 2.16988,-6.35254 0,-2.41782 6.15499,-19.12308 9.36341,-25.41324 5.17139,-10.13861 4.69586,-12.24961 -9.21992,-40.93025 -4.89142,-10.08129 -8.89349,-19.09751 -8.89349,-20.03606 0,-2.63291 -6.47741,-17.06108 -11.29607,-25.1615 -6.05898,-10.18547 -12.27569,-22.41797 -12.37247,-24.34503 -0.2079,-4.14002 -12.48311,-11.95331 -26.18655,-16.66798 -8.14255,-2.80146 -18.66959,-3.1265 -19.63666,-0.60633 -0.3648,0.95066 0.70816,5.02879 2.38436,9.0625 1.67622,4.0337 4.31375,10.99025 5.86121,15.459 1.54746,4.46875 3.86714,10.34003 5.15487,13.04729 1.28772,2.70726 2.34131,5.3972 2.34131,5.97765 0,0.58045 0.93353,3.14666 2.07451,5.70271 1.14098,2.55604 2.17393,4.9286 2.29545,5.27235 1.10522,3.12629 2.64533,6.14331 4.51877,8.85213 1.22754,1.77492 3.40153,6.27492 4.83106,10 2.87257,7.48533 5.28881,12.6913 6.33436,13.64787 1.00811,0.92231 8.1618,19.62734 10.33149,27.01414 1.03215,3.51402 2.48497,7.45152 3.22847,8.75 0.74351,1.29847 2.71679,5.55452 4.38507,9.4579 1.66828,3.90337 5.26777,10.09087 7.99886,13.75 2.7311,3.65912 5.36987,8.05921 5.86395,9.77796 1.10352,3.83884 4.11867,8.75 5.37195,8.75 0.50947,0 1.90275,-2.25386 3.09619,-5.00857 z m 185.25239,-21.2794 c 0.39319,-2.38537 2.63338,-8.27453 4.9782,-13.08703 2.34481,-4.8125 5.9834,-13.219 8.08575,-18.68111 3.57038,-9.27621 3.79652,-10.84238 3.42932,-23.75 -0.37754,-13.27089 -0.6311,-14.38894 -6.39419,-28.19389 -6.72748,-16.11507 -7.67698,-19.17131 -10.09698,-32.5 -2.40325,-13.23651 -2.21884,-23.03937 0.62017,-32.96687 2.67052,-9.33832 3.92512,-11.59324 12.23592,-21.99184 3.0402,-3.80396 6.87454,-8.60379 8.52073,-10.66629 3.88681,-4.86975 3.79877,-5.66851 -0.48918,-4.43874 -12.46125,3.57384 -45.97639,-4.17592 -68.03475,-15.73177 -3.26563,-1.71079 -5.94611,-2.65354 -5.95664,-2.095 -0.01,0.55852 -0.4324,0.426 -0.9375,-0.2945 -0.5051,-0.72051 -3.73086,-2.92309 -7.16836,-4.89463 -3.4375,-1.97152 -8.30461,-5.31951 -10.8158,-7.43997 -7.37999,-6.23169 -31.1596,-19.25065 -37.9342,-20.76838 -8.20688,-1.83858 -20.97821,-0.53837 -28.4375,2.89515 -5.08404,2.34019 -5.9375,3.25252 -5.9375,6.34705 0,4.29165 -6.79725,18.60702 -10.55005,22.21895 -2.38429,2.2948 -2.61929,3.77365 -2.39814,15.09173 0.29044,14.86393 -1.01632,18.31415 -12.07065,31.86985 -0.67714,0.83036 -1.23116,1.97471 -1.23116,2.543 0,3.91045 -23.4538,10.01989 -29.73875,7.74659 -12.9917,-4.69918 -23.71199,-12.85642 -31.93433,-24.29933 -2.47002,-3.4375 -7.12581,-9.90625 -10.34618,-14.375 -6.37283,-8.84324 -15.48074,-26.63834 -15.48074,-30.24637 0,-1.62982 -0.95152,-2.24833 -3.4375,-2.23449 -4.38606,0.0244 -6.815,1.56488 -6.04026,3.8308 0.33381,0.97629 0.91936,3.9289 1.30124,6.56136 0.38187,2.63246 1.2659,5.8543 1.96448,7.15964 1.02328,1.91201 3.36464,21.7177 3.5381,29.92906 0.0217,1.03125 0.13622,4.27014 0.25428,7.19754 0.118,2.92738 -0.48994,7.02355 -1.3511,9.10257 -0.86116,2.07903 -1.17144,4.17435 -0.68953,4.65626 0.48193,0.48193 4.91702,0.98218 9.85575,1.11167 19.34849,0.50731 30.2001,3.51125 40.45864,11.19973 2.1885,1.64023 4.49646,2.98223 5.12879,2.98223 1.84629,0 24.01711,23.45974 24.01711,25.41336 0,3.55325 6.28936,15.8395 18.01579,35.19379 6.59131,10.87887 11.98421,20.18634 11.98421,20.68325 0,0.49692 0.90783,1.65691 2.01739,2.57776 1.10955,0.92086 3.67115,4.60461 5.69242,8.18613 4.91608,8.7108 19.61494,22.94112 23.69964,22.94418 1.11894,8.4e-4 2.65805,0.75293 3.42024,1.67132 0.76218,0.91837 6.03418,3.79245 11.71555,6.38681 5.68137,2.59438 12.29851,5.63984 14.70476,6.76771 3.74135,1.75368 9.64241,2.05069 40.74384,2.05069 30.49182,0 36.7334,0.30299 38.6249,1.875 2.6848,2.23131 11.13315,7.41477 11.49512,7.0528 0.13956,-0.13956 0.57545,-2.20541 0.96865,-4.59078 z m -263.08251,-0.43398 c 0,-0.25956 -0.85663,-1.18287 -1.90361,-2.0518 -1.59169,-1.32098 -1.7746,-1.24365 -1.11627,0.47195 0.67237,1.75216 3.01988,2.98028 3.01988,1.57985 z m -6.30125,-8.35003 c -1.49681,-2.10207 -2.99664,-3.5468 -3.33296,-3.21048 -0.77525,0.77525 3.66086,6.94052 5.03182,6.99318 0.56245,0.0216 -0.20205,-1.68061 -1.69886,-3.7827 z M 269.95902,495.6793 c -1.96913,-2.05533 -3.90249,-3.41117 -4.29636,-3.01295 -0.63859,0.64561 5.97312,6.72827 7.33023,6.7437 0.3005,0.004 -1.06474,-1.67543 -3.03387,-3.73075 z m -10.18,-12.84427 c -2.06065,-2.22407 -7.0847,-8.54377 -11.16456,-14.04377 -4.07987,-5.5 -8.12502,-10.45204 -8.98922,-11.00454 -0.86421,-0.55249 -2.63584,-3.08374 -3.93695,-5.625 -1.30111,-2.54125 -5.09403,-7.22097 -8.42871,-10.39937 -3.33467,-3.17841 -8.31305,-8.30424 -11.06305,-11.39074 -2.75,-3.08651 -6.91979,-7.2225 -9.2662,-9.19111 -3.54237,-2.972 -3.05486,-1.99376 2.87346,5.76574 3.92682,5.13976 8.5213,11.03252 10.20996,13.09502 1.68867,2.0625 4.33312,5.54026 5.87654,7.72836 10.49997,14.88563 35.20803,41.53651 36.92073,39.82382 0.39305,-0.39304 -0.97135,-2.53433 -3.032,-4.75841 z m 112.55663,-43.89348 c -1.81533,-3.24801 -3.55088,-5.65519 -3.85677,-5.3493 -0.3059,0.30589 1.02419,3.39922 2.95574,6.87407 1.93155,3.47485 3.66711,5.88203 3.85678,5.34929 0.18969,-0.53274 -1.1404,-3.62606 -2.95575,-6.87406 z M 222.8463,382.07948 c 4.32352,-1.52019 10.64872,-2.41906 18.08098,-2.56943 6.42615,-0.13003 13.09237,-0.97494 15.22523,-1.92974 2.08671,-0.93414 6.04402,-2.38466 8.79402,-3.22339 8.10864,-2.47305 11.83428,-4.81392 14.4256,-9.06385 2.59734,-4.25977 3.27429,-13.52325 1.3598,-18.60794 -0.59927,-1.59163 -1.46977,-9.08137 -1.93445,-16.64387 -0.93012,-15.13804 -3.42282,-28.82187 -5.65734,-31.05639 -2.16935,-2.16935 -22.27257,-1.29322 -24.63961,1.07382 -2.62261,2.62262 -7.5948,2.31767 -9.13502,-0.56025 -2.18924,-4.09064 -1.62533,-12.31914 0.89352,-13.03807 6.70724,-1.91436 20.55383,-1.95457 29.16826,-0.0848 11.58492,2.51464 21.14424,3.19225 21.14424,1.49883 0,-0.7003 -1.92632,-6.12425 -4.28074,-12.05325 -4.56665,-11.49998 -10.61768,-34.89798 -13.75852,-53.20106 -1.47514,-8.59633 -2.8905,-12.63732 -6.14079,-17.53262 -2.3231,-3.49883 -4.65301,-7.71381 -5.1776,-9.36662 -0.98482,-3.10291 -1.24692,-2.63263 -16.34115,29.32032 -8.88991,18.81907 -12.00329,66.6109 -5.78157,88.75 1.35244,4.8125 2.58667,9.3125 2.74271,10 1.29998,5.72753 -3.36213,9.49379 -7.99464,6.45845 -2.11046,-1.38282 -3.51368,-4.69448 -5.60857,-13.23653 -2.33278,-9.51194 -2.79954,-14.94757 -2.82796,-32.9321 -0.0594,-37.57028 2.12911,-47.10837 20.07142,-87.47814 7.30897,-16.44501 8.78552,-24.52346 6.34316,-34.70439 -1.76685,-7.36504 -7.20543,-13.66992 -15.93031,-18.46785 l -5.20184,-2.86055 -4.93169,4.45548 c -5.64355,5.09861 -21.45352,11.21996 -26.01896,10.07411 -3.17661,-0.79729 -3.94424,-4.55883 -1.35045,-6.61751 0.85937,-0.68209 3.658,-1.91502 6.21917,-2.73983 6.23973,-2.00949 16.57968,-11.2243 14.68298,-13.08526 -1.01116,-0.99211 -1.99204,-0.63233 -3.58449,1.31479 -2.95261,3.61021 -17.386,5.99235 -24.10695,3.97871 -5.16357,-1.54705 -6.63745,-3.80103 -4.76872,-7.29275 2.26327,-4.22899 1.31578,-5.5755 -6.9198,-9.83403 -9.18055,-4.74716 -17.66497,-13.78177 -21.00689,-22.369146 -1.92642,-4.95008 -7.84871,-15.28841 -8.75796,-15.28841 -0.21934,0 -2.22124,2.8125 -4.44867,6.25 -2.22742,3.4375 -4.43153,6.25243 -4.89801,6.2554 -0.46649,0.002 -3.59681,2.49777 -6.95627,5.544026 -3.35946,3.04623 -7.57821,6.08482 -9.375,6.75242 -1.79679,0.6676 -4.39189,1.62339 -5.76689,2.12399 -1.375,0.5006 -4.0414,1.0166 -5.92534,1.14667 -5.22884,0.36102 -5.50179,1.59723 -1.32671,6.00872 2.10489,2.22407 4.42797,5.21806 5.16241,6.6533 0.73444,1.43523 6.4377,9.01859 12.67394,16.85191 6.23623,7.83331 13.08195,17.62779 15.21271,21.76547 2.13078,4.1377 4.79188,8.576 5.91356,9.86289 2.39787,2.75103 14.95388,12.47823 17.66443,13.68471 1.03125,0.45901 2.71875,1.3346 3.75,1.94575 2.34881,1.39198 12.85545,3.8915 16.58044,3.94449 4.50893,0.0641 7.59068,3.11217 6.7069,6.63349 -0.42117,1.67805 -1.54175,3.34879 -2.49018,3.71272 -0.94842,0.36395 -7.1348,-0.094 -13.7475,-1.01753 -8.45347,-1.18069 -13.18789,-2.50868 -15.94636,-4.47289 l -3.92329,-2.79363 0.64989,4.26154 c 0.35745,2.34385 1.29794,7.9178 2.09,12.38655 0.79205,4.46875 1.65714,9.37843 1.92241,10.9104 0.26526,1.53196 1.60405,7.43821 2.97506,13.125 1.37102,5.68678 2.86937,13.1521 3.32968,16.5896 0.4603,3.4375 1.25447,6.8125 1.76482,7.5 0.51035,0.6875 1.83494,4.34375 2.94354,8.125 6.91014,23.56949 10.6601,33.95229 15.34971,42.5 0.94298,1.71875 2.71697,5.09375 3.94219,7.5 1.22523,2.40625 2.93081,4.82483 3.79019,5.37461 0.85937,0.54979 1.5625,1.81542 1.5625,2.8125 0,0.99709 0.42519,1.81289 0.94486,1.81289 0.51968,0 1.64966,1.59225 2.51108,3.53834 1.89161,4.27345 0.74182,11.46166 -1.83334,11.46166 -4.0166,0 -15.65091,-15.3822 -21.14441,-27.95588 l -3.8968,-8.91912 -6.08739,0.40629 c -3.34806,0.22346 -6.43718,0.97225 -6.86469,1.66399 -0.98406,1.59225 -3.02161,34.68642 -2.95096,47.92972 0.0433,8.11591 0.67311,11.32214 3.34276,17.0174 3.71585,7.92719 4.54393,8.45111 16.38463,10.36674 15.26083,2.46895 35.57701,2.30596 43.11903,-0.34591 z m 149.94089,-24.60476 c 3.6285,-2.5415 8.45019,-13.22877 10.36934,-22.98361 1.63965,-8.33416 0.96236,-30.3162 -1.13846,-36.94985 -0.65318,-2.0625 -2.14115,-7.125 -3.3066,-11.25 -2.29975,-8.13977 -7.39745,-22.75601 -10.02714,-28.75 -0.90485,-2.0625 -2.55578,-6.84375 -3.6687,-10.625 -2.02626,-6.88436 -3.71699,-10.46459 -12.73606,-26.96944 -7.89753,-14.45245 -18.50617,-28.69881 -28.58304,-38.38424 -4.17724,-4.01497 -22.7288,-16.48078 -27.91157,-18.75532 -1.83614,-0.80581 -3.61968,-1.75781 -3.96343,-2.11556 -0.34375,-0.35774 -4,-2.31625 -8.125,-4.35224 -5.14374,-2.53883 -9.95444,-3.86088 -15.3125,-4.20812 -4.29688,-0.27848 -7.81221,-0.30017 -7.81187,-0.0482 3.4e-4,0.25197 1.17946,3.55187 2.62026,7.33312 2.07101,5.43523 2.45061,8.3797 1.81257,14.05998 -0.73567,6.5497 -0.48767,7.65492 2.80483,12.5 1.98652,2.92326 5.74058,9.25252 8.34235,14.06502 2.60176,4.8125 5.17515,9.3125 5.71862,10 0.54348,0.6875 1.04836,1.8125 1.12198,2.5 0.0736,0.6875 0.70929,3.21875 1.41262,5.625 0.70334,2.40625 2.34012,10.38315 3.63727,17.72644 1.29716,7.3433 3.23672,14.69183 4.31013,16.33007 2.53865,3.87448 6.42788,15.91673 8.08193,25.02422 1.75207,9.6472 13.30352,38.55128 18.48268,46.24749 2.28478,3.39515 4.15413,6.67898 4.15413,7.29739 0,0.61842 0.55544,1.12439 1.23432,1.12439 0.67888,0 2.59375,2.15349 4.25529,4.78554 4.17924,6.62034 10.40838,12.23906 19.72084,17.78831 6.47255,3.85696 9.17341,4.73536 14.82391,4.8212 4.3738,0.0665 7.9266,-0.60755 9.6813,-1.83659 z m -26.34687,-24.57681 c -2.75192,-2.0413 -4.95813,-10.62439 -3.03621,-11.8122 0.72727,-0.44948 2.30574,0.39727 3.50772,1.88166 1.20199,1.48439 3.50151,2.681 5.11006,2.65914 2.76435,-0.0376 2.79899,-0.13497 0.632,-1.77719 -1.26096,-0.95558 -3.42152,-3.89082 -4.80125,-6.52275 -1.37974,-2.63192 -4.14491,-6.8617 -6.14486,-9.39951 -4.57944,-5.81106 -4.74894,-8.37682 -0.4997,-7.56452 1.94351,0.37152 3.85652,2.08854 5.0294,4.51414 2.46882,5.10574 11.19089,14.84245 10.22508,11.41458 -0.38742,-1.375 -1.07233,-4.32813 -1.52203,-6.5625 -0.58151,-2.88932 -1.51091,-4.0625 -3.21833,-4.0625 -1.32036,0 -2.40067,-0.55479 -2.40067,-1.23288 0,-0.67807 -2.53125,-5.80903 -5.625,-11.40211 -5.86724,-10.60719 -6.60727,-13.07925 -4.15961,-13.89514 0.989,-0.32967 0.64088,-1.68421 -1.07081,-4.16667 -5.23528,-7.59265 -7.27037,-11.23349 -7.29623,-13.0532 -0.045,-3.16136 -6.38019,-14.16099 -10.43911,-18.125 -4.69864,-4.58876 -5.30438,-8.7079 -1.09674,-7.45801 1.54687,0.4595 3.51562,1.72991 4.375,2.82313 1.42165,1.80852 1.5625,1.80162 1.5625,-0.0766 0,-3.90631 -10.63725,-22.423 -18.125,-31.55089 -4.125,-5.02856 -8.46826,-10.73916 -9.65169,-12.69024 -1.18343,-1.95107 -2.81983,-4.45532 -3.63644,-5.56501 -1.97488,-2.68361 -0.53126,-6.10736 2.5752,-6.10736 2.95064,0 6.32772,3.35009 11.97067,11.875 2.2754,3.4375 5.91342,8.21875 8.08447,10.625 2.17105,2.40625 7.55994,11.40625 11.97529,20 9.7253,18.92869 15.93489,30.4098 16.90164,31.25 1.78723,1.55327 6.00945,10.56587 10.323,22.03517 5.47181,14.54898 10.34569,44.21483 7.26416,44.21483 -0.78721,0 -1.4313,0.81239 -1.4313,1.8053 0,5.72056 -10.83059,11.30186 -15.38121,7.92635 z m 3.29292,-44.2063 c -1.74727,-1.74728 -3.43565,-2.91809 -3.75194,-2.60179 -0.79295,0.79294 5.00902,6.71308 6.07202,6.19569 0.47124,-0.22938 -0.5728,-1.84663 -2.32008,-3.5939 z M 342.5386,268.449 c -2.15968,-2.06278 -2.19321,-2.02925 -0.76181,0.76182 0.8235,1.60575 1.84011,2.57674 2.25912,2.15774 0.41899,-0.419 -0.25479,-1.7328 -1.4973,-2.91956 z m 54.95409,13.67482 c -0.44706,-6.4171 -1.38972,-13.1671 -2.09481,-15 -0.70509,-1.83291 -2.6642,-8.67631 -4.35359,-15.20756 -1.68937,-6.53125 -4.21575,-14.96875 -5.61415,-18.75 -1.3984,-3.78125 -3.1188,-8.80707 -3.82311,-11.16849 -0.70431,-2.36142 -2.00952,-5.45517 -2.90046,-6.875 -0.89095,-1.41984 -3.07437,-5.36805 -4.85205,-8.77382 -6.87447,-13.17042 -32.11575,-40.08222 -44.53299,-47.48025 -4.46875,-2.66244 -9.25,-5.82508 -10.625,-7.02812 -4.63889,-4.0587 -19.63738,-11.56242 -26.7182,-13.36708 -3.86749,-0.98569 -13.10334,-2.84172 -20.52411,-4.12448 -11.1619,-1.92947 -14.28953,-2.07111 -18.10793,-0.82004 -5.69532,1.86604 -6.4136,4.6482 -1.85416,7.18193 2.48977,1.38359 4.85062,1.65782 8.4544,0.98205 2.75,-0.51567 7.25,-0.64394 10,-0.28503 6.44643,0.84135 20.76665,5.64497 22.90179,7.68224 0.90847,0.86685 2.32604,1.57609 3.15012,1.57609 0.8241,0 8.76558,4.7772 17.64774,10.61599 8.88216,5.8388 17.1398,10.93033 18.35031,11.31453 1.2105,0.3842 3.32465,2.5168 4.69812,4.7391 1.37345,2.2223 3.96088,5.70889 5.74984,7.74797 1.78897,2.03907 6.10973,8.06678 9.60171,13.39491 3.49197,5.32812 6.77763,9.6875 7.30148,9.6875 0.52384,0 1.89406,2.39062 3.04494,5.3125 1.15088,2.92187 3.35954,7.28125 4.90814,9.6875 1.5486,2.40625 4.92751,10.84375 7.50869,18.75 2.58117,7.90625 5.55692,16.34375 6.61278,18.75 1.05585,2.40625 2.65944,6.0625 3.5635,8.125 1.86028,4.24396 6.84583,21.72389 6.8398,23.98113 -0.003,0.81462 0.58469,3.02937 1.30414,4.92168 l 1.3081,3.44058 1.9339,-3.6717 c 1.54022,-2.92425 1.76844,-6.04679 1.12106,-15.33913 z m -238.30219,7.60494 c -5.3044,-8.77072 -8.61897,-13.39595 -8.61897,-12.0271 0,0.75115 1.40625,3.43796 3.125,5.97067 1.71875,2.53273 3.125,5.31122 3.125,6.17444 0,1.80761 2.47929,4.56949 4.10195,4.56949 0.60608,0 -0.17376,-2.10938 -1.73297,-4.6875 z M 78.436933,140.80086 c 2.68881,-2.68881 1.28824,-13.65271 -3.49005,-27.32057 -0.83938,-2.40097 -23.12535,11.97138 -23.12535,14.91366 0,2.48732 7.99952,11.35435 11.79164,13.07037 4.12019,1.86449 12.67887,1.48143 14.82376,-0.66346 z M 116.82153,99.130824 c 5.43486,-1.62931 10.91745,-5.40141 15,-10.32023 1.71875,-2.07082 4.45345,-5.12009 6.07711,-6.77616 4.26465,-4.34977 8.92289,-13.66076 8.92289,-17.83528 0,-4.07434 -2.77122,-5.5751 -10,-5.41552 -8.53369,0.18839 -17.48382,4.57968 -25.52095,12.5216 -7.18427,7.09917 -13.229047,16.26602 -13.229047,20.06174 0,0.94296 0.9435,3.693 2.096657,6.11121 2.00053,4.195166 2.33005,4.363886 7.1875,3.680466 2.79997,-0.39394 7.05959,-1.306466 9.46584,-2.027826 z m 98.5277,591.483496 c -1.29109,-0.75183 -27.54378,-1.23765 -68.29309,-1.26376 -47.600397,-0.0305 -67.289757,-0.45537 -70.090187,-1.51241 -4.26098,-1.60835 -4.84445,-3.02835 -2.11977,-5.15909 0.97605,-0.76329 2.03727,-3.35655 2.35829,-5.7628 0.98491,-7.38292 2.39582,-11.74274 4.80767,-14.85607 1.27016,-1.63959 2.30939,-3.66179 2.30939,-4.49377 0,-0.83198 0.98437,-2.40832 2.1875,-3.50298 1.20312,-1.09467 3.28464,-4.13497 4.62559,-6.75624 1.34095,-2.62126 3.25976,-5.75419 4.26402,-6.96205 1.00426,-1.20785 2.43838,-3.2112 3.18691,-4.45188 5.386907,-8.92862 7.768057,-11.81555 11.198897,-13.57771 2.15164,-1.10512 6.98681,-4.81051 10.7448,-8.23421 3.75801,-3.42369 8.82051,-7.47363 11.25,-8.99985 5.0872,-3.1958 18.26541,-7.72565 25.89869,-8.90238 4.67,-0.7199 5.07913,-1.05031 3.81231,-3.0788 -0.78049,-1.2498 -1.86257,-1.99827 -2.40459,-1.66328 -0.54202,0.33498 -0.70223,-0.12912 -0.35602,-1.03133 0.34622,-0.90222 -1.34772,-4.70934 -3.76431,-8.46027 -2.41659,-3.75093 -4.3938,-7.45479 -4.3938,-8.23079 0,-0.776 -1.125,-2.42903 -2.5,-3.67339 -1.375,-1.24436 -2.5,-2.76732 -2.5,-3.38437 0,-1.1544 -18.72458,-34.72509 -28.14844,-50.46643 -2.91429,-4.86794 -5.68601,-10.07106 -6.15937,-11.5625 -0.47337,-1.49144 -1.38525,-2.7117 -2.02643,-2.7117 -0.64116,0 -1.16576,-0.79688 -1.16576,-1.77084 0,-0.97395 -0.42188,-1.95832 -0.9375,-2.1875 -0.51563,-0.22916 -2.00955,-2.38541 -3.31983,-4.79166 -3.63716,-6.67942 -11.795167,-20.9477 -17.152777,-30 -2.64483,-4.46875 -5.74485,-10.23438 -6.88895,-12.8125 -1.14409,-2.57813 -2.55734,-4.6875 -3.14055,-4.6875 -0.58322,0 -1.06039,-0.55259 -1.06039,-1.22799 0,-0.67538 -2.25,-4.90405 -5,-9.39701 -2.75,-4.49296 -5,-8.49416 -5,-8.89155 0,-0.39739 -1.07456,-2.23161 -2.38791,-4.07604 -1.31337,-1.84444 -3.77371,-5.86877 -5.46746,-8.94296 -3.14758,-5.71291 -9.5455,-16.79518 -14.01963,-24.28433 -1.375,-2.30157 -4.68785,-8.03678 -7.36187,-12.74491 -2.67404,-4.70811 -5.54294,-9.40396 -6.37534,-10.43521 -0.8324,-1.03125 -3.70706,-6.09375 -6.38813,-11.25 -2.68106,-5.15625 -5.1613,-9.65625 -5.51162,-10 -0.35034,-0.34375 -1.75659,-2.78095 -3.125,-5.416 -3.78116,-7.28106 -4.85019,-7.05026 -3.92205,0.84675 0.75599,6.4323 0.614,7.06925 -1.5758998,7.06925 -1.32371,0 -2.62799,0.6637 -2.89839,1.47489 -0.27448,0.82345 -1.42471,1.11682 -2.60416,0.66422 -1.60945,-0.6176 -2.11853,-2.3828 -2.13768,-7.41239 -0.0139,-3.63095 -0.55266,-10.2522 -1.19740996,-14.71388 -0.94392,-6.53195 -0.81167,-8.66253 0.67894996,-10.9375 2.58321,-3.94248 10.3137898,-3.89157 15.1351898,0.0996 1.94337,1.60875 4.47175,3.43688 5.61861,4.0625 1.14685,0.62561 5.58281,4.44726 9.85768,8.49255 6.56586,6.21324 7.45091,7.53504 5.70101,8.51433 -1.1393,0.63758 -1.77023,1.64668 -1.40203,2.24242 0.36819,0.59575 -0.50403,1.45564 -1.93828,1.91085 -2.70159,0.85745 -7.42854,-2.263 -7.42862,-4.90391 -2e-5,-0.75281 -2.06877,-3.01941 -4.59722,-5.03688 -5.7687,-4.60286 -5.43909,-3.67938 5.72521,16.04004 4.71069,8.32044 9.67782,17.09683 11.03807,19.50308 1.36027,2.40625 5.15853,8.875 8.44059,14.375 7.84958,13.15413 11.91376,20.37147 12.13251,21.5454 0.0979,0.52503 2.66157,4.8294 5.69718,9.56526 3.03561,4.73586 6.45741,10.64211 7.604,13.125 1.14659,2.48289 2.44727,4.79559 2.89044,5.13934 0.44315,0.34375 2.84383,4.81677 5.33485,9.94005 2.49102,5.12327 4.95392,9.62327 5.47313,10 1.01734,0.73815 4.99069,6.6264 7.21014,10.68495 0.75193,1.375 6.879577,12.34375 13.616977,24.375 6.73741,12.03125 16.48217,29.46875 21.65503,38.75 5.17287,9.28125 11.00809,19.22635 12.96717,22.10022 1.95907,2.87386 3.56196,5.78681 3.56196,6.47321 0,0.68639 0.78431,2.0323 1.74291,2.9909 0.9586,0.9586 3.00088,4.5144 4.5384,7.90179 1.53751,3.38738 8.35947,15.44013 15.15989,26.78388 6.80041,11.34375 12.91439,21.60937 13.5866,22.8125 0.67221,1.20312 1.77123,3.17187 2.44226,4.375 0.67104,1.20312 4.44455,7.53125 8.38559,14.0625 7.99904,13.25633 10.32942,17.42862 15.48265,27.71988 1.95397,3.90218 4.31336,7.55843 5.24309,8.125 0.92973,0.56657 2.47435,2.96833 3.4325,5.33725 0.95813,2.36893 3.374,6.1658 5.36858,8.4375 2.60724,2.96949 3.08757,4.13037 1.70895,4.13037 -1.05465,0 -2.0973,1.22156 -2.31698,2.71458 -0.47045,3.19717 -2.09495,3.92331 -4.99674,2.23348 z m -6.32586,-10.2678 c 0.36656,-1.05953 -7.03669,-16.20616 -8.39724,-17.18026 -0.48011,-0.34375 -3.64194,-5.96875 -7.02628,-12.5 -3.38432,-6.53125 -6.43457,-12.15625 -6.77832,-12.5 -0.34375,-0.34375 -1.83441,-2.875 -3.31259,-5.625 -2.88021,-5.35836 -5.0384,-9.20679 -12.15952,-21.68259 -2.49034,-4.36291 -4.52789,-8.44103 -4.52789,-9.0625 0,-1.73514 -1.01596,-1.36395 -3.75,1.37009 -1.375,1.375 -3.68061,2.5 -5.12359,2.5 -1.44297,0 -4.3961,0.77088 -6.5625,1.71306 -2.1664,0.94218 -6.42336,2.46943 -9.45991,3.39388 -3.17302,0.96601 -9.19526,4.75067 -14.1606,8.89922 -4.75179,3.97013 -10.14234,8.12527 -11.979,9.23366 -6.08024,3.66932 -28.364107,38.88138 -29.288757,46.28088 l -0.643,5.1457 9.49537,0.22016 c 5.222447,0.12113 9.613657,0.33677 9.758237,0.4793 0.79341,0.78215 103.64256,0.10363 103.91559,-0.6856 z m -88.79934,-8.60216 c -1.90988,-1.42319 -4.34083,-4.26678 -5.40213,-6.31911 -1.7228,-3.33152 -1.72836,-4.15504 -0.0519,-7.68274 1.03277,-2.17319 3.56221,-5.56299 5.62096,-7.53288 3.05813,-2.92613 4.84699,-3.58321 9.77435,-3.59027 3.31714,-0.005 7.54973,0.40151 9.40574,0.90282 2.88911,0.78034 3.7104,0.35923 5.70904,-2.92727 3.73537,-6.14232 11.24282,-11.42865 16.23057,-11.42865 6.10719,0 14.27301,4.77624 13.80119,8.0724 -0.3992,2.78895 -5.10525,4.15821 -7.62167,2.2176 -4.40657,-3.39826 -6.22284,-2.87651 -12.30589,3.53502 -3.33455,3.51463 -6.06282,7.05067 -6.06282,7.85788 0,2.45066 6.19067,8.3171 8.77678,8.3171 3.2428,0 4.75521,5.75373 2.18737,8.32156 -1.64662,1.64663 -2.38073,1.64239 -6.40009,-0.037 -2.49707,-1.04333 -5.97733,-3.33419 -7.7339,-5.09076 -3.85607,-3.85606 -4.5398,-3.91521 -7.4962,-0.64843 -1.26695,1.39995 -4.86976,3.76187 -8.00624,5.2487 -3.13649,1.48684 -5.98396,2.8537 -6.32771,3.03749 -0.34375,0.18379 -2.18763,-0.83027 -4.0975,-2.25345 z m 13.00214,-13.8906 c 0.9819,-1.81515 0.65218,-2.1875 -1.93697,-2.1875 -2.77417,0 -8.21767,4.15821 -8.21767,6.27736 0,3.36319 7.82855,0.21016 10.15464,-4.08986 z m 319.85126,22.19704 c -1.37825,-2.23004 -2.5059,-4.42403 -2.5059,-4.87552 0,-1.9359 7.57311,-3.38364 20.50678,-3.92027 7.62752,-0.31648 19.72293,-1.28154 26.8787,-2.14457 l 13.01048,-1.56918 1.98951,-5.625 c 1.09424,-3.09375 2.91064,-6.31571 4.03644,-7.1599 1.1258,-0.8442 3.24703,-3.8374 4.71384,-6.65154 1.46682,-2.81415 4.91707,-8.16254 7.66724,-11.88529 2.75016,-3.72276 7.3183,-11.69832 10.15141,-17.72346 6.39349,-13.59691 16.83762,-32.28964 20.66634,-36.98822 1.5836,-1.94337 2.87926,-4.30184 2.87926,-5.24105 0,-2.07745 4.45985,-9.97763 8.26612,-14.6426 1.53344,-1.87938 4.09775,-6.09813 5.69848,-9.375 1.60072,-3.27687 3.56394,-6.52044 4.36269,-7.20794 0.79876,-0.6875 2.60696,-3.45449 4.01821,-6.14886 1.41126,-2.69437 3.00772,-5.22562 3.54771,-5.625 1.13438,-0.83899 5.28083,-8.37373 11.21461,-20.37863 2.28425,-4.62136 7.17038,-13.07952 10.85805,-18.7959 3.68769,-5.71637 8.99948,-14.72431 11.80399,-20.01762 2.80451,-5.29333 5.70196,-10.33518 6.4388,-11.20412 2.82334,-3.32953 14.99649,-22.35755 16.9877,-26.5537 1.14866,-2.42065 2.4808,-4.40117 2.96028,-4.40117 0.47948,0 3.08726,-4.3264 5.79507,-9.61424 2.70781,-5.28782 5.76704,-10.53879 6.79829,-11.66881 1.03125,-1.13001 2.71875,-3.33878 3.75,-4.90836 1.03125,-1.56958 3.54651,-5.17799 5.58947,-8.01869 2.04297,-2.8407 4.57422,-6.66024 5.625,-8.48788 3.22198,-5.60397 24.65317,-36.97638 31.74239,-46.46663 3.68139,-4.92822 9.60833,-14.50074 13.17098,-21.27229 3.56265,-6.77154 7.23901,-13.52154 8.1697,-15 0.93067,-1.47845 2.10198,-4.05489 2.6029,-5.72541 0.5009,-1.67053 3.65322,-6.52707 7.00515,-10.79232 3.35192,-4.26525 6.09441,-8.38282 6.09441,-9.15018 0,-0.76735 0.5957,-1.39519 1.32378,-1.39519 0.72807,0 1.00015,-0.52364 0.60461,-1.16363 -0.39555,-0.64 -0.14096,-1.52098 0.56574,-1.95774 3.07495,-1.90042 13.63105,-19.87485 24.38677,-41.52471 3.1481,-6.33659 6.2929,-11.87283 6.9886,-12.30276 0.6956,-0.42992 2.9309,-4.52669 4.9674,-9.10392 2.0364,-4.57723 4.362,-9.44724 5.1679,-10.82224 0.8059,-1.375 2.8645,-5.03125 4.5747,-8.125 1.7102,-3.09375 4.6168,-7.59375 6.4591,-10 6.8343,-8.92631 6.8373,-8.60699 -0.202,-22.09812 -3.5232,-6.75228 -8.1994,-15.08938 -10.3916,-18.52688 -2.1923,-3.4375 -5.4955,-8.62856 -7.3405,-11.5357 -1.845,-2.90714 -3.3545,-6.09906 -3.3545,-7.09319 0,-1.90558 -15.8137,-33.075456 -20.81802,-41.033766 -1.61259,-2.56447 -2.93198,-5.13829 -2.93198,-5.7196 0,-0.58133 -1.40625,-2.37805 -3.125,-3.99274 -1.71875,-1.61469 -3.125,-3.463 -3.125,-4.10736 0,-0.64438 -3.65625,-6.4523 -8.125,-12.90652 -4.46875,-6.45422 -8.125,-12.16713 -8.125,-12.69536 0,-0.52824 -1.53819,-3.20037 -3.4182,-5.9381 -1.88001,-2.73771 -4.27064,-6.38391 -5.3125,-8.10266 -1.04186,-1.71875 -3.0193,-4.96695 -4.3943,-7.21823 -1.63686,-2.68002 -3.36314,-4.00676 -5,-3.84276 -1.375,0.13776 -5.59375,-0.23544 -9.375,-0.82932 -9.58079,-1.50479 -14.18459,-1.60818 -105.625,-2.37221 -44.6875,-0.37339 -83.78125,-1.01007 -86.875,-1.41483 -3.09375,-0.40478 -14.0625,-0.57149 -24.375,-0.37048 -19.50806,0.38027 -24.1316,0.36345 -48.31554,-0.17573 -8.01103,-0.1786 -15.32353,0.14983 -16.25,0.72987 -0.92645,0.58004 -28.12196,1.2234 -60.43446,1.4297 -32.3125,0.2063 -61.28125,0.47071 -64.375,0.58758 -3.09375,0.11687 -18,-0.21682 -33.125,-0.7415 -34.41366,-1.19382 -31.55608,-1.27959 -33.85182,1.01617 -1.07347,1.07345 -3.17719,1.96046 -4.67497,1.97113 -2.98826,0.0213 -12.92282,10.07557 -25.22321,25.52721 -2.0625,2.59089 -5.84434,7.04345 -8.40409,9.89456 -2.55974,2.85112 -4.66911,5.88696 -4.6875,6.74634 -0.0184,0.85937 -0.76092,1.5625 -1.6501,1.5625 -0.88917,0 -2.47491,2.35384 -3.52385,5.23074 -2.52944,6.93737 -4.85327,8.31775 -9.94402,5.90681 -3.45333,-1.63546 -4.04184,-2.62436 -4.46042,-7.49485 -0.43947,-5.11371 -0.0512,-6.05935 4.38272,-10.67374 2.67571,-2.78461 5.25853,-6.30308 5.73961,-7.81885 0.48109,-1.51575 3.64174,-5.56699 7.02367,-9.00275 3.38194,-3.43575 6.14898,-6.89011 6.14898,-7.67635 0,-1.82187 16.13726,-17.01676 19.05594,-17.94311 1.20673,-0.383 2.19406,-1.19234 2.19406,-1.79853 0,-1.58578 7.95377,-7.4246804 11.42817,-8.3894404 1.62075,-0.45005 47.67825,-0.67593 102.34999,-0.50194 75.42119,0.24002 100.30109,-0.048 103.125,-1.19383 4.58816,-1.86169997 69.5965,-2.47069997 101.84684,-0.95410997 12.03125,0.56578997 51.96875,1.30021997 88.75,1.63208997 36.78125,0.33186 68.5625,0.89079 70.625,1.24205 2.0625,0.35126 9.375,0.95162 16.25,1.33413 12.83185,0.71394 23.125,4.18002 23.125,7.7870304 0,0.86056 0.48036,1.56465 1.06747,1.56465 1.68463,0 7.6126,5.90326 6.77204,6.74381 -0.4159,0.4159 -0.18896,0.75619 0.5043,0.75619 0.69325,0 1.89564,2.10938 2.67197,4.6875 0.77632,2.57813 3.39661,7.76229 5.82286,11.52035 2.42625,3.75806 4.41136,7.45689 4.41136,8.2196 0,0.76273 1.40625,2.70786 3.125,4.32255 1.71875,1.61469 3.125,3.64959 3.125,4.52201 0,0.87243 0.98437,2.32125 2.1875,3.21961 1.2031,0.89836 3.5937,4.42947 5.3125,7.84692 1.7187,3.41744 4.3737,8.05806 5.8998,10.3125 1.5262,2.25442 2.4633,4.09896 2.0825,4.09896 -0.3808,0 1.0424,2.19033 3.1627,4.86738 2.1202,2.67706 3.8554,5.34893 3.856,5.9375 5e-4,0.58857 1.8286,3.14202 4.0625,5.67436 8.303,9.412466 9.1023,10.490016 10.9573,14.770756 1.9763,4.56088 6.7497,13.32781 11.9103,21.875 3.4495,5.71306 3.3164,5.41915 6.2269,13.75 1.8652,5.33889 6.0153,15.12761 9.2743,21.875 1.4391,2.97949 -0.6269,8.40793 -5.8607,15.3988 -8.1861,10.93421 -13.6562,19.80186 -18.3835,29.80143 -2.4897,5.26637 -5.5954,10.93392 -6.9017,12.59453 -1.3062,1.66063 -3.73,5.50803 -5.3862,8.54978 -1.6562,3.04175 -4.0832,7.49879 -5.3932,9.90451 -1.3101,2.40574 -2.6868,4.65574 -3.0594,5 -0.3726,0.34427 -1.447,3.01657 -2.3876,5.93845 -0.9406,2.92187 -2.0547,5.3125 -2.4758,5.3125 -0.4211,0 -1.8726,2.10937 -3.2255,4.6875 -1.3529,2.57812 -2.7602,4.96875 -3.1273,5.3125 -0.3672,0.34375 -2.0601,3.33 -3.762,6.63611 -1.7019,3.30611 -4.82344,7.80611 -6.9367,10 -5.80511,6.0266 -9.18675,11.39773 -11.02819,17.51636 -0.91464,3.03914 -3.35318,7.98874 -5.419,10.99912 -2.0658,3.01037 -5.75335,9.41091 -8.19455,14.22341 -2.4412,4.8125 -5.89033,10.68741 -7.66475,13.05535 -1.77441,2.36794 -3.22621,4.81147 -3.22621,5.43007 0,0.61859 -2.53125,4.45309 -5.625,8.5211 -3.09375,4.06802 -5.625,7.85299 -5.625,8.41106 0,0.55805 -3.375,5.62213 -7.5,11.25352 -4.125,5.63139 -7.5,10.76556 -7.5,11.40929 0,0.64371 -0.73397,1.62021 -1.63105,2.17 -0.89709,0.54979 -2.91171,3.10899 -4.47695,5.68711 -1.56525,2.57813 -3.23461,4.6875 -3.7097,4.6875 -0.47509,0 -1.9707,2.10938 -3.32357,4.6875 -1.35289,2.57813 -2.76436,4.96875 -3.13659,5.3125 -1.72016,1.5885 -8.72214,11.85819 -8.72214,12.79261 0,0.57757 -2.8125,5.05497 -6.25,9.94979 -3.4375,4.89481 -6.25,9.3977 -6.25,10.0064 0,0.60869 -0.59095,1.7861 -1.31321,2.61646 -3.38283,3.88906 -17.43679,26.38624 -17.43679,27.9123 0,0.94734 -0.5625,1.72244 -1.25,1.72244 -0.6875,0 -1.29421,0.70312 -1.34825,1.5625 -0.054,0.85937 -1.72338,4.09375 -3.70963,7.1875 -1.98625,3.09375 -5.09627,8.39754 -6.91116,11.7862 -1.81489,3.38866 -4.17874,7.04014 -5.253,8.1144 -1.07426,1.07426 -4.42394,7.30172 -7.44373,13.8388 -5.65399,12.23944 -10.07233,19.5644 -15.08611,25.0106 -1.58227,1.71875 -3.19946,4.67187 -3.59375,6.5625 -0.39427,1.89062 -1.14082,3.4375 -1.65897,3.4375 -0.51815,0 -1.61383,1.6217 -2.43484,3.60378 -0.821,1.98207 -2.78282,4.72549 -4.3596,6.0965 -1.57678,1.37098 -4.44472,5.79616 -6.3732,9.83372 -1.92847,4.03755 -4.25052,8.2256 -5.16012,9.30679 -0.9096,1.08118 -3.97998,6.42493 -6.82306,11.875 -2.84309,5.45006 -5.87948,10.75296 -6.74754,11.78421 -0.86806,1.03125 -3.38704,5.8125 -5.59773,10.625 -2.21068,4.8125 -4.5056,9.59375 -5.09981,10.625 -0.59421,1.03125 -1.9915,3.67725 -3.10509,5.88 -1.11358,2.20276 -2.81663,4.66226 -3.78455,5.46556 -0.96792,0.8033 -1.75986,1.97819 -1.75986,2.61086 0,0.63268 -2.1286,4.07943 -4.73023,7.65945 -6.73163,9.26321 -9.70169,16.467 -8.22872,19.95854 1.70976,4.05283 0.73921,7.86151 -2.41727,9.48608 -3.42398,1.76223 -30.90642,4.08527 -53.68038,4.5375 l -17.18161,0.34117 -2.50589,-4.05462 z m -66.2559,0.23869 c -2.2764,-1.14517 -3.125,-2.57772 -3.125,-5.27542 0,-3.55115 0.31377,-3.75949 7.63459,-5.06927 4.19902,-0.75126 10.31675,-2.86502 13.59493,-4.69724 5.93662,-3.31802 13.14548,-4.4594 13.14548,-2.0813 0,2.4382 1.91546,1.17351 4.93341,-3.25729 1.75965,-2.58342 3.16594,-6.59592 3.3116,-9.44889 0.13925,-2.72727 0.56489,-5.27038 0.94586,-5.65137 1.67368,-1.67366 6.85581,1.0989 8.22294,4.39947 2.25499,5.44403 0.92415,9.20058 -7.71268,21.77058 -1.97692,2.8772 -3.21228,2.75944 -5.90237,-0.56269 -2.05517,-2.53802 -2.38357,-2.59357 -4.25712,-0.72001 -3.41037,3.41036 -15.96824,10.10342 -19.474,10.37921 -1.81817,0.14303 -4.40529,0.60345 -5.74919,1.02316 -1.3439,0.41972 -3.8497,0.0557 -5.56845,-0.80894 z m 72.1875,-17.95669 c -4.91441,-1.34761 -0.0878,-6.09157 7.1875,-7.06422 2.75,-0.36766 9.78125,-1.31717 15.625,-2.11001 5.84375,-0.79285 12.875,-1.68711 15.625,-1.98726 2.75,-0.30015 5.19874,-1.1328 5.44165,-1.85035 0.24291,-0.71754 1.78979,-2.75926 3.4375,-4.53719 1.64771,-1.77791 2.99585,-3.907 2.99585,-4.73131 0,-0.8243 1.125,-2.51684 2.5,-3.7612 1.375,-1.24436 2.5,-2.75125 2.5,-3.34865 0,-0.5974 2.95312,-4.96455 6.5625,-9.70479 3.60937,-4.74022 8.22419,-11.89863 10.25514,-15.90757 2.03096,-4.00895 4.3616,-8.13274 5.17921,-9.16399 0.81763,-1.03125 3.84641,-6.375 6.73064,-11.875 2.88424,-5.5 6.78696,-11.96875 8.67271,-14.375 8.89601,-11.35144 23.89431,-36.10477 32.94636,-54.375 1.3625,-2.75 4.3081,-7.8125 6.54579,-11.25 2.2377,-3.4375 5.42433,-8.78125 7.08139,-11.875 1.65707,-3.09375 4.95651,-8.7138 7.33206,-12.48901 4.691,-7.45488 8.22079,-13.75323 12.61584,-22.51099 3.63796,-7.24917 13.57265,-24.18822 14.66241,-25 0.46145,-0.34375 4.41929,-5.96875 8.79517,-12.5 6.8853,-10.27669 24.43989,-34.422 26.35517,-36.25 1.60677,-1.53356 7.51561,-9.91544 7.51561,-10.66114 0,-0.45536 1.0427,-2.32102 2.31712,-4.1459 1.27442,-1.82487 5.7195,-9.86332 9.87798,-17.86321 4.15847,-7.99989 8.60014,-16.1314 9.87037,-18.07002 1.27024,-1.93863 2.18858,-3.67885 2.04077,-3.86715 -0.6237,-0.79451 4.55938,-8.80013 12.14376,-18.75689 12.9422,-16.99051 26.99496,-37.3766 30.93812,-44.8814 1.41003,-2.6836 8.3144,-16.51288 15.34308,-30.73172 7.0971,-14.35735 14.3777,-27.38373 16.3741,-29.29636 1.9771,-1.89416 3.5947,-4.07164 3.5947,-4.83882 0,-0.76719 1.5852,-3.61508 3.5228,-6.32864 5.2941,-7.41464 7.2943,-14.69851 5.2167,-18.99698 -0.9137,-1.89022 -1.8698,-4.72492 -2.1248,-6.29932 -0.255,-1.5744 -1.4976,-4.66815 -2.7613,-6.875 -8.7346,-15.25356 -11.341,-20.07306 -15.3517,-28.38745 -2.4873,-5.15625 -5.83963,-10.76781 -7.44955,-12.47014 -1.60994,-1.70232 -4.10661,-5.35857 -5.54818,-8.125 -5.91048,-11.34245 -13.42636,-23.684016 -18.51306,-30.399666 -2.97036,-3.9216 -8.39142,-12.47394 -12.0468,-19.00519 -3.65536,-6.53125 -7.1241,-12.06823 -7.7083,-12.30439 -0.58419,-0.23617 -2.46071,-3.1893 -4.17005,-6.5625 -1.70932,-3.37321 -3.5953,-6.13311 -4.19102,-6.13311 -0.59574,0 -1.37735,-1.125 -1.73693,-2.5 -0.47706,-1.82431 -1.78337,-2.54311 -4.83329,-2.65952 -2.29873,-0.0878 -5.30452,-0.32457 -6.67952,-0.52628 -25.5393,-3.74657 -34.18321,-4.37565 -61.875,-4.50305 -16.84375,-0.0775 -31.16926,-0.45678 -31.83446,-0.84287 -0.6652,-0.38609 -2.63395,-0.73378 -4.375,-0.77263 -1.74105,-0.0389 -3.88529,-0.536 -4.76498,-1.10475 -1.65695,-1.07129 -90.51647,-0.10762 -97.15056,1.05364 -3.88671,0.68031 -23.18228,0.76682 -81.875,0.36706 -18.90625,-0.12877 -44.96486,0.16164 -57.90804,0.64536 -12.94317,0.48372 -44.3408,0.94857 -69.7725,1.03299 l -46.23946,0.1535 -15.01346,15.14078 c -8.25742,8.32742 -17.04732,17.67202 -19.53311,20.76577 -7.59373,9.45091 -12.05502,13.72275 -14.34593,13.73669 -1.20313,0.007 -2.1875,-0.50319 -2.1875,-1.13445 0,-0.63128 -0.29665,-1.92083 -0.65921,-2.86566 -0.36509,-0.95141 1.72641,-4.26288 4.6875,-7.42174 6.18947,-6.6029 9.72171,-10.84583 9.72171,-11.67774 0,-0.63123 11.28835,-11.7962 17.07371,-16.8871 2.71863,-2.39229 12.05047,-13.17701 15.04515,-17.38752 0.20049,-0.28189 29.83426,-0.63024 65.85283,-0.77412 36.01856,-0.14387 66.03812,-0.6014 66.71013,-1.01672 1.60713,-0.99325 43.968,-1.1246 84.69318,-0.2626 18.31305,0.38762 42.04891,0.0895 54.375,-0.68285 37.16846,-2.32912 95.8074,-1.84235 100.13329,0.83119 0.49701,0.30716 11.21721,0.57937 23.82268,0.60489 12.60547,0.0255 28.82528,0.61784 36.04403,1.31626 7.21875,0.69842 20.71467,1.94571 29.99095,2.77177 l 16.86595,1.50192 4.38405,8.7696 c 2.41122,4.82328 5.7903,10.71548 7.50905,13.09379 3.24808,4.49452 3.73944,5.31422 9.33039,15.56529 1.86158,3.41325 5.00693,8.25416 6.98968,10.75758 1.98274,2.50341 4.18301,5.89826 4.88948,7.5441 1.37694,3.20783 1.39,3.22912 10.35295,16.882016 3.26562,4.97439 5.9375,9.40611 5.9375,9.84828 0,0.44216 1.5236,2.80143 3.3857,5.24282 3.3267,4.36151 7.4844,12.09239 22.9006,42.5818 4.2583,8.42188 8.225,15.3125 8.815,15.3125 0.5899,0 1.0019,1.88038 0.9155,4.1786 -0.086,2.29823 0.2191,4.78733 0.6789,5.53132 1.1253,1.82077 -1.695,7.79008 -3.6806,7.79008 -0.8709,0 -3.0668,2.95312 -4.8796,6.5625 -5.2576,10.46818 -6.5835,12.58644 -10.3669,16.5625 -3.4696,3.64626 -6.9569,10.23297 -11.1135,20.99066 -1.1177,2.89264 -3.3535,7.04994 -4.9686,9.23844 -1.61508,2.1885 -2.9365,4.38541 -2.9365,4.88201 0,0.4966 -1.43488,2.78413 -3.18861,5.0834 -1.75374,2.29927 -2.84694,4.18049 -2.42934,4.18049 0.41761,0 -0.0448,1.54687 -1.02759,3.4375 -0.98279,1.89062 -2.72196,5.40625 -3.86482,7.8125 -2.24907,4.73526 -7.41258,13.60814 -9.09287,15.625 -0.57277,0.6875 -2.11736,2.9375 -3.43242,5 -1.31505,2.0625 -4.50303,6.28125 -7.08438,9.375 -2.58135,3.09375 -6.84472,9.0352 -9.47417,13.20321 -8.66324,13.73239 -15.21608,23.6166 -18.14498,27.36964 -3.97892,5.09854 -5.84977,8.93049 -7.43641,15.23164 -0.74565,2.96122 -2.69965,6.94475 -4.34222,8.85227 -1.64258,1.90754 -3.62728,5.43699 -4.41045,7.84324 -0.78319,2.40625 -3.28164,6.45078 -5.55214,8.98782 -2.2705,2.53707 -4.95341,6.19332 -5.96203,8.125 -1.00862,1.9317 -4.33716,6.11223 -7.39676,9.29008 -3.05959,3.17784 -6.87315,8.67705 -8.47457,12.22045 -1.60142,3.5434 -4.70934,7.81371 -6.9065,9.48956 -2.19717,1.67586 -5.04333,5.59643 -6.32479,8.71236 -1.28148,3.11595 -2.93503,5.66747 -3.67456,5.67004 -3.40624,0.0125 -7.06748,6.05466 -13.59404,22.43664 -1.76543,4.43132 -4.30085,9.21825 -5.63428,10.63761 -1.33341,1.41936 -3.79367,5.66874 -5.46722,9.44305 -1.67355,3.77431 -4.14619,7.85489 -5.49473,9.06795 -1.34855,1.21306 -3.18446,4.42525 -4.07981,7.1382 -0.89536,2.71295 -3.11659,6.5017 -4.93607,8.41944 -4.58811,4.83589 -11.32424,15.76069 -11.32424,18.36591 0,2.83913 -2.10555,6.74393 -6.14842,11.40241 -1.80499,2.07984 -5.19243,7.70484 -7.52764,12.5 -2.33521,4.79517 -5.20348,9.84348 -6.37391,11.21848 -3.56924,4.19304 -10.78102,14.93314 -13.07119,19.46619 -1.19033,2.3561 -3.45231,5.69006 -5.02663,7.40881 -1.5743,1.71875 -4.7874,6.78125 -7.14021,11.25 -2.35281,4.46875 -5.83016,10.58109 -7.72744,13.58298 -1.89727,3.00188 -5.34992,9.24451 -7.67253,13.87248 -2.32263,4.62798 -5.08674,9.13139 -6.14249,10.00758 -1.05575,0.87618 -1.91954,2.36795 -1.91954,3.31501 0,0.94707 -0.57642,1.72195 -1.28094,1.72195 -0.70451,0 -1.83787,1.26562 -2.51856,2.8125 -0.68069,1.54687 -2.33928,4.5 -3.68574,6.5625 -1.34646,2.0625 -3.83528,6.33593 -5.5307,9.49649 l -3.08259,5.74648 -11.01323,0.90422 c -15.67729,1.28712 -33.13897,1.84683 -35.70074,1.14435 z m -43.36282,-27.87383 c -2.03873,-1.26654 -1.9296,-4.45775 0.38647,-11.3019 2.00055,-5.91175 2.1127,-7.64321 0.80704,-12.46026 -1.54543,-5.70155 -8.54433,-13.78055 -11.93822,-13.78055 -2.20011,0 -4.74387,-4.61841 -3.84046,-6.97267 1.10633,-2.88304 9.57304,-2.19093 14.53283,1.18797 6.26328,4.26695 12.27641,16.07946 12.54455,24.64322 0.23162,7.39788 -2.51858,15.3758 -5.72455,16.60604 -1.10044,0.42228 -1.67174,1.30022 -1.26955,1.95097 0.75272,1.21792 -3.58099,1.31817 -5.49812,0.12718 z m 28.42832,-7.41385 c -6.09464,-1.27117 -8.503,-3.43195 -8.503,-7.62886 0,-5.77899 2.47814,-6.67688 18.73631,-6.78869 13.892,-0.0955 15.03225,-0.29296 18.04633,-3.12454 1.76955,-1.66241 3.21736,-3.96511 3.21736,-5.11712 0,-1.152 1.55931,-4.28833 3.46514,-6.9696 1.90582,-2.68128 5.37282,-8.5313 7.70445,-13.00005 2.33161,-4.46875 4.99105,-8.57483 5.90986,-9.12461 0.9188,-0.54979 1.67055,-1.73955 1.67055,-2.64393 0,-0.90437 1.2342,-3.21335 2.74267,-5.13105 1.50847,-1.91771 5.44618,-7.9379 8.75048,-13.37821 7.56751,-12.45943 13.51987,-19.67066 16.2607,-19.69966 2.62049,-0.0278 6.53567,7.77933 5.63277,11.23202 -0.37398,1.43009 -0.0355,2.49799 0.7929,2.50141 0.79502,0.004 -0.52327,1.85593 -2.92952,4.11698 -2.40625,2.26106 -6.34375,7.35675 -8.75,11.32376 -2.40625,3.96701 -6.81891,10.3281 -9.80591,14.13574 -2.987,3.80764 -7.63203,11.5765 -10.32228,17.26412 -2.69026,5.68764 -5.88527,11.67704 -7.10005,13.30979 -1.21477,1.63275 -2.39086,4.65614 -2.61354,6.71864 -0.45997,4.26037 -3.80327,10.54375 -5.74023,10.78814 -0.71114,0.0897 -4.38674,0.256 -8.16799,0.36948 -3.78125,0.1135 -10.8125,0.56723 -15.625,1.0083 -4.8125,0.44108 -10.8299,0.36815 -13.372,-0.16206 z m -53.98614,-43.64934 c -0.50292,-0.81373 -0.63772,-1.47952 -0.29957,-1.47952 0.33816,0 -1.31612,-2.04739 -3.67614,-4.54976 -3.98047,-4.22053 -4.1327,-4.66992 -2.10356,-6.21024 1.20307,-0.91328 3.07374,-1.67838 4.15702,-1.70025 2.16242,-0.0436 6.27509,3.99902 8.54317,8.39775 1.43583,2.78468 1.2641,2.99535 -2.70028,3.3125 -0.85937,0.0688 -1.88734,0.93141 -2.28437,1.91702 -0.52938,1.31418 -0.9657,1.39751 -1.63627,0.3125 z M 115.09312,496.02119 c -2.55388,-2.55388 0.101,-7.01263 10.55608,-17.72854 1.07397,-1.10077 4.06764,-4.64005 6.6526,-7.86509 4.88822,-6.0986 7.20457,-6.58722 9.64148,-2.03381 1.36398,2.54861 -1.33494,7.12206 -8.33221,14.11934 -1.67175,1.67175 -3.03954,3.55081 -3.03954,4.17571 0,1.25744 11.7872,-0.5531 15.08254,-2.31672 2.8196,-1.509 7.07556,-0.14825 7.76344,2.48221 0.98853,3.78015 -1.39878,6.31197 -5.95172,6.31197 -2.32733,0 -5.53376,0.49166 -7.12538,1.09257 -3.62579,1.36892 -24.20428,2.80537 -25.24729,1.76236 z m 45.11015,-7.89009 c -6.43607,-5.66524 -7.79921,-10.43779 -3.38174,-11.83984 1.375,-0.43641 2.5,-1.36996 2.5,-2.07458 0,-0.7046 -1.125,-2.71131 -2.5,-4.45933 -1.375,-1.74803 -2.5,-3.94613 -2.5,-4.88467 0,-0.93853 -0.5625,-1.70642 -1.25,-1.70642 -0.6875,0 -1.25,-1.6219 -1.25,-3.60421 0,-3.6761 3.19842,-5.78177 6.07854,-4.00177 1.38192,0.85409 7.12926,10.39577 8.39283,13.93373 0.38359,1.07401 2.48758,2.48026 4.67553,3.125 l 3.9781,1.17225 -0.38404,8.125 c -0.42284,8.94559 -0.68474,9.47009 -5.29672,10.60762 -2.54931,0.62878 -4.34844,-0.2433 -9.0625,-4.39278 z m 446.2016,-183.29818 c -0.45834,-0.45832 -0.83334,-2.11263 -0.83334,-3.67622 0,-1.56359 -0.5625,-3.19054 -1.25,-3.61544 -1.50408,-0.92956 -1.68674,-6.875 -0.21123,-6.875 0.57133,0 1.82639,-1.54688 2.78904,-3.4375 1.91598,-3.76297 7.64528,-13.06594 8.66049,-14.0625 0.35019,-0.34375 2.26448,-3.88219 4.25399,-7.86319 1.9895,-3.98101 4.8546,-8.21147 6.36689,-9.40104 1.51228,-1.18956 3.71309,-5.06363 4.89069,-8.60906 1.17761,-3.54541 3.65625,-8.62337 5.50812,-11.28435 3.98912,-5.73207 4.67982,-6.9169 13.60025,-23.32989 3.77765,-6.95061 7.37993,-13.17185 8.0051,-13.82497 0.62516,-0.65312 1.13666,-1.94971 1.13666,-2.8813 0,-0.93159 2.84315,-6.006 6.3181,-11.27649 3.47496,-5.27047 8.01111,-12.97389 10.08035,-17.1187 2.06924,-4.14481 6.23885,-11.75476 9.26581,-16.91101 3.02695,-5.15625 5.52205,-10.29784 5.54465,-11.42574 0.0426,-2.13036 -0.94941,-2.3945 -17.45891,-4.64827 -9.18945,-1.2545 -24.98934,-5.01635 -26.875,-6.39876 -2.12063,-1.55468 -12.84394,-3.80662 -14.71231,-3.08965 -0.97208,0.37301 -2.97625,2.82906 -4.45373,5.45786 -1.47747,2.62881 -3.56301,5.50725 -4.63451,6.39652 -1.07151,0.88928 -3.05605,4.04873 -4.41008,7.021 -1.35403,2.97229 -3.99806,7.23968 -5.87562,9.48309 -3.4549,4.12813 -5.50183,7.36398 -8.83586,13.9681 -1.01045,2.00154 -4.28198,7.21013 -7.27004,11.57465 -2.98806,4.36453 -5.43285,8.40813 -5.43285,8.9858 0,0.57766 -1.82229,3.52533 -4.04954,6.55035 -5.08811,6.91064 -6.62401,9.40315 -9.16601,14.87505 -2.38248,5.12849 -14.11729,25.31118 -20.1098,34.58684 -2.29606,3.554 -4.17465,7.03549 -4.17465,7.73662 0,0.70114 -2.04196,5.10582 -4.53771,9.78817 -2.49574,4.68236 -6.72188,12.78165 -9.39142,17.99843 -5.35502,10.46475 -9.51221,13.98963 -13.04308,11.05925 -3.88422,-3.2236 -4.08605,-6.42161 -0.78182,-12.38707 1.72344,-3.11149 3.61063,-5.84474 4.19378,-6.0739 0.58314,-0.22918 1.06025,-1.50598 1.06025,-2.83735 0,-1.33136 1.3199,-4.51886 2.9331,-7.08333 1.6132,-2.56446 3.59184,-6.66981 4.39697,-9.123 0.80513,-2.45318 2.32837,-5.54693 3.38499,-6.875 1.05661,-1.32806 4.15956,-6.49278 6.89545,-11.47716 2.73589,-4.98438 5.65838,-9.0629 6.49441,-9.06339 0.83604,-4.7e-4 1.60393,-1.45066 1.70643,-3.22262 0.1025,-1.77197 2.02129,-6.13094 4.264,-9.68661 2.24271,-3.55569 5.88071,-9.83988 8.08445,-13.96488 7.76181,-14.52875 8.72787,-16.19901 10.10372,-17.46866 2.37059,-2.1876 8.7385,-12.20759 12.33314,-19.40634 1.88814,-3.78125 4.78146,-8.67235 6.42961,-10.86911 1.64814,-2.19677 5.76015,-9.3248 9.13778,-15.8401 3.37764,-6.5153 7.30999,-13.01483 8.73855,-14.44339 1.42857,-1.42857 2.61794,-3.30053 2.64304,-4.1599 0.0251,-0.85938 2.4914,-3.11114 5.48067,-5.00391 l 5.43503,-3.44142 7.95682,2.41732 c 4.37626,1.32952 9.64434,2.70791 11.70684,3.0631 2.0625,0.35517 6.84375,1.56561 10.625,2.68985 3.78125,1.12424 8.28125,2.32104 10,2.65954 15.4738,3.04752 23.0167,4.15232 29.73127,4.35467 4.32095,0.13021 8.82095,0.95271 10,1.82776 2.01047,1.49212 1.99565,1.70075 -0.23845,3.35638 -1.5832,1.17327 -2.1465,2.66655 -1.67952,4.45229 0.38646,1.47781 0.21954,2.68692 -0.37094,2.68692 -0.59047,0 -0.84726,1.7883 -0.57065,3.97401 0.40518,3.2015 -0.27726,4.72018 -3.5106,7.8125 -2.20745,2.11117 -5.07717,6.22912 -6.37716,9.15099 -1.3,2.92188 -2.79053,5.3125 -3.31229,5.3125 -0.52175,0 -2.22239,2.67188 -3.77919,5.9375 -1.5568,3.26563 -7.38985,13.53125 -12.96233,22.8125 -5.57248,9.28125 -11.43103,19.96875 -13.019,23.75 -1.58798,3.78125 -3.58065,7.4375 -4.42819,8.125 -0.84754,0.6875 -3.01263,4.34375 -4.81133,8.125 -1.79868,3.78125 -5.55172,10.8125 -8.34006,15.625 -2.78835,4.8125 -7.02712,12.50503 -9.41951,17.0945 -2.3924,4.58946 -4.95546,8.7188 -5.6957,9.1763 -0.74024,0.45749 -2.91084,4.01498 -4.82354,7.9055 -1.9127,3.89054 -5.25855,10.05158 -7.43522,13.69121 -2.17668,3.63963 -3.95759,7.3709 -3.95759,8.2917 0,0.92082 -1.26563,2.01339 -2.8125,2.42793 -3.60705,0.96666 -4.0964,0.9623 -5.10416,-0.0455 z"
     id="path4197"
     inkscape:connector-curvature="0" />
</svg>
