<svg xmlns="http://www.w3.org/2000/svg" xmlns:xlink="http://www.w3.org/1999/xlink" width="50" zoomAndPan="magnify" viewBox="0 0 37.5 37.499999" height="50" preserveAspectRatio="xMidYMid meet" version="1.0"><defs><g/><clipPath id="89d8f17977"><path d="M 0 0 L 37.007812 0 L 37.007812 37.007812 L 0 37.007812 Z M 0 0 " clip-rule="nonzero"/></clipPath></defs><g clip-path="url(#89d8f17977)"><path fill="#ffffff" d="M 0 0 L 37.007812 0 L 37.007812 37.007812 L 0 37.007812 Z M 0 0 " fill-opacity="1" fill-rule="nonzero"/><path fill="#1175da" d="M 0 0 L 37.007812 0 L 37.007812 37.007812 L 0 37.007812 Z M 0 0 " fill-opacity="1" fill-rule="nonzero"/></g><g fill="#ffffff" fill-opacity="1"><g transform="translate(11.721895, 28.891089)"><g><path d="M 10.296875 -20.796875 L 10.296875 0 L 5.90625 0 L 5.90625 -15.40625 L 5.71875 -15.40625 C 5.488281 -15.0625 5.007812 -14.71875 4.28125 -14.375 C 3.5625 -14.039062 2.628906 -13.875 1.484375 -13.875 L 1.484375 -17.359375 C 2.378906 -17.359375 3.160156 -17.554688 3.828125 -17.953125 C 4.492188 -18.347656 5.015625 -18.816406 5.390625 -19.359375 C 5.773438 -19.898438 5.972656 -20.378906 5.984375 -20.796875 Z M 10.296875 -20.796875 "/></g></g></g></svg>