<?xml version="1.0" encoding="utf-8"?>
<!-- Generator: Adobe Illustrator 27.8.1, SVG Export Plug-In . SVG Version: 6.00 Build 0)  -->
<svg version="1.1" id="Layer_1" xmlns="http://www.w3.org/2000/svg" xmlns:xlink="http://www.w3.org/1999/xlink" x="0px" y="0px"
	 viewBox="0 0 250 250" style="enable-background:new 0 0 250 250;" xml:space="preserve">
<style type="text/css">
	.st0{fill:#F2B72B;}
	.st1{fill:#FFFFFF;}
</style>
<rect id="Box_00000068660318265706316570000004815946541724281770_" y="0" class="st0" width="250" height="250"/>
<g>
	<g>
		<polygon class="st1" points="84.57,125.44 87.2,128.08 68.62,181.38 61.01,181.38 61.01,181.21 44.75,164.95 44.75,141.71 
			61.01,125.44 61.01,93.31 57.65,83.21 87.94,83.21 84.57,93.31 		"/>
		<polygon class="st1" points="205.25,108.45 201.89,118.55 201.89,176.89 197.4,181.38 188.03,181.38 162.6,108.45 		"/>
		<path class="st1" d="M184.42,195.12L146.27,85.73V64.98l4.49-10.1h-44.87l4.49,10.1v20.75L72.23,195.12H184.42z M103.88,187.18
			H83.4l26.97-77.34L103.88,187.18z M133.56,124.97h17.99l1.96,5.61h-17.99L133.56,124.97z M140.79,145.7h17.99l1.95,5.61h-17.99
			L140.79,145.7z M148.02,166.44h17.99l1.96,5.61h-17.99L148.02,166.44z"/>
	</g>
</g>
</svg>
