<svg width="303" height="97" viewBox="0 0 303 97" fill="none" xmlns="http://www.w3.org/2000/svg">
<path d="M303 0H79.3569V97H303V0Z" fill="white" fill-opacity="0.01"/>
<path d="M107.852 28.626C109.526 28.626 111.056 28.8272 112.441 29.2295L110.536 39.9211C109.151 39.5762 107.795 39.4037 106.467 39.4037C103.755 39.4037 101.619 40.3809 100.061 42.3353C98.5027 44.2322 97.2619 47.1637 96.3385 51.13V75.4446H85.2573V29.8331H94.8668L95.9056 38.8002C97.0022 35.5237 98.5893 33.0233 100.667 31.2989C102.745 29.5169 105.14 28.626 107.852 28.626ZM160.449 32.2473C157.506 33.282 153.091 33.7993 147.204 33.7993C150.032 35.0639 152.11 36.6446 153.437 38.5415C154.822 40.3809 155.515 42.7089 155.515 45.5255C155.515 48.5146 154.764 51.1587 153.264 53.458C151.821 55.7572 149.686 57.5679 146.858 58.89C144.087 60.212 140.826 60.8731 137.075 60.8731C134.997 60.8731 133.179 60.6431 131.621 60.1833C130.351 61.0455 129.716 62.1664 129.716 63.546C129.716 65.6728 131.563 66.7362 135.257 66.7362H142.269C145.617 66.7362 148.531 67.2822 151.013 68.3744C153.552 69.4665 155.515 71.0185 156.9 73.0304C158.285 74.9848 158.978 77.1978 158.978 79.6695C158.978 84.268 157.015 87.8319 153.091 90.3611C149.166 92.9477 143.51 94.2411 136.123 94.2411C130.813 94.2411 126.629 93.695 123.57 92.6028C120.569 91.5107 118.433 89.9299 117.164 87.8606C115.894 85.7913 115.259 83.1471 115.259 79.9282H125.215C125.215 81.5377 125.503 82.8022 126.08 83.722C126.715 84.6417 127.812 85.3314 129.37 85.7913C130.986 86.2511 133.295 86.4811 136.296 86.4811C140.509 86.4811 143.481 85.9637 145.213 84.9291C146.944 83.8944 147.81 82.3999 147.81 80.4455C147.81 78.7211 147.146 77.3702 145.819 76.3931C144.491 75.4734 142.558 75.0135 140.018 75.0135H133.093C128.764 75.0135 125.503 74.18 123.31 72.5131C121.117 70.8461 120.02 68.748 120.02 66.2188C120.02 64.6094 120.482 63.0574 121.406 61.5628C122.387 60.0683 123.714 58.8037 125.388 57.7691C122.618 56.332 120.569 54.5788 119.241 52.5095C117.972 50.3827 117.337 47.8535 117.337 44.922C117.337 41.6455 118.145 38.7714 119.761 36.2997C121.377 33.828 123.599 31.9312 126.427 30.6091C129.312 29.2295 132.602 28.5397 136.296 28.5397C141.144 28.6547 145.04 28.3098 147.983 27.5051C150.984 26.6429 154.216 25.292 157.679 23.4526L160.449 32.2473ZM136.469 36.0411C133.987 36.0411 132.025 36.8458 130.582 38.4553C129.197 40.0073 128.504 42.1054 128.504 44.7495C128.504 47.5086 129.226 49.6929 130.669 51.3024C132.112 52.9119 134.103 53.7166 136.642 53.7166C139.297 53.7166 141.317 52.9406 142.702 51.3886C144.087 49.7791 144.78 47.5374 144.78 44.6633C144.78 38.9152 142.01 36.0411 136.469 36.0411Z" fill="#F15E15"/>
<path d="M185.997 15.8649C193.673 15.8649 199.618 17.4456 203.831 20.6071C208.102 23.7686 210.237 28.5108 210.237 34.8338C210.237 41.4441 208.102 46.4163 203.831 49.7502C199.56 53.0267 193.875 54.6649 186.777 54.6649H179.764V75.4444H168.337V15.8649H185.997ZM185.911 46.1289C190.009 46.1289 193.096 45.2954 195.174 43.6284C197.252 41.904 198.291 38.9724 198.291 34.8338C198.291 27.7636 194.164 24.2284 185.911 24.2284H179.764V46.1289H185.911ZM250.824 63.3733C250.824 65.1552 251.084 66.4773 251.603 67.3395C252.18 68.1443 253.075 68.7766 254.287 69.2364L251.949 76.5653C249.352 76.3354 247.217 75.7031 245.543 74.6684C243.927 73.6337 242.686 72.053 241.821 69.9262C240.262 72.2255 238.3 73.9499 235.934 75.0995C233.625 76.1917 231.028 76.7377 228.142 76.7377C223.583 76.7377 219.976 75.4444 217.321 72.8578C214.666 70.2711 213.339 66.8797 213.339 62.6835C213.339 57.7401 215.128 53.9751 218.706 51.3884C222.342 48.7443 227.507 47.4222 234.202 47.4222H239.916V44.8355C239.916 41.904 239.223 39.8634 237.838 38.7138C236.511 37.5067 234.347 36.9031 231.345 36.9031C227.998 36.9031 223.958 37.7078 219.225 39.3173L216.628 31.816C222.342 29.6317 227.883 28.5396 233.25 28.5396C244.966 28.5396 250.824 33.7704 250.824 44.232V63.3733ZM231.086 68.7191C234.837 68.7191 237.781 66.8509 239.916 63.1146V53.8889H235.328C228.171 53.8889 224.593 56.533 224.593 61.8213C224.593 64.0056 225.141 65.7013 226.238 66.9084C227.334 68.1155 228.95 68.7191 231.086 68.7191ZM299.295 11.5538V75.4444H289.513L288.734 69.6675C287.291 71.8518 285.444 73.5763 283.193 74.8409C281 76.1055 278.489 76.7377 275.661 76.7377C270.063 76.7377 265.763 74.5822 262.762 70.2711C259.761 65.96 258.26 60.0969 258.26 52.6818C258.26 48.0258 259.011 43.8871 260.511 40.2658C262.012 36.587 264.147 33.7129 266.918 31.6436C269.746 29.5742 273.006 28.5396 276.7 28.5396C281.086 28.5396 284.924 30.1778 288.214 33.4542V10.3467L299.295 11.5538ZM278.778 68.3742C280.74 68.3742 282.472 67.9143 283.972 66.9946C285.473 66.0175 286.887 64.5229 288.214 62.5111V41.6453C286.887 40.0358 285.53 38.8287 284.145 38.024C282.818 37.2193 281.26 36.8169 279.47 36.8169C276.527 36.8169 274.19 38.139 272.458 40.7831C270.784 43.3698 269.948 47.3072 269.948 52.5955C269.948 58.2287 270.698 62.2812 272.198 64.7529C273.699 67.1671 275.892 68.3742 278.778 68.3742Z" fill="#249AD5"/>
<path d="M40.3327 75.3977C30.592 75.3977 21.2514 71.637 14.3642 64.9447C7.477 58.2524 3.60693 49.1758 3.60693 39.7107C3.60693 30.2454 7.477 21.169 14.3642 14.4766C21.2514 7.78427 30.592 4.02368 40.3327 4.02368C28.7327 7.04397 27.5874 23.9013 40.3327 32.5733C21.2148 45.581 22.9327 70.8671 40.3327 75.3977Z" fill="#249AD5"/>
<path d="M40.333 75.3977C50.0737 75.3977 59.4144 71.637 66.3015 64.9447C73.1887 58.2524 77.0588 49.1758 77.0588 39.7107C77.0588 30.2454 73.1887 21.169 66.3015 14.4766C59.4144 7.78427 50.0737 4.02368 40.333 4.02368C51.9329 7.04397 53.0785 23.9013 40.333 32.5733C59.4509 45.581 57.7331 70.8671 40.333 75.3977Z" fill="#F15E15"/>
</svg>
