<?xml version="1.0" encoding="utf-8"?>
<!-- Generator: Adobe Illustrator 25.1.0, SVG Export Plug-In . SVG Version: 6.00 Build 0)  -->
<svg version="1.1" id="Layer_1" xmlns="http://www.w3.org/2000/svg" xmlns:xlink="http://www.w3.org/1999/xlink" x="0px" y="0px"
	 viewBox="0 0 1156 250" style="enable-background:new 0 0 1156 250;" xml:space="preserve">
<style type="text/css">
	.st0{fill:#FFFFFF;}
	.st1{display:none;}
	.st2{font-family:'NeuzeitGro-Bla';}
	.st3{font-size:220px;}
	.st4{fill:#E6060D;}
</style>
<g>
	<polygon class="st0" points="117.2,149.6 201.2,57.5 93.9,142.3 109.1,168.9 	"/>
	<polygon class="st0" points="118.8,170.7 126.4,167.2 122.2,162.1 	"/>
	<path class="st0" d="M0-0.1v250h250v-250H0z M161.8,212l-29-37l-25.4,11.5L84.8,146l-55.9,0.6C30,146,221.1,37.9,221.1,37.9
		L161.8,212z"/>
</g>
<g id="Vector_1_">
	<path class="st0" d="M371.5,101.1h48.8v28.8h-48.8v59.2h-35.6V42.4h84.5v28.8h-48.8V101.1z"/>
	<path class="st0" d="M500.7,87.2h35.2l-55.7,147.2h-35.9l18.3-47.3l-35.4-99.9h35.4l17.6,53.5L500.7,87.2z"/>
	<path class="st0" d="M624.8,161.4v27.7h-87.3l37.8-74.1h-34.8V87.2h86.2l-37.8,74.1H624.8z"/>
	<path class="st0" d="M677.1,57.8c0,10.1-7.7,17.6-17.8,17.6c-10.3,0-17.8-7.5-17.8-17.8c0-10.3,7.5-17.8,18-17.8
		C669.9,39.7,677.1,47.2,677.1,57.8z M676,189.1h-33.4V87.2H676V189.1z"/>
	<path class="st0" d="M734.3,189.1h-33.4V42.4h33.4v81.2L757,87.2h37.8l-29.7,48.4l29.7,53.5H757l-22.7-40.7V189.1z"/>
	<path class="st0" d="M808,189.1V42.4h33.4v146.7H808z"/>
	<path class="st0" d="M944.6,87.2h33.4v101.9h-33.4v-11.4c-9.2,10.6-20,15.4-34.5,15.4c-29,0-49.9-22.2-49.9-53.5
		c0-32.6,22.2-56.3,52.8-56.3c13,0,21.8,4.2,31.7,15V87.2z M895.8,138.9c0,15.6,10.6,27.7,24.2,27.7c13.9,0,25.1-12.8,25.1-28.2
		c0-16.3-10.3-27.5-24.9-27.5C905.9,111,895.8,122.7,895.8,138.9z"/>
	<path class="st0" d="M1036.6,87.2v11.4c6.6-11.2,13.6-15.4,26-15.4c10.1,0,19.8,3.7,26.2,9.9c6.8,7,9.2,15.4,9.2,33.4v62.5h-33.4
		v-62.3c0-9.9-5.3-15.8-13.9-15.8s-14.1,6.4-14.1,16.3v61.8h-33.4V87.2H1036.6z"/>
	<path class="st0" d="M1156.9,57.8c0,10.1-7.7,17.6-17.8,17.6c-10.3,0-17.8-7.5-17.8-17.8c0-10.3,7.5-17.8,18-17.8
		C1149.7,39.7,1156.9,47.2,1156.9,57.8z M1155.8,189.1h-33.4V87.2h33.4V189.1z"/>
</g>
<text id="Text_1_" transform="matrix(1 0 0 1 322.0433 189.1072)" class="st1 st2 st3">Fyziklani</text>
</svg>
