<svg id="Layer_1" data-name="Layer 1" xmlns="http://www.w3.org/2000/svg" viewBox="0 0 2187.16 250"><defs><style>.cls-1{fill:#fff;}</style></defs><path class="cls-1" d="M371.55,189H335.91V42.29h50.38c34.76,0,54.56,17.6,54.56,48.18,0,30.8-20.46,50.82-52.36,50.82H371.55Zm9.9-77c14.74,0,23.32-7.48,23.32-20.24,0-12.1-8.36-20.24-20.9-20.24H371.55V112Z"/><path class="cls-1" d="M489.68,96.63c7.92-9.24,16.06-13.42,26.4-13.42a39.16,39.16,0,0,1,24.86,9.46c7,6.38,9.68,14.3,9.68,29.7V189H517.18V127.87c0-10.12-5.28-16.94-13.42-16.94-8.8,0-14.08,6.16-14.08,16.94V189H456.24V42.29h33.44Z"/><path class="cls-1" d="M632.9,87.17h35.2L612.44,234.35H576.58l18.26-47.3L559.42,87.17h35.42l17.6,53.46Z"/><path class="cls-1" d="M721.78,117.31v-2c0-4.62-4.18-8.14-9.68-8.14-4.62,0-7.92,2.86-7.92,6.82,0,4.18,3.08,6.6,11.66,9,28.6,8.14,38.94,17.6,38.94,35.42,0,20.68-16.5,34.54-41.36,34.54s-40.48-13-41.14-34.32H704c1.32,7.48,3.74,10.34,9.46,10.34,4.4,0,7.7-3.08,7.7-7.26,0-4.62-3.3-7-16.94-11.44-22.22-7-31.9-17.38-31.9-33.44,0-20.24,16.5-33.66,41.14-33.66,24.2,0,39.16,12.76,39.38,34.1Z"/><path class="cls-1" d="M807.36,57.69c0,10.12-7.7,17.6-17.82,17.6-10.34,0-17.82-7.48-17.82-17.82s7.48-17.82,18-17.82C800.1,39.65,807.36,47.13,807.36,57.69ZM806.26,189H772.82V87.17h33.44Z"/><path class="cls-1" d="M920.88,177.81C908.78,188.37,896.46,193,881.06,193a59.52,59.52,0,0,1-40.7-16.06c-10.12-9.46-15.4-22.88-15.4-38.28,0-32.34,23.32-55.44,55.66-55.44,15.62,0,28.16,5.28,42.46,17.6l-22.22,20c-5.72-5.72-11.44-8.14-18.7-8.14-13.2,0-23.54,10.78-23.54,24.86,0,14.74,10.78,26,25.3,26,5.94,0,10.12-1.76,16.94-7.26Z"/><path class="cls-1" d="M979.17,117.31v-2c0-4.62-4.18-8.14-9.68-8.14-4.62,0-7.92,2.86-7.92,6.82,0,4.18,3.08,6.6,11.66,9,28.6,8.14,38.94,17.6,38.94,35.42,0,20.68-16.5,34.54-41.36,34.54s-40.48-13-41.14-34.32h31.68c1.32,7.48,3.74,10.34,9.46,10.34,4.4,0,7.7-3.08,7.7-7.26,0-4.62-3.3-7-16.94-11.44-22.22-7-31.9-17.38-31.9-33.44,0-20.24,16.5-33.66,41.14-33.66,24.2,0,39.16,12.76,39.38,34.1Z"/><path class="cls-1" d="M1081.69,42.29c18.48,0,29.48,2,37.4,7,10.12,6.16,16.28,18.7,16.28,32.78,0,10.12-3.3,18.92-9.9,25.52-4.18,4.4-7.48,6.16-15.4,8.58,9,2,13,4,17.6,8.36,6.6,6.16,9.9,14.74,9.9,25.52,0,13.64-5.5,25.74-15,32.12-7.26,4.84-16.06,6.82-31,6.82h-60.06V42.29ZM1067.17,103h8.8c15.84,0,23.1-5.28,23.1-17.16s-7-16.94-23.54-16.94h-8.36Zm0,60.5h13c15.18,0,21.34-4.84,21.34-16.94,0-7.26-2.64-12.1-7.92-15-4-2.2-7.48-2.64-18.26-2.64h-8.14Z"/><path class="cls-1" d="M1191.69,87.17V101c2.64-7.48,4.62-10.56,8.8-13.42a25.87,25.87,0,0,1,14.74-4.4h3.3v34.32c-2.42-.22-4.84-.44-6.16-.44-7.48,0-13.86,3.08-17.38,8.14-2.64,3.52-3.3,7.26-3.3,15.84v48h-33.44V87.17Z"/><path class="cls-1" d="M1311.58,87.17H1345V189h-33.44V177.59c-9.24,10.56-20,15.4-34.54,15.4-29,0-49.94-22.22-49.94-53.46,0-32.56,22.22-56.32,52.8-56.32,13,0,21.78,4.18,31.68,15Zm-48.84,51.7c0,15.62,10.56,27.72,24.2,27.72,13.86,0,25.08-12.76,25.08-28.16,0-16.28-10.34-27.5-24.86-27.5C1272.86,110.93,1262.74,122.59,1262.74,138.87Z"/><path class="cls-1" d="M1523,87.17,1490.88,189h-35.42l-15.4-55.22L1424.88,189h-36.3l-31.9-101.86h33.88l17.82,55.66,15-55.66h32.12l15.84,55.66,17.82-55.66Z"/><path class="cls-1" d="M1534.88,189V42.29h33.44V189Z"/><path class="cls-1" d="M1717,65c11.88,13.86,17.16,30.14,17.16,52.14,0,22.88-8.8,43.34-24.86,57a71.71,71.71,0,0,1-46.86,17.6,73.38,73.38,0,0,1-56.76-27.5c-10.12-12.76-15.4-29.26-15.4-47.74,0-43.78,31-76.78,72.6-76.78C1683.38,39.65,1703,48.89,1717,65Zm-107.8,50.82c0,34.1,22.44,59,52.8,59a52.58,52.58,0,0,0,39.16-17.6c8.58-9.46,14.08-25.3,14.08-40.26,0-19.58-5.28-33.88-16.72-44.88-9.68-9.46-23.1-15.18-36.08-15.18C1631.9,56.81,1609.24,81.89,1609.24,115.77Z"/><path class="cls-1" d="M1777.32,87.61v14.3c8.8-11.88,17.6-16.72,30.14-16.72,9.24,0,17.6,3.08,23.54,8.36,6.38,6.16,8.58,13.2,8.58,27.06V189h-16.72V124.35c0-9-1.1-13.86-3.74-17.38-3.08-4.18-9-6.82-15.84-6.82a25.22,25.22,0,0,0-19.36,8.58c-4.84,5.28-6.6,10.12-6.6,18.48V189h-16.73V87.61Z"/><path class="cls-1" d="M1872.57,189V42.29h16.72V189Z"/><path class="cls-1" d="M1942.09,59.23a10.61,10.61,0,0,1-10.78,10.56,10.78,10.78,0,0,1,.22-21.56A10.67,10.67,0,0,1,1942.09,59.23ZM1939.67,189H1923V87.61h16.72Z"/><path class="cls-1" d="M1990.05,87.61v14.3c8.8-11.88,17.6-16.72,30.14-16.72,9.24,0,17.6,3.08,23.54,8.36,6.38,6.16,8.58,13.2,8.58,27.06V189h-16.72V124.35c0-9-1.1-13.86-3.74-17.38-3.08-4.18-9-6.82-15.84-6.82a25.23,25.23,0,0,0-19.36,8.58c-4.84,5.28-6.6,10.12-6.6,18.48V189h-16.72V87.61Z"/><path class="cls-1" d="M2095,143.71c.88,8.58,2.42,13,6.59,18.48a33,33,0,0,0,27.29,13.86c12.54,0,24.42-6.82,30.36-17.38l14.74,5.5c-8.36,16.94-25.74,27.28-45.1,27.28-30.14,0-51.7-22-51.7-52.8,0-31.24,21.33-53.46,51-53.46,29.48,0,51.48,22.22,51.48,51.92,0,1.32,0,4.18-.22,6.6Zm66.88-12.32c-.66-7.92-2.2-12.32-5.72-17.38a34.8,34.8,0,0,0-27.94-13.86,32.62,32.62,0,0,0-27.29,14.08c-3.08,4.84-4.39,9-5.71,17.16Z"/><polygon class="cls-1" points="181.63 153.41 186.44 164.93 195.48 149.09 131.65 98.65 181.63 153.41"/><polygon class="cls-1" points="176.13 163.91 180.66 165.95 178.62 160.87 176.13 163.91"/><path class="cls-1" d="M0,0V250H250V0ZM140.8,184.89H95.52v-7.14h12.71V157.64H41.9V59.48H194.43v62.88l-8.92-5V68.4H50.81v80.32h83.77l3,8.92h-9.53v20.11H140.8Zm60-33.61-13.35,24.08-15.13-6.85-17.26,22L119.83,87s113.62,64.26,114.27,64.65Z"/></svg>