<?xml version="1.0" encoding="utf-8"?>
<!-- Generator: Adobe Illustrator 28.0.0, SVG Export Plug-In . SVG Version: 6.00 Build 0)  -->
<svg version="1.1" id="Layer_1" xmlns="http://www.w3.org/2000/svg" xmlns:xlink="http://www.w3.org/1999/xlink" x="0px" y="0px"
	 viewBox="0 0 256 256" style="enable-background:new 0 0 256 256;" xml:space="preserve">
<style type="text/css">
	.st0{fill:#255AFF;}
	.st1{fill:#050039;}
</style>
<path id="Path" class="st0" d="M241.2,13.8c-24.6-18-75.3,7.6-119.5,57.8c37.6-39.3,91.7-66,112.4-50.2c23.5,18,5.5,88.9-29.5,134.8
	c-36,47.5-102.6,84-126,65.5c-20.2-15.8-8.7-70.4,16.9-114c-37.6,57.8-48,115.7-22.4,134.2c27.8,20.2,88.4-14.2,134.8-77.5
	S269.6,34,241.2,13.8"/>
<g id="Ph">
	<g>
		<path id="path-1" class="st1" d="M12.8,168.7c3.8,0,7.6-1.1,12-3.3c-0.5-1.6-1.1-2.7-1.1-3.8c0-1.1,0.5-3.8,1.1-8.2l0,0l6-28.9
			h3.8c14.7,0,27.3-4.4,38.2-12.5s16.4-18,16.4-29.5c0-15.3-10.4-22.9-31.6-22.9c-13.6,0-26.7,2.7-38.2,8.7s-18,11.5-18,18
			c0,1.6,0.5,3.8,1.6,6.5C15.6,76,31.9,67.2,52.1,67.2c7.1,0,12.5,1.6,16.4,4.9c3.8,3.3,6,7.6,6,13.1c0,9.8-3.8,17.5-12,24
			s-18.5,9.3-31.1,9.3l0,0l4.4-22.9c1.6-7.1,2.2-10.9,2.2-11.5c0-3.3-1.1-4.9-3.8-4.9c-2.2,0-6.5,1.1-12,3.3
			c1.1,1.1,1.6,2.7,1.6,4.4s-0.5,4.4-1.1,8.2l0,0L18.3,118c-6.5-2.7-12-5.5-16.9-9.3c-0.5,1.1-0.5,2.7-0.5,3.8
			c0,4.9,5.5,8.7,16.4,10.9l0,0l-7.1,34.4C9,162.2,9,164.9,9,166C9,167.6,10.1,168.7,12.8,168.7z M101.2,160.5
			c3.3,0,5.5-0.5,7.6-1.6c-1.1-1.1-1.1-2.2-1.1-3.3c0-3.3,4.9-13.6,15.3-31.6c9.8-17.5,18-26.7,24.6-26.7c4.4,0,7.1,6.5,7.1,19.6
			l0,0v6c0,11.5,1.1,19.6,3.3,24.6c2.2,4.9,6,7.6,11.5,7.6c6,0,13.1-4.9,21.8-14.7c8.7-9.8,16.9-21.8,24-35.5l0,0l-5.5-3.3
			c-7.1,12-14.2,21.8-21.3,30s-12,12-15.3,11.5c-3.8,0-6-7.1-6-20.7l0,0v-7.6c0-10.4-1.1-17.5-3.8-21.8c-2.7-4.4-6-6.5-11.5-6.5
			c-13.6,0-26.7,14.7-39.8,44.2c0.5-3.8,1.1-6,1.6-7.6c3.8-15.8,6-24,6-24.6l0,0l10.9-54c-7.1,3.3-14.7,4.9-22.4,4.9
			c-5.5,0-10.4-1.6-14.7-4.9c0,9.8,4.4,15.3,12.5,15.3c2.7,0,6-0.5,8.7-1.6l0,0l-13.6,67.6c-1.1,5.5-1.6,8.2-1.6,8.2
			c-2.7,12-4.4,19.6-4.4,21.8C95.8,158.9,97.4,160.5,101.2,160.5z"/>
	</g>
	<g>
		<path id="path-1_b" class="st1" d="M12.8,168.7c3.8,0,7.6-1.1,12-3.3c-0.5-1.6-1.1-2.7-1.1-3.8c0-1.1,0.5-3.8,1.1-8.2l0,0l6-28.9
			h3.8c14.7,0,27.3-4.4,38.2-12.5s16.4-18,16.4-29.5c0-15.3-10.4-22.9-31.6-22.9c-13.6,0-26.7,2.7-38.2,8.7s-18,11.5-18,18
			c0,1.6,0.5,3.8,1.6,6.5C15.6,76,31.9,67.2,52.1,67.2c7.1,0,12.5,1.6,16.4,4.9c3.8,3.3,6,7.6,6,13.1c0,9.8-3.8,17.5-12,24
			s-18.5,9.3-31.1,9.3l0,0l4.4-22.9c1.6-7.1,2.2-10.9,2.2-11.5c0-3.3-1.1-4.9-3.8-4.9c-2.2,0-6.5,1.1-12,3.3
			c1.1,1.1,1.6,2.7,1.6,4.4s-0.5,4.4-1.1,8.2l0,0L18.3,118c-6.5-2.7-12-5.5-16.9-9.3c-0.5,1.1-0.5,2.7-0.5,3.8
			c0,4.9,5.5,8.7,16.4,10.9l0,0l-7.1,34.4C9,162.2,9,164.9,9,166C9,167.6,10.1,168.7,12.8,168.7z M101.2,160.5
			c3.3,0,5.5-0.5,7.6-1.6c-1.1-1.1-1.1-2.2-1.1-3.3c0-3.3,4.9-13.6,15.3-31.6c9.8-17.5,18-26.7,24.6-26.7c4.4,0,7.1,6.5,7.1,19.6
			l0,0v6c0,11.5,1.1,19.6,3.3,24.6c2.2,4.9,6,7.6,11.5,7.6c6,0,13.1-4.9,21.8-14.7c8.7-9.8,16.9-21.8,24-35.5l0,0l-5.5-3.3
			c-7.1,12-14.2,21.8-21.3,30s-12,12-15.3,11.5c-3.8,0-6-7.1-6-20.7l0,0v-7.6c0-10.4-1.1-17.5-3.8-21.8c-2.7-4.4-6-6.5-11.5-6.5
			c-13.6,0-26.7,14.7-39.8,44.2c0.5-3.8,1.1-6,1.6-7.6c3.8-15.8,6-24,6-24.6l0,0l10.9-54c-7.1,3.3-14.7,4.9-22.4,4.9
			c-5.5,0-10.4-1.6-14.7-4.9c0,9.8,4.4,15.3,12.5,15.3c2.7,0,6-0.5,8.7-1.6l0,0l-13.6,67.6c-1.1,5.5-1.6,8.2-1.6,8.2
			c-2.7,12-4.4,19.6-4.4,21.8C95.8,158.9,97.4,160.5,101.2,160.5z"/>
	</g>
</g>
</svg>
