<?xml version="1.0" encoding="UTF-8" standalone="no"?>
<!-- Generator: Adobe Illustrator 26.4.1, SVG Export Plug-In . SVG Version: 6.00 Build 0)  -->

<svg
   version="1.1"
   id="Layer_1"
   x="0px"
   y="0px"
   viewBox="0 0 962.02 250"
   style="enable-background:new 0 0 962.02 250;"
   xml:space="preserve"
   sodipodi:docname="fykos.svg"
   inkscape:export-filename="fykos.png"
   inkscape:export-xdpi="96"
   inkscape:export-ydpi="96"
   inkscape:version="1.3.2 (091e20e, 2023-11-25, custom)"
   xmlns:inkscape="http://www.inkscape.org/namespaces/inkscape"
   xmlns:sodipodi="http://sodipodi.sourceforge.net/DTD/sodipodi-0.dtd"
   xmlns="http://www.w3.org/2000/svg"
   xmlns:svg="http://www.w3.org/2000/svg"><defs
   id="defs6" /><sodipodi:namedview
   id="namedview6"
   pagecolor="#ffffff"
   bordercolor="#000000"
   borderopacity="0.25"
   inkscape:showpageshadow="2"
   inkscape:pageopacity="0.0"
   inkscape:pagecheckerboard="0"
   inkscape:deskcolor="#d1d1d1"
   inkscape:zoom="1.2972703"
   inkscape:cx="516.46908"
   inkscape:cy="125.26302"
   inkscape:window-width="1920"
   inkscape:window-height="991"
   inkscape:window-x="-9"
   inkscape:window-y="-9"
   inkscape:window-maximized="1"
   inkscape:current-layer="Layer_1" />
<style
   type="text/css"
   id="style1">
	.st0{fill:#1175DA;}
	.st1{fill:#FFFFFF;}
</style>
<g
   id="g5"
   style="fill:#0f75da;fill-opacity:1">
	<path
   class="st1"
   d="M371.54,110.18h48.84V139h-48.84v59.18H335.9V51.44h84.48v28.82h-48.84V110.18z"
   id="path1"
   style="fill:#0f75da;fill-opacity:1" />
	<path
   class="st1"
   d="M512.56,198.18h-35.64V133.5l-48.18-82.06h42.46l23.76,45.1l23.32-45.1h41.8l-47.52,82.06V198.18z"
   id="path2"
   style="fill:#0f75da;fill-opacity:1" />
	<path
   class="st1"
   d="M606.72,198.18h-35.64V51.44h35.64v62.04l34.32-62.04h40.92l-40.92,69.74l40.92,77h-40.92l-34.32-64.24V198.18   z"
   id="path3"
   style="fill:#0f75da;fill-opacity:1" />
	<path
   class="st1"
   d="M842.56,125.14c0,42.02-34.32,75.9-76.78,75.9c-43.78,0-78.54-33.44-78.54-75.68   c0-21.34,8.58-41.14,24.64-56.32c14.08-13.2,33.22-20.46,54.78-20.46C810,48.58,842.56,81.36,842.56,125.14z M723.54,124.92   c0,24.2,18.26,43.12,41.58,43.12c22.88,0,41.36-18.92,41.36-42.46c0-25.08-17.6-44-41.14-44   C741.36,81.58,723.54,100.06,723.54,124.92z"
   id="path4"
   style="fill:#0f75da;fill-opacity:1" />
	<path
   class="st1"
   d="M892.27,153.74c-0.22,0.88-0.22,1.98-0.22,2.42c0,7.26,7.92,13.42,17.38,13.42c8.58,0,15.18-5.06,15.18-11.66   c0-6.82-3.96-9.9-21.12-16.06c-32.12-11.44-44.66-24.86-44.66-47.3c0-27.5,20.24-45.98,50.82-45.98c19.8,0,36.08,8.36,44.66,22.66   c4.18,6.82,6.16,13.2,7.7,23.54h-36.3c-1.1-10.12-6.16-14.74-16.28-14.74c-8.8,0-14.52,4.62-14.52,11.66c0,4.4,2.2,7.92,6.82,10.56   c2.64,1.76,5.5,3.08,16.72,7.26c16.72,6.38,24.64,10.56,31.24,16.5c8.14,7.48,12.32,17.6,12.32,29.48   c0,27.28-21.12,45.54-52.58,45.54c-32.12,0-52.14-18.26-52.14-47.3H892.27z"
   id="path5"
   style="fill:#0f75da;fill-opacity:1" />
</g>
<path
   class="st1"
   d="M0,0v250h250V0H0z M209.49,95.22l-34.62,27.35l-15.21,22.1l-11.67,20.35l-44.32,17.67l-23.27,12.43l-31.64-9.28  l34.67-2.68l9.32-15.03l-24.58-57.65L28.9,64.92L89.59,95.2l13.21,14.15l28.05,42.81l-23.25,10.72l32.77-7.12l-33.37-44.87  l2.66-18.36L91.31,54.88l36.97,26.34l10.04,35.26l2.99,20.33l21.55-15.27l3.69-15.18l-23.11-11.19l39.41,2.27l38.26-28.65  l-32.94,35.17L209.49,95.22z"
   id="path6"
   style="fill:#0f75da;fill-opacity:1" />
</svg>
