<?xml version="1.0" encoding="UTF-8" standalone="no"?>
<svg
   width="391.04239"
   height="192.94875"
   viewBox="0 0 538.4846 265.30453"
   version="1.1"
   xml:space="preserve"
   style="clip-rule:evenodd;fill-rule:evenodd;stroke-linejoin:round;stroke-miterlimit:2"
   id="svg24"
   sodipodi:docname="MO_b.svg"
   inkscape:version="1.3.2 (091e20e, 2023-11-25, custom)"
   xmlns:inkscape="http://www.inkscape.org/namespaces/inkscape"
   xmlns:sodipodi="http://sodipodi.sourceforge.net/DTD/sodipodi-0.dtd"
   xmlns="http://www.w3.org/2000/svg"
   xmlns:svg="http://www.w3.org/2000/svg"><defs
     id="defs24" /><sodipodi:namedview
     id="namedview24"
     pagecolor="#ffffff"
     bordercolor="#000000"
     borderopacity="0.25"
     inkscape:showpageshadow="2"
     inkscape:pageopacity="0.0"
     inkscape:pagecheckerboard="0"
     inkscape:deskcolor="#d1d1d1"
     showgrid="false"
     inkscape:zoom="2.3245902"
     inkscape:cx="185.83921"
     inkscape:cy="74.421721"
     inkscape:window-width="1920"
     inkscape:window-height="991"
     inkscape:window-x="-9"
     inkscape:window-y="-9"
     inkscape:window-maximized="1"
     inkscape:current-layer="svg24" /><g
     id="g26"
     transform="translate(65.391373,-40.874467)"><rect
       style="fill:#ffffff;fill-opacity:1;stroke-width:1.54309"
       id="rect5"
       width="538.48462"
       height="265.69992"
       x="-65.391373"
       y="40.7925" /><g
       id="g25"
       transform="matrix(1.0832339,0,0,1.0832339,-19.54866,47.93438)"><g
         id="g2"><path
           d="M 77.799,26.838 H 72.957 L 48.616,71.142 24.208,26.838 H 19.367 L 46.162,75.586 43.774,79.964 14.525,26.838 H 9.683 L 41.32,84.342 38.933,88.785 4.842,26.838 H 0 V 93.162 H 4.842 V 35.659 l 4.841,8.755 v 48.748 h 4.842 V 53.235 l 4.842,8.821 v 31.106 h 4.841 V 70.877 l 12.271,22.285 h 4.841 z m 9.684,0 H 82.641 L 46.162,93.162 h 4.841 z m 9.616,66.324 V 26.97 H 92.258 L 55.845,93.162 h 4.842 l 12.27,-22.285 v 22.285 h 4.842 V 62.123 l 4.775,-8.821 v 39.86 h 4.842 V 44.546 l 4.842,-8.821 v 57.437 z"
           style="fill:#0000dc"
           id="path1" /><path
           d="m 171.367,60 c 0,-6.169 -1.659,-12.204 -4.775,-17.377 V 60 c 0,7.76 -3.118,15.255 -8.556,20.76 -5.506,5.438 -13,8.555 -20.76,8.555 -3.515,0 -6.964,-0.663 -10.214,-1.857 v -5.173 c 3.183,1.459 6.632,2.255 10.214,2.255 6.5,0 12.734,-2.587 17.376,-7.163 C 159.23,72.734 161.816,66.5 161.816,60 V 36.322 l -0.464,-0.399 c -1.327,-1.392 -2.786,-2.586 -4.312,-3.714 V 60 c 0,5.239 -2.056,10.28 -5.77,13.995 -3.714,3.713 -8.754,5.769 -13.994,5.769 -3.648,0 -7.164,-0.994 -10.214,-2.852 v -5.969 c 2.785,2.587 6.433,4.046 10.214,4.046 3.979,0 7.76,-1.591 10.612,-4.377 2.785,-2.852 4.377,-6.633 4.377,-10.612 V 29.358 c -4.643,-2.255 -9.749,-3.449 -14.989,-3.449 -9.021,0 -17.709,3.582 -24.076,10.014 -6.433,6.368 -10.015,15.057 -10.015,24.077 0,6.168 1.657,12.204 4.776,17.377 V 60 c 0,-7.76 3.116,-15.255 8.555,-20.76 5.505,-5.438 13,-8.556 20.76,-8.556 3.515,0 6.964,0.664 10.213,1.857 v 5.173 c -3.183,-1.459 -6.631,-2.255 -10.213,-2.255 -6.5,0 -12.735,2.588 -17.378,7.164 -4.575,4.642 -7.162,10.877 -7.162,17.377 v 23.678 l 0.464,0.398 c 1.327,1.392 2.785,2.586 4.311,3.714 V 60 c 0,-5.239 2.056,-10.281 5.77,-13.995 3.714,-3.714 8.755,-5.77 13.995,-5.77 3.647,0 7.163,0.995 10.213,2.852 v 5.969 c -2.785,-2.586 -6.433,-4.045 -10.213,-4.045 -3.98,0 -7.76,1.591 -10.612,4.377 -2.786,2.852 -4.378,6.632 -4.378,10.612 v 30.642 c 4.643,2.255 9.75,3.449 14.99,3.449 9.02,0 17.708,-3.582 24.076,-10.015 C 167.786,77.708 171.367,69.02 171.367,60 Z m -23.878,0 c 0,2.719 -1.061,5.306 -2.984,7.229 -1.923,1.923 -4.51,2.985 -7.229,2.985 -2.72,0 -5.306,-1.062 -7.23,-2.985 -1.923,-1.923 -2.984,-4.51 -2.984,-7.229 0,-2.72 1.061,-5.306 2.984,-7.23 1.924,-1.923 4.51,-2.984 7.23,-2.984 2.719,0 5.306,1.061 7.229,2.984 1.923,1.924 2.984,4.51 2.984,7.23 z"
           style="fill:#0000dc"
           id="path2" /></g><g
         id="g24"><g
           transform="matrix(2.9794,0,0,2.9794,-375.015,-55.1998)"
           id="g23"><g
             transform="matrix(12,0,0,12,193.029,35.9249)"
             id="g3"><path
               d="M 0.839,0 V -0.712 H 0.69 L 0.562,-0.361 C 0.53,-0.271 0.498,-0.178 0.468,-0.088 H 0.466 C 0.436,-0.178 0.404,-0.271 0.372,-0.361 L 0.243,-0.712 H 0.095 V 0 h 0.09 v -0.362 c 0,-0.09 -0.001,-0.181 -0.002,-0.272 h 0.002 c 0.031,0.091 0.064,0.181 0.097,0.272 L 0.414,0 H 0.52 L 0.652,-0.362 C 0.685,-0.453 0.718,-0.543 0.749,-0.634 H 0.751 C 0.75,-0.543 0.749,-0.452 0.749,-0.362 V 0 Z"
               style="fill:#0000dc;fill-rule:nonzero"
               id="path3" /></g><g
             transform="matrix(12,0,0,12,204.237,35.9249)"
             id="g4"><path
               d="m 0.259,-0.522 c -0.129,0 -0.199,0.073 -0.204,0.169 h 0.088 c 0.003,-0.06 0.042,-0.101 0.116,-0.101 0.068,0 0.115,0.035 0.115,0.119 v 0.02 c -0.04,0.003 -0.102,0.01 -0.147,0.017 -0.146,0.023 -0.193,0.076 -0.193,0.16 0,0.086 0.066,0.149 0.172,0.149 0.082,0 0.141,-0.031 0.176,-0.085 h 0.002 c 0,0.023 0.002,0.051 0.007,0.074 h 0.08 C 0.464,-0.031 0.459,-0.074 0.459,-0.13 v -0.195 c 0,-0.134 -0.076,-0.197 -0.2,-0.197 z m 0.115,0.305 c 0,0.06 -0.01,0.088 -0.041,0.12 -0.025,0.026 -0.064,0.04 -0.105,0.04 -0.066,0 -0.104,-0.035 -0.104,-0.087 0,-0.05 0.03,-0.075 0.117,-0.088 0.039,-0.007 0.094,-0.013 0.133,-0.016 z"
               style="fill:#0000dc;fill-rule:nonzero"
               id="path4" /></g><g
             transform="matrix(12,0,0,12,210.489,35.9249)"
             id="g5"><path
               d="m 0.257,-0.069 c -0.051,0 -0.07,-0.024 -0.07,-0.082 v -0.287 h 0.101 v -0.07 H 0.187 V -0.631 H 0.099 v 0.123 H 0.011 v 0.07 h 0.088 v 0.296 c 0,0.105 0.041,0.146 0.138,0.146 0.018,0 0.041,-0.002 0.056,-0.006 V -0.074 C 0.284,-0.071 0.27,-0.069 0.257,-0.069 Z"
               style="fill:#0000dc;fill-rule:nonzero"
               id="path5" /></g><g
             transform="matrix(12,0,0,12,214.137,35.9249)"
             id="g6"><path
               d="m 0.28,-0.054 c -0.083,0 -0.147,-0.057 -0.151,-0.182 h 0.38 c 0,-0.044 -0.003,-0.08 -0.01,-0.109 -0.026,-0.109 -0.107,-0.177 -0.222,-0.177 -0.148,0 -0.236,0.111 -0.236,0.261 0,0.166 0.089,0.275 0.239,0.275 0.13,0 0.207,-0.077 0.224,-0.166 h -0.09 c -0.012,0.057 -0.06,0.098 -0.134,0.098 z m -0.003,-0.4 c 0.078,0 0.136,0.052 0.145,0.151 H 0.13 C 0.139,-0.4 0.196,-0.454 0.277,-0.454 Z"
               style="fill:#0000dc;fill-rule:nonzero"
               id="path6" /></g><g
             transform="matrix(12,0,0,12,220.737,35.9249)"
             id="g7"><path
               d="m 0.619,-0.519 c -0.075,0 -0.127,0.035 -0.161,0.096 -0.027,-0.063 -0.081,-0.096 -0.151,-0.096 -0.059,0 -0.106,0.025 -0.142,0.074 H 0.163 V -0.508 H 0.078 V 0 h 0.088 v -0.282 c 0,-0.102 0.046,-0.165 0.121,-0.165 0.065,0 0.103,0.047 0.103,0.127 V 0 h 0.088 v -0.288 c 0,-0.097 0.046,-0.159 0.12,-0.159 0.065,0 0.104,0.038 0.104,0.14 V 0 H 0.79 v -0.314 c 0,-0.137 -0.063,-0.205 -0.171,-0.205 z"
               style="fill:#0000dc;fill-rule:nonzero"
               id="path7" /></g><g
             transform="matrix(12,0,0,12,231.093,35.9249)"
             id="g8"><path
               d="m 0.259,-0.522 c -0.129,0 -0.199,0.073 -0.204,0.169 h 0.088 c 0.003,-0.06 0.042,-0.101 0.116,-0.101 0.068,0 0.115,0.035 0.115,0.119 v 0.02 c -0.04,0.003 -0.102,0.01 -0.147,0.017 -0.146,0.023 -0.193,0.076 -0.193,0.16 0,0.086 0.066,0.149 0.172,0.149 0.082,0 0.141,-0.031 0.176,-0.085 h 0.002 c 0,0.023 0.002,0.051 0.007,0.074 h 0.08 C 0.464,-0.031 0.459,-0.074 0.459,-0.13 v -0.195 c 0,-0.134 -0.076,-0.197 -0.2,-0.197 z m 0.115,0.305 c 0,0.06 -0.01,0.088 -0.041,0.12 -0.025,0.026 -0.064,0.04 -0.105,0.04 -0.066,0 -0.104,-0.035 -0.104,-0.087 0,-0.05 0.03,-0.075 0.117,-0.088 0.039,-0.007 0.094,-0.013 0.133,-0.016 z"
               style="fill:#0000dc;fill-rule:nonzero"
               id="path8" /></g><g
             transform="matrix(12,0,0,12,237.345,35.9249)"
             id="g9"><path
               d="m 0.257,-0.069 c -0.051,0 -0.07,-0.024 -0.07,-0.082 v -0.287 h 0.101 v -0.07 H 0.187 V -0.631 H 0.099 v 0.123 H 0.011 v 0.07 h 0.088 v 0.296 c 0,0.105 0.041,0.146 0.138,0.146 0.018,0 0.041,-0.002 0.056,-0.006 V -0.074 C 0.284,-0.071 0.27,-0.069 0.257,-0.069 Z"
               style="fill:#0000dc;fill-rule:nonzero"
               id="path9" /></g><g
             transform="matrix(12,0,0,12,241.185,35.9249)"
             id="g10"><path
               d="M 0.166,-0.613 V -0.712 H 0.078 v 0.099 z M 0.166,0 V -0.508 H 0.078 V 0 Z"
               style="fill:#0000dc;fill-rule:nonzero"
               id="path10" /></g><g
             transform="matrix(12,0,0,12,244.113,35.9249)"
             id="g11"><path
               d="m 0.28,-0.522 c -0.147,0 -0.239,0.103 -0.239,0.268 0,0.165 0.092,0.268 0.239,0.268 0.124,0 0.207,-0.085 0.217,-0.201 H 0.405 c -0.006,0.073 -0.056,0.129 -0.126,0.129 -0.09,0 -0.145,-0.074 -0.145,-0.196 0,-0.121 0.055,-0.196 0.145,-0.196 0.07,0 0.12,0.05 0.126,0.122 H 0.497 C 0.487,-0.442 0.402,-0.522 0.28,-0.522 Z"
               style="fill:#0000dc;fill-rule:nonzero"
               id="path11" /></g><g
             transform="matrix(12,0,0,12,250.521,35.9249)"
             id="g12"><path
               d="M 0.509,0 0.254,-0.278 0.482,-0.508 H 0.373 L 0.168,-0.297 H 0.166 V -0.712 H 0.078 V 0 H 0.166 V -0.254 H 0.168 L 0.393,0 Z"
               style="fill:#0000dc;fill-rule:nonzero"
               id="path12" /></g><g
             transform="matrix(12,0,0,12,256.377,35.9249)"
             id="g13"><path
               d="M 0.262,-0.569 0.385,-0.712 H 0.272 l -0.086,0.143 z m -0.003,0.047 c -0.129,0 -0.199,0.073 -0.204,0.169 h 0.088 c 0.003,-0.06 0.042,-0.101 0.116,-0.101 0.068,0 0.115,0.035 0.115,0.119 v 0.02 c -0.04,0.003 -0.102,0.01 -0.147,0.017 -0.146,0.023 -0.193,0.076 -0.193,0.16 0,0.086 0.066,0.149 0.172,0.149 0.082,0 0.141,-0.031 0.176,-0.085 h 0.002 c 0,0.023 0.002,0.051 0.007,0.074 h 0.08 C 0.464,-0.031 0.459,-0.074 0.459,-0.13 v -0.195 c 0,-0.134 -0.076,-0.197 -0.2,-0.197 z m 0.115,0.305 c 0,0.06 -0.01,0.088 -0.041,0.12 -0.025,0.026 -0.064,0.04 -0.105,0.04 -0.066,0 -0.104,-0.035 -0.104,-0.087 0,-0.05 0.03,-0.075 0.117,-0.088 0.039,-0.007 0.094,-0.013 0.133,-0.016 z"
               style="fill:#0000dc;fill-rule:nonzero"
               id="path13" /></g><g
             transform="matrix(12,0,0,12,193.029,49.6537)"
             id="g14"><path
               d="m 0.282,-0.522 c -0.149,0 -0.241,0.102 -0.241,0.268 0,0.166 0.092,0.268 0.241,0.268 0.149,0 0.242,-0.102 0.242,-0.268 0,-0.166 -0.093,-0.268 -0.242,-0.268 z m 0,0.072 c 0.093,0 0.15,0.075 0.15,0.196 0,0.121 -0.057,0.196 -0.15,0.196 -0.092,0 -0.149,-0.075 -0.149,-0.196 0,-0.121 0.057,-0.196 0.149,-0.196 z"
               style="fill:#0000dc;fill-rule:nonzero"
               id="path14" /></g><g
             transform="matrix(12,0,0,12,199.809,49.6537)"
             id="g15"><rect
               x="0.078000002"
               y="-0.71200001"
               width="0.088"
               height="0.71200001"
               style="fill:#0000dc;fill-rule:nonzero"
               id="rect14" /></g><g
             transform="matrix(12,0,0,12,202.737,49.6537)"
             id="g16"><path
               d="M 0.478,-0.508 H 0.385 L 0.237,-0.104 H 0.235 L 0.089,-0.508 h -0.095 l 0.193,0.51 C 0.154,0.092 0.128,0.116 0.061,0.116 0.045,0.116 0.031,0.114 0.019,0.11 v 0.074 c 0.013,0.004 0.029,0.005 0.046,0.005 0.109,0 0.159,-0.036 0.209,-0.166 z"
               style="fill:#0000dc;fill-rule:nonzero"
               id="path15" /></g><g
             transform="matrix(12,0,0,12,208.401,49.6537)"
             id="g17"><path
               d="m 0.619,-0.519 c -0.075,0 -0.127,0.035 -0.161,0.096 -0.027,-0.063 -0.081,-0.096 -0.151,-0.096 -0.059,0 -0.106,0.025 -0.142,0.074 H 0.163 V -0.508 H 0.078 V 0 h 0.088 v -0.282 c 0,-0.102 0.046,-0.165 0.121,-0.165 0.065,0 0.103,0.047 0.103,0.127 V 0 h 0.088 v -0.288 c 0,-0.097 0.046,-0.159 0.12,-0.159 0.065,0 0.104,0.038 0.104,0.14 V 0 H 0.79 v -0.314 c 0,-0.137 -0.063,-0.205 -0.171,-0.205 z"
               style="fill:#0000dc;fill-rule:nonzero"
               id="path16" /></g><g
             transform="matrix(12,0,0,12,218.757,49.6537)"
             id="g18"><path
               d="m 0.322,-0.521 c -0.068,0 -0.128,0.033 -0.155,0.086 H 0.165 V -0.508 H 0.078 v 0.693 h 0.088 v -0.257 h 0.002 c 0.028,0.051 0.087,0.084 0.155,0.084 0.129,0 0.212,-0.105 0.212,-0.267 0,-0.162 -0.083,-0.266 -0.213,-0.266 z M 0.3,-0.45 c 0.087,0 0.143,0.076 0.143,0.195 0,0.119 -0.056,0.196 -0.143,0.196 -0.084,0 -0.138,-0.075 -0.138,-0.196 0,-0.12 0.054,-0.195 0.138,-0.195 z"
               style="fill:#0000dc;fill-rule:nonzero"
               id="path17" /></g><g
             transform="matrix(12,0,0,12,225.669,49.6537)"
             id="g19"><path
               d="M 0.166,-0.613 V -0.712 H 0.078 v 0.099 z M 0.166,0 V -0.508 H 0.078 V 0 Z"
               style="fill:#0000dc;fill-rule:nonzero"
               id="path18" /></g><g
             transform="matrix(12,0,0,12,228.597,49.6537)"
             id="g20"><path
               d="M 0.262,-0.569 0.385,-0.712 H 0.272 l -0.086,0.143 z m -0.003,0.047 c -0.129,0 -0.199,0.073 -0.204,0.169 h 0.088 c 0.003,-0.06 0.042,-0.101 0.116,-0.101 0.068,0 0.115,0.035 0.115,0.119 v 0.02 c -0.04,0.003 -0.102,0.01 -0.147,0.017 -0.146,0.023 -0.193,0.076 -0.193,0.16 0,0.086 0.066,0.149 0.172,0.149 0.082,0 0.141,-0.031 0.176,-0.085 h 0.002 c 0,0.023 0.002,0.051 0.007,0.074 h 0.08 C 0.464,-0.031 0.459,-0.074 0.459,-0.13 v -0.195 c 0,-0.134 -0.076,-0.197 -0.2,-0.197 z m 0.115,0.305 c 0,0.06 -0.01,0.088 -0.041,0.12 -0.025,0.026 -0.064,0.04 -0.105,0.04 -0.066,0 -0.104,-0.035 -0.104,-0.087 0,-0.05 0.03,-0.075 0.117,-0.088 0.039,-0.007 0.094,-0.013 0.133,-0.016 z"
               style="fill:#0000dc;fill-rule:nonzero"
               id="path19" /></g><g
             transform="matrix(12,0,0,12,234.969,49.6537)"
             id="g21"><path
               d="M 0.498,0 V -0.712 H 0.41 v 0.274 H 0.408 C 0.38,-0.489 0.321,-0.521 0.253,-0.521 c -0.129,0 -0.212,0.104 -0.212,0.266 0,0.162 0.083,0.267 0.213,0.267 0.069,0 0.128,-0.033 0.156,-0.086 H 0.412 V 0 Z M 0.276,-0.45 c 0.084,0 0.139,0.075 0.139,0.195 0,0.121 -0.055,0.196 -0.139,0.196 -0.087,0 -0.143,-0.077 -0.143,-0.196 0,-0.119 0.056,-0.195 0.143,-0.195 z"
               style="fill:#0000dc;fill-rule:nonzero"
               id="path20" /></g><g
             transform="matrix(12,0,0,12,241.881,49.6537)"
             id="g22"><path
               d="m 0.259,-0.522 c -0.129,0 -0.199,0.073 -0.204,0.169 h 0.088 c 0.003,-0.06 0.042,-0.101 0.116,-0.101 0.068,0 0.115,0.035 0.115,0.119 v 0.02 c -0.04,0.003 -0.102,0.01 -0.147,0.017 -0.146,0.023 -0.193,0.076 -0.193,0.16 0,0.086 0.066,0.149 0.172,0.149 0.082,0 0.141,-0.031 0.176,-0.085 h 0.002 c 0,0.023 0.002,0.051 0.007,0.074 h 0.08 C 0.464,-0.031 0.459,-0.074 0.459,-0.13 v -0.195 c 0,-0.134 -0.076,-0.197 -0.2,-0.197 z m 0.115,0.305 c 0,0.06 -0.01,0.088 -0.041,0.12 -0.025,0.026 -0.064,0.04 -0.105,0.04 -0.066,0 -0.104,-0.035 -0.104,-0.087 0,-0.05 0.03,-0.075 0.117,-0.088 0.039,-0.007 0.094,-0.013 0.133,-0.016 z"
               style="fill:#0000dc;fill-rule:nonzero"
               id="path21" /></g></g></g></g></g></svg>
