<?xml version="1.0" standalone="no"?>
<!DOCTYPE svg PUBLIC "-//W3C//DTD SVG 20010904//EN"
 "http://www.w3.org/TR/2001/REC-SVG-20010904/DTD/svg10.dtd">
<svg version="1.0" xmlns="http://www.w3.org/2000/svg"
 width="1220.000000pt" height="420.000000pt" viewBox="0 0 1220.000000 420.000000"
 preserveAspectRatio="xMidYMid meet">

<g transform="translate(0.000000,420.000000) scale(0.100000,-0.100000)"
fill="#32be88" stroke="none">
<path d="M0 2100 l0 -2100 6100 0 6100 0 0 2100 0 2100 -6100 0 -6100 0 0
-2100z m1600 1800 l0 -100 -400 0 -400 0 0 -200 0 -200 -100 0 -100 0 0 200 0
200 -100 0 -100 0 0 -300 0 -300 300 0 300 0 0 200 0 200 400 0 400 0 0 200 0
200 500 0 500 0 0 -100 0 -100 -200 0 -200 0 0 -100 0 -100 300 0 300 0 0 200
0 200 300 0 300 0 0 -200 0 -200 100 0 100 0 0 200 0 200 500 0 500 0 0 -200
0 -200 200 0 200 0 0 -200 0 -200 600 0 600 0 0 -300 0 -300 -200 0 -200 0 0
-300 0 -300 400 0 400 0 0 -400 0 -400 100 0 100 0 0 400 0 400 400 0 400 0 0
100 0 100 -200 0 -200 0 0 300 0 300 500 0 500 0 0 -200 0 -200 400 0 400 0 0
-300 0 -300 -400 0 -400 0 0 -200 0 -200 -400 0 -400 0 0 -100 0 -100 200 0
200 0 0 -300 0 -300 -300 0 -300 0 0 100 0 100 200 0 200 0 0 100 0 100 -200
0 -200 0 0 300 0 300 400 0 400 0 0 200 0 200 400 0 400 0 0 100 0 100 -400 0
-400 0 0 200 0 200 -300 0 -300 0 0 -100 0 -100 200 0 200 0 0 -300 0 -300
-400 0 -400 0 0 -400 0 -400 -300 0 -300 0 0 400 0 400 -400 0 -400 0 0 500 0
500 200 0 200 0 0 100 0 100 -600 0 -600 0 0 200 0 200 -200 0 -200 0 0 200 0
200 -300 0 -300 0 0 -200 0 -200 -300 0 -300 0 0 200 0 200 -100 0 -100 0 0
-200 0 -200 -500 0 -500 0 0 200 0 200 -100 0 -100 0 0 -200 0 -200 -400 0
-400 0 0 -200 0 -200 -400 0 -400 0 0 -100 0 -100 200 0 200 0 0 -500 0 -500
-200 0 -200 0 0 -300 0 -300 100 0 100 0 0 200 0 200 300 0 300 0 0 -500 0
-500 -200 0 -200 0 0 -100 0 -100 300 0 300 0 0 400 0 400 200 0 200 0 0 200
0 200 300 0 300 0 0 -200 0 -200 100 0 100 0 0 300 0 300 -200 0 -200 0 0 600
0 600 -100 0 -100 0 0 -600 0 -600 -200 0 -200 0 0 -200 0 -200 -100 0 -100 0
0 200 0 200 -200 0 -200 0 0 300 0 300 200 0 200 0 0 100 0 100 -200 0 -200 0
0 100 0 100 200 0 200 0 0 200 0 200 100 0 100 0 0 -500 0 -500 -200 0 -200 0
0 -100 0 -100 300 0 300 0 0 600 0 600 500 0 500 0 0 -400 0 -400 400 0 400 0
0 -200 0 -200 800 0 800 0 0 -300 0 -300 -600 0 -600 0 0 -200 0 -200 -300 0
-300 0 0 200 0 200 -100 0 -100 0 0 -400 0 -400 -600 0 -600 0 0 -100 0 -100
900 0 900 0 0 100 0 100 -200 0 -200 0 0 100 0 100 900 0 900 0 0 -200 0 -200
100 0 100 0 0 300 0 300 -600 0 -600 0 0 100 0 100 800 0 800 0 0 100 0 100
-200 0 -200 0 0 400 0 400 -400 0 -400 0 0 400 0 400 -700 0 -700 0 0 -100 0
-100 600 0 600 0 0 -300 0 -300 -300 0 -300 0 0 100 0 100 200 0 200 0 0 100
0 100 -600 0 -600 0 0 300 0 300 600 0 600 0 0 200 0 200 100 0 100 0 0 -200
0 -200 200 0 200 0 0 -200 0 -200 400 0 400 0 0 -100 0 -100 -400 0 -400 0 0
-100 0 -100 400 0 400 0 0 -400 0 -400 400 0 400 0 0 -400 0 -400 200 0 200 0
0 -200 0 -200 100 0 100 0 0 200 0 200 100 0 100 0 0 -200 0 -200 700 0 700 0
0 100 0 100 -200 0 -200 0 0 300 0 300 200 0 200 0 0 200 0 200 300 0 300 0 0
-400 0 -400 800 0 800 0 0 -200 0 -200 100 0 100 0 0 200 0 200 400 0 400 0 0
500 0 500 -200 0 -200 0 0 200 0 200 -200 0 -200 0 0 300 0 300 400 0 400 0 0
100 0 100 -200 0 -200 0 0 200 0 200 -100 0 -100 0 0 -200 0 -200 -600 0 -600
0 0 -100 0 -100 200 0 200 0 0 -200 0 -200 100 0 100 0 0 200 0 200 100 0 100
0 0 -700 0 -700 -500 0 -500 0 0 200 0 200 -100 0 -100 0 0 -300 0 -300 900 0
900 0 0 100 0 100 -200 0 -200 0 0 300 0 300 100 0 100 0 0 -200 0 -200 200 0
200 0 0 -300 0 -300 -1100 0 -1100 0 0 1400 0 1400 -300 0 -300 0 0 -200 0
-200 -300 0 -300 0 0 200 0 200 -300 0 -300 0 0 -200 0 -200 -400 0 -400 0 0
-500 0 -500 100 0 100 0 0 400 0 400 400 0 400 0 0 200 0 200 100 0 100 0 0
-200 0 -200 400 0 400 0 0 -200 0 -200 100 0 100 0 0 400 0 400 100 0 100 0 0
-500 0 -500 -300 0 -300 0 0 200 0 200 -700 0 -700 0 0 -400 0 -400 -500 0
-500 0 0 100 0 100 200 0 200 0 0 500 0 500 -200 0 -200 0 0 200 0 200 -300 0
-300 0 0 -100 0 -100 200 0 200 0 0 -100 0 -100 -300 0 -300 0 0 200 0 200
-200 0 -200 0 0 100 0 100 1100 0 1100 0 0 -100 0 -100 -400 0 -400 0 0 -100
0 -100 500 0 500 0 0 200 0 200 500 0 500 0 0 -200 0 -200 100 0 100 0 0 200
0 200 700 0 700 0 0 -200 0 -200 100 0 100 0 0 200 0 200 900 0 900 0 0 -300
0 -300 -100 0 -100 0 0 200 0 200 -500 0 -500 0 0 -200 0 -200 -100 0 -100 0
0 200 0 200 -100 0 -100 0 0 -200 0 -200 -300 0 -300 0 0 200 0 200 -100 0
-100 0 0 -700 0 -700 200 0 200 0 0 -100 0 -100 -200 0 -200 0 0 -100 0 -100
400 0 400 0 0 -100 0 -100 -200 0 -200 0 0 -100 0 -100 300 0 300 0 0 300 0
300 -200 0 -200 0 0 200 0 200 -200 0 -200 0 0 300 0 300 600 0 600 0 0 200 0
200 300 0 300 0 0 -200 0 -200 200 0 200 0 0 -500 0 -500 -100 0 -100 0 0 200
0 200 -300 0 -300 0 0 -100 0 -100 200 0 200 0 0 -200 0 -200 200 0 200 0 0
-900 0 -900 -300 0 -300 0 0 100 0 100 200 0 200 0 0 100 0 100 -300 0 -300 0
0 -200 0 -200 -1100 0 -1100 0 0 100 0 100 800 0 800 0 0 100 0 100 -800 0
-800 0 0 400 0 400 -100 0 -100 0 0 -200 0 -200 -200 0 -200 0 0 -100 0 -100
200 0 200 0 0 -300 0 -300 -1500 0 -1500 0 0 300 0 300 100 0 100 0 0 -200 0
-200 300 0 300 0 0 100 0 100 -200 0 -200 0 0 400 0 400 -100 0 -100 0 0 -200
0 -200 -200 0 -200 0 0 -400 0 -400 -700 0 -700 0 0 100 0 100 400 0 400 0 0
100 0 100 -500 0 -500 0 0 -200 0 -200 -1100 0 -1100 0 0 300 0 300 600 0 600
0 0 600 0 600 100 0 100 0 0 -200 0 -200 200 0 200 0 0 -200 0 -200 100 0 100
0 0 200 0 200 600 0 600 0 0 100 0 100 -800 0 -800 0 0 200 0 200 -400 0 -400
0 0 400 0 400 -100 0 -100 0 0 -500 0 -500 200 0 200 0 0 -500 0 -500 -300 0
-300 0 0 200 0 200 -100 0 -100 0 0 -200 0 -200 -200 0 -200 0 0 -400 0 -400
-700 0 -700 0 0 300 0 300 100 0 100 0 0 -200 0 -200 100 0 100 0 0 200 0 200
200 0 200 0 0 300 0 300 -100 0 -100 0 0 -200 0 -200 -300 0 -300 0 0 700 0
700 100 0 100 0 0 -200 0 -200 100 0 100 0 0 300 0 300 -200 0 -200 0 0 700 0
700 700 0 700 0 0 -100z"/>
</g>
</svg>
